<svg id="CONTRACT" xmlns="http://www.w3.org/2000/svg" width="30.618" height="45.919" viewBox="0 0 30.618 45.919">
  <path id="Path_442" data-name="Path 442" d="M54.86,5.74A5.745,5.745,0,0,0,49.12,0H28.547a1.939,1.939,0,0,0-1.578.825,1.881,1.881,0,0,0-.206,1.767L40.636,38.941a1.9,1.9,0,0,0,1.785,1.229h6.7a5.745,5.745,0,0,0,5.74-5.74V26.78" transform="translate(-24.242)" fill="#647b8e"/>
  <path id="Path_443" data-name="Path 443" d="M234.7,213.3" transform="translate(-213.651 -194.17)" fill="#647b8e"/>
  <path id="Path_444" data-name="Path 444" d="M110.715,213.3H98.5l7.56,19.811a1.9,1.9,0,0,0,1.785,1.229h6.7a5.745,5.745,0,0,0,5.74-5.74v-7.65" transform="translate(-89.666 -194.17)" fill="#647b8e"/>
  <path id="Path_445" data-name="Path 445" d="M16.538,4.07,5.049.241A3.855,3.855,0,0,0,0,3.882V38.321a3.852,3.852,0,0,0,2.592,3.632l11.5,3.83a3.882,3.882,0,0,0,1.22.188,3.833,3.833,0,0,0,3.83-3.83V7.7a3.872,3.872,0,0,0-2.6-3.632Z" transform="translate(0 -0.052)" fill="#7e97b0"/>
  <path id="Path_446" data-name="Path 446" d="M19.13,256H0v15.309a3.852,3.852,0,0,0,2.592,3.632l11.5,3.83a3.881,3.881,0,0,0,1.22.188,3.833,3.833,0,0,0,3.83-3.83L19.13,256Z" transform="translate(0 -233.041)" fill="#7e97b0"/>
</svg>
