<svg xmlns="http://www.w3.org/2000/svg" width="81.44" height="30.566" viewBox="0 0 81.44 30.566">
  <g id="Group_572" data-name="Group 572" transform="translate(-1504.559 -416.217)">
    <g id="Group_118" data-name="Group 118" transform="translate(1173.892 -6.125)">
      <g id="Group_114" data-name="Group 114" transform="translate(-55.695 13.408)">
        <text id="Send" transform="translate(423.803 430.717)" fill="#fff" font-size="18" font-family="HelveticaNeueMedium, HelveticaNeue"><tspan x="0" y="0">Send</tspan></text>
      </g>
    </g>
    <g id="SEND-2" data-name="SEND" transform="translate(1120.794 149.117)">
      <path id="Path_436" data-name="Path 436" d="M474.32,297.666l-3.32-15.6L497.625,267.1Z" transform="translate(-81.769)" fill="#647b8e"/>
      <path id="Path_437" data-name="Path 437" d="M389.231,282.067l-5.2-4.26a.991.991,0,0,1-.188-1,1.051,1.051,0,0,1,.752-.564l31.261-9.14Z" fill="#7f98b1"/>
      <path id="Path_438" data-name="Path 438" d="M527.759,583,524,593.776l12.592-7.768Z" transform="translate(-131.449 -296.109)" fill="#425766"/>
      <path id="Path_439" data-name="Path 439" d="M584,286.891l11.4,9.272s1.253.689,1.566-.5,6.578-28.561,6.578-28.561Z" transform="translate(-187.69)" fill="#7f98b1"/>
    </g>
  </g>
</svg>
