<svg xmlns="http://www.w3.org/2000/svg" xmlns:xlink="http://www.w3.org/1999/xlink" width="74.291" height="72.388" viewBox="0 0 74.291 72.388">
  <defs>
    <filter id="Icon_ionic-ios-lock" x="45.291" y="37.388" width="29" height="35.001" filterUnits="userSpaceOnUse">
      <feOffset dx="3" input="SourceAlpha"/>
      <feGaussianBlur stdDeviation="1.5" result="blur"/>
      <feFlood flood-opacity="0.161"/>
      <feComposite operator="in" in2="blur"/>
      <feComposite in="SourceGraphic"/>
    </filter>
  </defs>
  <g id="Group_140" data-name="Group 140" transform="translate(-911 -355)">
    <path id="Icon_awesome-file-contract" data-name="Icon awesome-file-contract" d="M29.7,18.033V0H3.182A3.175,3.175,0,0,0,0,3.182V64.706a3.175,3.175,0,0,0,3.182,3.182H47.734a3.175,3.175,0,0,0,3.182-3.182V21.215H32.883A3.192,3.192,0,0,1,29.7,18.033ZM8.486,9.547A1.06,1.06,0,0,1,9.547,8.486H20.154a1.06,1.06,0,0,1,1.061,1.061v2.122a1.06,1.06,0,0,1-1.061,1.061H9.547a1.06,1.06,0,0,1-1.061-1.061Zm0,8.486a1.06,1.06,0,0,1,1.061-1.061H20.154a1.06,1.06,0,0,1,1.061,1.061v2.122a1.06,1.06,0,0,1-1.061,1.061H9.547a1.06,1.06,0,0,1-1.061-1.061ZM34.052,50.916h6.257a2.122,2.122,0,1,1,0,4.243H34.052A5.7,5.7,0,0,1,28.928,52a1.469,1.469,0,0,0-1.348-.865,1.446,1.446,0,0,0-1.329.821l-1.017,2.034a2.12,2.12,0,0,1-1.9,1.172c-.05,0-.1,0-.151-.007a2.114,2.114,0,0,1-1.86-1.444l-2.232-6.691-1.407,4.227a5.724,5.724,0,0,1-5.436,3.916H10.608a2.122,2.122,0,1,1,0-4.243H12.25A1.486,1.486,0,0,0,13.661,49.9l2.412-7.245a3.184,3.184,0,0,1,6.04,0l1.84,5.521A5.95,5.95,0,0,1,32.7,50.054,1.513,1.513,0,0,0,34.052,50.916ZM49.988,13.922,37.007.928A3.18,3.18,0,0,0,34.753,0h-.809V16.972H50.916v-.809A3.172,3.172,0,0,0,49.988,13.922Z" transform="translate(911 355)" fill="#fff"/>
    <g transform="matrix(1, 0, 0, 1, 911, 355)" filter="url(#Icon_ionic-ios-lock)">
      <path id="Icon_ionic-ios-lock-2" data-name="Icon ionic-ios-lock" d="M24.25,12.375h-1.5V9.456a6,6,0,1,0-12-.081v3H9.25a2.507,2.507,0,0,0-2.5,2.5v12a2.507,2.507,0,0,0,2.5,2.5h15a2.507,2.507,0,0,0,2.5-2.5v-12A2.507,2.507,0,0,0,24.25,12.375Zm-6.625,7.8v4.3a.9.9,0,0,1-.831.9.876.876,0,0,1-.919-.875V20.175a2,2,0,1,1,1.75,0ZM21,12.375H12.5v-3a4.25,4.25,0,0,1,8.5,0Z" transform="translate(40.04 38.51)" fill="#868c8c"/>
    </g>
  </g>
</svg>
