<svg xmlns="http://www.w3.org/2000/svg" width="30.521" height="43.85" viewBox="0 0 30.521 43.85">
  <g id="Group_812" data-name="Group 812" transform="translate(-20 -105)">
    <g id="Group_429" data-name="Group 429" transform="translate(20 105)">
      <path id="Path_283" data-name="Path 283" d="M54.4,5.319A5.5,5.5,0,0,0,48.754,0H28.516a1.944,1.944,0,0,0-1.553.765,1.658,1.658,0,0,0-.2,1.637L40.408,36.089a1.872,1.872,0,0,0,1.756,1.139h6.59A5.5,5.5,0,0,0,54.4,31.908v-7.09" transform="translate(-23.879)" fill="#7634f4"/>
      <path id="Path_285" data-name="Path 285" d="M112.572,213.3H98.5l8.71,22.823a2.192,2.192,0,0,0,2.056,1.415h7.718a6.618,6.618,0,0,0,6.612-6.612v-8.813" transform="translate(-93.074 -200.311)" fill="#7634f4"/>
      <path id="Path_286" data-name="Path 286" d="M19.052,3.889,5.817.232C2.821-.53,0,1.3,0,3.709V36.6a3.8,3.8,0,0,0,2.986,3.469l13.245,3.657a5.327,5.327,0,0,0,1.405.18c2.428,0,4.412-1.636,4.412-3.657V7.358a3.823,3.823,0,0,0-3-3.469Z" transform="translate(0 -0.051)" fill="#b88bfe"/>
      <path id="Path_287" data-name="Path 287" d="M22.038,256H0v17.636a4.437,4.437,0,0,0,2.986,4.184l13.245,4.412a4.472,4.472,0,0,0,1.405.217,4.416,4.416,0,0,0,4.412-4.412L22.038,256Z" transform="translate(0 -238.599)" fill="#b88bfe"/>
    </g>
  </g>
</svg>
