<svg xmlns="http://www.w3.org/2000/svg" width="29.143" height="25.5" viewBox="0 0 29.143 25.5">
  <path id="Icon_awesome-wallet" data-name="Icon awesome-wallet" d="M26.251,7.714H4.554a.911.911,0,1,1,0-1.821H26.411a.91.91,0,0,0,.911-.911A2.732,2.732,0,0,0,24.589,2.25H3.643A3.643,3.643,0,0,0,0,5.893V24.107A3.643,3.643,0,0,0,3.643,27.75H26.251a2.818,2.818,0,0,0,2.892-2.732V10.446A2.818,2.818,0,0,0,26.251,7.714ZM23.679,19.554A1.821,1.821,0,1,1,25.5,17.732,1.822,1.822,0,0,1,23.679,19.554Z" transform="translate(0 -2.25)" fill="#fff"/>
</svg>
