<svg xmlns="http://www.w3.org/2000/svg" width="29.992" height="30" viewBox="0 0 29.992 30">
  <path id="Icon_ionic-ios-settings" data-name="Icon ionic-ios-settings" d="M32.016,19.5a3.859,3.859,0,0,1,2.476-3.6,15.3,15.3,0,0,0-1.851-4.46,3.911,3.911,0,0,1-1.57.336,3.851,3.851,0,0,1-3.523-5.42A15.252,15.252,0,0,0,23.1,4.5a3.856,3.856,0,0,1-7.2,0,15.3,15.3,0,0,0-4.46,1.851,3.851,3.851,0,0,1-3.523,5.42,3.784,3.784,0,0,1-1.57-.336A15.636,15.636,0,0,0,4.5,15.9a3.858,3.858,0,0,1,.008,7.2,15.3,15.3,0,0,0,1.851,4.46,3.852,3.852,0,0,1,5.085,5.085A15.387,15.387,0,0,0,15.9,34.5a3.849,3.849,0,0,1,7.186,0,15.3,15.3,0,0,0,4.46-1.851,3.856,3.856,0,0,1,5.085-5.085,15.387,15.387,0,0,0,1.851-4.46A3.878,3.878,0,0,1,32.016,19.5Zm-12.45,6.241a6.248,6.248,0,1,1,6.248-6.248A6.247,6.247,0,0,1,19.566,25.737Z" transform="translate(-4.5 -4.5)" fill="#fff"/>
</svg>
