<svg xmlns="http://www.w3.org/2000/svg" width="24.907" height="33.21" viewBox="0 0 24.907 33.21">
  <path id="Icon_awesome-file-contract" data-name="Icon awesome-file-contract" d="M14.529,8.821V0H1.557A1.553,1.553,0,0,0,0,1.557v30.1A1.553,1.553,0,0,0,1.557,33.21H23.351a1.553,1.553,0,0,0,1.557-1.557V10.378H16.086A1.561,1.561,0,0,1,14.529,8.821ZM4.151,4.67a.519.519,0,0,1,.519-.519H9.859a.519.519,0,0,1,.519.519V5.708a.519.519,0,0,1-.519.519H4.67a.519.519,0,0,1-.519-.519Zm0,4.151A.519.519,0,0,1,4.67,8.3H9.859a.519.519,0,0,1,.519.519V9.859a.519.519,0,0,1-.519.519H4.67a.519.519,0,0,1-.519-.519ZM16.657,24.907h3.061a1.038,1.038,0,0,1,0,2.076H16.657a2.789,2.789,0,0,1-2.506-1.548.719.719,0,0,0-.66-.423.707.707,0,0,0-.65.4l-.5.995a1.037,1.037,0,0,1-.928.573c-.025,0-.049,0-.074,0a1.034,1.034,0,0,1-.91-.706L9.34,23l-.688,2.068a2.8,2.8,0,0,1-2.659,1.915h-.8a1.038,1.038,0,1,1,0-2.076h.8a.727.727,0,0,0,.69-.5l1.18-3.544a1.557,1.557,0,0,1,2.955,0l.9,2.7A2.911,2.911,0,0,1,16,24.486.74.74,0,0,0,16.657,24.907Zm7.8-18.1L18.1.454A1.556,1.556,0,0,0,17,0h-.4V8.3h8.3v-.4A1.552,1.552,0,0,0,24.453,6.811Z" fill="#fff"/>
</svg>
