<svg xmlns="http://www.w3.org/2000/svg" width="26.596" height="33.995" viewBox="0 0 26.596 33.995">
  <g id="KEYSTORE_grey" data-name="KEYSTORE grey" transform="translate(0.5)">
    <path id="Path_124" data-name="Path 124" d="M307.552,137.764v21.975a2.009,2.009,0,0,1-2,2H286.5a2.009,2.009,0,0,1-2-2V133.5a2.009,2.009,0,0,1,2-2h14.784" transform="translate(-284.5 -130.59)" fill="#425766" stroke="#425766" stroke-width="1"/>
    <path id="Path_125" data-name="Path 125" d="M317.952,127.364v21.975a2.009,2.009,0,0,1-2,2H296.9a2.009,2.009,0,0,1-2-2V123.1a2.009,2.009,0,0,1,2-2h14.784" transform="translate(-293.99 -121.1)" fill="#7e97b0"/>
    <g id="Group_68" data-name="Group 68" transform="translate(4.024 4.222)">
      <g id="Group_64" data-name="Group 64" transform="translate(0 0)">
        <path id="Path_126" data-name="Path 126" d="M331.594,175.279v-3.755H330.5v-.516a1.532,1.532,0,0,0,1.339-.612h.551v4.881Z" transform="translate(-330.5 -170.307)" fill="#425766"/>
        <path id="Path_127" data-name="Path 127" d="M363.874,170.805v2.555a1.287,1.287,0,0,1-2.574,0v-2.555a1.287,1.287,0,0,1,2.574,0Zm-1.767.009v2.537c0,.359.175.56.49.56s.49-.192.49-.56v-2.537c0-.359-.175-.56-.49-.56s-.491.192-.491.559Z" transform="translate(-358.606 -169.551)" fill="#425766"/>
        <path id="Path_128" data-name="Path 128" d="M397.594,175.279v-3.755H396.5v-.516a1.531,1.531,0,0,0,1.339-.612h.551v4.881Z" transform="translate(-390.726 -170.307)" fill="#425766"/>
        <path id="Path_129" data-name="Path 129" d="M429.974,170.8v2.555a1.287,1.287,0,0,1-2.574,0V170.8a1.287,1.287,0,0,1,2.574,0Zm-1.767.009v2.537c0,.359.175.56.49.56s.49-.192.49-.56v-2.537c0-.359-.175-.56-.49-.56s-.491.192-.491.559Z" transform="translate(-418.923 -169.55)" fill="#425766"/>
        <path id="Path_130" data-name="Path 130" d="M463.694,175.279v-3.755H462.6v-.516a1.53,1.53,0,0,0,1.338-.612h.551v4.881Z" transform="translate(-451.044 -170.307)" fill="#425766"/>
        <path id="Path_131" data-name="Path 131" d="M496.074,170.805v2.555a1.287,1.287,0,0,1-2.574,0v-2.555a1.287,1.287,0,0,1,2.574,0Zm-1.776.009v2.537c0,.359.175.56.49.56s.49-.192.49-.56v-2.537c0-.359-.175-.56-.49-.56s-.491.192-.491.559Z" transform="translate(-479.24 -169.551)" fill="#425766"/>
      </g>
      <g id="Group_65" data-name="Group 65" transform="translate(0 5.923)">
        <path id="Path_132" data-name="Path 132" d="M331.594,242.979v-3.755H330.5v-.516a1.531,1.531,0,0,0,1.339-.612h.551v4.881Z" transform="translate(-330.5 -238.007)" fill="#425766"/>
        <path id="Path_133" data-name="Path 133" d="M360.394,242.979v-3.755H359.3v-.516a1.531,1.531,0,0,0,1.339-.612h.551v4.881Z" transform="translate(-356.78 -238.007)" fill="#425766"/>
        <path id="Path_134" data-name="Path 134" d="M392.774,238.505v2.555a1.287,1.287,0,0,1-2.574,0v-2.555a1.287,1.287,0,0,1,2.574,0Zm-1.767.009v2.537c0,.359.175.56.49.56s.49-.192.49-.56v-2.537c0-.359-.175-.56-.49-.56s-.491.2-.491.559Z" transform="translate(-384.977 -237.251)" fill="#425766"/>
        <path id="Path_135" data-name="Path 135" d="M429.974,238.5v2.555a1.287,1.287,0,0,1-2.574,0V238.5a1.287,1.287,0,0,1,2.574,0Zm-1.767.009v2.537c0,.359.175.56.49.56s.49-.192.49-.56v-2.537c0-.359-.175-.56-.49-.56s-.491.2-.491.559Z" transform="translate(-418.923 -237.25)" fill="#425766"/>
        <path id="Path_136" data-name="Path 136" d="M463.694,242.979v-3.755H462.6v-.516a1.53,1.53,0,0,0,1.338-.612h.551v4.881Z" transform="translate(-451.044 -238.007)" fill="#425766"/>
        <path id="Path_137" data-name="Path 137" d="M496.074,238.505v2.555a1.287,1.287,0,0,1-2.574,0v-2.555a1.287,1.287,0,0,1,2.574,0Zm-1.776.009v2.537c0,.359.175.56.49.56s.49-.192.49-.56v-2.537c0-.359-.175-.56-.49-.56s-.491.2-.491.559Z" transform="translate(-479.24 -237.251)" fill="#425766"/>
      </g>
      <g id="Group_66" data-name="Group 66" transform="translate(0.166 11.915)">
        <path id="Path_138" data-name="Path 138" d="M334.974,307.005v2.555a1.287,1.287,0,0,1-2.574,0v-2.555a1.287,1.287,0,0,1,2.574,0Zm-1.767.009v2.537c0,.359.175.56.49.56s.49-.192.49-.56v-2.537c0-.359-.175-.56-.49-.56s-.491.2-.491.559Z" transform="translate(-332.4 -305.751)" fill="#425766"/>
        <path id="Path_139" data-name="Path 139" d="M368.794,311.579v-3.755H367.7v-.516a1.53,1.53,0,0,0,1.338-.612h.551v4.881Z" transform="translate(-364.612 -306.598)" fill="#425766"/>
        <path id="Path_140" data-name="Path 140" d="M397.594,311.579v-3.755H396.5v-.516a1.531,1.531,0,0,0,1.339-.612h.551v4.881Z" transform="translate(-390.893 -306.598)" fill="#425766"/>
        <path id="Path_141" data-name="Path 141" d="M429.974,307v2.555a1.287,1.287,0,0,1-2.574,0V307a1.287,1.287,0,0,1,2.574,0Zm-1.767.009v2.537c0,.359.175.56.49.56s.49-.192.49-.56v-2.537c0-.359-.175-.56-.49-.56s-.491.2-.491.559Z" transform="translate(-419.089 -305.75)" fill="#425766"/>
        <path id="Path_142" data-name="Path 142" d="M467.174,307.005v2.555a1.287,1.287,0,0,1-2.574,0v-2.555a1.287,1.287,0,0,1,2.574,0Zm-1.767.009v2.537c0,.359.175.56.49.56s.49-.192.49-.56v-2.537c0-.359-.175-.56-.49-.56s-.491.2-.491.559Z" transform="translate(-453.035 -305.751)" fill="#425766"/>
        <path id="Path_143" data-name="Path 143" d="M500.894,311.579v-3.755H499.8v-.516a1.532,1.532,0,0,0,1.339-.612h.551v4.881Z" transform="translate(-485.156 -306.598)" fill="#425766"/>
      </g>
      <g id="Group_67" data-name="Group 67" transform="translate(0.166 17.986)">
        <path id="Path_144" data-name="Path 144" d="M334.974,376.405v2.555a1.287,1.287,0,0,1-2.574,0v-2.555a1.287,1.287,0,0,1,2.574,0Zm-1.767.009v2.537c0,.359.175.56.49.56s.49-.192.49-.56v-2.537c0-.359-.175-.56-.49-.56s-.491.2-.491.559Z" transform="translate(-332.4 -375.151)" fill="#425766"/>
        <path id="Path_145" data-name="Path 145" d="M368.794,380.888v-3.755H367.7v-.525a1.53,1.53,0,0,0,1.338-.612h.551v4.881h-.8Z" transform="translate(-364.612 -375.907)" fill="#425766"/>
        <path id="Path_146" data-name="Path 146" d="M397.594,380.888v-3.755H396.5v-.525a1.531,1.531,0,0,0,1.339-.612h.551v4.881h-.8Z" transform="translate(-390.893 -375.907)" fill="#425766"/>
        <path id="Path_147" data-name="Path 147" d="M429.974,376.4v2.555a1.287,1.287,0,0,1-2.574,0V376.4a1.287,1.287,0,0,1,2.574,0Zm-1.767.009v2.537c0,.359.175.56.49.56s.49-.192.49-.56v-2.537c0-.359-.175-.56-.49-.56s-.491.2-.491.559Z" transform="translate(-419.089 -375.15)" fill="#425766"/>
        <path id="Path_148" data-name="Path 148" d="M467.174,376.405v2.555a1.287,1.287,0,0,1-2.574,0v-2.555a1.287,1.287,0,0,1,2.574,0Zm-1.767.009v2.537c0,.359.175.56.49.56s.49-.192.49-.56v-2.537c0-.359-.175-.56-.49-.56s-.491.2-.491.559Z" transform="translate(-453.035 -375.151)" fill="#425766"/>
        <path id="Path_149" data-name="Path 149" d="M500.894,380.888v-3.755H499.8v-.525a1.532,1.532,0,0,0,1.339-.612h.551v4.881h-.8Z" transform="translate(-485.156 -375.907)" fill="#425766"/>
      </g>
    </g>
    <path id="Path_150" data-name="Path 150" d="M493.064,127.372h-4.628a1.639,1.639,0,0,1-1.636-1.636V121.1" transform="translate(-469.102 -121.1)" fill="#425766"/>
    <g id="Group_69" data-name="Group 69" transform="translate(13.464 18.537)">
      <path id="Path_151" data-name="Path 151" d="M475.539,333H474.13a2.739,2.739,0,0,0-2.729,2.729v2.729a2.739,2.739,0,0,0,2.729,2.729h1.408a2.739,2.739,0,0,0,2.729-2.729v-2.729A2.733,2.733,0,0,0,475.539,333Zm1.139,4.549a1.464,1.464,0,0,1-1.461,1.461h-.752A1.464,1.464,0,0,1,473,337.549v-1.461a1.463,1.463,0,0,1,1.461-1.461h.752a1.464,1.464,0,0,1,1.461,1.461Z" transform="translate(-468.514 -333)" fill="#647b8e"/>
      <path id="Path_152" data-name="Path 152" d="M451.032,398.191a1.284,1.284,0,0,1-1.277,1.277H439.677a1.284,1.284,0,0,1-1.277-1.277v-8.013a1.284,1.284,0,0,1,1.277-1.277h10.069a1.284,1.284,0,0,1,1.277,1.277v8.013Z" transform="translate(-438.4 -384.01)" fill="#647b8e"/>
      <rect id="Rectangle_31" data-name="Rectangle 31" width="12.518" height="1.968" transform="translate(0.052 7.392)" fill="#425766"/>
    </g>
  </g>
</svg>
