<svg id="LOGOUT_6_" data-name="LOGOUT (6)" xmlns="http://www.w3.org/2000/svg" width="33.997" height="33.995" viewBox="0 0 33.997 33.995">
  <path id="Path_237" data-name="Path 237" d="M44.695,18.412a4.249,4.249,0,0,1,0-8.5H47.53V4.249A4.253,4.253,0,0,0,43.281,0H28.049a1.435,1.435,0,0,0-1.169.611,1.392,1.392,0,0,0-.153,1.308L37,28.829a1.408,1.408,0,0,0,1.321.91h4.96A4.253,4.253,0,0,0,47.53,25.49V18.412Z" transform="translate(-24.862)" fill="#647b8e"/>
  <path id="Path_238" data-name="Path 238" d="M107.543,213.3H98.5l5.6,14.667a1.408,1.408,0,0,0,1.321.91h4.96a4.253,4.253,0,0,0,4.249-4.249v-7.078h-2.835a4.253,4.253,0,0,1-4.249-4.249Z" transform="translate(-91.96 -199.138)" fill="#647b8e"/>
  <path id="Path_239" data-name="Path 239" d="M285.354,120.822a1.416,1.416,0,0,1-.876-1.308v-4.249h-5.664a1.414,1.414,0,0,1,0-2.828h5.664v-4.249a1.421,1.421,0,0,1,2.423-1l5.664,5.664a1.423,1.423,0,0,1,0,2.005l-5.664,5.664a1.426,1.426,0,0,1-1.547.305Z" transform="translate(-258.982 -99.681)" fill="#647b8e"/>
  <path id="Path_240" data-name="Path 240" d="M292.883,213.3H277.3a1.415,1.415,0,0,0,1.414,1.414h5.67v4.249a1.416,1.416,0,0,0,.876,1.308,1.4,1.4,0,0,0,.544.106,1.424,1.424,0,0,0,1-.418l5.664-5.664A1.391,1.391,0,0,0,292.883,213.3Z" transform="translate(-258.888 -199.138)" fill="#7e97b0"/>
  <path id="Path_241" data-name="Path 241" d="M12.244,3.028,3.738.193A2.854,2.854,0,0,0,0,2.889v25.5a2.852,2.852,0,0,0,1.919,2.689l8.512,2.835a2.874,2.874,0,0,0,.9.139,2.838,2.838,0,0,0,2.835-2.835V5.717a2.867,2.867,0,0,0-1.926-2.689Z" transform="translate(0 -0.054)" fill="#7e97b0"/>
  <path id="Path_242" data-name="Path 242" d="M14.162,256H0v11.334a2.852,2.852,0,0,0,1.919,2.689l8.512,2.835a2.874,2.874,0,0,0,.9.139,2.838,2.838,0,0,0,2.835-2.835V256Z" transform="translate(0 -239.002)" fill="#7e97b0"/>
</svg>
