<?xml version="1.0" encoding="utf-8"?>
<!-- Generator: Adobe Illustrator 25.0.0, SVG Export Plug-In . SVG Version: 6.00 Build 0)  -->
<svg version="1.1" id="Layer_1" xmlns="http://www.w3.org/2000/svg" xmlns:xlink="http://www.w3.org/1999/xlink" x="0px" y="0px"
	 viewBox="0 0 512 512" style="enable-background:new 0 0 512 512;" xml:space="preserve">
<style type="text/css">
	.st0{fill:#647B8E;}
	.st1{fill:#7E97B0;}
</style>
<path class="st0" d="M298.7,277.3c-35.3,0-64-28.7-64-64s28.7-64,64-64h42.7V128V64c0-35.3-28.7-64-64-64H48c-7,0-13.6,3.5-17.6,9.2
	c-4,5.8-4.9,13.1-2.3,19.7l154.7,405.3c3.1,8.3,11.1,13.7,19.9,13.7h74.7c35.3,0,64-28.7,64-64v-85.3v-21.3L298.7,277.3z"/>
<path class="st0" d="M234.7,213.3H98.5l84.3,220.9c3.1,8.3,11.1,13.7,19.9,13.7h74.7c35.3,0,64-28.7,64-64v-85.3v-21.3h-42.7
	C263.4,277.3,234.7,248.6,234.7,213.3L234.7,213.3z"/>
<path class="st0" d="M397.2,318.4c-8-3.3-13.2-11.1-13.2-19.7v-64h-85.3c-11.8,0-21.3-9.6-21.3-21.3c0-11.8,9.6-21.3,21.3-21.3H384
	v-64c0-8.6,5.2-16.4,13.2-19.7c8-3.3,17.2-1.5,23.3,4.6l85.3,85.3c8.3,8.3,8.3,21.8,0,30.2l-85.3,85.3
	C414.3,319.9,405.1,321.7,397.2,318.4L397.2,318.4z"/>
<path class="st1" d="M512,213.3H277.3c0,11.8,9.6,21.3,21.3,21.3H384v64c0,8.6,5.2,16.4,13.2,19.7c2.6,1.1,5.4,1.6,8.2,1.6
	c5.5,0,11-2.2,15.1-6.3l85.3-85.3C509.9,224.3,512,218.8,512,213.3z"/>
<path class="st1" d="M184.4,44.8L56.3,2.1C27.3-6.8,0,14.6,0,42.7v384c0,18.2,11.6,34.5,28.9,40.5l128.2,42.7
	c4.7,1.5,9,2.1,13.6,2.1c23.5,0,42.7-19.1,42.7-42.7v-384C213.3,67.1,201.7,50.8,184.4,44.8L184.4,44.8z"/>
<path class="st1" d="M213.3,256H0v170.7c0,18.2,11.6,34.5,28.9,40.5l128.2,42.7c4.7,1.5,9,2.1,13.6,2.1c23.5,0,42.7-19.1,42.7-42.7
	V256z"/>
</svg>
