<svg xmlns="http://www.w3.org/2000/svg" width="35.073" height="33.996" viewBox="0 0 35.073 33.996">
  <g id="receive_2x_-_grey" data-name="receive@2x - grey" transform="translate(0 -59.344)">
    <path id="Path" d="M18.634,79.318l-3.177-2.741a1.315,1.315,0,0,0-1.735,0L.691,87.827a2.118,2.118,0,0,0-.466.593c-.023.045-.045.09-.068.143A1.916,1.916,0,0,0,0,89.329v18.318a1.324,1.324,0,0,0,.421.961,1.266,1.266,0,0,0,.9.368h26.52a1.292,1.292,0,0,0,.9-.36,1.312,1.312,0,0,0,.421-.969L29,88.563Z" transform="translate(0 -15.637)" fill="#7e97b0" fill-rule="evenodd"/>
    <path id="Path_2_" d="M238.936,264.5h0v17.267a1.354,1.354,0,0,1-.421.969l-3.552-3.012-8.164-6.909,8.164-6.909" transform="translate(-209.766 -189.748)" fill="#647b8e" fill-rule="evenodd"/>
    <path id="Path_4_" d="M29,240.17l-1.772,1.5-8.164,6.909-1.577,1.329a1.315,1.315,0,0,1-1.735,0l-1.577-1.329L6.019,241.67,2.2,238.443c.023-.045.045-.1.068-.143l28.788.143h0Z" transform="translate(-2.035 -165.517)" fill="#3b4d56" fill-rule="evenodd"/>
    <path id="Path_5_" d="M12.229,250.339l-8.156,6.909-3.552,3a1.3,1.3,0,0,1-.421-.961V240.966a1.917,1.917,0,0,1,.158-.766l3.815,3.229Z" transform="translate(-0.092 -167.274)" fill="#647b8e" fill-rule="evenodd"/>
    <path id="Path_267" data-name="Path 267" d="M293.38,59.355a6.787,6.787,0,1,0-.391,13.563c.15,0,.3-.008.451-.015a6.787,6.787,0,0,0-.06-13.548Zm2.884,6.6-2.794,5.22c-.225.563-.608.571-.841.008l-2.906-5.227a.687.687,0,0,1,.683-1.021h1.6v-3.71a.554.554,0,0,1,.556-.556h.8a.554.554,0,0,1,.556.556v3.7h1.652a.7.7,0,0,1,.694,1.032Z" transform="translate(-264.705)" fill="#647b8e" fill-rule="evenodd"/>
    <path id="Path_268" data-name="Path 268" d="M335.4,252.956l2.982-2.456,1,1.051" transform="translate(-310.21 -176.799)" fill="#647b8e" fill-rule="evenodd"/>
    <path id="Path_1_" d="M226.8,250.339l8.164,6.909,3.552,3a1.3,1.3,0,0,0,.421-.961V240.966a1.917,1.917,0,0,0-.158-.766l-3.815,3.229Z" transform="translate(-209.766 -167.274)" fill="#647b8e" fill-rule="evenodd"/>
  </g>
</svg>
