<svg xmlns="http://www.w3.org/2000/svg" width="20.64" height="33.996" viewBox="0 0 20.64 33.996">
  <g id="REWARD_-grey" data-name="REWARD -grey" transform="translate(-484.585 -281)">
    <path id="Path_306" data-name="Path 306" d="M540.038,525.678l-5.577,4.98A1.465,1.465,0,0,1,533,529.2V513.461A1.465,1.465,0,0,1,534.461,512h5.577" transform="translate(-45.201 -215.662)" fill="#647b8e"/>
    <path id="Path_307" data-name="Path 307" d="M639,525.678l5.578,4.98a1.465,1.465,0,0,0,1.461-1.461V513.461A1.465,1.465,0,0,0,644.578,512H639" transform="translate(-144.163 -215.662)" fill="#7e97b0"/>
    <path id="Path_308" data-name="Path 308" d="M584,286.445l2.722-4.714a1.129,1.129,0,0,1,1-.73v11.892Z" transform="translate(-92.814)" fill="#3b4d56"/>
    <path id="Path_309" data-name="Path 309" d="M643.718,286.445,641,281.73a1.129,1.129,0,0,0-1-.73v11.892Z" transform="translate(-145.096)" fill="#7e97b0"/>
    <path id="Path_310" data-name="Path 310" d="M641.2,363.3l5.445.066a1.126,1.126,0,0,1,1.122.511L637.4,369.7Z" transform="translate(-142.669 -76.835)" fill="#3b4d56"/>
    <path id="Path_311" data-name="Path 311" d="M644.75,377.909l2.775-4.681a1.134,1.134,0,0,0,.146-1.228L637.3,377.823Z" transform="translate(-142.575 -84.958)" fill="#7e97b0"/>
    <path id="Path_312" data-name="Path 312" d="M493.273,362.229l-5.445-.013a1.122,1.122,0,0,0-1.129.491l10.278,5.976Z" transform="translate(-1.975 -75.811)" fill="#7e97b0"/>
    <path id="Path_313" data-name="Path 313" d="M487.56,375.749l-2.709-4.721a1.133,1.133,0,0,1-.133-1.228L495,375.776Z" transform="translate(0 -82.904)" fill="#3b4d56"/>
    <path id="Path_314" data-name="Path 314" d="M584,460.347l2.722,4.714a1.129,1.129,0,0,0,1,.73V453.9Z" transform="translate(-92.814 -161.42)" fill="#7e97b0"/>
    <path id="Path_315" data-name="Path 315" d="M643.718,460.347,641,465.061a1.129,1.129,0,0,1-1,.73V453.9Z" transform="translate(-145.096 -161.42)" fill="#3b4d56"/>
    <path id="Path_316" data-name="Path 316" d="M641.2,460.7l5.445-.066a1.126,1.126,0,0,0,1.122-.511L637.4,454.3Z" transform="translate(-142.669 -161.793)" fill="#7e97b0"/>
    <path id="Path_317" data-name="Path 317" d="M644.75,453l2.775,4.681a1.134,1.134,0,0,1,.146,1.228L637.3,453.086Z" transform="translate(-142.575 -160.58)" fill="#3b4d56"/>
    <path id="Path_318" data-name="Path 318" d="M493.273,460.654l-5.445.013a1.122,1.122,0,0,1-1.129-.491l10.278-5.976Z" transform="translate(-1.975 -161.7)" fill="#3b4d56"/>
    <path id="Path_319" data-name="Path 319" d="M487.56,454.227l-2.709,4.721a1.133,1.133,0,0,0-.133,1.228L495,454.2Z" transform="translate(0 -161.7)" fill="#7e97b0"/>
  </g>
</svg>
