<svg xmlns="http://www.w3.org/2000/svg" width="29.996" height="49.406" viewBox="0 0 29.996 49.406">
  <g id="REWARD" transform="translate(-484.585 -281)">
    <path id="Path_288" data-name="Path 288" d="M543.229,531.878l-8.106,7.237A2.129,2.129,0,0,1,533,536.993v-22.87A2.129,2.129,0,0,1,535.123,512h8.106" transform="translate(-43.744 -208.709)" fill="#647b8e"/>
    <path id="Path_289" data-name="Path 289" d="M639,531.878l8.106,7.237a2.129,2.129,0,0,0,2.123-2.123v-22.87A2.129,2.129,0,0,0,647.106,512H639" transform="translate(-139.515 -208.709)" fill="#7e97b0"/>
    <path id="Path_290" data-name="Path 290" d="M584,288.913l3.956-6.851A1.641,1.641,0,0,1,589.4,281v17.283Z" transform="translate(-89.822)" fill="#425766"/>
    <path id="Path_291" data-name="Path 291" d="M645.4,288.913l-3.956-6.851A1.641,1.641,0,0,0,640,281v17.283Z" transform="translate(-140.418)" fill="#7e97b0"/>
    <path id="Path_292" data-name="Path 292" d="M642.929,363.3l7.913.1a1.637,1.637,0,0,1,1.631.743L637.4,372.6Z" transform="translate(-138.069 -74.358)" fill="#425766"/>
    <path id="Path_293" data-name="Path 293" d="M648.127,380.588l4.034-6.8a1.648,1.648,0,0,0,.212-1.785L637.3,380.463Z" transform="translate(-137.979 -82.219)" fill="#7e97b0"/>
    <path id="Path_294" data-name="Path 294" d="M496.253,362.241l-7.913-.019a1.63,1.63,0,0,0-1.64.714l14.938,8.685Z" transform="translate(-1.911 -73.367)" fill="#7e97b0"/>
    <path id="Path_295" data-name="Path 295" d="M488.909,378.446l-3.937-6.861a1.647,1.647,0,0,1-.193-1.785l14.938,8.685Z" transform="translate(0 -80.231)" fill="#425766"/>
    <path id="Path_296" data-name="Path 296" d="M584,463.27l3.956,6.851a1.641,1.641,0,0,0,1.447,1.061V453.9Z" transform="translate(-89.822 -156.216)" fill="#7e97b0"/>
    <path id="Path_297" data-name="Path 297" d="M645.4,463.27l-3.956,6.851A1.641,1.641,0,0,1,640,471.183V453.9Z" transform="translate(-140.418 -156.216)" fill="#425766"/>
    <path id="Path_298" data-name="Path 298" d="M642.929,463.6l7.913-.1a1.637,1.637,0,0,0,1.631-.743L637.4,454.3Z" transform="translate(-138.069 -156.577)" fill="#7e97b0"/>
    <path id="Path_299" data-name="Path 299" d="M648.127,453l4.034,6.8a1.648,1.648,0,0,1,.212,1.785L637.3,453.125Z" transform="translate(-137.979 -155.403)" fill="#425766"/>
    <path id="Path_300" data-name="Path 300" d="M496.253,463.579l-7.913.019a1.63,1.63,0,0,1-1.64-.714l14.938-8.685Z" transform="translate(-1.911 -156.487)" fill="#425766"/>
    <path id="Path_301" data-name="Path 301" d="M488.909,454.239l-3.937,6.861a1.647,1.647,0,0,0-.193,1.785l14.938-8.685Z" transform="translate(0 -156.487)" fill="#7e97b0"/>
  </g>
</svg>
