<svg xmlns="http://www.w3.org/2000/svg" width="47.375" height="53.8" viewBox="0 0 47.375 53.8">
  <g id="reward" transform="translate(-16 -13)">
    <g id="Group_18260" data-name="Group 18260">
      <g id="Group_18259" data-name="Group 18259" transform="translate(16 13)">
        <path id="Path_2513" data-name="Path 2513" d="M38.975,0a8.4,8.4,0,0,1,7.976,11.035l-.129.361L39.795,29.8a17.409,17.409,0,0,0-3.2-5.073L42.339,9.684A3.6,3.6,0,0,0,38.975,4.8H8.4A3.6,3.6,0,0,0,4.974,9.5l.065.186L10.783,24.73a17.408,17.408,0,0,0-3.2,5.074L.555,11.4A8.4,8.4,0,0,1,8.019.009L8.4,0ZM33.689,11a2.4,2.4,0,0,1,2.291,3.117l-.054.153-2.9,7.447a17.319,17.319,0,0,0-4.373-2L30.18,15.8H17.2l1.524,3.92a17.313,17.313,0,0,0-4.371,2l-2.9-7.447a2.4,2.4,0,0,1,2.075-3.265L13.689,11Z" fill="#2ae8f0"/>
        <path id="Path_2514" data-name="Path 2514" d="M23.689,19a17.4,17.4,0,1,0,17.4,17.4A17.4,17.4,0,0,0,23.689,19Zm0,4.8a12.6,12.6,0,1,1-12.6,12.6A12.6,12.6,0,0,1,23.689,23.8Z" fill="#2ae8f0"/>
        <path id="Path_2515" data-name="Path 2515" d="M23.689,29a7.4,7.4,0,1,0,7.4,7.4A7.4,7.4,0,0,0,23.689,29Zm0,4.8a2.6,2.6,0,1,1-2.6,2.6A2.6,2.6,0,0,1,23.689,33.8Z" fill="#2ae8f0"/>
      </g>
    </g>
  </g>
</svg>
