<svg id="SETTING2" xmlns="http://www.w3.org/2000/svg" width="33.996" height="33.995" viewBox="0 0 33.996 33.995">
  <path id="Path_247" data-name="Path 247" d="M32.016,19.155,34,18.843v-3.7l-1.979-.312a2,2,0,0,1-.93-3.479l1.494-1.235L30.742,6.932l-1.833.684a1.989,1.989,0,0,1-2.536-2.536l.684-1.826L23.87,1.414,22.641,2.908a2.006,2.006,0,0,1-3.486-.93L18.843,0h-3.7l-.312,1.979a2,2,0,0,1-3.479.93L10.119,1.414,6.932,3.253l.684,1.833A1.989,1.989,0,0,1,5.079,7.622L3.253,6.938,1.414,10.125l1.494,1.228a2,2,0,0,1-.93,3.479L0,15.152v3.7l1.979.312a2.005,2.005,0,0,1,.93,3.486L1.414,23.876l1.839,3.187,1.833-.684a1.989,1.989,0,0,1,2.536,2.536l-.684,1.826,3.187,1.839,1.235-1.494a2,2,0,0,1,3.479.93L15.152,34h3.7l.312-1.979a2.007,2.007,0,0,1,3.486-.93l1.228,1.494,3.187-1.839-.684-1.833a1.989,1.989,0,0,1,2.536-2.536l1.833.684,1.839-3.187-1.5-1.228A2.006,2.006,0,0,1,32.016,19.155ZM17,25.3A8.3,8.3,0,1,1,25.3,17,8.311,8.311,0,0,1,17,25.3Z" fill="#b88bfe"/>
  <path id="Path_248" data-name="Path 248" d="M270.089,22.641l1.494,1.228-1.839,3.187-1.833-.684a1.988,1.988,0,0,0-2.536,2.536l.684,1.833-3.187,1.839-1.228-1.494a2.008,2.008,0,0,0-3.486.93L257.846,34H256V25.3a8.3,8.3,0,1,0,0-16.6V0h1.846l.312,1.979a2.006,2.006,0,0,0,3.486.93l1.228-1.494,3.187,1.839-.684,1.833a1.988,1.988,0,0,0,2.536,2.536l1.833-.684,1.839,3.187-1.494,1.228a2,2,0,0,0,.93,3.479l1.979.312v3.7l-1.979.312a2.006,2.006,0,0,0-.93,3.486Z" transform="translate(-239.002)" fill="#7634f4"/>
  <path id="Path_249" data-name="Path 249" d="M129.964,121a8.964,8.964,0,1,0,8.964,8.964A8.977,8.977,0,0,0,129.964,121Zm0,13.943a4.98,4.98,0,1,1,4.98-4.98A4.982,4.982,0,0,1,129.964,134.943Z" transform="translate(-112.966 -112.966)" fill="#7634f4"/>
  <path id="Path_250" data-name="Path 250" d="M264.964,129.964A8.977,8.977,0,0,1,256,138.927v-3.984a4.98,4.98,0,0,0,0-9.959V121A8.977,8.977,0,0,1,264.964,129.964Z" transform="translate(-239.002 -112.966)" fill="#b88bfe"/>
</svg>
