<svg id="SETTING" xmlns="http://www.w3.org/2000/svg" width="36.946" height="36.946" viewBox="0 0 36.946 36.946">
  <path id="Path_302" data-name="Path 302" d="M34.8,20.818l2.15-.339V16.46L34.8,16.12a2.175,2.175,0,0,1-1.01-3.781L35.409,11l-2-3.464-1.992.743A2.162,2.162,0,0,1,28.662,5.52l.743-1.984-3.464-2L24.606,3.161a2.18,2.18,0,0,1-3.788-1.01L20.479,0H16.46L16.12,2.15a2.175,2.175,0,0,1-3.781,1.01L11,1.537l-3.464,2,.743,1.992A2.162,2.162,0,0,1,5.52,8.284L3.536,7.541,1.537,11l1.624,1.335A2.175,2.175,0,0,1,2.15,16.12L0,16.467v4.019l2.15.339a2.179,2.179,0,0,1,1.01,3.788L1.537,25.949l2,3.464,1.992-.743a2.162,2.162,0,0,1,2.757,2.757L7.541,33.41l3.464,2,1.342-1.624a2.175,2.175,0,0,1,3.781,1.01l.339,2.15h4.019l.339-2.15a2.181,2.181,0,0,1,3.788-1.01l1.335,1.624,3.464-2-.743-1.992a2.162,2.162,0,0,1,2.757-2.757l1.992.743,2-3.464-1.631-1.335A2.18,2.18,0,0,1,34.8,20.818ZM18.473,27.493a9.02,9.02,0,1,1,9.02-9.02A9.033,9.033,0,0,1,18.473,27.493Z" fill="#7e97b0"/>
  <path id="Path_303" data-name="Path 303" d="M271.312,24.606l1.624,1.335-2,3.464-1.992-.743a2.161,2.161,0,0,0-2.757,2.757l.743,1.992-3.464,2-1.335-1.624a2.182,2.182,0,0,0-3.788,1.01l-.339,2.15H256V27.493a9.02,9.02,0,0,0,0-18.04V0h2.006l.339,2.15a2.18,2.18,0,0,0,3.788,1.01l1.335-1.624,3.464,2-.743,1.992a2.161,2.161,0,0,0,2.757,2.757l1.992-.743,2,3.464-1.624,1.335a2.174,2.174,0,0,0,1.01,3.781l2.15.339v4.019l-2.15.339a2.18,2.18,0,0,0-1.01,3.788Z" transform="translate(-237.527)" fill="#647b8e"/>
  <path id="Path_304" data-name="Path 304" d="M130.742,121a9.742,9.742,0,1,0,9.742,9.742A9.756,9.756,0,0,0,130.742,121Zm0,15.154a5.412,5.412,0,1,1,5.412-5.412A5.414,5.414,0,0,1,130.742,136.154Z" transform="translate(-112.269 -112.269)" fill="#647b8e"/>
  <path id="Path_305" data-name="Path 305" d="M265.742,130.742A9.756,9.756,0,0,1,256,140.483v-4.33a5.412,5.412,0,1,0,0-10.824V121A9.756,9.756,0,0,1,265.742,130.742Z" transform="translate(-237.527 -112.269)" fill="#7e97b0"/>
</svg>
