<svg xmlns="http://www.w3.org/2000/svg" width="23.364" height="33.995" viewBox="0 0 23.364 33.995">
  <g id="STAKE2" transform="translate(-128.387 -72.952)">
    <path id="Path_251" data-name="Path 251" d="M135.47,323.768l8.519,5.136,8.462-1.3,4.178-4.8.412,3.057-1.121,2.319s-5.146,5.807-11.4,4.274-9.88-3.785-9.822-6.708S135.47,323.768,135.47,323.768Z" transform="translate(-5.702 -225.906)" fill="#7634f4"/>
    <g id="Group_107" data-name="Group 107" transform="translate(128.675 88.816)">
      <g id="Group_106" data-name="Group 106" transform="translate(0 0)">
        <path id="Path_252" data-name="Path 252" d="M134.7,240.493a6.673,6.673,0,0,0-3.3,5.376c0,4.236,5.175,7.685,11.538,7.685s11.538-3.45,11.538-7.685c0-3.479-3.488-6.43-8.251-7.369l.115.8c4.284.92,7.379,3.517,7.379,6.564,0,3.814-4.83,6.919-10.762,6.919s-10.762-3.1-10.762-6.919a5.914,5.914,0,0,1,2.932-4.744" transform="translate(-131.4 -238.5)" fill="#9477db"/>
      </g>
    </g>
    <g id="Group_109" data-name="Group 109" transform="translate(128.675 89.928)">
      <g id="Group_108" data-name="Group 108" transform="translate(0 0)">
        <path id="Path_253" data-name="Path 253" d="M144.691,251.461c3.986.479,7.091,2.52,7.091,4.9,0,2.712-4.054,5-8.845,5s-8.845-2.29-8.845-5a4.03,4.03,0,0,1,2.079-3.182l-.958-1.84c-2.233,1.533-3.814,3.45-3.814,5.021,0,3.124,6.325,7.685,11.538,7.685s11.538-4.561,11.538-7.685c0-2.022-2.654-4.657-5.941-6.258" transform="translate(-131.4 -250.1)" fill="#9477db"/>
      </g>
    </g>
    <g id="Group_111" data-name="Group 111" transform="translate(128.694 96.185)">
      <g id="Group_110" data-name="Group 110" transform="translate(0 0)">
        <path id="Path_254" data-name="Path 254" d="M154.656,318.476V315.4h-.767c0,3.814-4.83,6.919-10.762,6.919s-10.762-3.1-10.762-6.919H131.6v3.076c0,4.236,5.175,7.685,11.538,7.685S154.656,322.721,154.656,318.476Zm-22.3,0v-.316c1.667,2.884,5.865,4.926,10.762,4.926s9.094-2.051,10.762-4.926v.316c0,3.814-4.83,6.919-10.762,6.919S132.357,322.29,132.357,318.476Z" transform="translate(-131.6 -315.4)" fill="#9477db"/>
      </g>
    </g>
    <g id="Group_113" data-name="Group 113" transform="translate(128.675 96.185)">
      <g id="Group_112" data-name="Group 112" transform="translate(0 0)">
        <path id="Path_255" data-name="Path 255" d="M134.476,319.674l-.134-.115a5.493,5.493,0,0,1-2.175-4.159H131.4v3.076a6.222,6.222,0,0,0,2.444,4.744l.632.537Zm-2.3-1.2v-.3a7.357,7.357,0,0,0,1.533,1.84v2A5.137,5.137,0,0,1,132.176,318.476Z" transform="translate(-131.4 -315.4)" fill="#9477db"/>
      </g>
    </g>
    <g id="Group_115" data-name="Group 115" transform="translate(133.668 101.695)">
      <g id="Group_114" data-name="Group 114" transform="translate(0)">
        <path id="Path_256" data-name="Path 256" d="M188.119,374.2l-.335-.048a14.208,14.208,0,0,1-3.747-1.025l-.537-.23v3.91l.23.105A14.9,14.9,0,0,0,187.678,378l.441.057V374.2Zm-3.843,2.1V374.06a15.108,15.108,0,0,0,3.076.815v2.3A15.012,15.012,0,0,1,184.276,376.3Z" transform="translate(-183.5 -372.9)" fill="#9477db"/>
      </g>
    </g>
    <g id="Group_117" data-name="Group 117" transform="translate(142.129 101.705)">
      <g id="Group_116" data-name="Group 116" transform="translate(0 0)">
        <path id="Path_257" data-name="Path 257" d="M272.241,378.089a14.9,14.9,0,0,0,3.948-1.083l.23-.1V373l-.537.23a14.105,14.105,0,0,1-3.747,1.025l-.335.048v3.852Zm.335-3.124a14.946,14.946,0,0,0,3.076-.815V376.4a14.262,14.262,0,0,1-3.076.862Z" transform="translate(-271.8 -373)" fill="#9477db"/>
      </g>
    </g>
    <g id="Group_119" data-name="Group 119" transform="translate(148.675 96.185)">
      <g id="Group_118" data-name="Group 118" transform="translate(0 0)">
        <path id="Path_258" data-name="Path 258" d="M340.732,323.22a6.222,6.222,0,0,0,2.444-4.744V315.4h-.767a5.493,5.493,0,0,1-2.175,4.159l-.134.115v4.082Zm.134-3.2a7.529,7.529,0,0,0,1.533-1.84v.3a5.177,5.177,0,0,1-1.533,3.555Z" transform="translate(-340.1 -315.4)" fill="#9477db"/>
      </g>
    </g>
    <g id="Group_121" data-name="Group 121" transform="translate(134.041 94.393)">
      <g id="Group_120" data-name="Group 120" transform="translate(0)">
        <path id="Path_259" data-name="Path 259" d="M192.556,296.7l-.163.077a5.471,5.471,0,0,1-4.676.259l-.316.7,2.8,1.275a6.242,6.242,0,0,0,5.328-.268l.757-.355Zm-2.032,1.6-.268-.125a7.478,7.478,0,0,0,2.309-.642l1.83.824A5.084,5.084,0,0,1,190.524,298.3Z" transform="translate(-187.4 -296.7)" fill="#7e97b0"/>
      </g>
    </g>
    <ellipse id="Ellipse_18" data-name="Ellipse 18" cx="9.161" cy="5.539" rx="9.161" ry="5.539" transform="translate(130.985 90.493)" fill="#7634f4"/>
    <path id="Path_260" data-name="Path 260" d="M209.087,95.6s6.641,5.625.786,14.652-8.673,4.619-8.673,4.619l1.188,1.792,1.725.613.517.134s3.383-.652,4.293-1.38,5.156-4.121,6.21-9.525.077-7.35-2.3-9.755Z" transform="translate(-65.836 -20.478)" fill="#7634f4"/>
    <g id="Group_123" data-name="Group 123" transform="translate(141.123 89.487)">
      <g id="Group_122" data-name="Group 122" transform="translate(0 0)">
        <path id="Path_261" data-name="Path 261" d="M264.4,245.5l-.182.287a14.361,14.361,0,0,1-2.482,2.99l-.431.393,3.565,1.62.192-.172a15.062,15.062,0,0,0,2.616-3.143l.24-.374-3.517-1.6Zm.326,4.37-2.051-.93a15.427,15.427,0,0,0,2.012-2.463l2.089.949A14.277,14.277,0,0,1,264.721,249.87Z" transform="translate(-261.3 -245.5)" fill="#b88bfe"/>
      </g>
    </g>
    <g id="Group_125" data-name="Group 125" transform="translate(145.8 81.246)">
      <g id="Group_124" data-name="Group 124" transform="translate(0 0)">
        <path id="Path_262" data-name="Path 262" d="M313.742,165.413a15.065,15.065,0,0,0,.642-4.044v-.249l-3.565-1.62-.01.585a14.33,14.33,0,0,1-.613,3.833l-.1.326,3.507,1.591Zm-2.712-1.6a15.2,15.2,0,0,0,.527-3.134l2.051.93a14.24,14.24,0,0,1-.489,3.162Z" transform="translate(-310.1 -159.5)" fill="#b88bfe"/>
      </g>
    </g>
    <g id="Group_127" data-name="Group 127" transform="translate(143.26 74.423)">
      <g id="Group_126" data-name="Group 126" transform="translate(0 0)">
        <path id="Path_263" data-name="Path 263" d="M290.021,93.753a6.231,6.231,0,0,0-3.306-4.178l-2.8-1.275-.316.7a5.494,5.494,0,0,1,2.884,3.689l.048.173,3.718,1.687Zm-2.856-1.447a7.335,7.335,0,0,0-1.045-2.166l.268.125a5.163,5.163,0,0,1,2.6,2.865Z" transform="translate(-283.6 -88.3)" fill="#b88bfe"/>
      </g>
    </g>
    <g id="Group_129" data-name="Group 129" transform="translate(134.051 74.413)">
      <g id="Group_128" data-name="Group 128" transform="translate(0 0)">
        <path id="Path_264" data-name="Path 264" d="M199.824,89.475l-2.8-1.275-.316.7c3.479,1.581,4.3,7.254,1.859,12.659s-7.273,8.519-10.752,6.948l-.316.7,2.8,1.275c3.862,1.754,9.142-1.533,11.768-7.331S203.685,91.228,199.824,89.475ZM190.6,109.781l-.287-.134c3.316-.326,6.909-3.306,8.931-7.772s1.9-9.132-.038-11.835l.287.134c3.479,1.581,4.3,7.254,1.859,12.659S194.083,111.362,190.6,109.781Z" transform="translate(-187.5 -88.2)" fill="#b88bfe"/>
      </g>
    </g>
    <g id="Group_131" data-name="Group 131" transform="translate(130.345 73.951)">
      <g id="Group_130" data-name="Group 130" transform="translate(0 0)">
        <path id="Path_265" data-name="Path 265" d="M162.062,83.848c-3.862-1.754-9.142,1.533-11.768,7.331s-1.62,11.931,2.233,13.684,9.142-1.533,11.768-7.331S165.924,85.592,162.062,83.848Zm-9.219,20.306c-3.479-1.581-4.3-7.254-1.859-12.659s7.273-8.519,10.752-6.948,4.3,7.254,1.859,12.659S156.322,105.726,152.844,104.154Z" transform="translate(-148.831 -83.376)" fill="#b88bfe"/>
      </g>
    </g>
    <ellipse id="Ellipse_19" data-name="Ellipse 19" cx="9.295" cy="7.398" rx="9.295" ry="7.398" transform="translate(128.386 89.89) rotate(-65.657)" fill="#9477db"/>
    <g id="Group_133" data-name="Group 133" transform="translate(130.796 74.17)">
      <g id="Group_132" data-name="Group 132" transform="translate(0 0)">
        <path id="Path_266" data-name="Path 266" d="M166.316,85.921c-2.846-1.294-9.612,2.578-11.768,7.331s-.613,12.391,2.233,13.684,8.673-1.677,11.289-7.388S169.162,87.2,166.316,85.921Zm-8.423,18.552c-2.463-1.121-2.875-5.75-.9-10.12s5.74-7.11,8.2-5.989,2.875,5.75.9,10.12S160.365,105.594,157.892,104.473Z" transform="translate(-153.536 -85.669)" fill="#b88bfe"/>
      </g>
    </g>
  </g>
</svg>
