<svg xmlns="http://www.w3.org/2000/svg" width="31.242" height="45.456" viewBox="0 0 31.242 45.456">
  <g id="STAKE_2" data-name="STAKE 2" transform="translate(-128.386 -72.952)">
    <path id="Path_505" data-name="Path 505" d="M135.732,324.094l11.391,6.868,11.315-1.743,5.587-6.42.551,4.088-1.5,3.1s-6.881,7.765-15.248,5.715-13.211-5.061-13.134-8.97S135.732,324.094,135.732,324.094Z" transform="translate(-5.499 -217.833)" fill="#7634f4"/>
    <g id="Group_612" data-name="Group 612" transform="translate(128.772 94.165)">
      <g id="Group_611" data-name="Group 611" transform="translate(0)">
        <path id="Path_506" data-name="Path 506" d="M135.808,241.165c-2.729,1.858-4.408,4.4-4.408,7.189,0,5.664,6.919,10.277,15.428,10.277s15.428-4.613,15.428-10.277c0-4.651-4.664-8.6-11.033-9.854l.154,1.076c5.728,1.23,9.867,4.7,9.867,8.777,0,5.1-6.458,9.251-14.39,9.251s-14.39-4.152-14.39-9.251c0-2.447,1.486-4.677,3.921-6.343" transform="translate(-131.4 -238.5)" fill="#9477db"/>
      </g>
    </g>
    <g id="Group_614" data-name="Group 614" transform="translate(128.772 95.651)">
      <g id="Group_613" data-name="Group 613" transform="translate(0)">
        <path id="Path_507" data-name="Path 507" d="M149.173,251.92c5.33.641,9.482,3.37,9.482,6.548,0,3.626-5.42,6.689-11.827,6.689S135,262.094,135,258.467c0-1.6,1.051-3.088,2.781-4.254l-1.281-2.46c-2.986,2.05-5.1,4.613-5.1,6.714,0,4.177,8.457,10.277,15.428,10.277s15.428-6.1,15.428-10.277c0-2.7-3.549-6.227-7.945-8.367" transform="translate(-131.4 -250.1)" fill="#9477db"/>
      </g>
    </g>
    <g id="Group_616" data-name="Group 616" transform="translate(128.798 104.018)">
      <g id="Group_615" data-name="Group 615" transform="translate(0 0)">
        <path id="Path_508" data-name="Path 508" d="M162.43,319.513V315.4H161.4c0,5.1-6.458,9.252-14.39,9.252s-14.39-4.152-14.39-9.252H131.6v4.113c0,5.664,6.919,10.277,15.428,10.277S162.43,325.19,162.43,319.513Zm-29.818,0v-.423c2.23,3.857,7.842,6.586,14.39,6.586s12.16-2.742,14.39-6.586v.423c0,5.1-6.458,9.251-14.39,9.251S132.612,324.613,132.612,319.513Z" transform="translate(-131.6 -315.4)" fill="#9477db"/>
      </g>
    </g>
    <g id="Group_618" data-name="Group 618" transform="translate(128.772 104.018)">
      <g id="Group_617" data-name="Group 617">
        <path id="Path_509" data-name="Path 509" d="M135.513,321.115l-.179-.154a7.346,7.346,0,0,1-2.909-5.561H131.4v4.113a8.32,8.32,0,0,0,3.268,6.343l.846.718Zm-3.075-1.6v-.4a9.838,9.838,0,0,0,2.05,2.46v2.678A6.869,6.869,0,0,1,132.438,319.513Z" transform="translate(-131.4 -315.4)" fill="#9477db"/>
      </g>
    </g>
    <g id="Group_620" data-name="Group 620" transform="translate(135.448 111.386)">
      <g id="Group_619" data-name="Group 619" transform="translate(0)">
        <path id="Path_510" data-name="Path 510" d="M189.676,374.643l-.448-.064a19,19,0,0,1-5.01-1.371l-.718-.308v5.228l.308.141a19.92,19.92,0,0,0,5.279,1.448l.589.077v-5.151Zm-5.138,2.806v-3a20.2,20.2,0,0,0,4.113,1.089v3.075A20.074,20.074,0,0,1,184.538,377.449Z" transform="translate(-183.5 -372.9)" fill="#9477db"/>
      </g>
    </g>
    <g id="Group_622" data-name="Group 622" transform="translate(146.763 111.399)">
      <g id="Group_621" data-name="Group 621">
        <path id="Path_511" data-name="Path 511" d="M272.389,379.8a19.918,19.918,0,0,0,5.279-1.448l.308-.128V373l-.718.308a18.863,18.863,0,0,1-5.01,1.371l-.448.064v5.151Zm.448-4.177a19.986,19.986,0,0,0,4.113-1.089v3.011a19.074,19.074,0,0,1-4.113,1.153Z" transform="translate(-271.8 -373)" fill="#9477db"/>
      </g>
    </g>
    <g id="Group_624" data-name="Group 624" transform="translate(155.515 104.018)">
      <g id="Group_623" data-name="Group 623" transform="translate(0)">
        <path id="Path_512" data-name="Path 512" d="M340.946,325.856a8.32,8.32,0,0,0,3.268-6.343V315.4h-1.025a7.345,7.345,0,0,1-2.909,5.561l-.179.154v5.459Zm.179-4.28a10.071,10.071,0,0,0,2.05-2.46v.4a6.922,6.922,0,0,1-2.05,4.754Z" transform="translate(-340.1 -315.4)" fill="#9477db"/>
      </g>
    </g>
    <g id="Group_626" data-name="Group 626" transform="translate(135.948 101.622)">
      <g id="Group_625" data-name="Group 625" transform="translate(0)">
        <path id="Path_513" data-name="Path 513" d="M194.294,296.7l-.218.1a7.316,7.316,0,0,1-6.253.346l-.423.935,3.742,1.7a8.346,8.346,0,0,0,7.124-.359l1.012-.474Zm-2.716,2.14-.359-.167a10,10,0,0,0,3.088-.859l2.447,1.1A6.8,6.8,0,0,1,191.577,298.84Z" transform="translate(-187.4 -296.7)" fill="#7e97b0"/>
      </g>
    </g>
    <ellipse id="Ellipse_74" data-name="Ellipse 74" cx="12.25" cy="7.406" rx="12.25" ry="7.406" transform="translate(131.861 96.407)" fill="#7634f4"/>
    <path id="Path_514" data-name="Path 514" d="M211.746,95.6s8.88,7.522,1.051,19.592-11.6,6.176-11.6,6.176l1.589,2.4,2.306.82.692.179s4.523-.871,5.741-1.845,6.894-5.51,8.3-12.737.1-9.828-3.075-13.044Z" transform="translate(-63.484 -19.746)" fill="#7634f4"/>
    <g id="Group_628" data-name="Group 628" transform="translate(145.417 95.062)">
      <g id="Group_627" data-name="Group 627">
        <path id="Path_515" data-name="Path 515" d="M265.439,245.5l-.243.384a19.2,19.2,0,0,1-3.319,4l-.577.525,4.767,2.166.256-.231a20.138,20.138,0,0,0,3.5-4.2l.32-.5-4.7-2.14Zm.436,5.843-2.742-1.243a20.629,20.629,0,0,0,2.691-3.293l2.793,1.269A19.09,19.09,0,0,1,265.875,251.343Z" transform="translate(-261.3 -245.5)" fill="#b88bfe"/>
      </g>
    </g>
    <g id="Group_630" data-name="Group 630" transform="translate(151.671 84.042)">
      <g id="Group_629" data-name="Group 629" transform="translate(0 0)">
        <path id="Path_516" data-name="Path 516" d="M314.969,167.406a20.144,20.144,0,0,0,.859-5.407v-.333l-4.767-2.166-.013.782a19.161,19.161,0,0,1-.82,5.125l-.128.436,4.69,2.127Zm-3.626-2.14a20.318,20.318,0,0,0,.7-4.19l2.742,1.243a19.042,19.042,0,0,1-.654,4.229Z" transform="translate(-310.1 -159.5)" fill="#b88bfe"/>
      </g>
    </g>
    <g id="Group_632" data-name="Group 632" transform="translate(148.275 74.918)">
      <g id="Group_631" data-name="Group 631" transform="translate(0 0)">
        <path id="Path_517" data-name="Path 517" d="M292.185,95.591A8.332,8.332,0,0,0,287.764,90l-3.742-1.7-.423.935a7.346,7.346,0,0,1,3.857,4.933l.064.231,4.972,2.255Zm-3.818-1.935a9.808,9.808,0,0,0-1.4-2.9l.359.167a6.9,6.9,0,0,1,3.473,3.831Z" transform="translate(-283.6 -88.3)" fill="#b88bfe"/>
      </g>
    </g>
    <g id="Group_634" data-name="Group 634" transform="translate(135.961 74.906)">
      <g id="Group_633" data-name="Group 633" transform="translate(0 0)">
        <path id="Path_518" data-name="Path 518" d="M203.978,89.9l-3.742-1.7-.423.935c4.651,2.114,5.753,9.7,2.486,16.927s-9.726,11.391-14.377,9.29l-.423.935,3.742,1.7c5.164,2.345,12.224-2.05,15.735-9.8S209.142,92.249,203.978,89.9Zm-12.327,27.152-.384-.179c4.434-.436,9.239-4.421,11.942-10.392s2.537-12.211-.051-15.825l.384.179c4.651,2.114,5.753,9.7,2.486,16.927S196.3,119.171,191.652,117.057Z" transform="translate(-187.5 -88.2)" fill="#b88bfe"/>
      </g>
    </g>
    <g id="Group_636" data-name="Group 636" transform="translate(131.006 74.287)">
      <g id="Group_635" data-name="Group 635" transform="translate(0 0)">
        <path id="Path_519" data-name="Path 519" d="M166.523,84.007c-5.164-2.345-12.224,2.05-15.735,9.8s-2.166,15.953,2.986,18.3,12.224-2.05,15.735-9.8S171.687,86.339,166.523,84.007ZM154.2,111.159c-4.651-2.114-5.753-9.7-2.486-16.927s9.726-11.391,14.377-9.29,5.753,9.7,2.486,16.927S158.848,113.261,154.2,111.159Z" transform="translate(-148.831 -83.376)" fill="#b88bfe"/>
      </g>
    </g>
    <ellipse id="Ellipse_75" data-name="Ellipse 75" cx="12.429" cy="9.892" rx="12.429" ry="9.892" transform="translate(128.386 95.6) rotate(-65.657)" fill="#9477db"/>
    <g id="Group_638" data-name="Group 638" transform="translate(131.609 74.581)">
      <g id="Group_637" data-name="Group 637" transform="translate(0 0)">
        <path id="Path_520" data-name="Path 520" d="M170.625,86.006c-3.806-1.73-12.852,3.447-15.735,9.8s-.82,16.568,2.986,18.3,11.6-2.242,15.095-9.879S174.43,87.723,170.625,86.006Zm-11.263,24.807c-3.293-1.5-3.844-7.688-1.2-13.531s7.675-9.508,10.969-8.009,3.844,7.688,1.2,13.531S162.667,112.312,159.361,110.813Z" transform="translate(-153.536 -85.669)" fill="#b88bfe"/>
      </g>
    </g>
  </g>
</svg>
