<svg id="wallet_2x" data-name="wallet@2x" xmlns="http://www.w3.org/2000/svg" width="30.604" height="33.995" viewBox="0 0 30.604 33.995">
  <path id="Path_292" data-name="Path 292" d="M81.963,110.191l.212,3.083-28.775.2v-3.605l2.159-.4L79.539,108.1A2.247,2.247,0,0,1,81.963,110.191Z" transform="translate(-52.995 -102.412)" fill="#596e7c" fill-rule="evenodd"/>
  <path id="Path_293" data-name="Path 293" d="M74.812,103.4c2.2,0,2.2,2.439,2.2,2.439-.454-2.265-3.2-1.878-3.2-1.878L52.361,105.15s-3.9.023-3.621,1.1c.25.939,2.212.871,2.212.871l24.768-.364c2.371.091,2.3,2.719,2.3,2.719,0-1.924-2.159-2.083-2.159-2.083s-22.261.3-24.9.3-2.848-1.159-2.848-1.159-.212-.78.182-1.129a4.386,4.386,0,0,1,2.469-.651C52.02,104.688,74.812,103.4,74.812,103.4Z" transform="translate(-48.047 -98.068)" fill="#647b8e" fill-rule="evenodd"/>
  <ellipse id="Ellipse_33" data-name="Ellipse 33" cx="4.901" cy="4.901" rx="4.901" ry="4.901" transform="translate(2.67 2.954)" fill="#7e97b0"/>
  <ellipse id="Ellipse_34" data-name="Ellipse 34" cx="3.749" cy="3.749" rx="3.749" ry="3.749" transform="translate(3.821 4.105)" fill="#3b4d56"/>
  <ellipse id="Ellipse_35" data-name="Ellipse 35" cx="3.749" cy="3.749" rx="3.749" ry="3.749" transform="translate(3.821 4.469)" fill="#647b8e"/>
  <ellipse id="Ellipse_36" data-name="Ellipse 36" cx="4.901" cy="4.901" rx="4.901" ry="4.901" transform="translate(9.313 0)" fill="#7e97b0"/>
  <ellipse id="Ellipse_37" data-name="Ellipse 37" cx="3.749" cy="3.749" rx="3.749" ry="3.749" transform="translate(10.464 1.151)" fill="#3b4d56"/>
  <ellipse id="Ellipse_38" data-name="Ellipse 38" cx="3.749" cy="3.749" rx="3.749" ry="3.749" transform="translate(10.464 1.507)" fill="#647b8e"/>
  <ellipse id="Ellipse_39" data-name="Ellipse 39" cx="4.901" cy="4.901" rx="4.901" ry="4.901" transform="translate(10.464 3.749)" fill="#7e97b0"/>
  <ellipse id="Ellipse_40" data-name="Ellipse 40" cx="3.749" cy="3.749" rx="3.749" ry="3.749" transform="translate(11.616 4.901)" fill="#3b4d56"/>
  <ellipse id="Ellipse_41" data-name="Ellipse 41" cx="3.749" cy="3.749" rx="3.749" ry="3.749" transform="translate(11.616 5.264)" fill="#647b8e"/>
  <ellipse id="Ellipse_42" data-name="Ellipse 42" cx="4.901" cy="4.901" rx="4.901" ry="4.901" transform="translate(16.546 2.954)" fill="#7e97b0"/>
  <ellipse id="Ellipse_43" data-name="Ellipse 43" cx="3.749" cy="3.749" rx="3.749" ry="3.749" transform="translate(17.698 4.105)" fill="#3b4d56"/>
  <ellipse id="Ellipse_44" data-name="Ellipse 44" cx="3.749" cy="3.749" rx="3.749" ry="3.749" transform="translate(17.698 4.469)" fill="#647b8e"/>
  <path id="Path_294" data-name="Path 294" d="M49.2,169.043V144.6s.121,1.159,2.765,1.159,24.9-.28,24.9-.28,2.159.159,2.159,2.083v20.057s-.121,2.121-1.841,2.121-25.942.4-25.942.4S49.6,170.224,49.2,169.043Z" transform="translate(-49.113 -136.147)" fill="#7e97b0" fill-rule="evenodd"/>
  <g id="Group_146" data-name="Group 146" transform="translate(1.42 9.506)">
    <g id="Group_143" data-name="Group 143" transform="translate(0 0)">
      <rect id="Rectangle_49" data-name="Rectangle 49" width="0.212" height="0.424" transform="matrix(1, -0.001, 0.001, 1, 0, 0)" fill="#3b4d56"/>
    </g>
    <g id="Group_144" data-name="Group 144" transform="translate(0 1.295)">
      <path id="Path_295" data-name="Path 295" d="M66.83,197.331v-.871h.212v.871Zm0-1.742v-.871h.212v.871Zm-.008-1.735v-.871h.212v.871Zm0-1.742v-.871h.212v.871Zm0-1.735v-.871h.212v.871Zm-.008-1.742v-.871h.212v.871Zm0-1.735v-.871h.212v.871Zm0-1.742v-.871h.212v.871Zm0-1.735v-.871h.212v.871Zm-.008-1.742v-.871h.212v.871Zm0-1.735v-.871h.212v.871Zm0-1.742v-.871h.212v.871Zm-.008-1.735V175.6h.212v.871Z" transform="translate(-66.8 -175.6)" fill="#3b4d56"/>
    </g>
    <g id="Group_145" data-name="Group 145" transform="translate(0.031 23.897)">
      <path id="Path_296" data-name="Path 296" d="M67.2,474.424V474h.212v.424Z" transform="translate(-67.2 -474)" fill="#3b4d56"/>
    </g>
  </g>
  <g id="Group_150" data-name="Group 150" transform="translate(1.451 9.832)">
    <g id="Group_147" data-name="Group 147" transform="translate(0.126 0.076)">
      <path id="Path_297" data-name="Path 297" d="M69.25,164.2c-.25-.061-.364-.129-.386-.235a.164.164,0,0,1,.076-.167l.121.174a.033.033,0,0,0,.015-.03.329.329,0,0,0-.008-.038A.629.629,0,0,0,69.3,164Z" transform="translate(-68.861 -163.8)" fill="#3b4d56"/>
    </g>
    <g id="Group_148" data-name="Group 148" transform="translate(1.015)">
      <path id="Path_298" data-name="Path 298" d="M81.456,186.447a8.03,8.03,0,0,1-.856-.1l.038-.212a7.816,7.816,0,0,0,.833.1Zm.871-.015-.008-.212.856-.015.008.212Zm1.7-.03-.008-.212.856-.015.008.212Zm1.712-.038-.008-.212.856-.015.008.212Zm1.7-.03-.008-.212.856-.015.008.212Zm1.7-.03-.008-.212.856-.015.008.212Zm1.7-.038v-.212l.848-.015.008.212Zm1.7-.03v-.212l.856-.015v.212Zm1.7-.03v-.212l.848-.015.008.212Zm1.712-.03v-.212l.848-.015.008.212Zm1.7-.03v-.212l.856-.015v.212Zm1.7-.023v-.212l.856-.015v.212Zm1.7-.03v-.212l.856-.015v.212Zm1.7-.023v-.212c.318,0,.606-.008.856-.008v.212C103.4,186.061,103.119,186.069,102.793,186.069Zm1.712-.015-.008-.212a6.553,6.553,0,0,0,.826-.091l.038.212A5.6,5.6,0,0,1,104.5,186.053Zm1.7-.371-.091-.189a2,2,0,0,0,.644-.485l.159.136A2.21,2.21,0,0,1,106.2,185.682Zm1.113-1.326-.2-.053a2.062,2.062,0,0,0,.053-.417,1.127,1.127,0,0,0-.008-.144v-.265h.212v.235h0s.008.068.008.174A2.643,2.643,0,0,1,107.315,184.357Zm.053-1.735h-.212v-.856h.212Zm0-1.7h-.212v-.856h.212Zm.008-1.7h-.212v-.856h.212Zm.008-1.712h-.212v-.856h.212Zm.008-1.7h-.212v-.856h.212Zm0-1.7h-.212v-.848l.106-.008.106.008Zm.008-1.7h-.212v-.833l.106-.023.106.023Zm.008-1.7h-.212v-.856h.212Zm.008-1.712H107.2v-.856h.212Zm0-1.7H107.2v-.856h.212Zm.008-1.7h-.212v-.651a1.521,1.521,0,0,0-.008-.189l.212-.015a1.913,1.913,0,0,1,.008.212Zm-.447-1.613a1.588,1.588,0,0,0-.561-.561l.114-.182a1.784,1.784,0,0,1,.629.629Zm-23.852-.5H82.66v-.212h.848v.212h-.386Zm1.25-.008v-.212l.856-.008v.212Zm-2.56-.008c-.318-.008-.606-.023-.856-.045l.015-.212c.242.015.53.03.848.045Zm4.264-.015v-.212l.856-.015v.212Zm1.7-.03v-.212l.856-.015.008.212Zm1.712-.03-.008-.212.856-.015.008.212Zm1.7-.03-.008-.212.856-.015.008.212Zm1.7-.038-.008-.212.856-.015.008.212Zm1.712-.038-.008-.212.856-.015.008.212Zm1.7-.038L96.3,163l.856-.023.008.212Zm1.7-.038-.008-.212.856-.023.008.212Zm1.7-.038-.008-.212.856-.023.008.212Zm5.938-.038a3.993,3.993,0,0,0-.826-.091l.008-.212a4.36,4.36,0,0,1,.863.1Zm-4.234,0-.008-.212.856-.023.008.212Zm1.712-.045-.008-.212.856-.023.008.212Z" transform="translate(-80.6 -162.8)" fill="#3b4d56"/>
    </g>
    <g id="Group_149" data-name="Group 149" transform="translate(0 22.973)">
      <path id="Path_299" data-name="Path 299" d="M67.541,466.486q-.341-.159-.341-.386h.212c0,.061.076.129.22.2Z" transform="translate(-67.2 -466.1)" fill="#3b4d56"/>
    </g>
  </g>
  <path id="Path_300" data-name="Path 300" d="M413.9,316.5" transform="translate(-386.189 -295.027)" fill="#596e7c" fill-rule="evenodd"/>
  <path id="Path_301" data-name="Path 301" d="M322.149,287a2.622,2.622,0,0,0-1.053,2.825,3.438,3.438,0,0,0,2.431,2.492,13.853,13.853,0,0,0,3.151,0c2.075-.182,3.484-.3,3.666-1.439s-5.014-4.476-5.014-4.476Z" transform="translate(-300.354 -267.206)" fill="#3b4d56" fill-rule="evenodd"/>
  <path id="Path_302" data-name="Path 302" d="M336.863,247.9v.629s-.258.538-1.379.538a24.669,24.669,0,0,0-5.393.6c-.826.326-2.553,1.144-1.53,4.423.712,2.28,8.839-4.787,8.839-4.787v-.735C337.4,248.574,337.348,247.976,336.863,247.9Z" transform="translate(-307.023 -231.623)" fill="#7e97b0" fill-rule="evenodd"/>
  <path id="Path_303" data-name="Path 303" d="M340.115,262l.242,5.734a1.376,1.376,0,0,1-1.379.871c-1.136.03-4.893.3-4.893.3s-2.886.273-2.886-2.583a2.916,2.916,0,0,1,2.492-3.121s1.606-.258,2.431-.318C336.782,262.841,339.683,262.841,340.115,262Z" transform="translate(-309.753 -244.655)" fill="#647b8e" fill-rule="evenodd"/>
  <g id="Group_151" data-name="Group 151" transform="translate(22.629 19.527)">
    <ellipse id="Ellipse_45" data-name="Ellipse 45" cx="1.697" cy="1.697" rx="1.697" ry="1.697" fill="#7e97b0"/>
    <path id="Path_304" data-name="Path 304" d="M348.93,293.657a1.4,1.4,0,0,1-.3-2.757h-.03a1.7,1.7,0,1,0,1.7,1.7v-.03A1.4,1.4,0,0,1,348.93,293.657Z" transform="translate(-346.892 -290.892)" fill="#3b4d56" fill-rule="evenodd"/>
  </g>
  <path id="Path_305" data-name="Path 305" d="M50.619,121.571s-2.159.053-1.878,1.129c.25.939,2.212.871,2.212.871l24.768-.364c2.371.091,2.3,2.719,2.3,2.719,0-1.924-2.159-2.083-2.159-2.083s-22.261.3-24.9.3S48.1,122.98,48.1,122.98s-.212-.78.182-1.129a4.386,4.386,0,0,1,2.469-.651" transform="translate(-48.047 -114.519)" fill="#647b8e" fill-rule="evenodd"/>
</svg>
