<svg id="wallet-active_2x" data-name="wallet-active@2x" xmlns="http://www.w3.org/2000/svg" width="30.543" height="33.995" viewBox="0 0 30.543 33.995">
  <path id="Path_277" data-name="Path 277" d="M151.314,176.364l.215,3.08-28.73.194v-3.6l2.154-.4,23.938-1.357A2.235,2.235,0,0,1,151.314,176.364Z" transform="translate(-122.397 -168.589)" fill="#4d21d6" fill-rule="evenodd"/>
  <path id="Path_278" data-name="Path 278" d="M145.77,170.9c2.2,0,2.2,2.434,2.2,2.434-.452-2.261-3.2-1.874-3.2-1.874l-21.418,1.185s-3.9.022-3.607,1.1c.248.937,2.207.872,2.207.872l24.735-.355c2.369.086,2.294,2.714,2.294,2.714,0-1.917-2.154-2.078-2.154-2.078s-22.226.28-24.864.28-2.843-1.163-2.843-1.163-.215-.775.183-1.131a4.364,4.364,0,0,1,2.466-.646C123.016,172.192,145.77,170.9,145.77,170.9Z" transform="translate(-119.06 -165.57)" fill="#7634f4" fill-rule="evenodd"/>
  <ellipse id="Ellipse_20" data-name="Ellipse 20" cx="4.9" cy="4.9" rx="4.9" ry="4.9" transform="translate(2.653 2.95)" fill="#b88bfe"/>
  <ellipse id="Ellipse_21" data-name="Ellipse 21" cx="3.747" cy="3.747" rx="3.747" ry="3.747" transform="translate(3.805 4.103)" fill="#4d21d6"/>
  <ellipse id="Ellipse_22" data-name="Ellipse 22" cx="3.747" cy="3.747" rx="3.747" ry="3.747" transform="translate(3.805 4.469)" fill="#7634f4"/>
  <ellipse id="Ellipse_23" data-name="Ellipse 23" cx="4.9" cy="4.9" rx="4.9" ry="4.9" transform="translate(9.286 0)" fill="#b88bfe"/>
  <ellipse id="Ellipse_24" data-name="Ellipse 24" cx="3.747" cy="3.747" rx="3.747" ry="3.747" transform="translate(10.439 1.152)" fill="#4d21d6"/>
  <ellipse id="Ellipse_25" data-name="Ellipse 25" cx="3.747" cy="3.747" rx="3.747" ry="3.747" transform="translate(10.439 1.508)" fill="#7634f4"/>
  <ellipse id="Ellipse_26" data-name="Ellipse 26" cx="4.9" cy="4.9" rx="4.9" ry="4.9" transform="translate(10.439 3.747)" fill="#b88bfe"/>
  <ellipse id="Ellipse_27" data-name="Ellipse 27" cx="3.747" cy="3.747" rx="3.747" ry="3.747" transform="translate(11.591 4.9)" fill="#4d21d6"/>
  <ellipse id="Ellipse_28" data-name="Ellipse 28" cx="3.747" cy="3.747" rx="3.747" ry="3.747" transform="translate(11.591 5.255)" fill="#7634f4"/>
  <ellipse id="Ellipse_29" data-name="Ellipse 29" cx="4.9" cy="4.9" rx="4.9" ry="4.9" transform="translate(16.512 2.95)" fill="#b88bfe"/>
  <ellipse id="Ellipse_30" data-name="Ellipse 30" cx="3.747" cy="3.747" rx="3.747" ry="3.747" transform="translate(17.664 4.103)" fill="#4d21d6"/>
  <ellipse id="Ellipse_31" data-name="Ellipse 31" cx="3.747" cy="3.747" rx="3.747" ry="3.747" transform="translate(17.664 4.469)" fill="#7634f4"/>
  <path id="Path_279" data-name="Path 279" d="M119.8,224.3V199.9s.118,1.163,2.757,1.163,24.864-.28,24.864-.28,2.154.162,2.154,2.078V222.89s-.118,2.121-1.841,2.121-25.9.4-25.9.4S120.2,225.485,119.8,224.3Z" transform="translate(-119.72 -191.447)" fill="#b88bfe" fill-rule="evenodd"/>
  <g id="Group_137" data-name="Group 137" transform="translate(1.307 9.293)">
    <g id="Group_134" data-name="Group 134">
      <path id="Path_280" data-name="Path 280" d="M131.415,208.551a.216.216,0,0,1-.215-.215v-.42a.216.216,0,0,1,.215-.215h0a.216.216,0,0,1,.215.215v.42a.231.231,0,0,1-.215.215Z" transform="translate(-131.2 -207.7)" fill="#4d21d6"/>
    </g>
    <g id="Group_135" data-name="Group 135" transform="translate(0 1.281)">
      <path id="Path_281" data-name="Path 281" d="M131.437,241.729a.216.216,0,0,1-.215-.215v-.872a.216.216,0,0,1,.215-.215h0a.216.216,0,0,1,.215.215v.872a.216.216,0,0,1-.215.215Zm0-1.734a.216.216,0,0,1-.215-.215v-.872a.216.216,0,0,1,.215-.215h0a.216.216,0,0,1,.215.215v.872a.216.216,0,0,1-.215.215Zm0-1.734a.216.216,0,0,1-.215-.215v-.872a.216.216,0,0,1,.215-.215h0a.216.216,0,0,1,.215.215v.872a.223.223,0,0,1-.215.215Zm0-1.744a.216.216,0,0,1-.215-.215v-.872a.216.216,0,0,1,.215-.215h0a.216.216,0,0,1,.215.215v.872a.223.223,0,0,1-.215.215Zm-.011-1.734a.216.216,0,0,1-.215-.215V233.7a.216.216,0,0,1,.215-.215h0a.216.216,0,0,1,.215.215v.872a.216.216,0,0,1-.215.215Zm0-1.734a.216.216,0,0,1-.215-.215v-.872a.216.216,0,0,1,.215-.215h0a.216.216,0,0,1,.215.215v.872a.216.216,0,0,1-.215.215Zm0-1.734a.216.216,0,0,1-.215-.215v-.872a.216.216,0,0,1,.215-.215h0a.216.216,0,0,1,.215.215v.872a.216.216,0,0,1-.215.215Zm0-1.734a.216.216,0,0,1-.215-.215v-.872a.216.216,0,0,1,.215-.215h0a.216.216,0,0,1,.215.215v.872a.223.223,0,0,1-.215.215Zm0-1.734a.216.216,0,0,1-.215-.215v-.872a.216.216,0,0,1,.215-.215h0a.216.216,0,0,1,.215.215v.872a.231.231,0,0,1-.215.215Zm-.011-1.744a.216.216,0,0,1-.215-.215v-.872a.216.216,0,0,1,.215-.215h0a.216.216,0,0,1,.215.215v.872a.216.216,0,0,1-.215.215Zm0-1.734a.216.216,0,0,1-.215-.215v-.872a.216.216,0,0,1,.215-.215h0a.216.216,0,0,1,.215.215v.872a.216.216,0,0,1-.215.215Zm0-1.734a.216.216,0,0,1-.215-.215v-.872a.216.216,0,0,1,.215-.215h0a.216.216,0,0,1,.215.215v.872a.216.216,0,0,1-.215.215Zm0-1.734a.216.216,0,0,1-.215-.215v-.872a.216.216,0,0,1,.215-.215h0a.216.216,0,0,1,.215.215v.872a.223.223,0,0,1-.215.215Z" transform="translate(-131.2 -219.6)" fill="#4d21d6"/>
    </g>
    <g id="Group_136" data-name="Group 136" transform="translate(0.022 23.852)">
      <path id="Path_282" data-name="Path 282" d="M131.615,430.051a.216.216,0,0,1-.215-.215v-.42a.216.216,0,0,1,.215-.215h0a.216.216,0,0,1,.215.215v.42a.216.216,0,0,1-.215.215Z" transform="translate(-131.4 -429.2)" fill="#4d21d6"/>
    </g>
  </g>
  <g id="Group_141" data-name="Group 141" transform="translate(1.329 9.734)">
    <g id="Group_138" data-name="Group 138" transform="translate(0.125 0.038)">
      <path id="Path_283" data-name="Path 283" d="M133.082,212.8a.1.1,0,0,1-.054-.011c-.215-.054-.431-.129-.463-.323a.255.255,0,0,1,.118-.269.208.208,0,0,1,.291.054.174.174,0,0,1,.032.1.874.874,0,0,0,.118.032.212.212,0,0,1-.043.42Zm-.162-.258Z" transform="translate(-132.561 -212.157)" fill="#4d21d6"/>
    </g>
    <g id="Group_139" data-name="Group 139" transform="translate(0.933)">
      <path id="Path_284" data-name="Path 284" d="M141.125,235.608h-.011c-.108-.011-.485-.032-.872-.1a.213.213,0,1,1,.075-.42c.366.065.721.086.818.1a.224.224,0,0,1,.2.226A.22.22,0,0,1,141.125,235.608Zm.851-.011a.214.214,0,0,1-.215-.2.207.207,0,0,1,.2-.215l.851-.022a.214.214,0,0,1,.215.2.207.207,0,0,1-.2.215l-.851.022Zm1.712-.032a.214.214,0,0,1-.215-.2.207.207,0,0,1,.2-.215l.851-.022a.21.21,0,0,1,.011.42l-.851.022Zm1.7-.032a.214.214,0,0,1-.215-.2.207.207,0,0,1,.2-.215l.851-.022h0a.214.214,0,0,1,.215.2.207.207,0,0,1-.2.215l-.851.022Zm1.7-.043a.214.214,0,0,1-.215-.2.207.207,0,0,1,.2-.215l.851-.022a.214.214,0,0,1,.215.2.207.207,0,0,1-.2.215l-.851.022Zm1.7-.032a.214.214,0,0,1-.215-.2.207.207,0,0,1,.2-.215l.851-.022a.214.214,0,0,1,.215.2.207.207,0,0,1-.2.215l-.851.022Zm1.7-.032a.214.214,0,0,1-.215-.2.207.207,0,0,1,.2-.215l.851-.011a.214.214,0,0,1,.215.2.207.207,0,0,1-.2.215l-.851.011Zm1.7-.022a.214.214,0,0,1-.215-.2.207.207,0,0,1,.2-.215l.851-.011a.21.21,0,1,1,.011.42l-.851.011Zm1.712-.032a.214.214,0,0,1-.215-.2.207.207,0,0,1,.2-.215l.851-.011a.222.222,0,0,1,.215.2.207.207,0,0,1-.2.215l-.851.011Zm1.7-.032a.214.214,0,0,1-.215-.2.207.207,0,0,1,.2-.215l.851-.011a.2.2,0,0,1,.215.2.207.207,0,0,1-.2.215l-.851.011Zm1.7-.032a.214.214,0,0,1-.215-.2.207.207,0,0,1,.2-.215l.851-.011h0a.21.21,0,1,1,.011.42l-.851.011Zm1.7-.022a.21.21,0,1,1-.011-.42l.851-.011h0a.21.21,0,0,1,.011.42l-.851.011Zm1.7-.032a.21.21,0,1,1-.011-.42l.851-.011a.222.222,0,0,1,.215.2.214.214,0,0,1-.2.215l-.851.011Zm1.7-.022a.21.21,0,0,1-.011-.42c.323,0,.6-.011.851-.011h0a.215.215,0,1,1,0,.431Zm1.712-.011a.214.214,0,0,1-.215-.2.224.224,0,0,1,.2-.226,4.486,4.486,0,0,0,.808-.1.211.211,0,0,1,.248.162.217.217,0,0,1-.162.248,5.307,5.307,0,0,1-.883.118Zm1.648-.366a.227.227,0,0,1-.194-.118.2.2,0,0,1,.1-.28,1.742,1.742,0,0,0,.6-.452.214.214,0,1,1,.323.28,2.329,2.329,0,0,1-.743.56A.21.21,0,0,1,165.773,234.855Zm1.055-1.249a.1.1,0,0,1-.054-.011.219.219,0,0,1-.162-.258,1.443,1.443,0,0,0,.043-.388.9.9,0,0,0-.011-.129v-.28a.216.216,0,0,1,.215-.215h0a.216.216,0,0,1,.215.215v.215h0a1.514,1.514,0,0,1,.011.194,2.341,2.341,0,0,1-.054.485A.207.207,0,0,1,166.829,233.606Zm.043-1.712h0a.216.216,0,0,1-.215-.215v-.851a.216.216,0,0,1,.215-.215h0a.216.216,0,0,1,.215.215v.851A.209.209,0,0,1,166.872,231.893Zm.011-1.7h0a.216.216,0,0,1-.215-.215v-.851a.216.216,0,0,1,.215-.215h0a.216.216,0,0,1,.215.215v.851A.223.223,0,0,1,166.882,230.192Zm0-1.7h0a.216.216,0,0,1-.215-.215v-.851a.216.216,0,0,1,.215-.215h0a.216.216,0,0,1,.215.215v.851A.216.216,0,0,1,166.882,228.491Zm.011-1.7h0a.216.216,0,0,1-.215-.215v-.851a.216.216,0,0,1,.215-.215h0a.216.216,0,0,1,.215.215v.851A.216.216,0,0,1,166.893,226.789Zm0-1.712h0a.216.216,0,0,1-.215-.215v-.851a.216.216,0,0,1,.215-.215h0a.216.216,0,0,1,.215.215v.851A.209.209,0,0,1,166.893,225.077Zm.011-1.7a.223.223,0,0,1-.215-.215v-.84l.215-.011.215.011v.84A.209.209,0,0,1,166.9,223.376Zm.011-1.7a.223.223,0,0,1-.215-.215v-.829l.215-.022.215.022v.829A.231.231,0,0,1,166.915,221.674Zm0-1.7h0a.216.216,0,0,1-.215-.215v-.851a.216.216,0,0,1,.215-.215h0a.216.216,0,0,1,.215.215v.851A.216.216,0,0,1,166.915,219.973Zm.011-1.7h0a.216.216,0,0,1-.215-.215v-.851a.216.216,0,0,1,.215-.215h0a.216.216,0,0,1,.215.215v.851A.231.231,0,0,1,166.925,218.272Zm0-1.7h0a.216.216,0,0,1-.215-.215V215.5a.216.216,0,0,1,.215-.215h0a.216.216,0,0,1,.215.215v.851A.216.216,0,0,1,166.925,216.57Zm0-1.712h0a.216.216,0,0,1-.215-.215v-.657a.987.987,0,0,0-.011-.183.207.207,0,0,1,.194-.226.214.214,0,0,1,.226.194,1.373,1.373,0,0,1,.011.215v.657A.2.2,0,0,1,166.925,214.858Zm-.237-1.658a.222.222,0,0,1-.183-.108,1.484,1.484,0,0,0-.517-.517.212.212,0,1,1,.215-.366,1.98,1.98,0,0,1,.668.668.214.214,0,0,1-.075.291A.241.241,0,0,1,166.689,213.2Zm-23.916-.549h-.463a.215.215,0,1,1,0-.431h.84a.215.215,0,1,1,0,.431h-.377Zm1.249-.011a.215.215,0,1,1,0-.431l.851-.011h0a.21.21,0,1,1,.011.42l-.861.022Zm-2.552-.011h0c-.345-.011-.625-.032-.861-.043a.211.211,0,0,1,.032-.42c.226.022.506.032.84.043a.207.207,0,0,1,.2.215A.221.221,0,0,1,141.469,212.629Zm4.253-.011a.21.21,0,0,1-.011-.42l.851-.011a.2.2,0,0,1,.215.2.207.207,0,0,1-.2.215l-.851.011Zm1.7-.032a.214.214,0,0,1-.215-.2.207.207,0,0,1,.2-.215l.851-.011a.2.2,0,0,1,.215.2.207.207,0,0,1-.2.215l-.851.011Zm1.7-.032a.214.214,0,0,1-.215-.2.207.207,0,0,1,.2-.215l.851-.022a.2.2,0,0,1,.215.2.207.207,0,0,1-.2.215l-.851.022Zm1.712-.032a.222.222,0,0,1-.215-.2.207.207,0,0,1,.2-.215l.851-.022a.21.21,0,0,1,.011.42l-.851.022Zm1.734-.032a.224.224,0,0,1-.226-.2.2.2,0,0,1,.194-.215l.851-.022a.21.21,0,0,1,.011.42l-.829.022Zm1.669-.032a.222.222,0,0,1-.215-.2.207.207,0,0,1,.2-.215l.851-.022a.214.214,0,0,1,.215.2.207.207,0,0,1-.2.215l-.851.022Zm1.7-.043a.222.222,0,0,1-.215-.2.207.207,0,0,1,.2-.215l.851-.022h0a.222.222,0,0,1,.215.2.207.207,0,0,1-.2.215l-.851.022Zm1.7-.032a.222.222,0,0,1-.215-.2.207.207,0,0,1,.2-.215l.851-.022a.214.214,0,0,1,.215.2.207.207,0,0,1-.2.215l-.851.022Zm1.734-.043-.032-.215.022-.215.818-.022a.2.2,0,0,1,.215.2.207.207,0,0,1-.2.215Zm5.923-.032h-.043a3.766,3.766,0,0,0-.8-.086.2.2,0,0,1-.2-.215.207.207,0,0,1,.215-.2h0a5.538,5.538,0,0,1,.883.1.214.214,0,0,1,.162.258A.234.234,0,0,1,165.3,212.306Zm-4.253-.011a.222.222,0,0,1-.215-.2.207.207,0,0,1,.2-.215l.851-.022a.21.21,0,1,1,.011.42l-.851.022Zm1.7-.043a.222.222,0,0,1-.215-.2.207.207,0,0,1,.2-.215l.851-.022a.21.21,0,0,1,.011.42l-.851.022Z" transform="translate(-140.066 -211.8)" fill="#4d21d6"/>
    </g>
    <g id="Group_140" data-name="Group 140" transform="translate(0 22.807)">
      <path id="Path_285" data-name="Path 285" d="M131.9,424.321a.253.253,0,0,1-.086-.022c-.269-.118-.409-.28-.409-.485a.215.215,0,1,1,.431,0s.022.043.151.1a.214.214,0,0,1,.108.28A.2.2,0,0,1,131.9,424.321Z" transform="translate(-131.4 -423.6)" fill="#4d21d6"/>
    </g>
  </g>
  <path id="Path_286" data-name="Path 286" d="M375.9,320.6" transform="translate(-348.243 -299.15)" fill="#596e7c" fill-rule="evenodd"/>
  <path id="Path_287" data-name="Path 287" d="M311.868,300a2.6,2.6,0,0,0-1.045,2.821,3.42,3.42,0,0,0,2.423,2.487,13.682,13.682,0,0,0,3.144,0c2.068-.183,3.478-.3,3.661-1.443s-5.007-4.469-5.007-4.469Z" transform="translate(-290.112 -280.233)" fill="#4d21d6" fill-rule="evenodd"/>
  <path id="Path_288" data-name="Path 288" d="M324.389,272.4v.625s-.258.538-1.378.538a23.917,23.917,0,0,0-5.384.6c-.818.323-2.552,1.141-1.529,4.415.711,2.272,8.83-4.781,8.83-4.781v-.732C324.927,273.078,324.863,272.475,324.389,272.4Z" transform="translate(-294.6 -256.14)" fill="#b88bfe" fill-rule="evenodd"/>
  <path id="Path_289" data-name="Path 289" d="M326.705,282.3l.237,5.729a1.371,1.371,0,0,1-1.378.872c-1.141.032-4.889.3-4.889.3s-2.875.269-2.875-2.574a2.93,2.93,0,0,1,2.487-3.123s1.6-.258,2.423-.312C323.378,283.14,326.275,283.14,326.705,282.3Z" transform="translate(-296.399 -264.974)" fill="#7634f4" fill-rule="evenodd"/>
  <g id="Group_142" data-name="Group 142" transform="translate(22.585 19.501)">
    <ellipse id="Ellipse_32" data-name="Ellipse 32" cx="1.701" cy="1.701" rx="1.701" ry="1.701" fill="#b88bfe"/>
    <path id="Path_290" data-name="Path 290" d="M330.835,305.446a1.39,1.39,0,0,1-.3-2.746H330.5a1.7,1.7,0,1,0,1.7,1.7v-.032A1.431,1.431,0,0,1,330.835,305.446Z" transform="translate(-328.8 -302.678)" fill="#4d21d6" fill-rule="evenodd"/>
  </g>
  <path id="Path_291" data-name="Path 291" d="M121.617,183.777s-2.154.054-1.874,1.131c.248.937,2.207.872,2.207.872l24.735-.355c2.369.086,2.294,2.714,2.294,2.714,0-1.917-2.154-2.078-2.154-2.078s-22.226.28-24.864.28-2.843-1.163-2.843-1.163-.215-.775.183-1.131a4.364,4.364,0,0,1,2.466-.646" transform="translate(-119.06 -176.724)" fill="#7634f4" fill-rule="evenodd"/>
</svg>
