<svg xmlns="http://www.w3.org/2000/svg" width="34.376" height="38.262" viewBox="0 0 34.376 38.262">
  <g id="WALLET2" transform="translate(-119.06 -121.4)">
    <path id="Path_461" data-name="Path 461" d="M154.893,176.625l.242,3.466-32.336.218v-4.048l2.424-.448,26.942-1.527A2.515,2.515,0,0,1,154.893,176.625Z" transform="translate(-3.287 -46.474)" fill="#4d21d6" fill-rule="evenodd"/>
    <path id="Path_462" data-name="Path 462" d="M149.122,170.9c2.472,0,2.472,2.739,2.472,2.739-.509-2.545-3.6-2.109-3.6-2.109l-24.106,1.333s-4.387.024-4.06,1.236c.279,1.054,2.485.982,2.485.982l27.839-.4c2.666.1,2.582,3.054,2.582,3.054,0-2.157-2.424-2.339-2.424-2.339s-25.015.315-27.985.315-3.2-1.309-3.2-1.309-.242-.873.206-1.273a4.912,4.912,0,0,1,2.775-.727C123.513,172.354,149.122,170.9,149.122,170.9Z" transform="translate(0 -43.501)" fill="#7634f4" fill-rule="evenodd"/>
    <circle id="Ellipse_48" data-name="Ellipse 48" cx="5.514" cy="5.514" r="5.514" transform="translate(122.047 124.721)" fill="#b88bfe"/>
    <circle id="Ellipse_49" data-name="Ellipse 49" cx="4.218" cy="4.218" r="4.218" transform="translate(123.343 126.018)" fill="#4d21d6"/>
    <circle id="Ellipse_50" data-name="Ellipse 50" cx="4.218" cy="4.218" r="4.218" transform="translate(123.343 126.43)" fill="#7634f4"/>
    <circle id="Ellipse_51" data-name="Ellipse 51" cx="5.514" cy="5.514" r="5.514" transform="translate(129.512 121.4)" fill="#b88bfe"/>
    <circle id="Ellipse_52" data-name="Ellipse 52" cx="4.218" cy="4.218" r="4.218" transform="translate(130.809 122.697)" fill="#4d21d6"/>
    <circle id="Ellipse_53" data-name="Ellipse 53" cx="4.218" cy="4.218" r="4.218" transform="translate(130.809 123.097)" fill="#7634f4"/>
    <circle id="Ellipse_54" data-name="Ellipse 54" cx="5.514" cy="5.514" r="5.514" transform="translate(130.809 125.618)" fill="#b88bfe"/>
    <circle id="Ellipse_55" data-name="Ellipse 55" cx="4.218" cy="4.218" r="4.218" transform="translate(132.106 126.914)" fill="#4d21d6"/>
    <circle id="Ellipse_56" data-name="Ellipse 56" cx="4.218" cy="4.218" r="4.218" transform="translate(132.106 127.314)" fill="#7634f4"/>
    <circle id="Ellipse_57" data-name="Ellipse 57" cx="5.514" cy="5.514" r="5.514" transform="translate(137.645 124.721)" fill="#b88bfe"/>
    <circle id="Ellipse_58" data-name="Ellipse 58" cx="4.218" cy="4.218" r="4.218" transform="translate(138.941 126.018)" fill="#4d21d6"/>
    <circle id="Ellipse_59" data-name="Ellipse 59" cx="4.218" cy="4.218" r="4.218" transform="translate(138.941 126.43)" fill="#7634f4"/>
    <path id="Path_463" data-name="Path 463" d="M119.8,227.363V199.9s.133,1.309,3.1,1.309,27.985-.315,27.985-.315,2.424.182,2.424,2.339v22.543s-.133,2.388-2.072,2.388-29.148.448-29.148.448S120.248,228.7,119.8,227.363Z" transform="translate(-0.65 -68.986)" fill="#b88bfe" fill-rule="evenodd"/>
    <g id="Group_586" data-name="Group 586" transform="translate(120.532 131.859)">
      <g id="Group_583" data-name="Group 583">
        <path id="Path_464" data-name="Path 464" d="M131.442,208.657a.243.243,0,0,1-.242-.242v-.473a.243.243,0,0,1,.242-.242h0a.243.243,0,0,1,.242.242v.473a.26.26,0,0,1-.242.242Z" transform="translate(-131.2 -207.7)" fill="#4d21d6"/>
      </g>
      <g id="Group_584" data-name="Group 584" transform="translate(0 1.442)">
        <path id="Path_465" data-name="Path 465" d="M131.467,244.506a.243.243,0,0,1-.242-.242v-.982a.243.243,0,0,1,.242-.242h0a.243.243,0,0,1,.242.242v.982a.243.243,0,0,1-.242.242Zm0-1.951a.243.243,0,0,1-.242-.242v-.982a.243.243,0,0,1,.242-.242h0a.243.243,0,0,1,.242.242v.982a.243.243,0,0,1-.242.242Zm0-1.951a.243.243,0,0,1-.242-.242v-.982a.243.243,0,0,1,.242-.242h0a.243.243,0,0,1,.242.242v.982a.251.251,0,0,1-.242.242Zm0-1.963a.243.243,0,0,1-.242-.242v-.982a.243.243,0,0,1,.242-.242h0a.243.243,0,0,1,.242.242v.982a.251.251,0,0,1-.242.242Zm-.012-1.951a.243.243,0,0,1-.242-.242v-.982a.243.243,0,0,1,.242-.242h0a.243.243,0,0,1,.242.242v.982a.243.243,0,0,1-.242.242Zm0-1.951a.243.243,0,0,1-.242-.242v-.982a.243.243,0,0,1,.242-.242h0a.243.243,0,0,1,.242.242v.982a.243.243,0,0,1-.242.242Zm0-1.951a.243.243,0,0,1-.242-.242v-.982a.243.243,0,0,1,.242-.242h0a.243.243,0,0,1,.242.242v.982a.243.243,0,0,1-.242.242Zm0-1.951a.243.243,0,0,1-.242-.242v-.982a.243.243,0,0,1,.242-.242h0a.243.243,0,0,1,.242.242v.982a.251.251,0,0,1-.242.242Zm0-1.951a.243.243,0,0,1-.242-.242v-.982a.243.243,0,0,1,.242-.242h0a.243.243,0,0,1,.242.242v.982a.26.26,0,0,1-.242.242Zm-.012-1.963a.243.243,0,0,1-.242-.242V225.7a.243.243,0,0,1,.242-.242h0a.243.243,0,0,1,.242.242v.982a.243.243,0,0,1-.242.242Zm0-1.951a.243.243,0,0,1-.242-.242v-.982a.243.243,0,0,1,.242-.242h0a.243.243,0,0,1,.242.242v.982a.243.243,0,0,1-.242.242Zm0-1.951a.243.243,0,0,1-.242-.242v-.982a.243.243,0,0,1,.242-.242h0a.243.243,0,0,1,.242.242v.982a.243.243,0,0,1-.242.242Zm0-1.951a.243.243,0,0,1-.242-.242v-.982a.243.243,0,0,1,.242-.242h0a.243.243,0,0,1,.242.242v.982a.251.251,0,0,1-.242.242Z" transform="translate(-131.2 -219.6)" fill="#4d21d6"/>
      </g>
      <g id="Group_585" data-name="Group 585" transform="translate(0.024 26.845)">
        <path id="Path_466" data-name="Path 466" d="M131.642,430.157a.243.243,0,0,1-.242-.242v-.473a.243.243,0,0,1,.242-.242h0a.243.243,0,0,1,.242.242v.473a.243.243,0,0,1-.242.242Z" transform="translate(-131.4 -429.2)" fill="#4d21d6"/>
      </g>
    </g>
    <g id="Group_590" data-name="Group 590" transform="translate(120.556 132.356)">
      <g id="Group_587" data-name="Group 587" transform="translate(0.141 0.043)">
        <path id="Path_467" data-name="Path 467" d="M133.147,212.877a.109.109,0,0,1-.061-.012c-.242-.061-.485-.145-.521-.364a.287.287,0,0,1,.133-.3.234.234,0,0,1,.327.061.2.2,0,0,1,.036.109.981.981,0,0,0,.133.036.239.239,0,0,1-.048.473Zm-.182-.291Z" transform="translate(-132.561 -212.157)" fill="#4d21d6"/>
      </g>
      <g id="Group_588" data-name="Group 588" transform="translate(1.05 0)">
        <path id="Path_468" data-name="Path 468" d="M141.258,238.6h-.012c-.121-.012-.545-.036-.982-.109a.24.24,0,1,1,.085-.473c.412.073.812.1.921.109a.252.252,0,0,1,.23.255A.248.248,0,0,1,141.258,238.6Zm.957-.012a.241.241,0,0,1-.242-.23.233.233,0,0,1,.23-.242l.957-.024a.241.241,0,0,1,.242.23.233.233,0,0,1-.23.242l-.957.024Zm1.927-.036a.241.241,0,0,1-.242-.23.233.233,0,0,1,.23-.242l.957-.024a.236.236,0,1,1,.012.473l-.957.024Zm1.915-.036a.241.241,0,0,1-.242-.23.233.233,0,0,1,.23-.242l.957-.024h0a.241.241,0,0,1,.242.23.233.233,0,0,1-.23.242l-.957.024Zm1.915-.048a.241.241,0,0,1-.242-.23.233.233,0,0,1,.23-.242l.957-.024a.241.241,0,0,1,.242.23.233.233,0,0,1-.23.242l-.957.024Zm1.915-.036a.241.241,0,0,1-.242-.23.233.233,0,0,1,.23-.242l.957-.024a.241.241,0,0,1,.242.23.233.233,0,0,1-.23.242l-.957.024Zm1.915-.036a.241.241,0,0,1-.242-.23.233.233,0,0,1,.23-.242l.957-.012a.241.241,0,0,1,.242.23.233.233,0,0,1-.23.242l-.957.012Zm1.915-.024a.241.241,0,0,1-.242-.23.233.233,0,0,1,.23-.242l.957-.012a.236.236,0,0,1,.012.473l-.957.012Zm1.927-.036a.241.241,0,0,1-.242-.23.233.233,0,0,1,.23-.242l.957-.012a.25.25,0,0,1,.242.23.233.233,0,0,1-.23.242l-.957.012Zm1.915-.036a.241.241,0,0,1-.242-.23.233.233,0,0,1,.23-.242l.957-.012a.226.226,0,0,1,.242.23.233.233,0,0,1-.23.242l-.957.012Zm1.915-.036a.241.241,0,0,1-.242-.23.233.233,0,0,1,.23-.242l.957-.012h0a.236.236,0,0,1,.012.473l-.957.012Zm1.915-.024a.236.236,0,0,1-.012-.473l.957-.012h0a.236.236,0,0,1,.012.473l-.957.012Zm1.915-.036a.236.236,0,0,1-.012-.473l.957-.012a.25.25,0,0,1,.242.23.241.241,0,0,1-.23.242l-.957.012Zm1.915-.024a.236.236,0,1,1-.012-.473c.364,0,.679-.012.957-.012h0a.242.242,0,1,1,0,.485Zm1.927-.012a.241.241,0,0,1-.242-.23.252.252,0,0,1,.23-.255,5.049,5.049,0,0,0,.909-.109.237.237,0,0,1,.279.182.244.244,0,0,1-.182.279,5.976,5.976,0,0,1-.994.133Zm1.854-.412a.255.255,0,0,1-.218-.133.226.226,0,0,1,.109-.315,1.961,1.961,0,0,0,.679-.509.241.241,0,0,1,.364.315,2.622,2.622,0,0,1-.836.63A.236.236,0,0,1,169,237.748Zm1.188-1.406a.109.109,0,0,1-.061-.012.247.247,0,0,1-.182-.291,1.624,1.624,0,0,0,.048-.436,1.013,1.013,0,0,0-.012-.145v-.315a.243.243,0,0,1,.242-.242h0a.243.243,0,0,1,.242.242v.242h0a1.705,1.705,0,0,1,.012.218,2.634,2.634,0,0,1-.061.545A.232.232,0,0,1,170.188,236.343Zm.048-1.927h0a.243.243,0,0,1-.242-.242v-.957a.243.243,0,0,1,.242-.242h0a.243.243,0,0,1,.242.242v.957A.236.236,0,0,1,170.236,234.415Zm.012-1.915h0a.243.243,0,0,1-.242-.242V231.3a.243.243,0,0,1,.242-.242h0a.243.243,0,0,1,.242.242v.957A.251.251,0,0,1,170.248,232.5Zm0-1.915h0a.243.243,0,0,1-.242-.242v-.957a.243.243,0,0,1,.242-.242h0a.243.243,0,0,1,.242.242v.957A.243.243,0,0,1,170.248,230.586Zm.012-1.915h0a.243.243,0,0,1-.242-.242v-.957a.243.243,0,0,1,.242-.242h0a.243.243,0,0,1,.242.242v.957A.243.243,0,0,1,170.26,228.671Zm0-1.927h0a.243.243,0,0,1-.242-.242v-.957a.243.243,0,0,1,.242-.242h0a.243.243,0,0,1,.242.242v.957A.236.236,0,0,1,170.26,226.744Zm.012-1.915a.251.251,0,0,1-.242-.242v-.945l.242-.012.242.012v.945A.236.236,0,0,1,170.273,224.829Zm.012-1.915a.251.251,0,0,1-.242-.242v-.933l.242-.024.242.024v.933A.26.26,0,0,1,170.285,222.914Zm0-1.915h0a.243.243,0,0,1-.242-.242V219.8a.243.243,0,0,1,.242-.242h0a.243.243,0,0,1,.242.242v.957A.243.243,0,0,1,170.285,221Zm.012-1.915h0a.243.243,0,0,1-.242-.242v-.957a.243.243,0,0,1,.242-.242h0a.243.243,0,0,1,.242.242v.957A.26.26,0,0,1,170.3,219.084Zm0-1.915h0a.243.243,0,0,1-.242-.242v-.957a.243.243,0,0,1,.242-.242h0a.243.243,0,0,1,.242.242v.957A.243.243,0,0,1,170.3,217.169Zm0-1.927h0a.243.243,0,0,1-.242-.242v-.739a1.109,1.109,0,0,0-.012-.206.233.233,0,0,1,.218-.255.24.24,0,0,1,.255.218,1.546,1.546,0,0,1,.012.242V215A.226.226,0,0,1,170.3,215.242Zm-.267-1.866a.25.25,0,0,1-.206-.121,1.671,1.671,0,0,0-.582-.582.239.239,0,0,1,.242-.412,2.228,2.228,0,0,1,.751.751.24.24,0,0,1-.085.327A.271.271,0,0,1,170.03,213.376Zm-26.918-.618h-.521a.242.242,0,0,1,0-.485h.945a.242.242,0,1,1,0,.485h-.424Zm1.406-.012a.242.242,0,1,1,0-.485l.957-.012h0a.236.236,0,1,1,.012.473l-.97.024Zm-2.872-.012h0c-.388-.012-.7-.036-.97-.048a.237.237,0,0,1,.036-.473c.255.024.57.036.945.048a.233.233,0,0,1,.23.242A.249.249,0,0,1,141.646,212.733Zm4.787-.012a.236.236,0,0,1-.012-.473l.957-.012a.226.226,0,0,1,.242.23.233.233,0,0,1-.23.242l-.957.012Zm1.915-.036a.241.241,0,0,1-.242-.23.233.233,0,0,1,.23-.242l.957-.012a.226.226,0,0,1,.242.23.233.233,0,0,1-.23.242l-.957.012Zm1.915-.036a.241.241,0,0,1-.242-.23.233.233,0,0,1,.23-.242l.957-.024a.22.22,0,0,1,.242.23.233.233,0,0,1-.23.242l-.957.024Zm1.927-.036a.25.25,0,0,1-.242-.23.233.233,0,0,1,.23-.242l.957-.024a.236.236,0,0,1,.012.473l-.957.024Zm1.951-.036a.252.252,0,0,1-.255-.23.224.224,0,0,1,.218-.242l.957-.024a.236.236,0,0,1,.012.473l-.933.024Zm1.879-.036a.25.25,0,0,1-.242-.23.233.233,0,0,1,.23-.242l.957-.024a.241.241,0,0,1,.242.23.233.233,0,0,1-.23.242l-.957.024Zm1.915-.048a.25.25,0,0,1-.242-.23.233.233,0,0,1,.23-.242l.957-.024h0a.25.25,0,0,1,.242.23.233.233,0,0,1-.23.242l-.957.024Zm1.915-.036a.25.25,0,0,1-.242-.23.233.233,0,0,1,.23-.242l.957-.024a.241.241,0,0,1,.242.23.233.233,0,0,1-.23.242l-.957.024Zm1.951-.048-.036-.242.024-.242.921-.024a.226.226,0,0,1,.242.23.233.233,0,0,1-.23.242Zm6.666-.036h-.048a4.237,4.237,0,0,0-.9-.1.226.226,0,0,1-.23-.242.233.233,0,0,1,.242-.23h0a6.234,6.234,0,0,1,.994.109.241.241,0,0,1,.182.291A.264.264,0,0,1,168.467,212.37Zm-4.787-.012a.25.25,0,0,1-.242-.23.233.233,0,0,1,.23-.242l.957-.024a.236.236,0,1,1,.012.473l-.957.024Zm1.915-.048a.25.25,0,0,1-.242-.23.233.233,0,0,1,.23-.242l.957-.024a.236.236,0,0,1,.012.473l-.957.024Z" transform="translate(-140.066 -211.8)" fill="#4d21d6"/>
      </g>
      <g id="Group_589" data-name="Group 589" transform="translate(0 25.67)">
        <path id="Path_469" data-name="Path 469" d="M131.958,424.412a.285.285,0,0,1-.1-.024c-.3-.133-.461-.315-.461-.545a.242.242,0,1,1,.485,0s.024.048.17.109a.241.241,0,0,1,.121.315A.222.222,0,0,1,131.958,424.412Z" transform="translate(-131.4 -423.6)" fill="#4d21d6"/>
      </g>
    </g>
    <path id="Path_470" data-name="Path 470" d="M375.9,320.6" transform="translate(-225.711 -175.057)" fill="#596e7c" fill-rule="evenodd"/>
    <path id="Path_471" data-name="Path 471" d="M312.008,300.079a2.926,2.926,0,0,0-1.176,3.175,3.849,3.849,0,0,0,2.727,2.8,15.4,15.4,0,0,0,3.539,0c2.327-.206,3.915-.339,4.121-1.624s-5.636-5.03-5.636-5.03Z" transform="translate(-168.461 -156.427)" fill="#4d21d6" fill-rule="evenodd"/>
    <path id="Path_472" data-name="Path 472" d="M325.469,272.4v.7s-.291.606-1.551.606a26.921,26.921,0,0,0-6.06.679c-.921.364-2.872,1.285-1.721,4.969.8,2.557,9.938-5.381,9.938-5.381v-.824C326.075,273.164,326,272.485,325.469,272.4Z" transform="translate(-172.881 -132.699)" fill="#b88bfe" fill-rule="evenodd"/>
    <path id="Path_473" data-name="Path 473" d="M327.823,282.3l.267,6.448a1.543,1.543,0,0,1-1.551.982c-1.285.036-5.5.339-5.5.339s-3.236.3-3.236-2.9a3.3,3.3,0,0,1,2.8-3.515s1.806-.291,2.727-.351C324.078,283.245,327.338,283.245,327.823,282.3Z" transform="translate(-174.653 -141.399)" fill="#7634f4" fill-rule="evenodd"/>
    <g id="Group_591" data-name="Group 591" transform="translate(144.48 143.349)">
      <circle id="Ellipse_60" data-name="Ellipse 60" cx="1.915" cy="1.915" r="1.915" transform="translate(0 0)" fill="#b88bfe"/>
      <path id="Path_474" data-name="Path 474" d="M331.091,305.791a1.564,1.564,0,0,1-.339-3.091h-.036a1.915,1.915,0,1,0,1.915,1.915v-.036A1.61,1.61,0,0,1,331.091,305.791Z" transform="translate(-328.8 -302.676)" fill="#4d21d6" fill-rule="evenodd"/>
    </g>
    <path id="Path_475" data-name="Path 475" d="M121.937,183.824s-2.424.061-2.109,1.273c.279,1.054,2.485.982,2.485.982l27.839-.4c2.666.1,2.582,3.054,2.582,3.054,0-2.157-2.424-2.339-2.424-2.339s-25.015.315-27.985.315-3.2-1.309-3.2-1.309-.242-.873.206-1.273a4.912,4.912,0,0,1,2.775-.727" transform="translate(0 -54.486)" fill="#7634f4" fill-rule="evenodd"/>
  </g>
</svg>
