<?xml version="1.0" encoding="utf-8"?>
<!-- Generator: Adobe Illustrator 25.0.0, SVG Export Plug-In . SVG Version: 6.00 Build 0)  -->
<svg version="1.1" id="Capa_1" xmlns="http://www.w3.org/2000/svg" xmlns:xlink="http://www.w3.org/1999/xlink" x="0px" y="0px"
	 viewBox="0 0 512 512" style="enable-background:new 0 0 512 512;" xml:space="preserve">
<style type="text/css">
	.st0{fill:#4F6270;}
	.st1{fill:#647B8E;}
	.st2{fill:#7E97B0;}
	.st3{fill:#8FADC6;}
</style>
<path class="st0" d="M156,223.4l105.8,126.3c0,0,6.9,11.6,29.5,7.5c22.6-4,156.1-30.1,156.1-30.1l-26-30.7l-131.3,24.5
	c0,0-3.9,2.3-9.1-3.7c-5.2-6-86.6-99.7-86.6-99.7L156,223.4z"/>
<path class="st1" d="M370.1,33.1L325.8,165c-6.7,19.8-9.3,26.3,4.7,41.9L428,315.6c13.9,15.6,27.6,16.6,34.6-3.1l47.4-142
	c6.9-19.7,4-21.3-9.7-37.1L407.1,25.8C393.5,10,376.8,13.3,370.1,33.1z M387.8,59.9l84.3,93.6c3.3,3.7,4.6,10.6,3,15.3l-33.4,97.8
	c-1.6,4.7-5.6,5.5-8.9,1.8l-86.7-95.1c-3.3-3.7-4.6-10.5-2.9-15.2l35.5-96.6C380.5,56.9,384.6,56.2,387.8,59.9z"/>
<path class="st0" d="M-0.3,223.4l-1.2,159.4c0,0-2.3,13.3,17.5,24.9c19.7,11.6,138,79.1,138,79.1l0.3-40.2L38.7,379.5
	c0,0-4.4-0.8-4.5-8.7c0-7.9-0.6-132-0.6-132L-0.3,223.4z"/>
<path class="st1" d="M287.1,213.5l-119.7,71.1c-18,10.7-24.2,13.9-23.8,34.8l3.1,146c0.4,20.9,10.1,30.6,28.2,20.2l128.6-76.7
	c18.1-10.4,16.9-13.5,16.9-34.4l-0.5-142.3C319.8,211.2,305.1,202.8,287.1,213.5z M284.7,250.4l1.2,120.9c0.1,4.9-3.4,11-7.7,13.6
	l-89.2,52.3c-4.3,2.5-7.8,0.5-7.9-4.4l-2-123.5c-0.1-4.9,3.4-11,7.7-13.4l89.9-50C281.1,243.4,284.7,245.4,284.7,250.4z"/>
<path class="st2" d="M374.1,13.4L237.6,40.7c-20.5,4.1-27.5,5.1-34.1,24.9L158,204.3c-6.6,19.8-0.6,32.2,19.9,28.4l146.8-29.6
	c20.6-3.8,20.5-7.1,27.4-26.9l46.9-134.3C405.8,22.2,394.6,9.4,374.1,13.4z M353.7,64.2l-33.2,97.6c-1.6,4.7-6.9,9.3-11.7,10.2
	l-101.5,19.7c-4.9,0.9-7.6-2.1-6-6.8l33.3-100.4c1.6-4.7,6.8-9.2,11.7-10.1l101.4-17.3C352.6,56.4,355.3,59.5,353.7,64.2z"/>
<path class="st3" d="M302.9,201.2l-121.2-68.4c-18.2-10.3-24.1-14.1-42.1-3.3L14.6,204.9c-17.9,10.7-21.5,24-3.4,34.6l130.6,73.3
	c18.1,10.5,20.2,7.9,38.3-2.5l123.1-71.2C321.2,228.5,321.1,211.5,302.9,201.2z M254.3,226.4l-88.8,52.3c-4.3,2.5-11.3,2.6-15.6,0.1
	l-89.8-51.3c-4.3-2.5-4.3-6.5-0.1-9.1l90.7-54.4c4.2-2.5,11.2-2.5,15.4,0l88.1,53C258.6,219.7,258.6,223.9,254.3,226.4z"/>
<polyline class="st2" points="274.2,178.8 207.3,191.8 217.6,224.7 320.4,204 "/>
<path class="st0" d="M218,297.1l43.8,52.5c0,0,6.9,11.6,29.5,7.5c22.6-4,111.4-24.4,111.4-24.4L380.8,307l-90.7,13.9
	c0,0-3.9,2.3-9.1-3.7c-5.2-6-24.6-25.9-24.6-25.9L218,297.1z"/>
</svg>
