<svg id="download_illustration" data-name="download illustration" xmlns="http://www.w3.org/2000/svg" xmlns:xlink="http://www.w3.org/1999/xlink" width="368.049" height="353.212" viewBox="0 0 368.049 353.212">
  <defs>
    <clipPath id="clip-path">
      <rect id="Rectangle_1451" data-name="Rectangle 1451" width="368.049" height="353.212" fill="none"/>
    </clipPath>
    <clipPath id="clip-path-6">
      <rect id="Rectangle_1442" data-name="Rectangle 1442" width="58.647" height="76.115" fill="none"/>
    </clipPath>
    <clipPath id="clip-path-9">
      <rect id="Rectangle_1446" data-name="Rectangle 1446" width="188.928" height="81.801" fill="none"/>
    </clipPath>
    <clipPath id="clip-path-10">
      <rect id="Rectangle_1447" data-name="Rectangle 1447" width="12.377" height="9.824" fill="none"/>
    </clipPath>
    <clipPath id="clip-path-11">
      <rect id="Rectangle_1448" data-name="Rectangle 1448" width="5.66" height="21.95" fill="none"/>
    </clipPath>
    <clipPath id="clip-path-12">
      <rect id="Rectangle_1449" data-name="Rectangle 1449" width="2.427" height="19.214" fill="none"/>
    </clipPath>
  </defs>
  <g id="Group_597" data-name="Group 597" clip-path="url(#clip-path)">
    <path id="Path_591" data-name="Path 591" d="M259.677,357.11v27.98h-9.611l20.717,24.134,19.436-23.639h-9.825V357.11Z" transform="translate(-39.222 -56.012)" fill="#ebebeb"/>
    <path id="Path_592" data-name="Path 592" d="M304.312,107.133v9.851h-3.384l7.293,8.5,6.843-8.323H311.6V107.133Z" transform="translate(-47.2 -16.804)" fill="#ebebeb"/>
    <path id="Path_593" data-name="Path 593" d="M407.357,215.5v20.223H400.41l14.974,17.445,14.048-17.086h-7.1V215.5Z" transform="translate(-62.804 -33.8)" fill="#ebebeb"/>
    <path id="Path_594" data-name="Path 594" d="M27.5,312.435v20.223H20.551L35.526,350.1l14.048-17.086h-7.1V312.435Z" transform="translate(-3.223 -49.005)" fill="#ebebeb"/>
    <path id="Path_595" data-name="Path 595" d="M175.325,351.646v15.093H170.14l11.176,13.02L191.8,367.006h-5.3V351.646Z" transform="translate(-26.686 -55.155)" fill="#ebebeb"/>
    <g id="Group_565" data-name="Group 565">
      <g id="Group_564" data-name="Group 564" clip-path="url(#clip-path)">
        <path id="Path_596" data-name="Path 596" d="M119.039,54.724c.707-5.134-6.539-9.358-11.985-9.8-2.6-.21-5.293.187-7.754-.67-5.33-1.857-7.458-8.743-12.658-10.936-3.889-1.64-8.364-.18-12.134,1.717s-7.494,4.284-11.7,4.554c-3.663.234-7.641-1.124-10.845.665-2.389,1.333-3.639,4.085-5.841,5.708-2.153,1.588-4.962,1.925-7.634,2.07s-5.437.173-7.871,1.287-4.445,3.686-3.94,6.314Z" transform="translate(-4.172 -5.115)" fill="#f5f5f5"/>
        <path id="Path_597" data-name="Path 597" d="M421.506,168.875c.615-4.466-5.689-8.141-10.426-8.523-2.259-.182-4.6.164-6.744-.583-4.636-1.615-6.488-7.605-11.012-9.513-3.382-1.427-7.276-.157-10.555,1.493s-6.519,3.727-10.183,3.961c-3.185.2-6.646-.977-9.434.579-2.078,1.16-3.165,3.553-5.08,4.966-1.873,1.381-4.317,1.674-6.641,1.8s-4.731.15-6.847,1.119-3.867,3.206-3.427,5.493Z" transform="translate(-53.499 -23.471)" fill="#f5f5f5"/>
        <path id="Path_598" data-name="Path 598" d="M184.351,9.408c.3-2.185-2.782-3.981-5.1-4.168a13.069,13.069,0,0,1-3.3-.285c-2.268-.79-3.174-3.719-5.385-4.653-1.654-.7-3.558-.076-5.162.731s-3.188,1.822-4.98,1.937c-1.558.1-3.25-.478-4.613.283-1.016.567-1.548,1.738-2.485,2.428a5.926,5.926,0,0,1-3.248.88,9.162,9.162,0,0,0-3.348.547A2.646,2.646,0,0,0,145.059,9.8Z" transform="translate(-22.747 0)" fill="#e0e0e0"/>
        <path id="Path_599" data-name="Path 599" d="M418.207,391.605c.553-4.016-5.115-7.319-9.373-7.663-2.031-.164-4.141.147-6.065-.524-4.169-1.454-5.834-6.839-9.9-8.555-3.041-1.282-6.542-.141-9.491,1.343s-5.862,3.351-9.155,3.561c-2.865.184-5.976-.879-8.483.521-1.868,1.042-2.846,3.195-4.567,4.464-1.685,1.242-3.882,1.505-5.971,1.619a16.827,16.827,0,0,0-6.156,1.006c-1.9.872-3.477,2.884-3.083,4.939Z" transform="translate(-54.254 -58.71)" fill="#e0e0e0"/>
      </g>
    </g>
    <g id="Group_567" data-name="Group 567">
      <g id="Group_566" data-name="Group 566" clip-path="url(#clip-path)">
        <path id="Path_600" data-name="Path 600" d="M168.76,94.543l-6.5-11.462a30.71,30.71,0,1,0-7.356,8.182l-.01.013Z" transform="translate(-16.545 -5.705)" fill="#fafafa"/>
        <path id="Path_601" data-name="Path 601" d="M168.725,94.51,154.83,91.351l-.164-.038.1-.135.01-.014.154.153a30.638,30.638,0,0,1-14.722,6.212,27.6,27.6,0,0,1-4.858.247c-.836-.047-1.687-.067-2.545-.139l-2.594-.391a30.955,30.955,0,0,1-19.182-12.309,30.6,30.6,0,0,1-5.19-11.858,31.293,31.293,0,0,1,.362-13.656,30.286,30.286,0,0,1,6.58-12.625,30.824,30.824,0,0,1,11.828-8.444,31.325,31.325,0,0,1,13.76-2.114A30.284,30.284,0,0,1,151,39.974,31.128,31.128,0,0,1,165.566,57.9a33.166,33.166,0,0,1,1.331,9.982A30.551,30.551,0,0,1,162.311,83.1l0-.107,6.412,11.513-6.6-11.41-.03-.053.033-.054a30.482,30.482,0,0,0,4.462-15.116,32.959,32.959,0,0,0-1.355-9.872,30.825,30.825,0,0,0-14.433-17.678,29.9,29.9,0,0,0-12.464-3.665,30.927,30.927,0,0,0-13.568,2.1,30.431,30.431,0,0,0-11.658,8.328,29.893,29.893,0,0,0-6.49,12.444A30.909,30.909,0,0,0,106.258,73a30.228,30.228,0,0,0,5.1,11.706,30.651,30.651,0,0,0,18.92,12.2l2.562.4c.849.074,1.691.1,2.518.147a27.423,27.423,0,0,0,4.81-.225A30.558,30.558,0,0,0,154.8,91.144l.673-.519-.519.672-.01.013-.062-.173,13.844,3.373" transform="translate(-16.51 -5.671)" fill="#263238"/>
        <path id="Path_602" data-name="Path 602" d="M148.458,86.651H128.589a1.734,1.734,0,0,1-1.734-1.734V55.551a1.734,1.734,0,0,1,1.734-1.734h19.869a1.734,1.734,0,0,1,1.734,1.734V84.917a1.734,1.734,0,0,1-1.734,1.734" transform="translate(-19.897 -8.441)" fill="#263238"/>
        <rect id="Rectangle_1438" data-name="Rectangle 1438" width="21.064" height="24.538" transform="translate(108.044 47.351)" fill="#fafafa"/>
        <path id="Path_603" data-name="Path 603" d="M142.134,88.653a1.768,1.768,0,1,1-1.768-1.768,1.769,1.769,0,0,1,1.768,1.768" transform="translate(-21.739 -13.628)" fill="#455a64"/>
        <path id="Path_604" data-name="Path 604" d="M144.2,62.659l7.77,9.172,7.283-9.172h-3.776V50.034l-7.554-.092.089,12.736Z" transform="translate(-22.617 -7.833)" fill="#007686"/>
        <path id="Path_605" data-name="Path 605" d="M143.474,69.116a28.9,28.9,0,0,1-3.307,3.784,28.95,28.95,0,0,1-3.625,3.481,28.872,28.872,0,0,1,3.307-3.785,28.908,28.908,0,0,1,3.625-3.481" transform="translate(-21.416 -10.84)" fill="#263238"/>
        <path id="Path_606" data-name="Path 606" d="M142.216,67.807a9.266,9.266,0,0,1-1.836,2.108,8.877,8.877,0,0,1-2.123,1.777,8.979,8.979,0,0,1,1.835-2.108,8.778,8.778,0,0,1,2.124-1.777" transform="translate(-21.684 -10.634)" fill="#263238"/>
      </g>
    </g>
    <path id="Path_607" data-name="Path 607" d="M369.431,64.345V78.6h-4.9l10.558,12.3L385,78.857h-5.007V64.345Z" transform="translate(-57.176 -10.092)" fill="#007686"/>
    <g id="Group_572" data-name="Group 572">
      <g id="Group_571" data-name="Group 571" clip-path="url(#clip-path)">
        <path id="Path_609" data-name="Path 609" d="M397.056,22.655A28.358,28.358,0,0,0,347.436,12.02a23.58,23.58,0,1,0-2.731,47H396.06a18.2,18.2,0,0,0,1-36.365" transform="translate(-50.367 -0.214)" fill="#01eeff"/>
        <path id="Path_610" data-name="Path 610" d="M417.621,58.73c-.046-.066.975-.7,2.328-2.059a16.838,16.838,0,0,0,4.9-13.565c-.174-1.907-.551-3.051-.473-3.072a2.8,2.8,0,0,1,.307.787,13.818,13.818,0,0,1,.475,2.251,16.038,16.038,0,0,1-5,13.821,13.689,13.689,0,0,1-1.805,1.427,2.822,2.822,0,0,1-.739.409" transform="translate(-65.503 -6.279)" fill="#263238"/>
        <path id="Path_611" data-name="Path 611" d="M349.364,22.064c-.015.081-1.3-.247-3.412-.3a18.709,18.709,0,0,0-14.584,6.38c-1.4,1.584-2.029,2.75-2.1,2.707a3.363,3.363,0,0,1,.409-.835,15.453,15.453,0,0,1,1.454-2.074,17.881,17.881,0,0,1,14.831-6.489,15.574,15.574,0,0,1,2.51.34,3.357,3.357,0,0,1,.89.266" transform="translate(-51.645 -3.361)" fill="#263238"/>
        <path id="Path_612" data-name="Path 612" d="M369.6,8.363c.006.08-.936.14-2.389.523a15.916,15.916,0,0,0-9.258,6.723c-.813,1.263-1.161,2.14-1.236,2.11a1.981,1.981,0,0,1,.186-.639,10.294,10.294,0,0,1,.785-1.633,13.865,13.865,0,0,1,1.571-2.189A14.822,14.822,0,0,1,364.57,9.4a13.837,13.837,0,0,1,2.567-.816,10.155,10.155,0,0,1,1.8-.241,1.936,1.936,0,0,1,.665.02" transform="translate(-55.949 -1.307)" fill="#263238"/>
        <path id="Path_613" data-name="Path 613" d="M392.43,69.469c0,.121-6.935.219-15.488.219s-15.49-.1-15.49-.219,6.934-.219,15.49-.219,15.488.1,15.488.219" transform="translate(-56.693 -10.862)" fill="#263238"/>
        <path id="Path_614" data-name="Path 614" d="M400.212,115.173c-.121,0-.219-5.68-.219-12.685s.1-12.686.219-12.686.219,5.679.219,12.686-.1,12.685-.219,12.685" transform="translate(-62.738 -14.085)" fill="#263238"/>
        <path id="Path_615" data-name="Path 615" d="M406.092,126.961c-.121,0-.219-7.313-.219-16.33s.1-16.332.219-16.332.219,7.31.219,16.332-.1,16.33-.219,16.33" transform="translate(-63.66 -14.791)" fill="#263238"/>
      </g>
    </g>
    <path id="Path_616" data-name="Path 616" d="M208.615,324.845V365.71H194.577l30.259,35.25,28.387-34.527h-14.35V324.845Z" transform="translate(-30.519 -50.951)" fill="#007686"/>
    <g id="Group_577" data-name="Group 577">
      <g id="Group_576" data-name="Group 576" clip-path="url(#clip-path)">
        <path id="Path_618" data-name="Path 618" d="M287.788,205.364a81.272,81.272,0,0,0-142.206-30.478,67.578,67.578,0,1,0-7.828,134.7h147.18a52.148,52.148,0,0,0,2.854-104.22" transform="translate(-11.004 -22.64)" fill="#01eeff"/>
        <path id="Path_619" data-name="Path 619" d="M165.939,224.733a1.758,1.758,0,0,1-.06-.447c-.023-.342-.051-.765-.085-1.279q-.024-.425-.051-.923c-.029-.336-.086-.7-.132-1.092-.108-.782-.174-1.679-.395-2.647q-.143-.734-.3-1.529c-.107-.53-.278-1.069-.422-1.633-.266-1.137-.7-2.306-1.122-3.547a40.985,40.985,0,0,0-9.042-14.314c-.939-.914-1.809-1.809-2.721-2.538-.448-.372-.861-.757-1.293-1.083l-1.252-.925c-.781-.616-1.562-1.062-2.222-1.495-.334-.209-.638-.417-.929-.588l-.812-.443-1.118-.626a1.7,1.7,0,0,1-.378-.246,1.719,1.719,0,0,1,.417.167l1.159.555.835.411c.3.161.611.359.954.56a26.222,26.222,0,0,1,2.274,1.451l1.279.911c.443.321.864.7,1.322,1.073.931.724,1.818,1.618,2.775,2.533a39.861,39.861,0,0,1,9.132,14.458c.416,1.257.841,2.442,1.1,3.594.137.572.3,1.117.4,1.654s.186,1.052.273,1.546a26.136,26.136,0,0,1,.333,2.677c.035.4.079.762.1,1.1s.008.645.013.93c0,.518,0,.943,0,1.286a1.724,1.724,0,0,1-.029.448" transform="translate(-22.524 -29.703)" fill="#263238"/>
        <path id="Path_620" data-name="Path 620" d="M133.537,214.36c-.056.057-.943-.82-2.547-2.015a27.994,27.994,0,0,0-14.41-5.437c-1.994-.163-3.239-.089-3.244-.169a3.383,3.383,0,0,1,.871-.116,18.45,18.45,0,0,1,2.393-.024,25.439,25.439,0,0,1,14.58,5.5,18.356,18.356,0,0,1,1.781,1.6,3.4,3.4,0,0,1,.577.662" transform="translate(-17.777 -32.401)" fill="#263238"/>
        <path id="Path_621" data-name="Path 621" d="M167.741,283.622a7.73,7.73,0,0,1-1.336.041c-.859,0-2.1-.027-3.639-.082-3.072-.108-7.313-.358-11.981-.815s-8.88-1.04-11.914-1.53c-1.518-.245-2.742-.461-3.585-.628a7.65,7.65,0,0,1-1.3-.3,7.832,7.832,0,0,1,1.33.132l3.6.489c3.042.412,7.249.943,11.91,1.4s8.89.755,11.954.942l3.63.221a7.782,7.782,0,0,1,1.331.13" transform="translate(-21.015 -43.964)" fill="#263238"/>
        <path id="Path_622" data-name="Path 622" d="M318.014,216.216a1.962,1.962,0,0,1-.473.062l-1.357.092c-.589.027-1.309.072-2.141.176s-1.783.162-2.821.351l-1.632.256c-.567.093-1.149.236-1.755.357-1.218.226-2.491.589-3.836.943a56.7,56.7,0,0,0-16.337,7.63c-1.135.805-2.231,1.548-3.186,2.337-.482.387-.965.741-1.4,1.116l-1.245,1.088c-.81.675-1.47,1.363-2.079,1.938s-1.11,1.094-1.509,1.528l-.941.981a1.909,1.909,0,0,1-.352.323,2.018,2.018,0,0,1,.285-.381l.882-1.038c.381-.454.861-1,1.461-1.586s1.244-1.3,2.045-1.995l1.234-1.116c.432-.385.912-.748,1.394-1.144.952-.806,2.046-1.566,3.184-2.385a54.566,54.566,0,0,1,16.455-7.685c1.359-.345,2.644-.7,3.873-.91.612-.115,1.2-.25,1.771-.335l1.647-.23c1.046-.169,2.006-.213,2.843-.288s1.561-.1,2.154-.1l1.363-.009a1.935,1.935,0,0,1,.475.026" transform="translate(-43.439 -33.909)" fill="#263238"/>
        <path id="Path_623" data-name="Path 623" d="M293.63,340.829c0,.121-32.586.219-72.773.219s-72.78-.1-72.78-.219,32.579-.219,72.78-.219,72.773.1,72.773.219" transform="translate(-23.226 -53.424)" fill="#263238"/>
        <path id="Path_624" data-name="Path 624" d="M112.216,370.493c-.121,0-.219-6.1-.219-13.615s.1-13.616.219-13.616.219,6.1.219,13.616-.1,13.615-.219,13.615" transform="translate(-17.567 -53.84)" fill="#263238"/>
        <path id="Path_625" data-name="Path 625" d="M118.776,398.209c-.121,0-.219-8.573-.219-19.146s.1-19.148.219-19.148.219,8.572.219,19.148-.1,19.146-.219,19.146" transform="translate(-18.595 -56.452)" fill="#263238"/>
      </g>
    </g>
    <path id="Path_626" data-name="Path 626" d="M29.6,150.228v8.736h-3l6.469,7.535,6.068-7.381H36.066v-8.89Z" transform="translate(-4.172 -23.563)" fill="#007686"/>
    <g id="Group_582" data-name="Group 582">
      <g id="Group_581" data-name="Group 581" clip-path="url(#clip-path)">
        <path id="Path_628" data-name="Path 628" d="M46.522,124.687a17.373,17.373,0,0,0-30.4-6.515,14.606,14.606,0,0,0-1.674-.1,14.449,14.449,0,0,0,0,28.9H45.912a11.147,11.147,0,0,0,.61-22.279" transform="translate(0 -17.511)" fill="#01eeff"/>
        <path id="Path_629" data-name="Path 629" d="M59.12,146.788c-.041-.061.572-.469,1.384-1.305a10.5,10.5,0,0,0,2.986-8.26c-.09-1.164-.3-1.868-.23-1.889a4.647,4.647,0,0,1,.539,1.855,9.689,9.689,0,0,1-3.078,8.517,4.632,4.632,0,0,1-1.6,1.082" transform="translate(-9.273 -21.227)" fill="#263238"/>
        <path id="Path_630" data-name="Path 630" d="M17.3,124.313c-.015.073-.806-.107-2.093-.121a11.646,11.646,0,0,0-8.887,3.888c-.863.955-1.268,1.658-1.331,1.62a5.4,5.4,0,0,1,1.1-1.821,10.817,10.817,0,0,1,9.135-4,5.41,5.41,0,0,1,2.081.432" transform="translate(-0.782 -19.426)" fill="#263238"/>
        <path id="Path_631" data-name="Path 631" d="M29.7,115.925a11.041,11.041,0,0,1-1.449.379,10.058,10.058,0,0,0-5.635,4.092,11.04,11.04,0,0,1-.808,1.261,3.447,3.447,0,0,1,.544-1.423A8.758,8.758,0,0,1,28.177,116a3.451,3.451,0,0,1,1.522-.077" transform="translate(-3.419 -18.175)" fill="#263238"/>
        <path id="Path_632" data-name="Path 632" d="M43.688,153.351c0,.121-4.249.219-9.489.219s-9.489-.1-9.489-.219,4.248-.219,9.489-.219,9.489.1,9.489.219" transform="translate(-3.876 -24.018)" fill="#263238"/>
        <path id="Path_633" data-name="Path 633" d="M48.439,181.368a68.973,68.973,0,0,1-.219-7.771,68.971,68.971,0,0,1,.219-7.772,68.97,68.97,0,0,1,.219,7.772,68.972,68.972,0,0,1-.219,7.771" transform="translate(-7.563 -26.009)" fill="#263238"/>
        <path id="Path_634" data-name="Path 634" d="M52.041,188.59c-.121,0-.219-4.48-.219-10s.1-10.006.219-10.006.219,4.479.219,10.006-.1,10-.219,10" transform="translate(-8.128 -26.441)" fill="#263238"/>
      </g>
    </g>
    <g id="Group_596" data-name="Group 596">
      <g id="Group_595" data-name="Group 595" clip-path="url(#clip-path)">
        <g id="Group_585" data-name="Group 585" transform="translate(106.898 160.926)" opacity="0.3">
          <g id="Group_584" data-name="Group 584">
            <g id="Group_583" data-name="Group 583" clip-path="url(#clip-path-9)">
              <path id="Path_635" data-name="Path 635" d="M315.335,239.745c-1.653-9.625-14.441-19.388-25.438-17.2-9.578,1.911-19.892,4.136-29.362,6.527-3.907.986-7.96-3.761-11.232-6.112-1.721-1.235-2.729-3.2-3.8-5.025-6.093-10.36-16.122-18.136-27.33-22.478s-23.532-5.379-35.48-4.07c-9.263,1.015-19.429,4.211-23.737,12.474-1.735,3.328-2.422,7.329-5.118,9.942-3.588,3.476-9.28,3.2-13.956,4.96-9.352,3.522-14.094,16.9-12.917,26.827s10.012,22.714,28.569,24.755c0,0,67.225.587,100.422,2.2,11.506.557,14.978-1.027,26.494-1.327,20.311-.528,35.92-13.829,32.889-31.475" transform="translate(-126.784 -190.863)"/>
            </g>
          </g>
        </g>
        <path id="Path_636" data-name="Path 636" d="M201.413,303.655c1.129-.28,2.388-1.447,3.363-2.074q3.592-2.312,7.1-4.742c-8.415-2.45-15.559-4.378-23.972-6.77a28.583,28.583,0,0,0,.928,10.032c.775,2.605,2.26,5.376,4.89,6.067,2.39.629,4.819-.689,6.922-1.987l.586-.363" transform="translate(-29.459 -45.497)" fill="#e0e0e0"/>
        <path id="Path_637" data-name="Path 637" d="M205.461,299.792c-.129-.014-.076-1.106-.374-2.395s-.8-2.256-.69-2.324a5.165,5.165,0,0,1,1.063,4.718" transform="translate(-32.057 -46.281)" fill="#263238"/>
        <path id="Path_638" data-name="Path 638" d="M207.733,299.448a12.3,12.3,0,0,1-.135-1.889,12.473,12.473,0,0,1-.262-1.877,3.82,3.82,0,0,1,.4,3.766" transform="translate(-32.516 -46.377)" fill="#263238"/>
        <path id="Path_639" data-name="Path 639" d="M194.53,291.958c.075.018-.167.875-.18,2.284a10.414,10.414,0,0,0,1.316,5.233,13.815,13.815,0,0,0,3.446,4.226,12.542,12.542,0,0,0,1.994,1.089,1.483,1.483,0,0,1-.621-.1,5.605,5.605,0,0,1-1.551-.734,12.567,12.567,0,0,1-3.648-4.26,9.855,9.855,0,0,1-1.246-5.464,8.467,8.467,0,0,1,.266-1.687,1.59,1.59,0,0,1,.223-.586" transform="translate(-30.432 -45.793)" fill="#455a64"/>
        <path id="Path_640" data-name="Path 640" d="M202.423,294.27a18.694,18.694,0,0,1,1.359,10.028c-.137-.005-.046-2.284-.423-5.049s-1.067-4.937-.936-4.979" transform="translate(-31.747 -46.156)" fill="#455a64"/>
        <path id="Path_641" data-name="Path 641" d="M199.3,303.025a5.421,5.421,0,0,1-1.335-1.074,12.122,12.122,0,0,1-2.51-3.305,7.313,7.313,0,0,1-.762-4.088,3.131,3.131,0,0,1,.552-1.633c.073.027-.187.634-.243,1.662a7.918,7.918,0,0,0,.847,3.865,14.879,14.879,0,0,0,2.339,3.283,8.471,8.471,0,0,1,1.112,1.29" transform="translate(-30.529 -45.945)" fill="#ff725e"/>
        <path id="Path_642" data-name="Path 642" d="M213.006,299.482a27.858,27.858,0,0,1-6.142,3.313,27.814,27.814,0,0,1,6.142-3.313" transform="translate(-32.446 -46.971)" fill="#ff725e"/>
        <path id="Path_643" data-name="Path 643" d="M197.188,305.047a6.145,6.145,0,0,1-5.61,1.872c0-.132,1.36-.106,2.906-.633,1.553-.507,2.621-1.342,2.7-1.239" transform="translate(-30.049 -47.845)" fill="#455a64"/>
        <path id="Path_644" data-name="Path 644" d="M193.971,299.911c.013.13-1.135.287-2.4.873s-2.15,1.332-2.24,1.238a5.408,5.408,0,0,1,4.645-2.11" transform="translate(-29.694 -47.03)" fill="#455a64"/>
        <path id="Path_645" data-name="Path 645" d="M193.127,295.138a24.872,24.872,0,0,0-2.777-.771,24.788,24.788,0,0,0-2.883-.015,5.384,5.384,0,0,1,5.66.786" transform="translate(-29.404 -46.093)" fill="#455a64"/>
        <path id="Path_646" data-name="Path 646" d="M263.99,278c.049.078-31.628,7.716-31.628,7.716L227.7,274.792l2.139-3.3s13.386-3.024,24.284-9.186Z" transform="translate(-35.715 -41.142)" fill="#ffbe9d"/>
        <path id="Path_647" data-name="Path 647" d="M176.35,242.739s-1.443-2.113-7.6-5.122c-5.1-2.495-18.194-4.593-23.493,5.652s-1.237,25.967,7.6,29.322,23.493,7.948,29.5,9.892,25.789,6.889,25.789,6.889l8.125-4.769.958-15.164s-11.2-11.508-20.741-14.688-20.137-12.012-20.137-12.012" transform="translate(-22.413 -36.948)" fill="#263238"/>
        <path id="Path_648" data-name="Path 648" d="M160.877,232.86a49.725,49.725,0,0,1,15.488,2.575c2.447.922,4.839,1.9,4.839,1.9l3.594-10.234,26.921-8.968h29.809l9.7,19.2v.97s11.638.194,16.681-2.134,20.754-9.116,24.827-10.474,22.306-3.97,26.38,7.132,1.184,22.674-5.626,26.9c-3.209,1.992-57.414,16.01-57.414,16.01l-12.8-20.366s-19.516,9.668-26.051,8.616-56.344-31.135-56.344-31.135" transform="translate(-25.233 -34.215)" fill="#263238"/>
        <path id="Path_649" data-name="Path 649" d="M226.074,224.008a1.511,1.511,0,0,1,.133.391c.082.311.18.688.3,1.143.243,1,.56,2.449.877,4.256.657,3.611,1.311,8.641,1.822,14.213s.775,10.636.884,14.3c.059,1.832.076,3.316.073,4.341-.007.47-.013.86-.018,1.181a1.41,1.41,0,0,1-.036.412,1.56,1.56,0,0,1-.052-.411c-.018-.32-.039-.709-.064-1.179-.054-1.092-.126-2.555-.213-4.333-.188-3.658-.513-8.708-1.012-14.275s-1.114-10.587-1.691-14.2c-.277-1.809-.547-3.266-.738-4.271-.087-.461-.159-.844-.218-1.159a1.45,1.45,0,0,1-.047-.411" transform="translate(-35.458 -35.135)" fill="#455a64"/>
        <path id="Path_650" data-name="Path 650" d="M262.05,242.624c.014.121-6.746.97-15.095,1.9s-15.131,1.582-15.145,1.461,6.744-.97,15.1-1.9,15.13-1.582,15.143-1.461" transform="translate(-36.359 -38.053)" fill="#455a64"/>
        <path id="Path_651" data-name="Path 651" d="M257.871,242.451a4.111,4.111,0,0,1-.964-.078c-.614-.083-1.5-.191-2.6-.309a68.4,68.4,0,0,0-17.227.3c-1.1.156-1.981.3-2.591.4a4.014,4.014,0,0,1-.96.111,4.122,4.122,0,0,1,.926-.278c.6-.156,1.482-.342,2.577-.538a55.762,55.762,0,0,1,17.314-.3c1.1.158,1.987.313,2.594.448a4.121,4.121,0,0,1,.935.246" transform="translate(-36.628 -37.836)" fill="#455a64"/>
        <path id="Path_652" data-name="Path 652" d="M265.069,240.748a22.278,22.278,0,0,0-11.921-2.626,5.53,5.53,0,0,1,1.813-.3,16.183,16.183,0,0,1,8.588,1.892,5.53,5.53,0,0,1,1.519,1.034" transform="translate(-39.706 -37.297)" fill="#455a64"/>
        <path id="Path_653" data-name="Path 653" d="M236.753,261.068a9.524,9.524,0,0,1-5.859,2.344c-.022-.127,1.361-.432,2.966-1.08s2.821-1.371,2.893-1.264" transform="translate(-36.215 -40.946)" fill="#455a64"/>
        <path id="Path_654" data-name="Path 654" d="M235.3,265.543a6.723,6.723,0,0,1-4.557.651,79.821,79.821,0,0,1,4.557-.651" transform="translate(-36.191 -41.645)" fill="#455a64"/>
        <path id="Path_655" data-name="Path 655" d="M282.839,240.414a1.938,1.938,0,0,1-.4.271l-1.176.7L276.9,243.9l-14.488,8.146-14.554,8.035-4.434,2.391-1.216.631a1.982,1.982,0,0,1-.438.193,2.02,2.02,0,0,1,.4-.272l1.176-.7,4.367-2.513,14.489-8.147,14.549-8.033,4.435-2.391,1.217-.631a1.962,1.962,0,0,1,.439-.194" transform="translate(-37.921 -37.708)" fill="#455a64"/>
        <path id="Path_656" data-name="Path 656" d="M308.2,235.321a2.67,2.67,0,0,1-.545.138l-1.571.324c-1.364.282-3.328.735-5.722,1.411a103.733,103.733,0,0,0-18.046,7.158c-6.792,3.409-12.676,7-16.931,9.59l-5.034,3.084-1.378.825a2.691,2.691,0,0,1-.5.262,2.724,2.724,0,0,1,.449-.337l1.334-.895c1.164-.768,2.855-1.868,4.962-3.2,4.215-2.66,10.083-6.3,16.9-9.719a96.365,96.365,0,0,1,18.16-7.064c2.415-.64,4.4-1.049,5.773-1.279.686-.127,1.225-.19,1.589-.243a2.688,2.688,0,0,1,.559-.051" transform="translate(-40.541 -36.909)" fill="#455a64"/>
        <path id="Path_657" data-name="Path 657" d="M330.221,230.726c-.008.074-.984-.011-2.554.035A25.215,25.215,0,0,0,315.973,234c-1.369.77-2.163,1.344-2.207,1.285-.018-.024.164-.19.508-.47a15.074,15.074,0,0,1,1.541-1.082,21.917,21.917,0,0,1,11.849-3.283,15.112,15.112,0,0,1,1.878.135,2.1,2.1,0,0,1,.678.142" transform="translate(-49.213 -36.145)" fill="#455a64"/>
        <path id="Path_658" data-name="Path 658" d="M325.851,234.907c-.019.132-2.257-.164-5.022-.062-2.766.087-4.976.535-5.006.406a19.028,19.028,0,0,1,10.028-.344" transform="translate(-49.536 -36.764)" fill="#455a64"/>
        <path id="Path_659" data-name="Path 659" d="M314.658,230.92c.06.117-1.882,1.148-4.042,2.759s-3.718,3.16-3.813,3.069a19.246,19.246,0,0,1,7.855-5.828" transform="translate(-48.121 -36.218)" fill="#455a64"/>
        <path id="Path_660" data-name="Path 660" d="M337.391,242.332a.644.644,0,0,1-.084.179l-.286.5c-.254.439-.65,1.078-1.212,1.863a27.347,27.347,0,0,1-5.67,5.875,55.033,55.033,0,0,1-10.454,6.128c-4.149,1.916-8.882,3.6-13.839,5.339l-25.416,8.889-7.719,2.647-2.106.7-.551.171a.637.637,0,0,1-.192.044.666.666,0,0,1,.178-.086l.536-.212,2.079-.776,7.672-2.778L305.7,261.8c4.959-1.741,9.68-3.406,13.816-5.292a56.312,56.312,0,0,0,10.433-6.006,28.507,28.507,0,0,0,5.722-5.729c.579-.766,1-1.387,1.274-1.81l.322-.478c.075-.107.116-.16.123-.156" transform="translate(-42.327 -38.009)" fill="#455a64"/>
        <path id="Path_661" data-name="Path 661" d="M218.194,289.021a3.594,3.594,0,0,1-.616-.216l-1.735-.7c-1.5-.621-3.664-1.538-6.322-2.708-5.319-2.331-12.612-5.678-20.575-9.566-7.958-3.905-15.07-7.63-20.1-10.539-2.521-1.444-4.523-2.679-5.888-3.56l-1.556-1.04a3.67,3.67,0,0,1-.525-.387,3.619,3.619,0,0,1,.573.313l1.6.969c1.391.835,3.413,2.027,5.95,3.435,5.061,2.836,12.189,6.512,20.14,10.415,7.958,3.884,15.226,7.273,20.509,9.676l6.264,2.835,1.7.774a3.576,3.576,0,0,1,.582.3" transform="translate(-25.233 -40.828)" fill="#455a64"/>
        <path id="Path_662" data-name="Path 662" d="M163.358,241.46a3.066,3.066,0,0,1,.746-.476,15.007,15.007,0,0,1,2.214-.962,17.528,17.528,0,0,1,7.89-.816,21.727,21.727,0,0,1,7.636,2.167,10.82,10.82,0,0,1,2,1.367,2.909,2.909,0,0,1,.614.638,23.353,23.353,0,0,0-2.752-1.729,23.763,23.763,0,0,0-7.549-2.008,18.667,18.667,0,0,0-7.738.676c-1.923.59-3.02,1.216-3.056,1.143" transform="translate(-25.622 -37.497)" fill="#455a64"/>
        <path id="Path_663" data-name="Path 663" d="M223.829,270.276a2.173,2.173,0,0,1-.395-.3l-1.078-.925c-.934-.805-2.314-1.938-4.037-3.317-3.443-2.76-8.3-6.447-13.655-10.539l-3.9-3c-1.269-.938-2.561-1.755-3.808-2.507-2.5-1.5-4.808-2.773-6.636-4.029a26.38,26.38,0,0,1-4.075-3.3,13.065,13.065,0,0,1-.962-1.051,2.114,2.114,0,0,1-.3-.395c.035-.032.48.489,1.384,1.324A29.542,29.542,0,0,0,190.5,245.4c1.836,1.213,4.151,2.455,6.672,3.94,1.258.746,2.566,1.561,3.856,2.508s2.562,1.975,3.907,2.995c5.352,4.091,10.185,7.82,13.583,10.647,1.7,1.411,3.053,2.583,3.954,3.43.459.415.8.758,1.026.987a2.14,2.14,0,0,1,.334.369" transform="translate(-29.014 -37.787)" fill="#455a64"/>
        <path id="Path_664" data-name="Path 664" d="M204.691,250.805a29.391,29.391,0,0,1,3,1.12c1.841.715,4.4,1.66,7.271,2.571s5.509,1.61,7.426,2.084a29.328,29.328,0,0,1,3.1.813,3.266,3.266,0,0,1-.859-.085c-.548-.08-1.337-.224-2.308-.425a77.211,77.211,0,0,1-7.49-1.968c-2.884-.916-5.439-1.911-7.256-2.7-.908-.4-1.637-.732-2.131-.981a3.252,3.252,0,0,1-.751-.426" transform="translate(-32.105 -39.338)" fill="#455a64"/>
        <path id="Path_665" data-name="Path 665" d="M211.913,241.938a23.543,23.543,0,0,1-3.026.522c-1.873.282-4.459.678-7.3,1.186s-5.406,1.035-7.261,1.421a23.634,23.634,0,0,1-3.019.56,3.014,3.014,0,0,1,.78-.277c.508-.153,1.25-.352,2.17-.585,1.84-.464,4.4-1.039,7.253-1.551s5.454-.858,7.34-1.062c.943-.1,1.709-.171,2.239-.2a2.99,2.99,0,0,1,.828-.01" transform="translate(-30.006 -37.944)" fill="#455a64"/>
        <path id="Path_666" data-name="Path 666" d="M207.336,236.068c0,.071-1.161.167-3.022.446a47.706,47.706,0,0,0-13.976,4.338c-1.693.824-2.707,1.4-2.744,1.343a2.964,2.964,0,0,1,.665-.487c.442-.293,1.1-.682,1.937-1.132a39.305,39.305,0,0,1,14.077-4.369c.943-.1,1.708-.154,2.238-.163a2.956,2.956,0,0,1,.825.024" transform="translate(-29.424 -37.022)" fill="#455a64"/>
        <path id="Path_667" data-name="Path 667" d="M250.253,285.447l-5.043,11.789c1.859,1.674,8.944,2.762,11.444,2.637s6.1-.1,8.587-.381a54.5,54.5,0,0,1,9.521.069,42.236,42.236,0,0,0,9.511-.173,15.322,15.322,0,0,0,8.464-4.035,8.747,8.747,0,0,0-2.6-14.694,15.493,15.493,0,0,0-8.071-1.106,45.072,45.072,0,0,0-8.029,1.82c-2.8.821-5.682,1.663-8.594,1.433a17.208,17.208,0,0,1-1.769-.134c-3.809-.7-7.782-.74-11.213,1.42-.708.445-1.488.831-2.2,1.355" transform="translate(-38.461 -43.831)" fill="#e0e0e0"/>
        <path id="Path_668" data-name="Path 668" d="M252.059,287.334a2.941,2.941,0,0,1,.444-.425,10.383,10.383,0,0,1,1.449-1.005,10.64,10.64,0,0,1,6.284-1.355c1.368.134,2.837.412,4.416.651a19.8,19.8,0,0,0,5.046.247,30.694,30.694,0,0,0,5.464-1.257,27.775,27.775,0,0,1,5.967-1.271,16.918,16.918,0,0,1,6.092.525,13.961,13.961,0,0,1,2.712,1.1,7.986,7.986,0,0,1,2.242,1.712,10.221,10.221,0,0,1,2.42,4.557,5.579,5.579,0,0,1,.077,2.371,6.151,6.151,0,0,1-.81,2.029,8.277,8.277,0,0,1-2.624,2.62,15.312,15.312,0,0,1-2.485,1.273c-.708.29-1.266.487-1.647.617a3.1,3.1,0,0,1-.588.175,3.34,3.34,0,0,1,.557-.258c.369-.157.917-.379,1.609-.691a16.381,16.381,0,0,0,2.418-1.32,8.137,8.137,0,0,0,2.493-2.575,5.306,5.306,0,0,0,.644-4.159,9.919,9.919,0,0,0-2.361-4.362,10.365,10.365,0,0,0-4.776-2.673,16.632,16.632,0,0,0-5.939-.5c-4.115.3-7.763,2.178-11.425,2.493a19.95,19.95,0,0,1-5.142-.29c-1.586-.255-3.049-.551-4.392-.7a10.726,10.726,0,0,0-6.17,1.2,19.733,19.733,0,0,0-1.975,1.281" transform="translate(-39.535 -44.365)" fill="#455a64"/>
        <path id="Path_669" data-name="Path 669" d="M292.32,300c-.024.019-.186-.164-.458-.513a5.277,5.277,0,0,1-.459-.662,8.684,8.684,0,0,1-.535-.926,15.28,15.28,0,0,1-1.056-2.574,17.669,17.669,0,0,1-.695-6.751,15.23,15.23,0,0,1,.512-2.736,9.046,9.046,0,0,1,.336-1.014,5.483,5.483,0,0,1,.316-.742c.2-.4.317-.608.344-.594.074.033-.341.916-.7,2.428a17.559,17.559,0,0,0-.409,2.691,19.286,19.286,0,0,0,.679,6.6,17.57,17.57,0,0,0,.948,2.552c.654,1.41,1.239,2.191,1.173,2.238" transform="translate(-45.337 -44.464)" fill="#263238"/>
        <path id="Path_670" data-name="Path 670" d="M254.717,284.609c.107.06-.025.5-.241,1s-.441.9-.558.868-.073-.511.155-1.041.54-.89.644-.831" transform="translate(-39.817 -44.639)" fill="#455a64"/>
        <path id="Path_671" data-name="Path 671" d="M259.017,282.941c.111.051.022.486-.144.992s-.352.91-.471.884-.121-.489.055-1.021.452-.906.561-.856" transform="translate(-40.517 -44.378)" fill="#455a64"/>
        <path id="Path_672" data-name="Path 672" d="M264.5,282.841c.115.038.056.535-.132,1.109s-.434,1.01-.55.972-.056-.534.132-1.109.434-1.01.55-.972" transform="translate(-41.369 -44.363)" fill="#455a64"/>
        <path id="Path_673" data-name="Path 673" d="M269.66,283.484c.116.034.075.533-.093,1.114s-.4,1.026-.515.993-.075-.533.093-1.115.4-1.026.515-.992" transform="translate(-42.19 -44.464)" fill="#455a64"/>
        <path id="Path_674" data-name="Path 674" d="M274.088,285.715c-.121,0-.217-.589-.212-1.312s.105-1.31.227-1.309.217.588.213,1.312-.105,1.31-.227,1.309" transform="translate(-42.957 -44.403)" fill="#455a64"/>
        <path id="Path_675" data-name="Path 675" d="M278.883,284.534c-.121.017-.292-.5-.383-1.164s-.068-1.207.052-1.223.292.5.383,1.164.067,1.207-.052,1.223" transform="translate(-43.674 -44.254)" fill="#455a64"/>
        <path id="Path_676" data-name="Path 676" d="M283.39,280.6c.119-.023.313.472.432,1.105s.121,1.164,0,1.186-.313-.472-.432-1.105-.12-1.164,0-1.186" transform="translate(-44.435 -44.012)" fill="#455a64"/>
        <path id="Path_677" data-name="Path 677" d="M289.036,279.542c.119.025.073.718-.1,1.549s-.415,1.482-.533,1.458-.073-.718.1-1.549.414-1.483.533-1.458" transform="translate(-45.225 -43.846)" fill="#455a64"/>
        <path id="Path_678" data-name="Path 678" d="M293.781,279.682c.11.05-.186.817-.664,1.713s-.948,1.572-1.051,1.508a4.045,4.045,0,0,1,.664-1.714c.47-.882.941-1.556,1.051-1.507" transform="translate(-45.807 -43.867)" fill="#455a64"/>
        <path id="Path_679" data-name="Path 679" d="M298.742,281.006c.1.067-.288.845-.872,1.738s-1.137,1.565-1.239,1.5a4.458,4.458,0,0,1,.872-1.738c.583-.894,1.138-1.564,1.239-1.5" transform="translate(-46.524 -44.075)" fill="#455a64"/>
        <path id="Path_680" data-name="Path 680" d="M302,284.04c.1.069-.271.774-.826,1.573s-1.088,1.393-1.187,1.324.27-.774.826-1.574,1.088-1.392,1.187-1.323" transform="translate(-47.049 -44.55)" fill="#455a64"/>
        <path id="Path_681" data-name="Path 681" d="M304.215,287.9c.1.07-.279.754-.92,1.46s-1.284,1.149-1.363,1.059.416-.665,1.037-1.354,1.146-1.238,1.245-1.165" transform="translate(-47.356 -45.156)" fill="#455a64"/>
        <path id="Path_682" data-name="Path 682" d="M304.021,293.789c.094.072-.125.481-.622.7s-.947.105-.936-.013.365-.211.759-.39.7-.378.8-.3" transform="translate(-47.441 -46.077)" fill="#455a64"/>
        <path id="Path_683" data-name="Path 683" d="M301.023,298.8c.04.114-.081.255-.263.224s-.249-.207-.173-.3a.228.228,0,0,1,.436.076" transform="translate(-47.142 -46.833)" fill="#455a64"/>
        <path id="Path_684" data-name="Path 684" d="M266.235,299.318a13.29,13.29,0,0,0,1.461-8.132,8.327,8.327,0,0,1-1.461,8.132" transform="translate(-41.757 -45.672)" fill="#263238"/>
        <path id="Path_685" data-name="Path 685" d="M270.358,298.96a11.594,11.594,0,0,0,1.259-7.5,7.231,7.231,0,0,1-1.259,7.5" transform="translate(-42.404 -45.714)" fill="#263238"/>
        <path id="Path_686" data-name="Path 686" d="M275.546,298.878a11.194,11.194,0,0,0,1.5-8.12,2.716,2.716,0,0,1,.436,1.2,8.182,8.182,0,0,1-1.1,5.958c-.433.664-.8,1-.836.964" transform="translate(-43.218 -45.605)" fill="#263238"/>
        <path id="Path_687" data-name="Path 687" d="M281.4,298.5a14.468,14.468,0,0,0,1.053-8.28,8.786,8.786,0,0,1-1.053,8.28" transform="translate(-44.136 -45.52)" fill="#263238"/>
        <path id="Path_688" data-name="Path 688" d="M264.126,294.457a1.338,1.338,0,0,1-.716.1,3.945,3.945,0,0,1-1.877-.614,8.22,8.22,0,0,1-2.1-2.026,5.033,5.033,0,0,1-.911-1.507,2.079,2.079,0,0,1-.076-.989,1.541,1.541,0,0,1,.527-.909,2.086,2.086,0,0,1,1.921-.362,3.649,3.649,0,0,1,1.5.952,6.942,6.942,0,0,1,1.584,2.459,6.574,6.574,0,0,1,.412,1.92,1.783,1.783,0,0,1-.044.718,12.211,12.211,0,0,0-.657-2.521,7.034,7.034,0,0,0-1.578-2.285,3.329,3.329,0,0,0-1.341-.829,1.675,1.675,0,0,0-1.519.283,1.306,1.306,0,0,0-.324,1.436,4.822,4.822,0,0,0,.82,1.388,8.557,8.557,0,0,0,1.943,2.012,4.524,4.524,0,0,0,2.424.776" transform="translate(-40.533 -45.181)" fill="#263238"/>
        <path id="Path_689" data-name="Path 689" d="M263.756,295.476a1.884,1.884,0,0,1-.164.643,10.066,10.066,0,0,1-.718,1.662A4.957,4.957,0,0,1,261,299.753a3.274,3.274,0,0,1-1.6.437,1.9,1.9,0,0,1-1.644-.8,1.706,1.706,0,0,1,.182-1.82,3.337,3.337,0,0,1,1.269-1.064,9.911,9.911,0,0,1,2.6-.744,13.634,13.634,0,0,1,2.427-.364,13.621,13.621,0,0,1-2.362.668,10.826,10.826,0,0,0-2.475.8,2.988,2.988,0,0,0-1.1.946,1.294,1.294,0,0,0-.162,1.353,1.5,1.5,0,0,0,1.27.594,2.932,2.932,0,0,0,1.4-.363,4.859,4.859,0,0,0,1.8-1.774c.759-1.278,1.072-2.183,1.149-2.147" transform="translate(-40.398 -46.331)" fill="#263238"/>
        <path id="Path_690" data-name="Path 690" d="M264.534,299.113c-.1-.083.389-.73.531-1.672.164-.938-.091-1.706.027-1.755.1-.068.589.739.406,1.825s-.9,1.7-.965,1.6" transform="translate(-41.49 -46.377)" fill="#263238"/>
        <path id="Path_691" data-name="Path 691" d="M266.52,292.765c.114.035.015.674-.358,1.368s-.847,1.132-.938,1.057.2-.61.551-1.264.627-1.2.745-1.161" transform="translate(-41.597 -45.919)" fill="#263238"/>
        <path id="Path_692" data-name="Path 692" d="M280.215,285.323a7.425,7.425,0,0,1-1.879.885,24.2,24.2,0,0,1-9.867,1.468,7.458,7.458,0,0,1-2.055-.3,54.649,54.649,0,0,0,7-.355,54.427,54.427,0,0,0,6.8-1.7" transform="translate(-41.787 -44.751)" fill="#ff725e"/>
        <path id="Path_693" data-name="Path 693" d="M278.57,301.526a49.472,49.472,0,0,1-9.282.635,49.452,49.452,0,0,1,9.282-.635" transform="translate(-42.237 -47.283)" fill="#ff725e"/>
        <path id="Path_694" data-name="Path 694" d="M293.175,299.254a7.419,7.419,0,0,0,2.971-1.1,6.5,6.5,0,0,0,2.2-2.569,6.682,6.682,0,0,0,.457-4.085,7.55,7.55,0,0,0-1.868-3.7,8.822,8.822,0,0,0-2.787-1.994,15.63,15.63,0,0,0-3.079-.9,2.628,2.628,0,0,1,.879.014,8.9,8.9,0,0,1,2.325.6,8.7,8.7,0,0,1,2.959,2,7.761,7.761,0,0,1,2.005,3.889,6.939,6.939,0,0,1-.524,4.343,6.594,6.594,0,0,1-2.4,2.653,5.785,5.785,0,0,1-2.26.836,2.259,2.259,0,0,1-.881,0" transform="translate(-45.654 -44.684)" fill="#ff725e"/>
        <path id="Path_695" data-name="Path 695" d="M229.353,277.344l21.954,9.737a17.369,17.369,0,0,1-1.347,8.161c-1.606,3.287-6.474,2.628-6.474,2.628L224.2,293.383l4.3-2.522Z" transform="translate(-35.166 -43.501)" fill="#ffbe9d"/>
        <path id="Path_696" data-name="Path 696" d="M252.9,298.736a13.333,13.333,0,0,1-2.357-2.107,4.484,4.484,0,0,1-1.11-2.9,5.923,5.923,0,0,1,.944-2.687,4.674,4.674,0,0,1,2.179-2.24,4.786,4.786,0,0,1,3.717.648l.234,4.886Z" transform="translate(-39.123 -45.271)" fill="#e0e0e0"/>
        <path id="Path_697" data-name="Path 697" d="M252.266,287.08c-.049.111-5-1.979-11.066-4.668s-10.938-4.958-10.888-5.069,5,1.979,11.066,4.668,10.937,4.959,10.888,5.069" transform="translate(-36.124 -43.5)" fill="#eb996e"/>
        <path id="Path_698" data-name="Path 698" d="M267.565,175.068a1.593,1.593,0,0,0,1.651-1.524c.248-6.925-4.323-22.628-6.515-29.142-1.341-3.986-5.867-6.889-9.035-9.033-3.827-2.588-17.367-5.757-21.819-6.991l-1.5,0-20.682-1.546-11.386,5.459s-15.793,5.98-20.371,14.31-8.061,32.775-8.061,32.775-2.1,6.98,0,10.131c1.306,1.962,6.168,3.662,10.546,4.5-2.368,7.89-.5,13.748-.585,14.753-.173,2.076-1.764,6.9,1.969,6.605s32.944-8.007,41.615-8.352a40.9,40.9,0,0,1,21.034,5.162c4.375,2.448,4.337,2.629,5.894-1.7s-3.42-9.176-3.42-9.176,4.475-16.145,6.55-26.7Z" transform="translate(-26.494 -19.894)" fill="#455a64"/>
        <path id="Path_699" data-name="Path 699" d="M199.945,170.241a4.062,4.062,0,0,1-.655-.7l-1.679-2a57.361,57.361,0,0,0-5.929-6.185,28.771,28.771,0,0,0-3.772-2.8,21.266,21.266,0,0,0-3.434-1.7c-2.045-.781-3.405-.971-3.388-1.062a4,4,0,0,1,.956.106,7.686,7.686,0,0,1,1.1.235,12.38,12.38,0,0,1,1.434.428,19.407,19.407,0,0,1,3.536,1.642,26.743,26.743,0,0,1,3.852,2.814,47.152,47.152,0,0,1,5.881,6.32c.68.869,1.217,1.583,1.573,2.087a4.032,4.032,0,0,1,.52.808" transform="translate(-28.403 -24.435)" fill="#263238"/>
        <path id="Path_700" data-name="Path 700" d="M194.266,199.728a4.6,4.6,0,0,1-1.02.081c-.658.025-1.609.037-2.785.026a67.614,67.614,0,0,1-9.171-.675,41.067,41.067,0,0,1-8.9-2.318,26.008,26.008,0,0,1-2.545-1.142,4.576,4.576,0,0,1-.886-.513c.035-.072,1.338.575,3.54,1.365a47.462,47.462,0,0,0,8.861,2.174,87.92,87.92,0,0,0,9.113.8l2.778.113a4.6,4.6,0,0,1,1.019.09" transform="translate(-26.5 -30.614)" fill="#263238"/>
        <path id="Path_701" data-name="Path 701" d="M248.388,209.959a2.12,2.12,0,0,1-.3.626,15.668,15.668,0,0,1-1.035,1.578,23,23,0,0,1-9.726,7.593,15.708,15.708,0,0,1-1.782.622,2.087,2.087,0,0,1-.68.141c-.022-.07.908-.384,2.338-1.047a26.672,26.672,0,0,0,9.6-7.5c.99-1.227,1.521-2.053,1.583-2.014" transform="translate(-36.838 -32.931)" fill="#263238"/>
        <path id="Path_702" data-name="Path 702" d="M249.3,217.639a5.373,5.373,0,0,1-1.374,1.086A18.4,18.4,0,0,1,240,221.53a5.413,5.413,0,0,1-1.751.021,45.076,45.076,0,0,0,5.728-1.379,44.958,44.958,0,0,0,5.319-2.533" transform="translate(-37.369 -34.135)" fill="#263238"/>
        <path id="Path_703" data-name="Path 703" d="M278.466,147.669a2.344,2.344,0,0,1-.1.714,19.172,19.172,0,0,1-.5,1.9,28.979,28.979,0,0,1-6.465,11.109,19.252,19.252,0,0,1-1.4,1.369c-.349.3-.551.46-.571.438-.051-.052.675-.77,1.744-2.015a34.77,34.77,0,0,0,6.4-11c.556-1.544.822-2.529.891-2.512" transform="translate(-42.259 -23.162)" fill="#263238"/>
        <path id="Path_704" data-name="Path 704" d="M283.855,179.54a9.073,9.073,0,0,1-2.041.159c-1.262.035-3.007.035-4.932-.039s-3.666-.21-4.922-.341a9.047,9.047,0,0,1-2.024-.316,10.015,10.015,0,0,1,2.046.006l4.916.213,4.917.166a10.012,10.012,0,0,1,2.04.152" transform="translate(-42.339 -28.07)" fill="#263238"/>
        <path id="Path_705" data-name="Path 705" d="M266.9,150.975a5.807,5.807,0,0,1,.289,1.114c.169.807.384,1.834.642,3.061.52,2.588,1.269,6.169,1.717,10.192a43.165,43.165,0,0,1-.051,10.342,29.982,29.982,0,0,1-.569,3.085,5.733,5.733,0,0,1-.314,1.107,5.808,5.808,0,0,1,.147-1.14c.135-.725.28-1.782.428-3.089a48.494,48.494,0,0,0-.078-10.259c-.444-3.993-1.142-7.577-1.585-10.18-.224-1.3-.4-2.357-.505-3.089a5.849,5.849,0,0,1-.121-1.144" transform="translate(-41.862 -23.68)" fill="#263238"/>
        <path id="Path_706" data-name="Path 706" d="M202.5,176.39a4.148,4.148,0,0,1-.056.972c-.063.622-.173,1.52-.319,2.628-.3,2.215-.743,5.271-1.359,8.627a76.406,76.406,0,0,1-1.986,8.516,23.8,23.8,0,0,1-.913,2.495,4.2,4.2,0,0,1-.468.857c-.067-.032.524-1.28,1.083-3.438.589-2.147,1.237-5.159,1.852-8.508s1.11-6.393,1.484-8.594c.18-1.028.333-1.9.457-2.606a4.1,4.1,0,0,1,.224-.948" transform="translate(-30.962 -27.666)" fill="#263238"/>
        <path id="Path_707" data-name="Path 707" d="M200.084,160.452a6.664,6.664,0,0,1,.841,1.658,31.042,31.042,0,0,1,2.191,8.673,6.616,6.616,0,0,1,.047,1.858c-.133.013-.4-2.8-1.255-6.167-.841-3.366-1.949-5.969-1.825-6.022" transform="translate(-31.381 -25.167)" fill="#263238"/>
        <path id="Path_708" data-name="Path 708" d="M227.541,189.028a2.9,2.9,0,0,1,.236-.482l.745-1.356,2.841-5.023,9.846-17.13.277.3c-2.489,1.21-5.179,2.406-7.995,3.523-3.393,1.345-6.733,2.481-9.851,3.4l-.659.194.435-.529,11.829-14.357c1.456-1.742,2.625-3.139,3.457-4.136l.938-1.093a2.646,2.646,0,0,1,.343-.363,2.525,2.525,0,0,1-.287.408c-.223.288-.516.664-.884,1.137-.81,1.014-1.947,2.438-3.363,4.213l-11.707,14.455-.223-.334c3.1-.929,6.429-2.067,9.81-3.407,2.8-1.112,5.486-2.3,7.97-3.5l.63-.3-.352.6L231.6,182.3l-2.949,4.96-.807,1.32a2.886,2.886,0,0,1-.3.444" transform="translate(-34.974 -23.837)" fill="#fff"/>
        <g id="Group_588" data-name="Group 588" transform="translate(199.317 178.457)" opacity="0.3">
          <g id="Group_587" data-name="Group 587">
            <g id="Group_586" data-name="Group 586" clip-path="url(#clip-path-10)">
              <path id="Path_709" data-name="Path 709" d="M244.768,221.464c.992.259,2.9-2.755,4-4.6-3.386,1.873-6.624,4.115-10.405,3.3a13.216,13.216,0,0,0,9.107-8.509A21.768,21.768,0,0,1,236.4,220.3s6.795.755,8.373,1.167" transform="translate(-236.395 -211.655)"/>
            </g>
          </g>
        </g>
        <path id="Path_710" data-name="Path 710" d="M200.086,114.483c.016-.04.578.24,1.663.48a7.018,7.018,0,0,0,4.549-.447,5.47,5.47,0,0,0,2.292-2.134,4.084,4.084,0,0,0,.368-3.458,3.707,3.707,0,0,0-2.79-2.494,3.266,3.266,0,0,0-3.355,1.955,2.471,2.471,0,0,0,.078,2.018,3.382,3.382,0,0,0,1.427,1.448,3.844,3.844,0,0,0,1.924.5,4.744,4.744,0,0,0,1.884-.442,7.8,7.8,0,0,0,2.816-2.3,11.207,11.207,0,0,0,1.618-2.78,11.933,11.933,0,0,0,.881-4.579c-.015-1.113-.138-1.724-.1-1.731a1.808,1.808,0,0,1,.114.438,9.409,9.409,0,0,1,.153,1.288,11.482,11.482,0,0,1-.763,4.7,11.341,11.341,0,0,1-1.621,2.89,8.09,8.09,0,0,1-2.935,2.439,5.135,5.135,0,0,1-2.045.494,4.262,4.262,0,0,1-2.14-.539,3.8,3.8,0,0,1-1.611-1.634,2.906,2.906,0,0,1-.094-2.371A3.685,3.685,0,0,1,206.232,106a4.109,4.109,0,0,1,3.107,2.786,4.446,4.446,0,0,1-.436,3.776,5.742,5.742,0,0,1-2.47,2.229,7,7,0,0,1-4.723.334,7.648,7.648,0,0,1-1.226-.43,1.556,1.556,0,0,1-.4-.216" transform="translate(-31.383 -15.766)" fill="#263238"/>
        <path id="Path_711" data-name="Path 711" d="M274.445,92.724a12.076,12.076,0,0,0-3.18-9.473,10.2,10.2,0,0,0-9.425-2.9,12.245,12.245,0,0,0-6.414,3.345,6.574,6.574,0,0,0-1.307,1.862c-.056.106-.109.216-.162.326-.066.139-.129.278-.19.419-.01.024-.022.045-.031.068l.006-.008a12.329,12.329,0,0,0-.744,7.6,11.607,11.607,0,0,0,7.609,8.333,10.787,10.787,0,0,0,10.858-2.748,11.576,11.576,0,0,0,2.978-6.823" transform="translate(-39.636 -12.566)" fill="#263238"/>
        <path id="Path_712" data-name="Path 712" d="M274.455,99.739c-.076.015-.229-.956-.819-2.4a13.176,13.176,0,0,0-8.74-7.788c-1.5-.422-2.484-.461-2.478-.539a1.95,1.95,0,0,1,.691-.029,10.439,10.439,0,0,1,1.864.266,12.476,12.476,0,0,1,8.952,7.978,10.445,10.445,0,0,1,.479,1.821,1.939,1.939,0,0,1,.051.69" transform="translate(-41.16 -13.956)" fill="#455a64"/>
        <path id="Path_713" data-name="Path 713" d="M270.956,93.844a7.03,7.03,0,0,1-.772,1.981,16.672,16.672,0,0,1-7.122,7.234,7.024,7.024,0,0,1-1.968.8,27.582,27.582,0,0,0,5.781-4.173,27.59,27.59,0,0,0,4.082-5.845" transform="translate(-40.952 -14.719)" fill="#455a64"/>
        <path id="Path_714" data-name="Path 714" d="M262,88.074c-.131-.074.881-1.7,1.722-3.846a18.433,18.433,0,0,0,.884-4.075,2.692,2.692,0,0,1,.147,1.253,9.128,9.128,0,0,1-.621,2.976A11.333,11.333,0,0,1,262,88.074" transform="translate(-41.092 -12.572)" fill="#ff725e"/>
        <path id="Path_715" data-name="Path 715" d="M244.585,138.459h0" transform="translate(-38.362 -21.717)" fill="#ffbe9d"/>
        <path id="Path_716" data-name="Path 716" d="M254.878,82.376a19.037,19.037,0,0,0-16.9-19.724,18.491,18.491,0,0,0-20.487,17l-1.7,41.62a3.629,3.629,0,0,0,.678,2.251,16.974,16.974,0,0,0,10.941,6.7,17.791,17.791,0,0,0,10.913-2.475,3.549,3.549,0,0,0,1.742-3.077l0-9.31a.06.06,0,0,1,.062-.062,12.648,12.648,0,0,0,2.608-.121c2.451-.646,8.679-3.175,10.611-12.422.64-3.067,1.187-11.748,1.537-20.384" transform="translate(-33.846 -9.812)" fill="#ffbe9d"/>
        <path id="Path_717" data-name="Path 717" d="M246.21,99.976a11.054,11.054,0,0,1,2.69-.337c.422-.021.822-.083.906-.361a2.067,2.067,0,0,0-.224-1.236q-.522-1.528-1.1-3.2c-1.518-4.558-2.6-8.3-2.411-8.354s1.57,3.59,3.088,8.148q.546,1.685,1.044,3.219a2.357,2.357,0,0,1,.144,1.629,1.045,1.045,0,0,1-.717.568,2.908,2.908,0,0,1-.717.061,10.9,10.9,0,0,1-2.7-.134" transform="translate(-38.593 -13.565)" fill="#263238"/>
        <path id="Path_718" data-name="Path 718" d="M256.831,93.158A1.5,1.5,0,0,1,255.29,94.6a1.463,1.463,0,0,1-1.512-1.433,1.506,1.506,0,0,1,1.54-1.44,1.464,1.464,0,0,1,1.513,1.434" transform="translate(-39.805 -14.387)" fill="#263238"/>
        <path id="Path_719" data-name="Path 719" d="M258.131,87.942c-.15.164-1.374.086-2.93.613s-2.577,1.342-2.776,1.294c-.1-.019.034-.269.475-.637a7.036,7.036,0,0,1,2.186-1.164,6.326,6.326,0,0,1,2.368-.358c.536.041.751.175.676.252" transform="translate(-39.588 -13.752)" fill="#263238"/>
        <path id="Path_720" data-name="Path 720" d="M238.071,91.929a1.505,1.505,0,0,1-1.541,1.439,1.463,1.463,0,0,1-1.512-1.433,1.505,1.505,0,0,1,1.54-1.44,1.464,1.464,0,0,1,1.513,1.434" transform="translate(-36.862 -14.194)" fill="#263238"/>
        <path id="Path_721" data-name="Path 721" d="M238.185,89.042c-.239.011-1.135-.957-2.736-1.722s-3-.916-3.12-1.1c-.061-.085.223-.176.841-.121a7.808,7.808,0,0,1,2.564.757,7.04,7.04,0,0,1,2.11,1.494c.385.429.455.689.341.691" transform="translate(-36.439 -13.502)" fill="#263238"/>
        <path id="Path_722" data-name="Path 722" d="M241.956,124.2s-6.366.189-14.086-4.9c0,0,2.127,8.369,14.09,7.88Z" transform="translate(-35.741 -18.712)" fill="#eb996e"/>
        <path id="Path_723" data-name="Path 723" d="M244.285,106.833a3,3,0,0,0-2.6-1.216,2.706,2.706,0,0,0-1.911.889,1.66,1.66,0,0,0-.218,1.918,2.017,2.017,0,0,0,2.129.645,6.2,6.2,0,0,0,2.156-1.125,1.793,1.793,0,0,0,.491-.454.533.533,0,0,0,.025-.6" transform="translate(-37.54 -16.565)" fill="#eb996e"/>
        <path id="Path_724" data-name="Path 724" d="M240.388,103.519c.268,0,.191,1.751,1.661,3.072s3.376,1.226,3.379,1.471c.02.111-.438.319-1.242.3a4.521,4.521,0,0,1-2.825-1.128,3.809,3.809,0,0,1-1.277-2.571c-.035-.737.184-1.16.305-1.144" transform="translate(-37.656 -16.237)" fill="#263238"/>
        <path id="Path_725" data-name="Path 725" d="M239.194,81.517c-.233.406-1.816-.081-3.756-.185-1.938-.144-3.563.137-3.749-.3-.082-.206.254-.567.944-.879a6.3,6.3,0,0,1,2.9-.466,6.374,6.374,0,0,1,2.822.833c.652.4.946.8.843.993" transform="translate(-36.338 -12.497)" fill="#263238"/>
        <path id="Path_726" data-name="Path 726" d="M258.123,81.819c-.306.352-1.42-.086-2.78-.173-1.357-.134-2.524.118-2.772-.278-.107-.192.091-.551.61-.872a4.093,4.093,0,0,1,4.474.363c.464.4.6.788.469.96" transform="translate(-39.611 -12.547)" fill="#263238"/>
        <path id="Path_727" data-name="Path 727" d="M238.823,59.714a5.58,5.58,0,0,0-4.285-2.319c-7.3-.966-15.35,3.571-19.315,9.778s-4.011,15.359-.9,22.034l2.739.427c5.683-.447,14.956-16.476,22.768-25.381.97-1.106-.24-3.285-1.01-4.54" transform="translate(-33.269 -8.982)" fill="#263238"/>
        <path id="Path_728" data-name="Path 728" d="M257.708,64.447c-3.111-3.407-8.139-7.541-14.417-5.014-.9,1.788,1.021,4.05,2.612,5.364,2.331,1.923,4.36,3.213,5.892,4.593,3.1,2.788,6.953,7.426,7.35,12.64.025.327.276.369.6.313.425-.073,1.365-2.223,1.815-5.067.957-6.065-.744-9.421-3.855-12.828" transform="translate(-38.124 -9.2)" fill="#263238"/>
        <path id="Path_729" data-name="Path 729" d="M214.768,83.06a9.1,9.1,0,0,0-1.917-3.782,8.705,8.705,0,0,0-2.129-1.835,10.2,10.2,0,0,0-9.86-.145,12.079,12.079,0,0,0-5.942,8.033,11.577,11.577,0,0,0,.733,7.409,10.788,10.788,0,0,0,9.484,5.959,11.607,11.607,0,0,0,9.806-5.585c1.43-2.38,1.056-6.581-.175-10.054" transform="translate(-30.527 -11.936)" fill="#263238"/>
        <path id="Path_730" data-name="Path 730" d="M218.711,91.583c-.17-.089-6.948-2.624-7.243,4.459s6.878,5.918,6.9,5.716.344-10.175.344-10.175" transform="translate(-33.167 -14.284)" fill="#ffbe9d"/>
        <path id="Path_731" data-name="Path 731" d="M216.65,99.4c-.03-.024-.127.081-.34.168a1.235,1.235,0,0,1-.922-.019,3.056,3.056,0,0,1-1.3-2.8A4.088,4.088,0,0,1,214.507,95a1.427,1.427,0,0,1,.968-.908.628.628,0,0,1,.714.368c.087.2.035.341.073.355.019.019.158-.112.112-.407a.792.792,0,0,0-.26-.455.933.933,0,0,0-.675-.208,1.733,1.733,0,0,0-1.335,1.044,4.2,4.2,0,0,0-.51,1.957c-.014,1.429.661,2.8,1.673,3.133a1.322,1.322,0,0,0,1.137-.14c.226-.166.271-.323.246-.336" transform="translate(-33.502 -14.703)" fill="#eb996e"/>
        <path id="Path_732" data-name="Path 732" d="M259.567,66.893a7.845,7.845,0,0,1-2.064.271,29.038,29.038,0,0,1-9.941-1.2,7.812,7.812,0,0,1-1.94-.755,13.011,13.011,0,0,1,2.022.455,40.8,40.8,0,0,0,9.851,1.19,13.028,13.028,0,0,1,2.072.039" transform="translate(-38.525 -10.226)" fill="#455a64"/>
        <path id="Path_733" data-name="Path 733" d="M263.1,72.818a4.107,4.107,0,0,1-1.541.365,11.915,11.915,0,0,1-7.383-1.613,4.1,4.1,0,0,1-1.25-.975A16.154,16.154,0,0,0,263.1,72.818" transform="translate(-39.671 -11.072)" fill="#455a64"/>
        <path id="Path_734" data-name="Path 734" d="M214.736,70.361c.012-.09,1.535.183,4.008.115a30.317,30.317,0,0,0,4.313-.442A39.349,39.349,0,0,0,228.2,68.7a42.571,42.571,0,0,0,4.9-2.05,38.992,38.992,0,0,0,3.765-2.165c2.072-1.355,3.229-2.374,3.282-2.311a5.108,5.108,0,0,1-.777.755,12.7,12.7,0,0,1-.978.811c-.39.306-.834.657-1.354,1a33.855,33.855,0,0,1-3.755,2.267,38.9,38.9,0,0,1-4.946,2.106,36.272,36.272,0,0,1-5.212,1.314,27.208,27.208,0,0,1-4.377.353,15.179,15.179,0,0,1-1.685-.066,9.517,9.517,0,0,1-1.264-.142,5.151,5.151,0,0,1-1.062-.218" transform="translate(-33.681 -9.752)" fill="#455a64"/>
        <path id="Path_735" data-name="Path 735" d="M239.869,65.119a5.635,5.635,0,0,1-.565.985,12.832,12.832,0,0,1-.748,1.1c-.313.414-.642.909-1.075,1.4a29.486,29.486,0,0,1-3.185,3.318,31.465,31.465,0,0,1-4.547,3.33,30.684,30.684,0,0,1-5.109,2.38,27.513,27.513,0,0,1-4.454,1.152c-.642.135-1.235.173-1.75.237a11.747,11.747,0,0,1-1.329.094,5.583,5.583,0,0,1-1.136-.008c-.005-.09,1.614-.126,4.158-.627a30.362,30.362,0,0,0,4.375-1.227,32.626,32.626,0,0,0,5.023-2.378,33.375,33.375,0,0,0,4.5-3.256,32.717,32.717,0,0,0,3.215-3.214c1.7-1.963,2.551-3.336,2.625-3.287" transform="translate(-33.875 -10.214)" fill="#455a64"/>
        <path id="Path_736" data-name="Path 736" d="M238.71,57.41a2.632,2.632,0,0,1,1.422.1,6.108,6.108,0,0,1,2.91,1.834,5.2,5.2,0,0,1,.592.812,4.208,4.208,0,0,1,.349.868,9.366,9.366,0,0,1,.4,1.489,2.147,2.147,0,0,1-.1,1.422c-.072-.01.011-.545-.2-1.361a13.3,13.3,0,0,0-.477-1.417,4.234,4.234,0,0,0-.339-.785,5.275,5.275,0,0,0-.549-.738,6.759,6.759,0,0,0-2.674-1.829c-.794-.281-1.332-.32-1.328-.393" transform="translate(-37.441 -8.997)" fill="#455a64"/>
        <path id="Path_737" data-name="Path 737" d="M215.887,88.762c-.072-.023.143-.732.292-1.9a12.245,12.245,0,0,0-.262-4.544,9.443,9.443,0,0,0-2.142-3.973c-.8-.857-1.429-1.256-1.383-1.325.016-.025.182.057.473.23a6.325,6.325,0,0,1,1.132.878,8.745,8.745,0,0,1,2.345,4.079,10.877,10.877,0,0,1,.144,4.7,5.261,5.261,0,0,1-.6,1.852" transform="translate(-33.313 -12.08)" fill="#ff725e"/>
        <path id="Path_738" data-name="Path 738" d="M213.886,88.28c-.041.062-.911-.5-2.4-1.235a26.957,26.957,0,0,0-12.527-2.794c-1.661.033-2.687.172-2.7.1a2.319,2.319,0,0,1,.709-.178,16.6,16.6,0,0,1,1.976-.23,23.555,23.555,0,0,1,12.682,2.829,16.45,16.45,0,0,1,1.691,1.049c.381.274.583.437.567.462" transform="translate(-30.783 -13.159)" fill="#455a64"/>
        <path id="Path_739" data-name="Path 739" d="M208,85.76a7.284,7.284,0,0,1-.529,2.078,19.818,19.818,0,0,1-5.859,8.434,7.282,7.282,0,0,1-1.763,1.221,34.152,34.152,0,0,0,4.888-5.3A34.155,34.155,0,0,0,208,85.76" transform="translate(-31.346 -13.451)" fill="#455a64"/>
        <path id="Path_740" data-name="Path 740" d="M214.287,102.045c.051-.136.306-.213.728-.1a2.726,2.726,0,0,1,1.484,1.105,3.311,3.311,0,0,1-.774,4.472,3.479,3.479,0,0,1-3.9.1,3.616,3.616,0,0,1-1.23-1.353,3.2,3.2,0,0,1-.1-2.924,2.53,2.53,0,0,1,1.3-1.374c.45-.165.719-.052.753.083.051.3-.481.711-.567,1.749a2.424,2.424,0,0,0,.027.76,2.075,2.075,0,0,0,.33.681,1.652,1.652,0,0,0,1.392.732,1.386,1.386,0,0,0,1.252-.756,1.916,1.916,0,0,0,.143-1.446c-.276-.941-.962-1.44-.838-1.726" transform="translate(-32.968 -15.981)" fill="#455a64"/>
        <path id="Path_741" data-name="Path 741" d="M223.56,85.038a20.232,20.232,0,0,0,4.266-.749,18.077,18.077,0,0,0,8.421-5.91,28.378,28.378,0,0,0,4.727-9.279c.4-1.283.677-2.339.862-3.07a6.435,6.435,0,0,1,.322-1.13A5.643,5.643,0,0,1,242,66.067c-.134.745-.364,1.818-.732,3.123a26.754,26.754,0,0,1-4.682,9.465,17.631,17.631,0,0,1-8.673,5.931,12.761,12.761,0,0,1-3.178.509,7.4,7.4,0,0,1-.874-.016c-.2-.013-.3-.026-.3-.041" transform="translate(-35.065 -10.18)" fill="#263238"/>
        <path id="Path_742" data-name="Path 742" d="M239.494,132.115a1.574,1.574,0,0,1,.424.218,4.1,4.1,0,0,1,1.005.933,5.135,5.135,0,0,1,.929,1.964,5.481,5.481,0,0,1-.077,2.879,8.393,8.393,0,0,1-5.168,5.163,17.589,17.589,0,0,1-4.283,1.045,25.769,25.769,0,0,1-4.719.191,17.082,17.082,0,0,1-8.644-2.727,12.608,12.608,0,0,1-4.737-5.678,7.163,7.163,0,0,1-.57-2.821,4.326,4.326,0,0,1,.574-2.1,3.312,3.312,0,0,1,.911-1.027,1.258,1.258,0,0,1,.418-.231,4.064,4.064,0,0,0-1.179,1.341,4.242,4.242,0,0,0-.479,2.017,7.056,7.056,0,0,0,.612,2.7,12.464,12.464,0,0,0,4.674,5.459,16.9,16.9,0,0,0,8.444,2.625,25.936,25.936,0,0,0,4.64-.179,17.428,17.428,0,0,0,4.189-.994,8.129,8.129,0,0,0,5.02-4.877,5.328,5.328,0,0,0-.693-4.651,5.939,5.939,0,0,0-1.292-1.253" transform="translate(-33.511 -20.378)" fill="#263238"/>
        <path id="Path_743" data-name="Path 743" d="M222.285,144.834a2.745,2.745,0,0,1,.411-2.016c.541-1.043,1.359-1.581,1.424-1.486.084.1-.542.734-1.035,1.69s-.674,1.827-.8,1.813" transform="translate(-34.855 -22.166)" fill="#263238"/>
        <path id="Path_744" data-name="Path 744" d="M231.653,146.609a7.174,7.174,0,0,1,.138-3.518,7.174,7.174,0,0,1-.138,3.518" transform="translate(-36.309 -22.444)" fill="#263238"/>
        <path id="Path_745" data-name="Path 745" d="M240.941,145.143a9.187,9.187,0,0,1-.8-3.914,9.222,9.222,0,0,1,.8,3.914" transform="translate(-37.657 -22.151)" fill="#263238"/>
        <path id="Path_746" data-name="Path 746" d="M246.221,139.606c-.111.059-.444-.383-.989-.737s-1.073-.5-1.062-.626c0-.117.658-.173,1.305.261s.856,1.062.746,1.1" transform="translate(-38.298 -21.67)" fill="#263238"/>
        <path id="Path_747" data-name="Path 747" d="M217,136.128c.019.124-.447.287-.9.651s-.72.772-.836.725c-.114-.03.005-.628.563-1.068s1.164-.426,1.169-.308" transform="translate(-33.758 -21.34)" fill="#263238"/>
        <path id="Path_748" data-name="Path 748" d="M233.455,199.2a1.764,1.764,0,0,1-1.564-2.47c2.273-5.125,8.485-14.991,8.9-15.625.583-.9.9-2,2.785-2.227.728-.089,12.114-.348,14.781-.408a1.651,1.651,0,0,1,1.186.435,2.251,2.251,0,0,1,.244,2.976c-.947,1.7-7.825,12.37-10.62,16.487a2.873,2.873,0,0,1-2.471,1.256Z" transform="translate(-36.348 -27.992)" fill="#263238"/>
        <path id="Path_749" data-name="Path 749" d="M254.237,182.777a.812.812,0,0,0-.91-.249,1.917,1.917,0,0,0-.8.513.708.708,0,0,0-.166.9.84.84,0,0,0,.768.256,1.431,1.431,0,0,0,.949-.427.9.9,0,0,0,.159-.988" transform="translate(-39.567 -28.622)" fill="#fff"/>
        <path id="Path_750" data-name="Path 750" d="M258.289,184.694a5.125,5.125,0,0,1,.443-.984c.171-.333.362-.707.575-1.124l.364-.7a1.686,1.686,0,0,0,.287-.75.868.868,0,0,0-.347-.708,1.192,1.192,0,0,0-.895-.155l-2.323.094-5.325.189-5.326.154-.592.017a.827.827,0,0,0-.438.174,4.869,4.869,0,0,0-.609.867l-1.091,1.707-1.607,2.455a5.056,5.056,0,0,1-.641.868,5.12,5.12,0,0,1,.495-.959l1.489-2.529,1.046-1.735.288-.475a1.72,1.72,0,0,1,.388-.5,1.231,1.231,0,0,1,.639-.267l.62-.027,5.325-.189,5.325-.153,2.325-.055a1.53,1.53,0,0,1,1.115.252,1.19,1.19,0,0,1,.448.986,1.158,1.158,0,0,1-.137.5c-.073.128-.144.254-.214.378l-.395.682-.64,1.089a5.141,5.141,0,0,1-.593.9" transform="translate(-37.763 -28.217)" fill="#455a64"/>
        <path id="Path_751" data-name="Path 751" d="M277.614,183.975s-1.155,8.031-2.339,13.189c-1.056,4.6-2.727,20.123-7,22.08s-9.584.735-11.553-3.048-4.072-13.866-4.072-13.866l-8.933-3.761s-2.056-7.491-.888-8.335,12.7.422,12.7.422l3.094-.7s-4.919-.7-5.975-.985a1.792,1.792,0,0,1-1.5-2.11c.249-.984.446-1.969,3.118-1.969s6.843-.4,7.6-.141c.94.324,2.006.869,2.215,3.235.206,2.314-.909,6.76-.909,6.76l.243.373,1.575-11.619Z" transform="translate(-38.031 -28.782)" fill="#ffbe9d"/>
        <path id="Path_752" data-name="Path 752" d="M262.779,200.249a2.672,2.672,0,0,1-.723.289,19.88,19.88,0,0,1-2.048.551,25.343,25.343,0,0,1-6.976.535,23.7,23.7,0,0,1-6.837-1.49,17.591,17.591,0,0,1-1.938-.864,2.671,2.671,0,0,1-.668-.4c.033-.069,1.031.406,2.71.974a27.192,27.192,0,0,0,6.761,1.345,29.454,29.454,0,0,0,6.888-.4c1.747-.309,2.81-.608,2.831-.536" transform="translate(-38.206 -31.191)" fill="#eb996e"/>
        <path id="Path_753" data-name="Path 753" d="M260.9,196.2a2.5,2.5,0,0,1-.725.232c-.474.118-1.165.266-2.028.407a26.249,26.249,0,0,1-6.825.252,18.338,18.338,0,0,1-6.562-1.9,12.824,12.824,0,0,1-1.763-1.1c-.391-.3-.588-.483-.572-.505.045-.063.908.591,2.472,1.323a20.278,20.278,0,0,0,6.47,1.741,30.99,30.99,0,0,0,6.737-.121c1.722-.2,2.782-.4,2.8-.332" transform="translate(-38.024 -30.363)" fill="#eb996e"/>
        <path id="Path_754" data-name="Path 754" d="M266.7,186.857c.052-.014.213.392.176,1.081a2.593,2.593,0,0,1-.333,1.186,1.446,1.446,0,0,1-.573.522,3.921,3.921,0,0,1-.707.313,10.387,10.387,0,0,1-2.573.439,7.223,7.223,0,0,1-1.058.082c-.029-.056.355-.272,1.017-.39a18.558,18.558,0,0,0,2.474-.547,2.159,2.159,0,0,0,1.082-.64,2.666,2.666,0,0,0,.363-1,9.251,9.251,0,0,1,.132-1.045" transform="translate(-41.037 -29.308)" fill="#eb996e"/>
        <path id="Path_755" data-name="Path 755" d="M261.236,202.875a1.74,1.74,0,0,1,.008,1.461,3.166,3.166,0,0,1-.9,1.352,3.68,3.68,0,0,1-1.807.833,4.737,4.737,0,0,1-1.973-.089,7.333,7.333,0,0,1-1.47-.6,6.776,6.776,0,0,1-1.245-.714,3.674,3.674,0,0,1,1.375.432,5.622,5.622,0,0,0,3.238.537,3.505,3.505,0,0,0,1.62-.709,3.123,3.123,0,0,0,.875-1.154,5.423,5.423,0,0,0,.282-1.351" transform="translate(-39.815 -31.82)" fill="#eb996e"/>
        <path id="Path_756" data-name="Path 756" d="M266.978,185.9c.008-.01.062.021.164.094a1.625,1.625,0,0,1,.353.416,4.537,4.537,0,0,1,.5,1.947,23.959,23.959,0,0,1-.815,6.82l-.006-.125a21.775,21.775,0,0,0,1.6,3.329,36.855,36.855,0,0,0,2.9,4.233,18.748,18.748,0,0,1,2.5,3.432,3.88,3.88,0,0,1,.245,2.856,2.371,2.371,0,0,1-.374.7c-.116.139-.189.2-.2.191a5.231,5.231,0,0,0,.409-.937,3.847,3.847,0,0,0-.361-2.672,20.284,20.284,0,0,0-2.536-3.313A34.012,34.012,0,0,1,268.4,198.6a21.083,21.083,0,0,1-1.615-3.405l-.022-.061.016-.065a26.592,26.592,0,0,0,.959-6.7,4.89,4.89,0,0,0-.363-1.894,4.474,4.474,0,0,0-.391-.577" transform="translate(-41.841 -29.157)" fill="#eb996e"/>
        <path id="Path_757" data-name="Path 757" d="M173.424,201.857s-1.3,17.923,7.029,20.928c11.494,4.145,24.6-7.308,24.65-7.493s13.944-11.375,13.944-11.375L214.718,192s-1.731,0-4.545,2.005c-1.017.724-17.124,9.216-17.124,9.216s-7.029-.059-19.626-1.369" transform="translate(-27.19 -30.116)" fill="#ffbe9d"/>
        <path id="Path_758" data-name="Path 758" d="M194.965,205c.056.136-2.978,1.366-6.642,3.008-1.83.83-3.443,1.663-4.6,2.3a13.571,13.571,0,0,1-1.892,1,8.453,8.453,0,0,1,1.734-1.265,39.436,39.436,0,0,1,4.572-2.427c1.84-.839,3.545-1.5,4.784-1.954a10.54,10.54,0,0,1,2.04-.654" transform="translate(-28.52 -32.152)" fill="#eb996e"/>
        <path id="Path_759" data-name="Path 759" d="M237.624,183.735s-2.174-3.083-3.039-3.072-6.042.858-6.042.858l-7.327,7.948s-.5,2.591,1.08,3.527c0,0-.533,4.073,1.426,5.24,0,0,1.454,3.83,2.821,3.9a9.226,9.226,0,0,0,1.74,0s-.3,2.3,1.787,2.448a35.536,35.536,0,0,0,6.149-.618,2.3,2.3,0,0,0,1.5-.939l1.793-2.525a2.309,2.309,0,0,0-.008-2.685,6.107,6.107,0,0,0,1.076-1.881,8.355,8.355,0,0,0,0-2.406s3.1-2.62,3.168-3.305-.073-1.34-1.44-1.265c0,0-.288-2.12-2.016-2.066s-9.91,0-9.91,0l1.555-1.518s4.073,1.551,4.5.52Z" transform="translate(-34.685 -28.337)" fill="#ffbe9d"/>
        <path id="Path_760" data-name="Path 760" d="M226.753,194.4a9.68,9.68,0,0,1,1.326-.094c.855-.044,2.1-.12,3.631-.3a47.089,47.089,0,0,0,5.365-.953c1-.241,2.052-.528,3.131-.868a7.752,7.752,0,0,0,2.831-1.886l.056-.047.058-.009a1.8,1.8,0,0,1,1.192.115.952.952,0,0,1,.422.547,2.113,2.113,0,0,1,.082.613,1.612,1.612,0,0,1-.011.279.88.88,0,0,1-.125.311,4.052,4.052,0,0,1-.313.422c-.217.26-.447.495-.676.727-.461.461-.93.892-1.4,1.308l-.007.006-.006.005a57.164,57.164,0,0,1-5.048,3.59,12.8,12.8,0,0,1-4.677,1.665,9.241,9.241,0,0,1-3.287-.08,5.741,5.741,0,0,1-.851-.244.949.949,0,0,1-.279-.128,10.671,10.671,0,0,0,4.373.175,12.921,12.921,0,0,0,4.529-1.712c1.6-.954,3.2-2.272,4.984-3.612l-.014.011c.462-.41.928-.841,1.377-1.293.223-.227.448-.457.651-.7a4.035,4.035,0,0,0,.272-.368.724.724,0,0,0,.066-.141,1.026,1.026,0,0,0,.005-.215c0-.359-.065-.671-.287-.79a1.423,1.423,0,0,0-.894-.062l.113-.056a14.156,14.156,0,0,1-1.409,1.159,4.861,4.861,0,0,1-1.6.811c-1.09.336-2.152.616-3.167.847a42.565,42.565,0,0,1-5.423.865c-1.548.144-2.8.175-3.658.169-.43,0-.762-.013-.988-.026a1.077,1.077,0,0,1-.341-.04" transform="translate(-35.566 -29.831)" fill="#eb996e"/>
        <path id="Path_761" data-name="Path 761" d="M242.242,195.925a3.964,3.964,0,0,1,.176,1.282c.01.206.015.433.008.681,0,.124-.009.254-.022.389a1.28,1.28,0,0,1-.126.438,8.638,8.638,0,0,1-.422.806l-.25.417-.134.213a1.526,1.526,0,0,1-.092.132.283.283,0,0,1-.06.051c-.037,0,.013.061-.2-.017a.206.206,0,0,1-.051-.278l.008-.015.035-.058.341.2a9.563,9.563,0,0,1-2.148,2.636,9.052,9.052,0,0,1-5.228,2.161,8.336,8.336,0,0,1-1.726-.049,1.755,1.755,0,0,1-.616-.15c.008-.084.9.069,2.311-.11a9.433,9.433,0,0,0,4.973-2.187,9.832,9.832,0,0,0,2.087-2.5l.341.2a11.494,11.494,0,0,0,.8-4.253" transform="translate(-36.347 -30.73)" fill="#eb996e"/>
        <path id="Path_762" data-name="Path 762" d="M233.919,185.8c-.031.094-.86-.213-1.25-1.192a2.119,2.119,0,0,1-.069-1.258c.082-.311.2-.476.25-.46.137.03-.063.779.229,1.564s.925,1.236.84,1.346" transform="translate(-36.473 -28.685)" fill="#eb996e"/>
        <path id="Path_763" data-name="Path 763" d="M228.412,203.879a1.269,1.269,0,0,1-.647.153,3.606,3.606,0,0,1-1.79-.337,3.749,3.749,0,0,1-1.862-1.967,4.263,4.263,0,0,1-.305-1.582.7.7,0,0,0-.273-.568,3.8,3.8,0,0,1-.667-.578,3.725,3.725,0,0,1-.815-2.146,10.794,10.794,0,0,1,.081-1.994l.094.18a3.051,3.051,0,0,1-1.417-2.674,1.732,1.732,0,0,1,.329-1.111,7.15,7.15,0,0,0-.107,1.11,2.9,2.9,0,0,0,1.385,2.348l.1.06-.008.121a11.387,11.387,0,0,0-.037,1.922,3.383,3.383,0,0,0,.725,1.9,3.5,3.5,0,0,0,.614.529,1.151,1.151,0,0,1,.422.868,3.985,3.985,0,0,0,.252,1.467,3.525,3.525,0,0,0,1.626,1.841,4.885,4.885,0,0,0,2.3.462" transform="translate(-34.633 -29.998)" fill="#eb996e"/>
        <g id="Group_591" data-name="Group 591" transform="translate(166.908 149.783)" opacity="0.3">
          <g id="Group_590" data-name="Group 590">
            <g id="Group_589" data-name="Group 589" clip-path="url(#clip-path-11)">
              <path id="Path_764" data-name="Path 764" d="M202.437,177.646a101.27,101.27,0,0,1-4.48,21.95,16.047,16.047,0,0,0,5.484-9.791c.557-3.792-.328-8.386-1-12.159" transform="translate(-197.957 -177.646)"/>
            </g>
          </g>
        </g>
        <g id="Group_594" data-name="Group 594" transform="translate(226.463 135.644)" opacity="0.3">
          <g id="Group_593" data-name="Group 593">
            <g id="Group_592" data-name="Group 592" clip-path="url(#clip-path-12)">
              <path id="Path_765" data-name="Path 765" d="M270.948,170.1a32.385,32.385,0,0,0-2.357-9.226,52.873,52.873,0,0,1,.442,19.213l.309-.685a17.6,17.6,0,0,0,1.605-9.3" transform="translate(-268.591 -160.877)"/>
            </g>
          </g>
        </g>
      </g>
    </g>
  </g>
</svg>
