<svg xmlns="http://www.w3.org/2000/svg" xmlns:xlink="http://www.w3.org/1999/xlink" width="452" height="532" viewBox="0 0 452 532">
  <defs>
    <clipPath id="clip-path">
      <rect id="Rectangle_3705" data-name="Rectangle 3705" width="452" height="532" transform="translate(7783 18720)" fill="#fff"/>
    </clipPath>
  </defs>
  <g id="DOWNLOAD" transform="translate(-7783 -18720)" clip-path="url(#clip-path)">
    <g id="DOWNLOAD-2" data-name="DOWNLOAD" transform="translate(7731.708 18776.301)">
      <path id="Path_85785" data-name="Path 85785" d="M71,245.5l-1.6,91.4s-3,17.2,22.6,32.3S270.5,471.5,270.5,471.5l.3-52L121.4,332.7s-5.7-1-5.8-11.2c-.1-10.3-.8-55.9-.8-55.9Z" transform="translate(0 0)" fill="#4f6270"/>
      <path id="Path_85786" data-name="Path 85786" d="M442.9,232.7,288,324.7c-23.3,13.8-31.3,18-30.8,45.1l4,74c.5,27,13.1,39.6,36.5,26.1l166.4-99.3c23.4-13.5,21.9-17.5,21.8-44.6l-.6-69.2C485.3,229.8,466.2,218.9,442.9,232.7Zm-3.1,47.8,1.5,41.5c.1,6.4-4.4,14.3-9.9,17.5L316,407.2c-5.5,3.2-10.1.7-10.3-5.7l-2.5-45c-.1-6.4,4.4-14.2,10-17.3l116.3-64.7C435.1,271.4,439.8,274.1,439.8,280.5Z" transform="translate(0 0)" fill="#647b8e"/>
      <path id="Path_85787" data-name="Path 85787" d="M463.4,216.8,306.5,128.3C283,115,275.3,110.1,252.1,124L90.2,221.6c-23.2,13.9-27.8,31.1-4.5,44.7l169,94.8c23.4,13.6,26.1,10.3,49.5-3.3l159.4-92.2C487,252.1,486.9,230.1,463.4,216.8Zm-62.9,32.6L285.6,317.1c-5.5,3.3-14.6,3.3-20.1.1L149.2,251c-5.6-3.2-5.6-8.5-.1-11.8l117.4-70.3c5.5-3.3,14.5-3.3,20,0l114.1,68.6C406,240.8,406,246.2,400.5,249.4Z" transform="translate(0 0)" fill="#8fadc6"/>
      <path id="Path_85788" data-name="Path 85788" d="M283.5,242.4a15.984,15.984,0,0,1-11.3-4.7l-112-112a15.979,15.979,0,0,1,11.3-27.3h58.7v-128a26.759,26.759,0,0,1,26.7-26.7h53.3a26.759,26.759,0,0,1,26.7,26.7v128h58.7a16.008,16.008,0,0,1,14.8,9.9,15.831,15.831,0,0,1-3.5,17.4l-112,112a16.389,16.389,0,0,1-11.4,4.7Z" transform="translate(0)" fill="#86a4b7"/>
      <path id="Path_85789" data-name="Path 85789" d="M283.5-56.3H256.8a26.759,26.759,0,0,0-26.7,26.7v128H171.4a16.008,16.008,0,0,0-14.8,9.9,15.831,15.831,0,0,0,3.5,17.4l45.6,45.6,66.4,66.4a15.984,15.984,0,0,0,11.3,4.7V-56.3Z" transform="translate(0 0)" fill="#a6cae2"/>
    </g>
  </g>
</svg>
