<svg id="Group_1142" data-name="Group 1142" xmlns="http://www.w3.org/2000/svg" width="41.897" height="41.897" viewBox="0 0 41.897 41.897">
  <path id="Path_961" data-name="Path 961" d="M38.624,0H3.273A3.273,3.273,0,0,0,0,3.273V38.624A3.273,3.273,0,0,0,3.273,41.9H38.624A3.273,3.273,0,0,0,41.9,38.624V3.273A3.273,3.273,0,0,0,38.624,0ZM1.309,3.273A1.964,1.964,0,0,1,3.273,1.309H20.294V3.745a3.776,3.776,0,1,0-1.807,7.332,3.563,3.563,0,0,0,1.781-.013h.026v1.4a8.55,8.55,0,0,0-7.83,7.83H10.081a.666.666,0,0,0-.576.34.7.7,0,0,0,.039.681,1.512,1.512,0,0,1,.223.511.308.308,0,0,0,.026.1,2.235,2.235,0,0,1,.013,1.139,2.467,2.467,0,0,1-4.871-.563,2.062,2.062,0,0,1,.092-.615,1.964,1.964,0,0,1,.262-.615.655.655,0,0,0-.013-.655.619.619,0,0,0-.563-.327h-3.4ZM20.949,13.747a5.34,5.34,0,0,1,.655.039,7.185,7.185,0,0,1,6.507,6.507,5.47,5.47,0,0,1,0,1.309A7.185,7.185,0,0,1,21.6,28.11a5.47,5.47,0,0,1-1.309,0A7.185,7.185,0,0,1,13.787,21.6a5.47,5.47,0,0,1,0-1.309,7.185,7.185,0,0,1,6.507-6.507,5.339,5.339,0,0,1,.655-.039Zm-.327,22.86a.655.655,0,0,0-.327.576v3.4H3.273a1.964,1.964,0,0,1-1.964-1.964V21.6H3.745a3.348,3.348,0,0,0-.118.9,3.771,3.771,0,0,0,1.493,3.011A3.712,3.712,0,0,0,7.4,26.29a3.8,3.8,0,0,0,1.074-.157,3.767,3.767,0,0,0,2.605-2.763,3.361,3.361,0,0,0-.013-1.728V21.6h1.4a8.55,8.55,0,0,0,7.83,7.83V31.8a.672.672,0,0,0,.34.589.7.7,0,0,0,.681-.039,2.75,2.75,0,0,1,.432-.223.445.445,0,0,0,.183-.026,2.236,2.236,0,0,1,1.139-.013,2.454,2.454,0,0,1,1.4,3.889,2.3,2.3,0,0,1-2.579.89,1.964,1.964,0,0,1-.615-.262A.655.655,0,0,0,20.621,36.608Zm19.967,2.016a1.964,1.964,0,0,1-1.964,1.964H21.6V38.153a3.348,3.348,0,0,0,.9.118,3.771,3.771,0,0,0,3.011-1.493,3.817,3.817,0,0,0,.615-3.352,3.767,3.767,0,0,0-2.763-2.605,3.4,3.4,0,0,0-1.741.013H21.6v-1.4a8.55,8.55,0,0,0,7.83-7.83h2.383a.631.631,0,0,0,.563-.34.674.674,0,0,0-.013-.668,2.386,2.386,0,0,1-.236-.484.464.464,0,0,0-.026-.131,2.387,2.387,0,0,1-.013-1.178,2.477,2.477,0,0,1,1.728-1.781,2.417,2.417,0,0,1,2.173.406,2.461,2.461,0,0,1,.969,1.964,2.488,2.488,0,0,1-.354,1.231.683.683,0,0,0,0,.655.655.655,0,0,0,.576.327h3.4Zm0-18.33H38.153a3.566,3.566,0,0,0,.118-.9,3.78,3.78,0,0,0-7.45-.9,3.564,3.564,0,0,0,.013,1.781v.026h-1.4a8.55,8.55,0,0,0-7.83-7.83v-2.37a.636.636,0,0,0-.34-.576.676.676,0,0,0-.668.013,2.378,2.378,0,0,1-.484.236.393.393,0,0,0-.131.026,2.387,2.387,0,0,1-1.178.013,2.467,2.467,0,0,1-1.375-3.9,2.413,2.413,0,0,1,3.195-.615.655.655,0,0,0,.982-.576v-3.4H38.624a1.964,1.964,0,0,1,1.964,1.964Z" transform="translate(0 0)" fill="#e643f1"/>
  <g id="Group_126" data-name="Group 126" transform="translate(12.498 12.91)">
    <path id="Path_180" data-name="Path 180" d="M10.7,3.55A7.152,7.152,0,0,0,4.658,14.526a.65.65,0,0,1,.068.554l-.8,2.394,2.394-.8a.65.65,0,0,1,.554.068,7.161,7.161,0,0,0,7,.365.65.65,0,1,1,.579,1.164A8.464,8.464,0,0,1,6.447,18L3.106,19.118a.65.65,0,0,1-.822-.822L3.4,14.955a8.451,8.451,0,1,1,14.876-.5.65.65,0,1,1-1.164-.579A7.154,7.154,0,0,0,10.7,3.55Z" transform="translate(-2.25 -2.25)" fill="#fff" fill-rule="evenodd"/>
    <path id="Path_181" data-name="Path 181" d="M6.449,11.166a6.676,6.676,0,0,1,4.717-4.717.87.87,0,1,1,.449,1.681A4.936,4.936,0,0,0,8.13,11.615a.87.87,0,1,1-1.681-.449Zm7.1-4.1a.87.87,0,0,1,1.065-.616,6.676,6.676,0,0,1,4.717,4.717.87.87,0,1,1-1.681.449A4.936,4.936,0,0,0,14.168,8.13.87.87,0,0,1,13.552,7.065ZM7.065,13.552a.87.87,0,0,1,1.065.616,4.936,4.936,0,0,0,3.485,3.485.87.87,0,0,1-.449,1.681,6.676,6.676,0,0,1-4.717-4.717A.87.87,0,0,1,7.065,13.552Zm6.487,5.166a.87.87,0,0,1,.616-1.065,4.936,4.936,0,0,0,3.485-3.485.87.87,0,1,1,1.681.449,6.676,6.676,0,0,1-4.717,4.717A.87.87,0,0,1,13.552,18.718Z" transform="translate(-4.441 -4.441)" fill="#fff" fill-rule="evenodd"/>
  </g>
</svg>
