<svg xmlns="http://www.w3.org/2000/svg" width="37.623" height="37.623" viewBox="0 0 37.623 37.623">
  <g id="Group_718" data-name="Group 718" transform="translate(-2 -2)">
    <path id="Path_845" data-name="Path 845" d="M20.812,2A18.833,18.833,0,0,0,2,20.812a18.58,18.58,0,0,0,.714,5.127.627.627,0,1,0,1.205-.346,17.332,17.332,0,0,1-.665-4.781,17.558,17.558,0,1,1,35.115,0,17.332,17.332,0,0,1-.665,4.781.627.627,0,1,0,1.205.346,18.58,18.58,0,0,0,.714-5.127A18.833,18.833,0,0,0,20.812,2Z" transform="translate(0 0)" fill="#fff"/>
    <path id="Path_846" data-name="Path 846" d="M26.888,26.419a8.152,8.152,0,1,0-7.322,0A18.116,18.116,0,0,0,9.19,32.671a3.168,3.168,0,0,0,.093,4.116,18.807,18.807,0,0,0,27.888,0,3.168,3.168,0,0,0,.093-4.116,18.116,18.116,0,0,0-10.376-6.252Z" transform="translate(-2.415 -3.35)" fill="#fff"/>
  </g>
</svg>
