<svg xmlns="http://www.w3.org/2000/svg" width="43.725" height="35.65" viewBox="0 0 43.725 35.65">
  <g id="Group_4235" data-name="Group 4235" transform="translate(8.365 -17.086)">
    <path id="Path_999" data-name="Path 999" d="M17.992,1022.3a.5.5,0,0,0-.492.508v5.449a.5.5,0,0,0,1,0v-5.45a.5.5,0,0,0-.508-.507Z" transform="translate(-4.503 -1001.194)" fill="#e643f1"/>
    <path id="Path_1000" data-name="Path 1000" d="M5.258,1036.793a3.342,3.342,0,1,0,3.34,3.34,3.352,3.352,0,0,0-3.34-3.34Zm0,1.359a1.986,1.986,0,1,1-1.983,1.98A1.97,1.97,0,0,1,5.258,1038.153Zm37.04-1.359a3.342,3.342,0,1,0,3.342,3.34A3.349,3.349,0,0,0,42.3,1036.793Zm0,1.359a1.987,1.987,0,1,1-1.98,1.98A1.971,1.971,0,0,1,42.3,1038.153Zm-18.52-19.872a3.34,3.34,0,1,0,3.34,3.34A3.349,3.349,0,0,0,23.778,1018.28Zm0,1.359a1.984,1.984,0,1,1-1.98,1.98A1.97,1.97,0,0,1,23.778,1019.639Z" transform="translate(-10.281 -1001.194)" fill="#e643f1"/>
    <path id="Path_1002" data-name="Path 1002" d="M8.695,1022.49a2.453,2.453,0,0,0-1.884,4.127,2.344,2.344,0,0,0,2.794.375l.09.3.588-.549a2.454,2.454,0,0,0-1.587-4.25Zm-.035.992a1.471,1.471,0,1,1-1.045.395,1.453,1.453,0,0,1,1.045-.395Z" transform="translate(-10.722 -1000.737)" fill="#e643f1"/>
    <path id="Path_1003" data-name="Path 1003" d="M40.863,1033.86l-9.249.09a.867.867,0,0,0-.673.247.367.367,0,0,0,.011.517.886.886,0,0,0,.683.234l9.249-.088c.408,0,.735-.23.73-.507s-.341-.5-.749-.494Zm-34.183,0c-.408,0-.74.224-.74.5s.331.5.74.5h9.035c.408,0,.74-.224.74-.5s-.331-.5-.74-.5H6.679Z" transform="translate(-10.281 -995.4)" fill="#e643f1"/>
    <path id="Path_1007" data-name="Path 1007" d="M10.218,1026.369a.886.886,0,0,0-.809.577.917.917,0,0,0,.217.982l5.561,5.483a.873.873,0,0,0,1.252-.02.917.917,0,0,0-.019-1.278l-5.561-5.484a.876.876,0,0,0-.641-.26Zm28.745-.445a.875.875,0,0,0-.611.267l-6.244,6.26a.915.915,0,0,0-.266.884.9.9,0,0,0,.635.66.874.874,0,0,0,.871-.255l6.246-6.26a.917.917,0,0,0,.206-1A.885.885,0,0,0,38.963,1025.924Z" transform="translate(-10.722 -1000.736)" fill="#e643f1"/>
    <path id="Path_1008" data-name="Path 1008" d="M29.442,1030.106a6.815,6.815,0,0,0-6.792,6.8v5.013a6.213,6.213,0,0,0,1.872,4.007c-.732.368-4.522,2.243-8.573,4.452a4.9,4.9,0,0,0-2.931,4.3v1.247a1.671,1.671,0,0,0,3.342,0v-1.247a1.985,1.985,0,0,1,1.083-1.31l.05-.034q4.452-2.412,8.984-4.67l2.8-.033c.06,0,.1.073.164.073s.107-.07.167-.073l2.868-.034c.164.08.311.171.575.3.511.254,1.207.588,2.069,1.02,1.7.852,4.068,2.072,6.875,3.636.548.341.685.648.685,1.651v.8a1.671,1.671,0,0,0,3.342,0v-.8a5.2,5.2,0,0,0-2.259-4.492l-.067-.04q-3.5-1.954-7.082-3.747c-.876-.437-1.584-.782-2.089-1.032a1.147,1.147,0,0,0-.124-.067,6.148,6.148,0,0,0,1.835-3.924v-5.014a6.819,6.819,0,0,0-6.8-6.8Zm0,3.342a3.414,3.414,0,0,1,3.453,3.456v5.013a3.388,3.388,0,0,1-1.2,2.4,3.851,3.851,0,0,1-2.1.983h-.307a3.852,3.852,0,0,1-2.106-.983,3.4,3.4,0,0,1-1.193-2.4v-5.013a3.406,3.406,0,0,1,3.449-3.453Z" transform="translate(-16.024 -1004.939)" fill="#e643f1"/>
    <path id="Path_1009" data-name="Path 1009" d="M27.541,1022.36A2.458,2.458,0,1,0,30,1024.817a2.464,2.464,0,0,0-2.459-2.457Zm0,1a1.464,1.464,0,1,1-1.457,1.46,1.45,1.45,0,0,1,1.457-1.46Z" transform="translate(2.562 -1000.737)" fill="#e643f1"/>
  </g>
</svg>
