<svg xmlns="http://www.w3.org/2000/svg" width="37.566" height="41.32" viewBox="0 0 37.566 41.32">
  <g id="Group_1141" data-name="Group 1141" transform="translate(0 0)">
    <path id="Path_171" data-name="Path 171" d="M30.165,35.33a5.165,5.165,0,1,1,5.165-5.165A5.165,5.165,0,0,1,30.165,35.33Zm0-8.854a3.689,3.689,0,1,0,3.689,3.689A3.689,3.689,0,0,0,30.165,26.476Z" transform="translate(-11.784 -9.505)" fill="#e643f1"/>
    <path id="Path_172" data-name="Path 172" d="M29.116,45.32C24.565,45.32,21,36.245,21,24.66S24.565,4,29.116,4s8.117,9.075,8.117,20.66S33.668,45.32,29.116,45.32Zm0-39.845c-3.207,0-6.641,7.708-6.641,19.184s3.434,19.184,6.641,19.184,6.641-7.708,6.641-19.184S32.323,5.476,29.116,5.476Z" transform="translate(-10.735 -4)" fill="#e643f1"/>
    <path id="Path_173" data-name="Path 173" d="M37.969,40.088c-4.258,0-10.332-1.922-16.558-5.516a42.8,42.8,0,0,1-11.319-9.083c-2.772-3.343-3.666-6.282-2.515-8.276,2.277-3.941,11.918-2.492,21.951,3.3A42.8,42.8,0,0,1,40.847,29.6c2.773,3.343,3.666,6.282,2.515,8.276C42.5,39.369,40.574,40.088,37.969,40.088ZM12.956,16.429c-2.079,0-3.527.525-4.1,1.521-.808,1.4.058,3.8,2.374,6.6a41.3,41.3,0,0,0,10.92,8.747c9.94,5.738,18.331,6.619,19.936,3.841.808-1.4-.058-3.8-2.374-6.6a41.3,41.3,0,0,0-10.92-8.747c-6.375-3.68-12.114-5.363-15.833-5.363Zm29.735,5.447a.739.739,0,0,1-.688-1,6.385,6.385,0,0,0,.209-.629.738.738,0,0,1,1.424.391,7.973,7.973,0,0,1-.258.772A.738.738,0,0,1,42.691,21.876Z" transform="translate(-7.088 -6.883)" fill="#e643f1"/>
    <path id="Path_174" data-name="Path 174" d="M12.992,40.106q-.359,0-.7-.018a.738.738,0,1,1,.08-1.474,12.481,12.481,0,0,0,1.424-.008.738.738,0,1,1,.086,1.473q-.458.027-.893.027Zm3.832-.441a.738.738,0,0,1-.15-1.46q.7-.145,1.43-.337a.738.738,0,0,1,.375,1.426q-.77.2-1.5.356A.748.748,0,0,1,16.824,39.665Zm-7.387-.31a.733.733,0,0,1-.368-.1A3.841,3.841,0,0,1,7.722,38,.738.738,0,1,1,8.966,37.2a2.39,2.39,0,0,0,.84.775.738.738,0,0,1-.369,1.376Zm11.734-.93a.738.738,0,0,1-.247-1.434q.685-.243,1.386-.521a.738.738,0,1,1,.545,1.372q-.727.288-1.437.539a.74.74,0,0,1-.246.043Zm4.177-1.733a.738.738,0,0,1-.315-1.406q.664-.314,1.334-.654a.738.738,0,0,1,.669,1.316q-.691.35-1.374.673a.736.736,0,0,1-.314.071ZM8.06,35.427a.739.739,0,0,1-.714-.927,8.816,8.816,0,0,1,.577-1.538.738.738,0,1,1,1.331.636,7.361,7.361,0,0,0-.481,1.279A.738.738,0,0,1,8.06,35.427Zm21.29-.84a.738.738,0,0,1-.372-1.375q.649-.378,1.275-.766A.738.738,0,1,1,31.03,33.7q-.643.4-1.31.787a.732.732,0,0,1-.37.1Zm3.809-2.437a.738.738,0,0,1-.425-1.341q.615-.433,1.2-.872a.738.738,0,1,1,.885,1.181q-.6.452-1.238.9a.733.733,0,0,1-.424.134Zm-22.969-.68A.738.738,0,0,1,9.6,30.283c.3-.4.634-.8.987-1.2a.738.738,0,1,1,1.111.972c-.331.378-.642.758-.925,1.127A.737.737,0,0,1,10.189,31.469Zm26.538-2.1a.738.738,0,0,1-.483-1.3q.571-.494,1.1-.989a.738.738,0,1,1,1.009,1.077q-.548.513-1.143,1.028a.736.736,0,0,1-.483.18ZM13.248,28.142a.738.738,0,0,1-.5-1.277q.548-.514,1.144-1.027a.738.738,0,0,1,.964,1.117q-.572.494-1.1.987A.734.734,0,0,1,13.248,28.142Zm3.475-2.894a.738.738,0,0,1-.443-1.328q.6-.453,1.24-.9a.738.738,0,0,1,.847,1.208q-.616.432-1.2.871A.734.734,0,0,1,16.723,25.248Zm3.739-2.543a.738.738,0,0,1-.389-1.366q.644-.4,1.311-.785a.738.738,0,1,1,.741,1.277q-.649.377-1.277.764a.734.734,0,0,1-.387.11Zm3.943-2.214a.738.738,0,0,1-.335-1.4q.691-.35,1.374-.672a.738.738,0,0,1,.629,1.336q-.664.312-1.336.652a.734.734,0,0,1-.332.08Zm4.12-1.86a.738.738,0,0,1-.272-1.425q.728-.287,1.437-.539a.738.738,0,1,1,.493,1.391q-.686.243-1.387.52a.739.739,0,0,1-.271.052Zm14.219-.385a.737.737,0,0,1-.629-.352,2.365,2.365,0,0,0-.825-.784.738.738,0,1,1,.753-1.269,3.821,3.821,0,0,1,1.328,1.281.738.738,0,0,1-.627,1.125ZM32.817,17.21a.738.738,0,0,1-.186-1.452q.77-.2,1.505-.353a.738.738,0,1,1,.3,1.445q-.7.144-1.431.336A.742.742,0,0,1,32.817,17.21Zm4.452-.753a.738.738,0,0,1-.041-1.474,13.585,13.585,0,0,1,1.592,0,.738.738,0,1,1-.088,1.473,12.569,12.569,0,0,0-1.421,0h-.043Zm2.7,9.721a.738.738,0,0,1-.556-1.223q.238-.274.46-.546a.738.738,0,1,1,1.142.934q-.236.289-.49.581A.736.736,0,0,1,39.967,26.178Z" transform="translate(-7.149 -6.873)" fill="#e643f1"/>
    <path id="Path_175" data-name="Path 175" d="M52.951,27.9A2.951,2.951,0,1,1,55.9,24.951,2.951,2.951,0,0,1,52.951,27.9Zm0-4.427a1.476,1.476,0,1,0,1.476,1.476,1.476,1.476,0,0,0-1.476-1.476Z" transform="translate(-18.337 -8.718)" fill="#e643f1"/>
  </g>
</svg>
