<svg xmlns="http://www.w3.org/2000/svg" width="22.446" height="24.689" viewBox="0 0 22.446 24.689">
  <g id="Group_124" data-name="Group 124" transform="translate(-7.088 -4)">
    <path id="Path_171" data-name="Path 171" d="M28.086,31.172a3.086,3.086,0,1,1,3.086-3.086A3.086,3.086,0,0,1,28.086,31.172Zm0-5.291a2.2,2.2,0,1,0,2.2,2.2A2.2,2.2,0,0,0,28.086,25.882Z" transform="translate(-10.015 -11.742)" fill="#fff"/>
    <path id="Path_172" data-name="Path 172" d="M25.85,28.689c-2.719,0-4.85-5.422-4.85-12.345S23.13,4,25.85,4,30.7,9.422,30.7,16.345,28.569,28.689,25.85,28.689Zm0-23.807c-1.916,0-3.968,4.606-3.968,11.463s2.052,11.463,3.968,11.463,3.968-4.606,3.968-11.463S27.766,4.882,25.85,4.882Z" transform="translate(-7.778)" fill="#fff"/>
    <path id="Path_173" data-name="Path 173" d="M25.54,29.99c-2.544,0-6.174-1.148-9.893-3.3a25.572,25.572,0,0,1-6.763-5.427c-1.656-2-2.19-3.754-1.5-4.945C8.741,13.967,14.5,14.833,20.5,18.294a25.573,25.573,0,0,1,6.763,5.427c1.657,2,2.191,3.754,1.5,4.945C28.247,29.56,27.1,29.99,25.54,29.99ZM10.594,15.853c-1.242,0-2.107.314-2.451.909-.483.836.034,2.273,1.418,3.941a24.677,24.677,0,0,0,6.525,5.226c5.939,3.428,10.953,3.955,11.912,2.3.483-.836-.034-2.273-1.418-3.941a24.677,24.677,0,0,0-6.525-5.226c-3.809-2.2-7.238-3.2-9.46-3.2Zm17.767,3.255a.441.441,0,0,1-.411-.6,3.815,3.815,0,0,0,.125-.376.441.441,0,0,1,.851.234,4.765,4.765,0,0,1-.154.461A.441.441,0,0,1,28.361,19.108Z" transform="translate(0 -6.149)" fill="#fff"/>
    <path id="Path_174" data-name="Path 174" d="M10.709,29.984q-.215,0-.417-.011a.441.441,0,1,1,.048-.88,7.458,7.458,0,0,0,.851,0,.441.441,0,1,1,.052.88q-.274.016-.533.016ZM13,29.721a.441.441,0,0,1-.089-.872q.416-.086.854-.2a.441.441,0,0,1,.224.852q-.46.122-.9.213A.447.447,0,0,1,13,29.721Zm-4.414-.185a.438.438,0,0,1-.22-.059,2.3,2.3,0,0,1-.8-.752A.441.441,0,1,1,8.3,28.25a1.428,1.428,0,0,0,.5.463.441.441,0,0,1-.22.822ZM15.6,28.98a.441.441,0,0,1-.148-.857q.409-.145.828-.311a.441.441,0,1,1,.326.82q-.434.172-.859.322a.442.442,0,0,1-.147.026Zm2.5-1.035a.441.441,0,0,1-.188-.84q.4-.187.8-.391a.441.441,0,1,1,.4.786q-.413.209-.821.4a.44.44,0,0,1-.188.042Zm-10.33-.757a.442.442,0,0,1-.427-.554,5.267,5.267,0,0,1,.345-.919.441.441,0,1,1,.8.38,4.4,4.4,0,0,0-.287.764A.441.441,0,0,1,7.762,27.188Zm12.721-.5a.441.441,0,0,1-.222-.822q.388-.226.762-.458a.441.441,0,1,1,.465.749q-.384.238-.783.47a.437.437,0,0,1-.221.06Zm2.276-1.456a.441.441,0,0,1-.254-.8q.368-.259.718-.521a.441.441,0,0,1,.529.705q-.361.27-.74.537a.438.438,0,0,1-.253.08ZM9.035,24.823a.441.441,0,0,1-.35-.708c.18-.236.379-.478.589-.719a.441.441,0,1,1,.664.581c-.2.226-.384.453-.553.674A.44.44,0,0,1,9.035,24.823Zm15.857-1.252A.441.441,0,0,1,24.6,22.8q.341-.3.656-.591a.441.441,0,1,1,.6.644q-.328.306-.683.614a.44.44,0,0,1-.288.108Zm-14.029-.735a.441.441,0,0,1-.3-.763q.328-.307.683-.614a.441.441,0,0,1,.576.667q-.342.3-.657.59A.439.439,0,0,1,10.863,22.836Zm2.076-1.729a.441.441,0,0,1-.265-.794q.361-.271.741-.537a.441.441,0,0,1,.506.722q-.368.258-.719.521a.439.439,0,0,1-.264.088Zm2.234-1.52a.441.441,0,0,1-.232-.816q.385-.237.783-.469a.441.441,0,0,1,.443.763q-.388.225-.763.457a.439.439,0,0,1-.231.066Zm2.356-1.323a.441.441,0,0,1-.2-.834q.413-.209.821-.4a.441.441,0,0,1,.376.8q-.4.186-.8.39a.439.439,0,0,1-.2.048Zm2.462-1.111a.441.441,0,0,1-.162-.851q.435-.172.858-.322a.441.441,0,1,1,.295.831q-.41.145-.829.311a.442.442,0,0,1-.162.031Zm8.5-.23a.44.44,0,0,1-.376-.21,1.413,1.413,0,0,0-.493-.469.441.441,0,1,1,.45-.758,2.283,2.283,0,0,1,.794.765.441.441,0,0,1-.375.672ZM22.555,16.3a.441.441,0,0,1-.111-.868q.46-.12.9-.211a.441.441,0,1,1,.178.864q-.417.086-.855.2A.443.443,0,0,1,22.555,16.3Zm2.66-.45a.441.441,0,0,1-.024-.881,8.118,8.118,0,0,1,.951,0,.441.441,0,1,1-.052.88,7.51,7.51,0,0,0-.849,0h-.026Zm1.612,5.808a.441.441,0,0,1-.332-.731q.142-.164.275-.326a.441.441,0,1,1,.683.558q-.141.173-.293.347A.44.44,0,0,1,26.827,21.662Z" transform="translate(-0.13 -6.127)" fill="#fff"/>
    <path id="Path_175" data-name="Path 175" d="M51.764,25.527a1.764,1.764,0,1,1,1.764-1.764A1.763,1.763,0,0,1,51.764,25.527Zm0-2.645a.882.882,0,1,0,.882.882.882.882,0,0,0-.882-.882Z" transform="translate(-23.993 -10.064)" fill="#fff"/>
  </g>
</svg>
