<svg id="Group_126" data-name="Group 126" xmlns="http://www.w3.org/2000/svg" width="17.493" height="17.493" viewBox="0 0 17.493 17.493">
  <path id="Path_180" data-name="Path 180" d="M11,3.6a7.4,7.4,0,0,0-6.254,11.36.673.673,0,0,1,.07.573l-.826,2.478,2.478-.826a.673.673,0,0,1,.573.07,7.412,7.412,0,0,0,7.248.378.673.673,0,1,1,.6,1.205,8.76,8.76,0,0,1-8.29-.278L3.136,19.708a.673.673,0,0,1-.851-.851L3.437,15.4a8.746,8.746,0,1,1,15.4-.515.673.673,0,1,1-1.2-.6A7.4,7.4,0,0,0,11,3.6Z" transform="translate(-2.25 -2.25)" fill="#fff" fill-rule="evenodd"/>
  <path id="Path_181" data-name="Path 181" d="M6.442,10.091a5.164,5.164,0,0,1,3.649-3.649.673.673,0,1,1,.347,1.3,3.818,3.818,0,0,0-2.7,2.7.673.673,0,1,1-1.3-.347Zm5.494-3.172a.673.673,0,0,1,.824-.477,5.163,5.163,0,0,1,3.649,3.649.673.673,0,1,1-1.3.347,3.818,3.818,0,0,0-2.7-2.7A.673.673,0,0,1,11.936,6.919ZM6.919,11.937a.673.673,0,0,1,.824.477,3.818,3.818,0,0,0,2.7,2.7.673.673,0,1,1-.347,1.3A5.164,5.164,0,0,1,6.442,12.76.673.673,0,0,1,6.919,11.937Zm5.018,4a.673.673,0,0,1,.477-.824,3.818,3.818,0,0,0,2.7-2.7.673.673,0,1,1,1.3.347,5.163,5.163,0,0,1-3.649,3.649A.673.673,0,0,1,11.936,15.932Z" transform="translate(-2.679 -2.679)" fill="#fff" fill-rule="evenodd"/>
</svg>
