<svg xmlns="http://www.w3.org/2000/svg" width="23.07" height="23.07" viewBox="0 0 23.07 23.07">
  <path id="Icon_awesome-coins" data-name="Icon awesome-coins" d="M0,18.263v1.924c0,1.591,3.875,2.884,8.651,2.884S17.3,21.777,17.3,20.187V18.263c-1.861,1.311-5.263,1.924-8.651,1.924S1.861,19.574,0,18.263ZM14.419,5.768c4.776,0,8.651-1.293,8.651-2.884S19.2,0,14.419,0,5.768,1.293,5.768,2.884,9.643,5.768,14.419,5.768ZM0,13.536v2.325c0,1.591,3.875,2.884,8.651,2.884S17.3,17.452,17.3,15.861V13.536c-1.861,1.532-5.267,2.325-8.651,2.325S1.861,15.068,0,13.536Zm18.745.5c2.582-.5,4.326-1.428,4.326-2.5V9.611a11.065,11.065,0,0,1-4.326,1.555ZM8.651,7.21C3.875,7.21,0,8.823,0,10.814s3.875,3.6,8.651,3.6,8.651-1.613,8.651-3.6S13.428,7.21,8.651,7.21Zm9.882,2.537C21.237,9.26,23.07,8.3,23.07,7.21V5.285c-1.6,1.131-4.348,1.739-7.241,1.883A5.046,5.046,0,0,1,18.533,9.746Z" fill="#fff"/>
</svg>
