<svg xmlns="http://www.w3.org/2000/svg" width="38.611" height="38.611" viewBox="0 0 38.611 38.611">
  <path id="Icon_awesome-coins" data-name="Icon awesome-coins" d="M0,30.565v3.22c0,2.662,6.486,4.826,14.479,4.826s14.479-2.164,14.479-4.826v-3.22c-3.115,2.195-8.808,3.22-14.479,3.22S3.115,32.759,0,30.565ZM24.132,9.653c7.994,0,14.479-2.164,14.479-4.826S32.126,0,24.132,0,9.653,2.164,9.653,4.826,16.138,9.653,24.132,9.653ZM0,22.654v3.891c0,2.662,6.486,4.826,14.479,4.826s14.479-2.164,14.479-4.826V22.654c-3.115,2.564-8.816,3.891-14.479,3.891S3.115,25.218,0,22.654Zm31.372.83c4.321-.837,7.24-2.391,7.24-4.178v-3.22a18.519,18.519,0,0,1-7.24,2.6ZM14.479,12.066C6.486,12.066,0,14.766,0,18.1s6.486,6.033,14.479,6.033,14.479-2.7,14.479-6.033S22.473,12.066,14.479,12.066Zm16.538,4.246c4.525-.814,7.594-2.413,7.594-4.246V8.846C35.934,10.739,31.334,11.757,26.493,12A8.445,8.445,0,0,1,31.017,16.312Z" fill="#e643f1"/>
</svg>
