<svg xmlns="http://www.w3.org/2000/svg" width="43.305" height="38.494" viewBox="0 0 43.305 38.494">
  <path id="Icon_awesome-boxes" data-name="Icon awesome-boxes" d="M42.1,21.653H36.088V28.87l-2.406-1.6-2.406,1.6V21.653H25.261a1.206,1.206,0,0,0-1.2,1.2V37.291a1.206,1.206,0,0,0,1.2,1.2H42.1a1.206,1.206,0,0,0,1.2-1.2V22.856A1.206,1.206,0,0,0,42.1,21.653Zm-28.87-4.812H30.073a1.206,1.206,0,0,0,1.2-1.2V1.2a1.206,1.206,0,0,0-1.2-1.2H24.058V7.218l-2.406-1.6-2.406,1.6V0H13.232a1.206,1.206,0,0,0-1.2,1.2V15.638A1.206,1.206,0,0,0,13.232,16.841Zm4.812,4.812H12.029V28.87l-2.406-1.6-2.406,1.6V21.653H1.2a1.206,1.206,0,0,0-1.2,1.2V37.291a1.206,1.206,0,0,0,1.2,1.2H18.044a1.206,1.206,0,0,0,1.2-1.2V22.856A1.206,1.206,0,0,0,18.044,21.653Z" fill="#e643f1"/>
</svg>
