<svg xmlns="http://www.w3.org/2000/svg" width="25.875" height="23" viewBox="0 0 25.875 23">
  <path id="Icon_awesome-boxes" data-name="Icon awesome-boxes" d="M25.156,12.938H21.563V17.25l-1.437-.957-1.437.957V12.938H15.094a.721.721,0,0,0-.719.719v8.625a.721.721,0,0,0,.719.719H25.156a.721.721,0,0,0,.719-.719V13.656A.721.721,0,0,0,25.156,12.938ZM7.906,10.063H17.969a.721.721,0,0,0,.719-.719V.719A.721.721,0,0,0,17.969,0H14.375V4.313l-1.437-.957L11.5,4.313V0H7.906a.721.721,0,0,0-.719.719V9.344A.721.721,0,0,0,7.906,10.063Zm2.875,2.875H7.188V17.25L5.75,16.293l-1.437.957V12.938H.719A.721.721,0,0,0,0,13.656v8.625A.721.721,0,0,0,.719,23H10.781a.721.721,0,0,0,.719-.719V13.656A.721.721,0,0,0,10.781,12.938Z" fill="#f8f2f2"/>
</svg>
