<svg xmlns="http://www.w3.org/2000/svg" width="16.605" height="19.372" viewBox="0 0 16.605 19.372">
  <path id="Icon_ionic-ios-git-network" data-name="Icon ionic-ios-git-network" d="M18.052,2.25a3.058,3.058,0,0,0-2.3,5.072,3.022,3.022,0,0,0,1.652.973v1.864l-4.605,2.4-4.6-2.4V8.3a3.055,3.055,0,1,0-2.945-.973A3.022,3.022,0,0,0,6.909,8.3v2.482a.3.3,0,0,0,.169.272l5.081,2.629v1.9a3.054,3.054,0,1,0,2.94.973,3.022,3.022,0,0,0-1.652-.973v-1.9l5.081-2.629a.3.3,0,0,0,.169-.272V8.3a3.057,3.057,0,0,0-.644-6.045ZM5.789,5.307A1.764,1.764,0,1,1,7.553,7.071,1.766,1.766,0,0,1,5.789,5.307Zm8.778,13.258A1.764,1.764,0,1,1,12.8,16.8,1.766,1.766,0,0,1,14.567,18.565ZM18.052,7.076a1.764,1.764,0,1,1,1.764-1.764A1.766,1.766,0,0,1,18.052,7.076Z" transform="translate(-4.5 -2.25)" fill="#fdfdfd"/>
</svg>
