<svg xmlns="http://www.w3.org/2000/svg" width="58.632" height="71" viewBox="0 0 58.632 71">
  <path id="Icon_awesome-linux" data-name="Icon awesome-linux" d="M29.75,17.1c.139.069.25.236.416.236s.388-.055.4-.208c.028-.194-.263-.319-.444-.4a.917.917,0,0,0-.763-.014c-.055.028-.111.1-.083.153.042.18.319.153.471.236Zm-3.037.236c.166,0,.277-.166.416-.236s.43-.055.485-.222c.028-.055-.028-.125-.083-.153a.917.917,0,0,0-.763.014c-.18.083-.471.208-.444.4.014.139.25.208.388.194ZM57.371,55.991a6.756,6.756,0,0,1-1-2.732,5.372,5.372,0,0,0-1.456-3.106,3.748,3.748,0,0,0-.555-.4,3.076,3.076,0,0,0-.569-.277,16.056,16.056,0,0,0-.513-10.968A36.994,36.994,0,0,0,46.833,28.19c-2.371-2.981-4.673-5.81-4.631-9.984C42.271,11.842,42.909.014,31.691,0c-14.2-.028-10.649,14.337-10.8,18.747a16.081,16.081,0,0,1-3.12,8.971c-2.621,3.12-6.309,8.153-8.056,13.408a15.939,15.939,0,0,0-.86,7.391c-.9.8-1.581,2.038-2.3,2.8a5.954,5.954,0,0,1-2.357,1.151A4.291,4.291,0,0,0,1.63,54.48,3.551,3.551,0,0,0,1.241,56.2a10.908,10.908,0,0,0,.166,1.636,7.181,7.181,0,0,1,.111,2.884c-.721,2-.818,3.383-.305,4.4A3.724,3.724,0,0,0,4,66.82c2.4.5,5.657.374,8.223,1.733A11.617,11.617,0,0,0,19.974,70a5.026,5.026,0,0,0,3.591-2.8c1.733-.014,3.647-.749,6.7-.915,2.066-.166,4.659.735,7.64.569a4.4,4.4,0,0,0,.347.929v.014a5.561,5.561,0,0,0,5.588,3.189,10.106,10.106,0,0,0,6.7-3.869c1.886-2.274,4.992-3.217,7.058-4.465a3.353,3.353,0,0,0,1.927-2.537C59.576,58.972,58.91,57.71,57.371,55.991ZM30.152,12.105c1.359-3.078,4.742-3.023,6.1-.055a5.519,5.519,0,0,1-.6,5.6,17.148,17.148,0,0,0-1.747-.679,2.48,2.48,0,0,0,.541-.638c.666-1.636-.028-3.744-1.262-3.785-1.012-.069-1.927,1.5-1.636,3.189a9.877,9.877,0,0,0-1.8-.61,5.524,5.524,0,0,1,.4-3.023ZM24.509,10.51c1.4,0,2.884,1.969,2.648,4.645a4.988,4.988,0,0,0-1.414.638c.166-1.234-.458-2.787-1.331-2.718-1.165.1-1.359,2.94-.25,3.9.139.111.263-.028-.818.763-2.163-2.024-1.456-7.224,1.165-7.224Zm-1.886,8.417c.86-.638,1.886-1.387,1.955-1.456A5.533,5.533,0,0,1,28.447,15.5a6.671,6.671,0,0,1,3.591,1.234,23.227,23.227,0,0,0,3.134,1.29c1.165.485,1.9,1.345,1.456,2.524a4.822,4.822,0,0,1-3.148,2.51c-1.539.5-2.745,2.219-5.3,2.066a3.862,3.862,0,0,1-1.331-.291c-1.109-.485-1.692-1.442-2.773-2.08a4.035,4.035,0,0,1-2.038-2.122,1.493,1.493,0,0,1,.582-1.706ZM23.08,65.24c-.374,4.867-6.087,4.77-10.441,2.5-4.146-2.191-9.512-.9-10.608-3.037-.333-.652-.333-1.761.361-3.661v-.028A7.448,7.448,0,0,0,2.309,57.7a4.668,4.668,0,0,1,.125-2.773,3.174,3.174,0,0,1,2.052-1.567A6.233,6.233,0,0,0,7.2,51.984c.763-.79,1.317-1.789,1.983-2.5a2.508,2.508,0,0,1,2.454-.957,4.848,4.848,0,0,1,3.037,2.219L17.4,55.686C18.713,58.445,23.372,62.4,23.08,65.24Zm-.194-3.591a29.763,29.763,0,0,0-2-2.718A2.257,2.257,0,0,0,23.205,57.7c.319-.86,0-2.066-1.026-3.453a20.381,20.381,0,0,0-5.311-4.506,7.5,7.5,0,0,1-3.411-4.146,9.389,9.389,0,0,1-.042-4.881A28.837,28.837,0,0,1,17.187,32.5c.319-.236.111.444-1.206,2.884C14.8,37.619,12.6,42.777,15.62,46.812a23.947,23.947,0,0,1,1.914-8.528c1.664-3.8,5.172-10.386,5.449-15.627.153.111.638.444.86.569a16.117,16.117,0,0,1,1.747,1.428,5.079,5.079,0,0,0,5.879.166,15.3,15.3,0,0,1,2.2-1.248,5.923,5.923,0,0,0,3.092-2.08,71.62,71.62,0,0,0,5.158,13.27A31.2,31.2,0,0,1,45.2,43.72a5.514,5.514,0,0,1,1.511.194c1.914-4.95-1.622-10.289-3.231-11.772-.652-.638-.679-.915-.361-.9A17.11,17.11,0,0,1,48,39.421a10.476,10.476,0,0,1,.055,4.95c2.274.943,4.978,2.482,4.257,4.825-.305-.014-.444,0-.582,0,.444-1.4-.541-2.44-3.161-3.619-2.718-1.192-4.992-1.192-5.311,1.733A4.851,4.851,0,0,0,40.288,51.1a30.608,30.608,0,0,0-.61,5.533,21.714,21.714,0,0,1-.943,4.021c-4.451,3.175-10.635,4.562-15.849,1Zm35.691-1.595c-.125,2.329-5.713,2.759-8.763,6.448a9.259,9.259,0,0,1-6.046,3.536A4.536,4.536,0,0,1,39.1,67.361c-.652-1.539-.333-3.2.153-5.033a34.365,34.365,0,0,0,1.373-5.63,31.206,31.206,0,0,1,.582-5.366,4.191,4.191,0,0,1,1.9-2.926c.042-.028.1-.042.139-.069.111,1.83,1.012,3.688,2.607,4.09,1.747.458,4.257-1.04,5.325-2.26,1.248-.042,2.177-.125,3.134.707,1.373,1.179.984,4.2,2.371,5.768C58.148,58.251,58.619,59.347,58.577,60.054ZM23.164,20.619c.277.263.652.624,1.109.984a6.133,6.133,0,0,0,3.785,1.47,9.829,9.829,0,0,0,4.409-1.5,12.329,12.329,0,0,0,2.052-1.442c.541-.471.818-.874.43-.915s-.361.361-.832.707c-.61.444-1.345,1.026-1.927,1.359A9.448,9.448,0,0,1,28.044,22.7a5.559,5.559,0,0,1-3.453-1.345c-.43-.347-.79-.693-1.068-.957-.208-.194-.263-.638-.6-.679-.194-.014-.25.513.236.9Z" transform="translate(-0.891)" fill="#fff"/>
</svg>
