<svg xmlns="http://www.w3.org/2000/svg" width="61.296" height="75.277" viewBox="0 0 61.296 75.277">
  <path id="Icon_metro-apple" data-name="Icon metro-apple" d="M56.63,41.926c-.1-9.533,7.775-14.105,8.126-14.333a17.58,17.58,0,0,0-13.765-7.46c-5.862-.594-11.438,3.451-14.413,3.451s-7.558-3.364-12.42-3.275A18.417,18.417,0,0,0,8.587,29.748c-6.639,11.519-1.7,28.585,4.77,37.927,3.162,4.573,6.932,9.709,11.882,9.526,4.767-.19,6.569-3.084,12.332-3.084S44.954,77.2,50,77.106c5.129-.1,8.379-4.661,11.519-9.248a41.493,41.493,0,0,0,5.214-10.705,16.626,16.626,0,0,1-10.1-15.227ZM47.152,13.949A16.59,16.59,0,0,0,51.068,1.928a16.876,16.876,0,0,0-11.087,5.7c-2.436,2.821-4.569,7.324-4,11.647C40.209,19.606,44.522,17.129,47.152,13.949Z" transform="translate(-5.435 -1.928)" fill="#fff"/>
</svg>
