<svg xmlns="http://www.w3.org/2000/svg" xmlns:xlink="http://www.w3.org/1999/xlink" width="484.46" height="94.114" viewBox="0 0 484.46 94.114">
  <defs>
    <linearGradient id="linear-gradient" x1="0.502" y1="1.002" x2="0.502" y2="-0.002" gradientUnits="objectBoundingBox">
      <stop offset="0" stop-color="#fcee21"/>
      <stop offset="1" stop-color="#f15a24"/>
    </linearGradient>
    <linearGradient id="linear-gradient-2" x1="0.501" y1="1.003" x2="0.501" y2="-0.002" gradientUnits="objectBoundingBox">
      <stop offset="0" stop-color="#f15a24"/>
      <stop offset="1" stop-color="#ed1e79"/>
    </linearGradient>
    <linearGradient id="linear-gradient-5" x1="0.5" y1="5.765" x2="0.5" y2="0.002" gradientUnits="objectBoundingBox">
      <stop offset="0" stop-color="#2fc5b3"/>
      <stop offset="1" stop-color="#fff"/>
    </linearGradient>
    <filter id="Path_158" x="27.792" y="19.417" width="23.883" height="61.356" filterUnits="userSpaceOnUse">
      <feOffset dx="1" dy="1" input="SourceAlpha"/>
      <feGaussianBlur stdDeviation="1" result="blur"/>
      <feFlood flood-color="#fff" flood-opacity="0.278"/>
      <feComposite operator="in" in2="blur"/>
      <feComposite in="SourceGraphic"/>
    </filter>
    <filter id="Path_169" x="45.793" y="19.388" width="19.969" height="61.357" filterUnits="userSpaceOnUse">
      <feOffset dx="1" dy="1" input="SourceAlpha"/>
      <feGaussianBlur stdDeviation="1" result="blur-2"/>
      <feFlood flood-color="#fff" flood-opacity="0.6"/>
      <feComposite operator="in" in2="blur-2"/>
      <feComposite in="SourceGraphic"/>
    </filter>
    <filter id="Path_195" x="59.881" y="19.275" width="23.733" height="61.356" filterUnits="userSpaceOnUse">
      <feOffset dx="1" dy="1" input="SourceAlpha"/>
      <feGaussianBlur stdDeviation="1" result="blur-3"/>
      <feFlood flood-color="#fff" flood-opacity="0.478"/>
      <feComposite operator="in" in2="blur-3"/>
      <feComposite in="SourceGraphic"/>
    </filter>
  </defs>
  <g id="Logo" transform="translate(-391.931 -233.078)">
    <g id="Pando_Wallet" data-name="Pando Wallet">
      <g id="Explorer" style="isolation: isolate">
        <g id="Group_29466" data-name="Group 29466" style="isolation: isolate">
          <path id="Path_78274" data-name="Path 78274" d="M700.117,299.374H680.383V265.108h19.734v5.953H687.648v7.523h11.6v5.954h-11.6v8.836h12.469Z" fill="#0ad2f5"/>
          <path id="Path_78275" data-name="Path 78275" d="M712.07,285.991l-8.437-12.821h8.109l5.086,8.344,5.133-8.344h8.109l-8.531,12.821,8.93,13.383h-8.133l-5.508-8.977-5.531,8.977h-8.11Z" fill="#0ad2f5"/>
          <path id="Path_78276" data-name="Path 78276" d="M748.844,299.842a8.691,8.691,0,0,1-7.242-3.351h-.375q.375,3.281.375,3.8V310.9h-7.149V273.17h5.813l1.007,3.4h.329a8.268,8.268,0,0,1,7.429-3.891,8.5,8.5,0,0,1,7.266,3.586q2.625,3.586,2.625,9.961a19.651,19.651,0,0,1-1.231,7.289,10.217,10.217,0,0,1-3.5,4.711A8.976,8.976,0,0,1,748.844,299.842Zm-2.11-21.445a4.515,4.515,0,0,0-3.867,1.629q-1.218,1.629-1.265,5.379v.773q0,4.219,1.253,6.047a4.476,4.476,0,0,0,3.973,1.828q4.8,0,4.8-7.922a11.31,11.31,0,0,0-1.184-5.8A4.04,4.04,0,0,0,746.734,278.4Z" fill="#0ad2f5"/>
          <path id="Path_78277" data-name="Path 78277" d="M771.977,299.374h-7.149V262.9h7.149Z" fill="#0ad2f5"/>
          <path id="Path_78278" data-name="Path 78278" d="M803.289,286.225q0,6.4-3.375,10.008t-9.4,3.609a13.145,13.145,0,0,1-6.657-1.652,11,11,0,0,1-4.429-4.746,15.941,15.941,0,0,1-1.547-7.219q0-6.422,3.351-9.984t9.422-3.563a13.215,13.215,0,0,1,6.656,1.641,10.95,10.95,0,0,1,4.43,4.711A15.8,15.8,0,0,1,803.289,286.225Zm-18.117,0a11,11,0,0,0,1.277,5.883,4.569,4.569,0,0,0,4.16,1.992,4.5,4.5,0,0,0,4.114-1.98,11.159,11.159,0,0,0,1.254-5.895,10.821,10.821,0,0,0-1.266-5.836,5.383,5.383,0,0,0-8.274-.012A10.825,10.825,0,0,0,785.172,286.225Z" fill="#0ad2f5"/>
          <path id="Path_78279" data-name="Path 78279" d="M823.82,272.678a11.563,11.563,0,0,1,2.414.211l-.539,6.7a8.2,8.2,0,0,0-2.109-.234,7.579,7.579,0,0,0-5.332,1.758,6.352,6.352,0,0,0-1.91,4.922v13.336H809.2v-26.2h5.414l1.055,4.407h.352a9.84,9.84,0,0,1,3.293-3.551A8.111,8.111,0,0,1,823.82,272.678Z" fill="#0ad2f5"/>
          <path id="Path_78280" data-name="Path 78280" d="M842.852,299.842q-6.328,0-9.891-3.492t-3.563-9.891q0-6.585,3.293-10.183t9.106-3.6q5.555,0,8.648,3.164t3.094,8.742v3.469h-16.9a6.881,6.881,0,0,0,1.8,4.758,6.349,6.349,0,0,0,4.735,1.711,19.655,19.655,0,0,0,4.476-.492,22.378,22.378,0,0,0,4.406-1.571v5.532a16.747,16.747,0,0,1-4.007,1.394A25.253,25.253,0,0,1,842.852,299.842Zm-1.008-22.078a4.536,4.536,0,0,0-3.563,1.442A6.672,6.672,0,0,0,836.8,283.3h10.031a5.955,5.955,0,0,0-1.383-4.089A4.683,4.683,0,0,0,841.844,277.764Z" fill="#0ad2f5"/>
          <path id="Path_78281" data-name="Path 78281" d="M873.977,272.678a11.576,11.576,0,0,1,2.414.211l-.539,6.7a8.212,8.212,0,0,0-2.11-.234,7.581,7.581,0,0,0-5.332,1.758,6.355,6.355,0,0,0-1.91,4.922v13.336h-7.148v-26.2h5.414l1.054,4.407h.352a9.839,9.839,0,0,1,3.293-3.551A8.117,8.117,0,0,1,873.977,272.678Z" fill="#0ad2f5"/>
        </g>
      </g>
      <g id="Pando" style="isolation: isolate">
        <g id="Group_29467" data-name="Group 29467" style="isolation: isolate">
          <path id="Path_78282" data-name="Path 78282" d="M543.055,275.8q0,5.532-3.457,8.461t-9.832,2.93h-3.118v12.188h-7.265V265.108h10.945q6.234,0,9.481,2.684T543.055,275.8Zm-16.407,5.438h2.391a7.963,7.963,0,0,0,5.016-1.324,4.636,4.636,0,0,0,1.664-3.856,4.75,4.75,0,0,0-1.4-3.773,6.531,6.531,0,0,0-4.371-1.219h-3.3Z" fill="#fff"/>
          <path id="Path_78283" data-name="Path 78283" d="M565.6,299.374l-1.383-3.563h-.188a10.547,10.547,0,0,1-3.715,3.152,12,12,0,0,1-4.98.879,8.049,8.049,0,0,1-5.941-2.156,8.277,8.277,0,0,1-2.168-6.141,6.912,6.912,0,0,1,2.918-6.152q2.918-1.98,8.8-2.191l4.547-.141v-1.148q0-3.985-4.078-3.985a18.579,18.579,0,0,0-7.383,1.9L549.664,275a21.292,21.292,0,0,1,10.031-2.368q5.274,0,8.086,2.3t2.813,6.985v17.461Zm-2.11-12.141-2.765.094a8.848,8.848,0,0,0-4.641,1.125,3.532,3.532,0,0,0-1.524,3.14q0,3.024,3.469,3.024a5.5,5.5,0,0,0,3.973-1.43,5.023,5.023,0,0,0,1.488-3.8Z" fill="#fff"/>
          <path id="Path_78284" data-name="Path 78284" d="M602.141,299.374h-7.149v-15.3a7.349,7.349,0,0,0-1.008-4.254,3.667,3.667,0,0,0-3.211-1.418,4.828,4.828,0,0,0-4.336,2q-1.335,2-1.335,6.644v12.329h-7.149v-26.2h5.461l.961,3.352h.4a7.552,7.552,0,0,1,3.293-2.871,11.21,11.21,0,0,1,4.77-.973q4.57,0,6.937,2.473t2.368,7.137Z" fill="#fff"/>
          <path id="Path_78285" data-name="Path 78285" d="M617.8,299.842a8.51,8.51,0,0,1-7.254-3.586q-2.637-3.585-2.637-9.937,0-6.445,2.684-10.043a8.715,8.715,0,0,1,7.394-3.6,8.547,8.547,0,0,1,7.547,3.844h.235a29.164,29.164,0,0,1-.539-5.227V262.9H632.4v36.469h-5.484l-1.383-3.4h-.3A8.181,8.181,0,0,1,617.8,299.842Zm2.508-5.7a4.841,4.841,0,0,0,4.019-1.594q1.278-1.593,1.4-5.414v-.773q0-4.219-1.3-6.047a4.831,4.831,0,0,0-4.231-1.828,4.2,4.2,0,0,0-3.714,2.027,10.815,10.815,0,0,0-1.325,5.895,10.253,10.253,0,0,0,1.336,5.8A4.366,4.366,0,0,0,620.3,294.147Z" fill="#fff"/>
          <path id="Path_78286" data-name="Path 78286" d="M663.687,286.225q0,6.4-3.375,10.008t-9.4,3.609a13.141,13.141,0,0,1-6.656-1.652,11,11,0,0,1-4.43-4.746,15.954,15.954,0,0,1-1.547-7.219q0-6.422,3.352-9.984t9.422-3.563a13.22,13.22,0,0,1,6.656,1.641,10.956,10.956,0,0,1,4.43,4.711A15.8,15.8,0,0,1,663.687,286.225Zm-18.117,0a10.993,10.993,0,0,0,1.278,5.883,4.567,4.567,0,0,0,4.16,1.992,4.5,4.5,0,0,0,4.113-1.98,11.159,11.159,0,0,0,1.254-5.895,10.821,10.821,0,0,0-1.266-5.836,5.382,5.382,0,0,0-8.273-.012A10.816,10.816,0,0,0,645.57,286.225Z" fill="#fff"/>
        </g>
      </g>
    </g>
    <g id="Group_29613" data-name="Group 29613" transform="translate(391.931 233.078)">
      <g id="Group_29212" data-name="Group 29212" transform="translate(0 0)">
        <path id="Polygon_9" data-name="Polygon 9" d="M78.451,0a6,6,0,0,1,5.186,2.983l23.81,40.927a6,6,0,0,1,0,6.034L83.638,90.871a6,6,0,0,1-5.186,2.983h-47.7a6,6,0,0,1-5.186-2.983L1.755,49.944a6,6,0,0,1,0-6.034L25.565,2.983A6,6,0,0,1,30.752,0Z" transform="translate(0 0.06)" fill="url(#linear-gradient)"/>
        <g id="Group_29210" data-name="Group 29210" transform="translate(0.848)" opacity="0.35">
          <g id="Group_29198" data-name="Group 29198" transform="translate(0 0)">
            <path id="Path_78189" data-name="Path 78189" d="M311.229,261.854,295.006,289.2c-4.668,10.312-6.549,7.943-13.67,8.127h-3.788a24.848,24.848,0,0,1,33.681-35.473Z" transform="translate(-209.202 -203.326)" opacity="0.6" fill="url(#linear-gradient-2)"/>
            <path id="Path_78190" data-name="Path 78190" d="M167.922,255.477H147.991c-12.27.332-11.084-2.049-13.991-7.1l-18.617-31.827c-5.434-9.476-4.928-7.339-1.465-13.523L122,189.174c5.388,4.941,15.815,8.9,18.942,24.415C146.082,239.1,155.312,246.3,167.922,255.477Z" transform="translate(-111.304 -161.476)" opacity="0.72" fill="url(#linear-gradient-2)"/>
            <path id="Path_78191" data-name="Path 78191" d="M264.2,150.3c-.632-.4-14.088-18.7-42.218-15.052-13.435,1.745-20.632-11.122-24.1-18.468a15.931,15.931,0,0,1,2.04-.13l37.006.138c6.273,0,7.718-1.608,11.684,7.342Z" transform="translate(-163.232 -116.648)" opacity="0.65" fill="url(#linear-gradient-2)"/>
          </g>
        </g>
        <g id="Group_29211" data-name="Group 29211" transform="translate(29.642 21.275)">
          <g id="Group_18234" data-name="Group 18234" transform="translate(0 0)">
            <g id="Logo-2" data-name="Logo" transform="translate(0 0)">
              <g id="Group_116" data-name="Group 116">
                <path id="Path_145" data-name="Path 145" d="M239.232,183.752a44.629,44.629,0,0,0-6.314-9.452.947.947,0,0,0-.118.113,43.845,43.845,0,0,1,6.353,9.536A.568.568,0,0,1,239.232,183.752Z" transform="translate(-221.199 -174.3)" opacity="0.5" fill="url(#linear-gradient-5)"/>
                <path id="Path_146" data-name="Path 146" d="M239.232,183.752a44.629,44.629,0,0,0-6.314-9.452.947.947,0,0,0-.118.113,43.845,43.845,0,0,1,6.353,9.536A.568.568,0,0,1,239.232,183.752Z" transform="translate(-221.199 -174.3)" opacity="0.5" fill="url(#linear-gradient-5)"/>
                <path id="Path_147" data-name="Path 147" d="M232.8,341.424c.039.057.079.085.118.141a53.1,53.1,0,0,0,6.472-11.511l-.118-.254A53.4,53.4,0,0,1,232.8,341.424Z" transform="translate(-221.199 -285.927)" opacity="0.5" fill="url(#linear-gradient-5)"/>
                <path id="Path_148" data-name="Path 148" d="M232.8,341.424c.039.057.079.085.118.141a53.1,53.1,0,0,0,6.472-11.511l-.118-.254A53.4,53.4,0,0,1,232.8,341.424Z" transform="translate(-221.199 -285.927)" opacity="0.5" fill="url(#linear-gradient-5)"/>
                <path id="Path_149" data-name="Path 149" d="M267.9,339.773c.039.056.079.085.118.141a52.316,52.316,0,0,0,6.748-12.16l-.118-.254A56.379,56.379,0,0,1,267.9,339.773Z" transform="translate(-242.448 -284.276)" opacity="0.5" fill="url(#linear-gradient-5)"/>
                <path id="Path_150" data-name="Path 150" d="M267.9,339.773c.039.056.079.085.118.141a52.316,52.316,0,0,0,6.748-12.16l-.118-.254A56.379,56.379,0,0,1,267.9,339.773Z" transform="translate(-242.448 -284.276)" opacity="0.5" fill="url(#linear-gradient-5)"/>
                <path id="Path_151" data-name="Path 151" d="M274.608,184.316a45.537,45.537,0,0,0-6.59-10.016.946.946,0,0,0-.118.113,44.324,44.324,0,0,1,6.629,10.129A.677.677,0,0,1,274.608,184.316Z" transform="translate(-242.448 -174.3)" opacity="0.5" fill="url(#linear-gradient-5)"/>
                <path id="Path_152" data-name="Path 152" d="M274.608,184.316a45.537,45.537,0,0,0-6.59-10.016.946.946,0,0,0-.118.113,44.324,44.324,0,0,1,6.629,10.129A.677.677,0,0,1,274.608,184.316Z" transform="translate(-242.448 -174.3)" opacity="0.5" fill="url(#linear-gradient-5)"/>
                <path id="Path_153" data-name="Path 153" d="M304.418,174.4a.943.943,0,0,0-.118.113c21.979,25.478,1.7,53.184,0,55.356.039.057.079.085.118.141C304.418,230.01,327.463,200.95,304.418,174.4Z" transform="translate(-264.485 -174.372)" opacity="0.5" fill="url(#linear-gradient-5)"/>
                <path id="Path_154" data-name="Path 154" d="M304.418,174.4a.943.943,0,0,0-.118.113c21.979,25.478,1.7,53.184,0,55.356.039.057.079.085.118.141C304.418,230.01,327.463,200.95,304.418,174.4Z" transform="translate(-264.485 -174.372)" opacity="0.5" fill="url(#linear-gradient-5)"/>
                <path id="Path_155" data-name="Path 155" d="M215,174.513c-.039-.028-.039-.085-.079-.113,0,0-25.925,21.612,0,55.61a1.462,1.462,0,0,1,.118-.141C190.3,197.31,213.107,176.149,215,174.513Z" transform="translate(-203.4 -174.372)" opacity="0.5" fill="url(#linear-gradient-5)"/>
                <path id="Path_156" data-name="Path 156" d="M221.545,184.336a43.839,43.839,0,0,0-6.353-9.536c-1.894,1.665-24.7,22.825,0,55.356a53.4,53.4,0,0,0,6.472-11.624C214.679,203.635,217.559,191.9,221.545,184.336Z" transform="translate(-203.63 -174.659)" opacity="0.5" fill="url(#linear-gradient-5)"/>
                <path id="Path_157" data-name="Path 157" d="M221.545,184.336a43.839,43.839,0,0,0-6.353-9.536c-1.894,1.665-24.7,22.825,0,55.356a53.4,53.4,0,0,0,6.472-11.624C214.679,203.635,217.559,191.9,221.545,184.336Z" transform="translate(-203.63 -174.659)" opacity="0.5" fill="url(#linear-gradient-5)"/>
                <g transform="matrix(1, 0, 0, 1, -29.64, -21.28)" filter="url(#Path_158)">
                  <path id="Path_158-2" data-name="Path 158" d="M221.545,184.336a43.839,43.839,0,0,0-6.353-9.536c-1.894,1.665-24.7,22.825,0,55.356a53.4,53.4,0,0,0,6.472-11.624C214.679,203.635,217.559,191.9,221.545,184.336Z" transform="translate(-173.99 -153.38)" opacity="0.5" fill="url(#linear-gradient-5)"/>
                </g>
                <path id="Path_159" data-name="Path 159" d="M256.54,174.513c-.039-.028-.039-.085-.079-.113a34.351,34.351,0,0,0-7.261,9.452c.039.085.079.141.118.226A33.506,33.506,0,0,1,256.54,174.513Z" transform="translate(-231.127 -174.372)" opacity="0.5" fill="url(#linear-gradient-5)"/>
                <path id="Path_160" data-name="Path 160" d="M249.5,329.954a63.606,63.606,0,0,0,7.142,11.511,1.443,1.443,0,0,1,.118-.141,65.216,65.216,0,0,1-7.142-11.624A2.116,2.116,0,0,0,249.5,329.954Z" transform="translate(-231.309 -285.855)" opacity="0.5" fill="url(#linear-gradient-5)"/>
                <path id="Path_161" data-name="Path 161" d="M248.918,208.223a1.2,1.2,0,0,1,.118-.2c-.039-.085-.079-.141-.118-.226a1.638,1.638,0,0,0-.118.226C248.839,208.082,248.879,208.167,248.918,208.223Z" transform="translate(-230.885 -198.348)" opacity="0.5" fill="url(#linear-gradient-5)"/>
                <path id="Path_162" data-name="Path 162" d="M248.918,208.223a1.2,1.2,0,0,1,.118-.2c-.039-.085-.079-.141-.118-.226a1.638,1.638,0,0,0-.118.226C248.839,208.082,248.879,208.167,248.918,208.223Z" transform="translate(-230.885 -198.348)" opacity="0.5" fill="url(#linear-gradient-5)"/>
                <path id="Path_163" data-name="Path 163" d="M248.918,208.223a1.2,1.2,0,0,1,.118-.2c-.039-.085-.079-.141-.118-.226a1.638,1.638,0,0,0-.118.226C248.839,208.082,248.879,208.167,248.918,208.223Z" transform="translate(-230.885 -198.348)" opacity="0.5" fill="url(#linear-gradient-5)"/>
                <path id="Path_164" data-name="Path 164" d="M249.218,328.9l-.118.254.118.254.118-.254Z" transform="translate(-231.067 -285.281)" opacity="0.5" fill="url(#linear-gradient-5)"/>
                <path id="Path_165" data-name="Path 165" d="M249.218,328.9l-.118.254.118.254.118-.254Z" transform="translate(-231.067 -285.281)" opacity="0.5" fill="url(#linear-gradient-5)"/>
                <path id="Path_166" data-name="Path 166" d="M249.218,328.9l-.118.254.118.254.118-.254Z" transform="translate(-231.067 -285.281)" opacity="0.5" fill="url(#linear-gradient-5)"/>
                <path id="Path_167" data-name="Path 167" d="M263.29,184.829a43.637,43.637,0,0,0-6.629-10.129,35.242,35.242,0,0,0-7.261,9.536c6.235,12.894,3.709,25.478.118,34.2a65.22,65.22,0,0,0,7.142,11.624,54.473,54.473,0,0,0,6.708-12.273C256.976,203.592,259.5,192.306,263.29,184.829Z" transform="translate(-231.248 -174.587)" opacity="0.5" fill="url(#linear-gradient-5)"/>
                <path id="Path_168" data-name="Path 168" d="M263.29,184.829a43.637,43.637,0,0,0-6.629-10.129,35.242,35.242,0,0,0-7.261,9.536c6.235,12.894,3.709,25.478.118,34.2a65.22,65.22,0,0,0,7.142,11.624,54.473,54.473,0,0,0,6.708-12.273C256.976,203.592,259.5,192.306,263.29,184.829Z" transform="translate(-231.248 -174.587)" opacity="0.5" fill="url(#linear-gradient-5)"/>
                <g transform="matrix(1, 0, 0, 1, -29.64, -21.28)" filter="url(#Path_169)">
                  <path id="Path_169-2" data-name="Path 169" d="M263.29,184.829a43.637,43.637,0,0,0-6.629-10.129,35.242,35.242,0,0,0-7.261,9.536c6.235,12.894,3.709,25.478.118,34.2a65.22,65.22,0,0,0,7.142,11.624,54.473,54.473,0,0,0,6.708-12.273C256.976,203.592,259.5,192.306,263.29,184.829Z" transform="translate(-201.61 -153.31)" opacity="0.5" fill="url(#linear-gradient-5)"/>
                </g>
                <path id="Path_170" data-name="Path 170" d="M249.218,242.542l.118.254c3.591-8.718,6.116-21.3-.118-34.2-.039.056-.079.141-.118.2C255.177,221.494,252.73,233.88,249.218,242.542Z" transform="translate(-231.067 -198.923)" opacity="0.5" fill="url(#linear-gradient-5)"/>
                <path id="Path_171" data-name="Path 171" d="M249.218,242.542l.118.254c3.591-8.718,6.116-21.3-.118-34.2-.039.056-.079.141-.118.2C255.177,221.494,252.73,233.88,249.218,242.542Z" transform="translate(-231.067 -198.923)" opacity="0.5" fill="url(#linear-gradient-5)"/>
                <path id="Path_172" data-name="Path 172" d="M249.218,242.542l.118.254c3.591-8.718,6.116-21.3-.118-34.2-.039.056-.079.141-.118.2C255.177,221.494,252.73,233.88,249.218,242.542Z" transform="translate(-231.067 -198.923)" opacity="0.5" fill="url(#linear-gradient-5)"/>
                <path id="Path_173" data-name="Path 173" d="M249.218,242.542l.118.254c3.591-8.718,6.116-21.3-.118-34.2-.039.056-.079.141-.118.2C255.177,221.494,252.73,233.88,249.218,242.542Z" transform="translate(-231.067 -198.923)" opacity="0.5" fill="url(#linear-gradient-5)"/>
                <path id="Path_174" data-name="Path 174" d="M249.218,242.542l.118.254c3.591-8.718,6.116-21.3-.118-34.2-.039.056-.079.141-.118.2C255.177,221.494,252.73,233.88,249.218,242.542Z" transform="translate(-231.067 -198.923)" opacity="0.5" fill="url(#linear-gradient-5)"/>
                <path id="Path_175" data-name="Path 175" d="M242.581,208.8a1.214,1.214,0,0,0-.119-.2c-4.025,7.561-6.866,19.327.119,34.2l.118-.254C235.913,227.927,238.635,216.331,242.581,208.8Z" transform="translate(-224.548 -198.923)" opacity="0.5" fill="url(#linear-gradient-5)"/>
                <path id="Path_176" data-name="Path 176" d="M242.581,208.8a1.214,1.214,0,0,0-.119-.2c-4.025,7.561-6.866,19.327.119,34.2l.118-.254C235.913,227.927,238.635,216.331,242.581,208.8Z" transform="translate(-224.548 -198.923)" opacity="0.5" fill="url(#linear-gradient-5)"/>
                <path id="Path_177" data-name="Path 177" d="M242.581,208.8a1.214,1.214,0,0,0-.119-.2c-4.025,7.561-6.866,19.327.119,34.2l.118-.254C235.913,227.927,238.635,216.331,242.581,208.8Z" transform="translate(-224.548 -198.923)" opacity="0.5" fill="url(#linear-gradient-5)"/>
                <path id="Path_178" data-name="Path 178" d="M242.581,208.8a1.214,1.214,0,0,0-.119-.2c-4.025,7.561-6.866,19.327.119,34.2l.118-.254C235.913,227.927,238.635,216.331,242.581,208.8Z" transform="translate(-224.548 -198.923)" opacity="0.5" fill="url(#linear-gradient-5)"/>
                <path id="Path_179" data-name="Path 179" d="M242.927,209.3c-3.946,7.533-6.669,19.129.118,33.744C246.558,234.382,249,222,242.927,209.3Z" transform="translate(-224.894 -199.425)" opacity="0.5" fill="url(#linear-gradient-5)"/>
                <path id="Path_180" data-name="Path 180" d="M242.927,209.3c-3.946,7.533-6.669,19.129.118,33.744C246.558,234.382,249,222,242.927,209.3Z" transform="translate(-224.894 -199.425)" opacity="0.5" fill="url(#linear-gradient-5)"/>
                <path id="Path_181" data-name="Path 181" d="M242.927,209.3c-3.946,7.533-6.669,19.129.118,33.744C246.558,234.382,249,222,242.927,209.3Z" transform="translate(-224.894 -199.425)" opacity="0.5" fill="url(#linear-gradient-5)"/>
                <path id="Path_182" data-name="Path 182" d="M242.927,209.3c-3.946,7.533-6.669,19.129.118,33.744C246.558,234.382,249,222,242.927,209.3Z" transform="translate(-224.894 -199.425)" opacity="0.5" fill="url(#linear-gradient-5)"/>
                <path id="Path_183" data-name="Path 183" d="M242.927,209.3c-3.946,7.533-6.669,19.129.118,33.744C246.558,234.382,249,222,242.927,209.3Z" transform="translate(-224.894 -199.425)" opacity="0.5" fill="url(#linear-gradient-5)"/>
                <path id="Path_184" data-name="Path 184" d="M242.927,209.3c-3.946,7.533-6.669,19.129.118,33.744C246.558,234.382,249,222,242.927,209.3Z" transform="translate(-224.894 -199.425)" opacity="0.5" fill="url(#linear-gradient-5)"/>
                <path id="Path_185" data-name="Path 185" d="M285.2,327.654a66.243,66.243,0,0,0,7.458,12.16,1.462,1.462,0,0,1,.119-.141,64.724,64.724,0,0,1-7.458-12.273Z" transform="translate(-252.922 -284.204)" opacity="0.5" fill="url(#linear-gradient-5)"/>
                <path id="Path_186" data-name="Path 186" d="M292.555,174.513a.2.2,0,0,1-.079-.113,34.9,34.9,0,0,0-7.576,10.016c.039.085.079.141.118.226A34.862,34.862,0,0,1,292.555,174.513Z" transform="translate(-252.74 -174.372)" opacity="0.5" fill="url(#linear-gradient-5)"/>
                <path id="Path_187" data-name="Path 187" d="M284.618,210.251c.039-.085.079-.141.118-.226-.04-.085-.079-.141-.118-.226-.039.085-.079.141-.118.226A.38.38,0,0,1,284.618,210.251Z" transform="translate(-252.498 -199.784)" opacity="0.5" fill="url(#linear-gradient-5)"/>
                <path id="Path_188" data-name="Path 188" d="M284.618,210.251c.039-.085.079-.141.118-.226-.04-.085-.079-.141-.118-.226-.039.085-.079.141-.118.226A.38.38,0,0,1,284.618,210.251Z" transform="translate(-252.498 -199.784)" opacity="0.5" fill="url(#linear-gradient-5)"/>
                <path id="Path_189" data-name="Path 189" d="M284.618,210.251c.039-.085.079-.141.118-.226-.04-.085-.079-.141-.118-.226-.039.085-.079.141-.118.226A.38.38,0,0,1,284.618,210.251Z" transform="translate(-252.498 -199.784)" opacity="0.5" fill="url(#linear-gradient-5)"/>
                <path id="Path_190" data-name="Path 190" d="M285.018,326.5l-.118.254.118.254.118-.254A.376.376,0,0,1,285.018,326.5Z" transform="translate(-252.74 -283.558)" opacity="0.5" fill="url(#linear-gradient-5)"/>
                <path id="Path_191" data-name="Path 191" d="M285.018,326.5l-.118.254.118.254.118-.254A.376.376,0,0,1,285.018,326.5Z" transform="translate(-252.74 -283.558)" opacity="0.5" fill="url(#linear-gradient-5)"/>
                <path id="Path_192" data-name="Path 192" d="M285.018,326.5l-.118.254.118.254.118-.254A.376.376,0,0,1,285.018,326.5Z" transform="translate(-252.74 -283.558)" opacity="0.5" fill="url(#linear-gradient-5)"/>
                <path id="Path_193" data-name="Path 193" d="M292.676,174.8a36.382,36.382,0,0,0-7.576,10.129c5.761,12.358,3.512,24.377.118,32.954a63.848,63.848,0,0,0,7.458,12.273C294.373,227.956,314.656,200.249,292.676,174.8Z" transform="translate(-252.861 -174.659)" opacity="0.5" fill="url(#linear-gradient-5)"/>
                <path id="Path_194" data-name="Path 194" d="M292.676,174.8a36.382,36.382,0,0,0-7.576,10.129c5.761,12.358,3.512,24.377.118,32.954a63.848,63.848,0,0,0,7.458,12.273C294.373,227.956,314.656,200.249,292.676,174.8Z" transform="translate(-252.861 -174.659)" opacity="0.5" fill="url(#linear-gradient-5)"/>
                <g transform="matrix(1, 0, 0, 1, -29.64, -21.28)" filter="url(#Path_195)">
                  <path id="Path_195-2" data-name="Path 195" d="M292.676,174.8a36.382,36.382,0,0,0-7.576,10.129c5.761,12.358,3.512,24.377.118,32.954a63.848,63.848,0,0,0,7.458,12.273C294.373,227.956,314.656,200.249,292.676,174.8Z" transform="translate(-223.22 -153.52)" opacity="0.5" fill="url(#linear-gradient-5)"/>
                </g>
                <path id="Path_196" data-name="Path 196" d="M285.018,243.3l.118.254c3.354-8.577,5.6-20.6-.118-32.954-.039.085-.079.141-.118.226C290.424,222.986,288.293,234.808,285.018,243.3Z" transform="translate(-252.74 -200.358)" opacity="0.5" fill="url(#linear-gradient-5)"/>
                <path id="Path_197" data-name="Path 197" d="M285.018,243.3l.118.254c3.354-8.577,5.6-20.6-.118-32.954-.039.085-.079.141-.118.226C290.424,222.986,288.293,234.808,285.018,243.3Z" transform="translate(-252.74 -200.358)" opacity="0.5" fill="url(#linear-gradient-5)"/>
                <path id="Path_198" data-name="Path 198" d="M285.018,243.3l.118.254c3.354-8.577,5.6-20.6-.118-32.954-.039.085-.079.141-.118.226C290.424,222.986,288.293,234.808,285.018,243.3Z" transform="translate(-252.74 -200.358)" opacity="0.5" fill="url(#linear-gradient-5)"/>
                <path id="Path_199" data-name="Path 199" d="M285.018,243.3l.118.254c3.354-8.577,5.6-20.6-.118-32.954-.039.085-.079.141-.118.226C290.424,222.986,288.293,234.808,285.018,243.3Z" transform="translate(-252.74 -200.358)" opacity="0.5" fill="url(#linear-gradient-5)"/>
                <path id="Path_200" data-name="Path 200" d="M285.018,243.3l.118.254c3.354-8.577,5.6-20.6-.118-32.954-.039.085-.079.141-.118.226C290.424,222.986,288.293,234.808,285.018,243.3Z" transform="translate(-252.74 -200.358)" opacity="0.5" fill="url(#linear-gradient-5)"/>
                <path id="Path_201" data-name="Path 201" d="M278.75,210.826c-.04-.085-.079-.141-.118-.226-3.788,7.477-6.314,18.762.118,32.954l.118-.254C272.673,229.362,275.041,218.246,278.75,210.826Z" transform="translate(-246.629 -200.358)" opacity="0.5" fill="url(#linear-gradient-5)"/>
                <path id="Path_202" data-name="Path 202" d="M278.75,210.826c-.04-.085-.079-.141-.118-.226-3.788,7.477-6.314,18.762.118,32.954l.118-.254C272.673,229.362,275.041,218.246,278.75,210.826Z" transform="translate(-246.629 -200.358)" opacity="0.5" fill="url(#linear-gradient-5)"/>
                <path id="Path_203" data-name="Path 203" d="M278.75,210.826c-.04-.085-.079-.141-.118-.226-3.788,7.477-6.314,18.762.118,32.954l.118-.254C272.673,229.362,275.041,218.246,278.75,210.826Z" transform="translate(-246.629 -200.358)" opacity="0.5" fill="url(#linear-gradient-5)"/>
                <path id="Path_204" data-name="Path 204" d="M278.75,210.826c-.04-.085-.079-.141-.118-.226-3.788,7.477-6.314,18.762.118,32.954l.118-.254C272.673,229.362,275.041,218.246,278.75,210.826Z" transform="translate(-246.629 -200.358)" opacity="0.5" fill="url(#linear-gradient-5)"/>
                <path id="Path_205" data-name="Path 205" d="M279.1,211.4c-3.709,7.42-6.116,18.537.118,32.475C282.529,235.382,284.66,223.56,279.1,211.4Z" transform="translate(-246.976 -200.933)" opacity="0.5" fill="url(#linear-gradient-5)"/>
                <path id="Path_206" data-name="Path 206" d="M279.1,211.4c-3.709,7.42-6.116,18.537.118,32.475C282.529,235.382,284.66,223.56,279.1,211.4Z" transform="translate(-246.976 -200.933)" opacity="0.5" fill="url(#linear-gradient-5)"/>
                <path id="Path_207" data-name="Path 207" d="M279.1,211.4c-3.709,7.42-6.116,18.537.118,32.475C282.529,235.382,284.66,223.56,279.1,211.4Z" transform="translate(-246.976 -200.933)" opacity="0.5" fill="url(#linear-gradient-5)"/>
                <path id="Path_208" data-name="Path 208" d="M279.1,211.4c-3.709,7.42-6.116,18.537.118,32.475C282.529,235.382,284.66,223.56,279.1,211.4Z" transform="translate(-246.976 -200.933)" opacity="0.5" fill="url(#linear-gradient-5)"/>
                <path id="Path_209" data-name="Path 209" d="M279.1,211.4c-3.709,7.42-6.116,18.537.118,32.475C282.529,235.382,284.66,223.56,279.1,211.4Z" transform="translate(-246.976 -200.933)" opacity="0.5" fill="url(#linear-gradient-5)"/>
                <path id="Path_210" data-name="Path 210" d="M279.1,211.4c-3.709,7.42-6.116,18.537.118,32.475C282.529,235.382,284.66,223.56,279.1,211.4Z" transform="translate(-246.976 -200.933)" opacity="0.5" fill="url(#linear-gradient-5)"/>
              </g>
            </g>
          </g>
        </g>
      </g>
      <g id="Group_18221" data-name="Group 18221" transform="translate(41.225 30.619)">
        <path id="Path_70634" data-name="Path 70634" d="M14.282-100.042a16.7,16.7,0,0,1,2.522.47q1.187.321,2.225.717v1.434H5.481v-1.434A9.381,9.381,0,0,1,7.508-99.6q1.038-.247,2.027-.445v-29.322a15.429,15.429,0,0,1-2.126-.519q-.989-.321-1.928-.717v-1.434h4.45q1.978,0,4.3-.2t4.45-.2a21.707,21.707,0,0,1,4.747.519,11.766,11.766,0,0,1,4.129,1.755,9.25,9.25,0,0,1,2.917,3.288,10.64,10.64,0,0,1,1.113,5.118,10.257,10.257,0,0,1-1.137,4.994,9.934,9.934,0,0,1-3.041,3.412,13.1,13.1,0,0,1-4.327,1.953,20.127,20.127,0,0,1-4.994.618h-.766q-.519,0-1.113-.025t-1.137-.074q-.544-.049-.791-.1Zm3.362-29.816q-1.187,0-1.928.049a10.013,10.013,0,0,0-1.434.2v16.021a2.352,2.352,0,0,0,.717.124q.47.025.989.074t1.014.049h.791a11.079,11.079,0,0,0,3.263-.47,7.123,7.123,0,0,0,2.695-1.508,7.469,7.469,0,0,0,1.854-2.621,9.466,9.466,0,0,0,.692-3.807q0-4.055-2.3-6.082A9.278,9.278,0,0,0,17.645-129.858Z" transform="translate(-5.481 132.429)" fill="url(#linear-gradient)"/>
      </g>
    </g>
  </g>
</svg>
