<svg width="276" height="100" viewBox="0 0 276 100" fill="none" xmlns="http://www.w3.org/2000/svg">
<path d="M276 0H0V100H276V0Z" fill="#7F98B1"/>
<path d="M101.674 25.1081V37.7081H106.264C110.674 37.7081 112.6 34.4861 112.6 31.2641C112.632 30.4308 112.489 29.6001 112.18 28.8256C111.87 28.0512 111.402 27.3503 110.805 26.7683C110.207 26.1863 109.495 25.7362 108.713 25.4472C107.93 25.1581 107.096 25.0364 106.264 25.0901H101.674V25.1081ZM106.264 36.1421H103.24V26.6021H106.264C106.89 26.5619 107.518 26.6536 108.106 26.871C108.695 27.0885 109.231 27.427 109.68 27.8646C110.13 28.3023 110.483 28.8294 110.716 29.4118C110.949 29.9943 111.057 30.6191 111.034 31.2461C111.081 31.8903 110.99 32.5371 110.769 33.1438C110.548 33.7506 110.2 34.3035 109.749 34.7661C109.299 35.2287 108.755 35.5906 108.154 35.8277C107.553 36.0649 106.909 36.1721 106.264 36.1421V36.1421ZM115.264 33.2801C115.241 33.8905 115.345 34.499 115.569 35.0674C115.793 35.6357 116.131 36.1517 116.564 36.5827C116.997 37.0138 117.514 37.3507 118.084 37.5723C118.653 37.7938 119.262 37.8952 119.872 37.8701C120.484 37.8974 121.095 37.7977 121.666 37.5772C122.237 37.3567 122.757 37.0203 123.192 36.589C123.626 36.1578 123.967 35.6411 124.192 35.0716C124.418 34.5021 124.522 33.8921 124.5 33.2801C124.531 32.6625 124.433 32.0451 124.212 31.4676C123.991 30.8901 123.652 30.365 123.216 29.9262C122.781 29.4873 122.258 29.1442 121.682 28.919C121.106 28.6937 120.49 28.5913 119.872 28.6181C119.257 28.5981 118.644 28.7054 118.072 28.9333C117.501 29.1612 116.982 29.5048 116.55 29.9425C116.117 30.3803 115.779 30.9027 115.558 31.477C115.337 32.0514 115.237 32.6652 115.264 33.2801V33.2801ZM123.04 33.2801C123.056 33.702 122.986 34.1226 122.832 34.5161C122.679 34.9095 122.447 35.2673 122.15 35.5674C121.853 35.8674 121.498 36.1032 121.106 36.2602C120.714 36.4172 120.294 36.492 119.872 36.4801C119.452 36.4913 119.034 36.4157 118.644 36.2579C118.255 36.1002 117.902 35.8638 117.608 35.5634C117.314 35.263 117.085 34.9052 116.936 34.5123C116.786 34.1194 116.72 33.6999 116.74 33.2801C116.71 32.8513 116.771 32.421 116.916 32.0166C117.062 31.6123 117.29 31.2426 117.586 30.9312C117.883 30.6197 118.24 30.3733 118.637 30.2075C119.033 30.0417 119.46 29.9601 119.89 29.9681C120.319 29.9629 120.744 30.0462 121.14 30.2129C121.535 30.3797 121.892 30.6262 122.187 30.9371C122.483 31.2479 122.711 31.6165 122.858 32.0196C123.005 32.4228 123.067 32.8519 123.04 33.2801V33.2801ZM126.622 28.8161L129.772 37.7261H131.446L132.652 34.4141L133.624 31.1741L134.578 34.4141L135.784 37.7261H137.476L140.59 28.8161H138.97L136.576 36.1421L134.218 28.8161H133.012L130.654 36.1421L128.26 28.8161H126.622ZM143.596 28.8161V37.7081H145.054V32.9381C145.035 32.5661 145.092 32.1942 145.221 31.8448C145.35 31.4953 145.548 31.1755 145.803 30.9046C146.059 30.6337 146.367 30.4173 146.708 30.2684C147.05 30.1195 147.418 30.0411 147.79 30.0381C148.158 30.0109 148.527 30.0644 148.871 30.195C149.216 30.3256 149.528 30.5301 149.785 30.7941C150.043 31.058 150.239 31.3751 150.361 31.723C150.482 32.0709 150.527 32.4413 150.49 32.8081V37.7081H151.966V32.7941C152.016 32.2587 151.951 31.7189 151.775 31.2106C151.6 30.7024 151.318 30.2376 150.948 29.8473C150.578 29.457 150.129 29.1502 149.631 28.9476C149.133 28.7449 148.597 28.651 148.06 28.6721C147.465 28.6614 146.876 28.7969 146.346 29.0668C145.816 29.3368 145.36 29.7328 145.018 30.2201L144.946 28.7981H143.6L143.596 28.8161ZM157.2 25.1081H155.728V37.7081H157.2V25.1081ZM168.436 37.7081H169.858V28.8161H168.418L168.4 30.4361C168.055 29.8782 167.568 29.4213 166.99 29.1116C166.412 28.8019 165.762 28.6503 165.106 28.6721C164.496 28.6413 163.886 28.7392 163.316 28.9592C162.747 29.1792 162.229 29.5166 161.798 29.9494C161.367 30.3821 161.032 30.9007 160.814 31.4714C160.596 32.0421 160.501 32.6522 160.534 33.2621C160.496 33.875 160.587 34.489 160.801 35.0646C161.015 35.6401 161.347 36.1645 161.776 36.6037C162.205 37.043 162.722 37.3874 163.292 37.6149C163.863 37.8423 164.474 37.9476 165.088 37.9241C165.743 37.9354 166.391 37.7752 166.965 37.4595C167.54 37.1438 168.022 36.6835 168.364 36.1241L168.4 37.7441L168.436 37.7081ZM165.178 30.0581C169.444 30.0581 169.444 36.5741 165.16 36.5741C164.732 36.5849 164.307 36.5074 163.911 36.3466C163.515 36.1857 163.156 35.9449 162.857 35.6392C162.558 35.3334 162.325 34.9694 162.174 34.5697C162.022 34.17 161.954 33.7432 161.974 33.3161C161.955 32.89 162.023 32.4645 162.176 32.0662C162.328 31.6679 162.561 31.3054 162.86 31.0013C163.159 30.6972 163.518 30.458 163.914 30.2988C164.309 30.1396 164.734 30.0638 165.16 30.0761L165.178 30.0581ZM173.062 33.2801C173.039 33.8905 173.143 34.499 173.367 35.0674C173.591 35.6357 173.929 36.1517 174.362 36.5827C174.795 37.0138 175.312 37.3507 175.882 37.5723C176.451 37.7938 177.06 37.8952 177.67 37.8701C178.282 37.8977 178.893 37.7982 179.465 37.5779C180.036 37.3575 180.556 37.0211 180.991 36.5898C181.426 36.1585 181.767 35.6417 181.992 35.0721C182.217 34.5024 182.322 33.8923 182.3 33.2801C182.331 32.6623 182.233 32.0448 182.012 31.4671C181.791 30.8894 181.452 30.3643 181.016 29.9254C180.58 29.4865 180.057 29.1435 179.481 28.9184C178.905 28.6932 178.288 28.591 177.67 28.6181C177.055 28.5981 176.442 28.7054 175.87 28.9333C175.299 29.1612 174.78 29.5048 174.348 29.9425C173.915 30.3803 173.577 30.9027 173.356 31.477C173.135 32.0514 173.035 32.6652 173.062 33.2801V33.2801ZM180.838 33.2801C180.854 33.702 180.784 34.1226 180.63 34.5161C180.477 34.9095 180.245 35.2673 179.948 35.5674C179.651 35.8674 179.296 36.1032 178.904 36.2602C178.512 36.4172 178.092 36.492 177.67 36.4801C177.25 36.4913 176.832 36.4157 176.442 36.2579C176.053 36.1002 175.7 35.8638 175.406 35.5634C175.112 35.263 174.883 34.9052 174.734 34.5123C174.584 34.1194 174.518 33.6999 174.538 33.2801C174.508 32.8513 174.569 32.421 174.714 32.0166C174.86 31.6123 175.088 31.2426 175.384 30.9312C175.681 30.6197 176.038 30.3733 176.435 30.2075C176.831 30.0417 177.258 29.9601 177.688 29.9681C178.117 29.9629 178.542 30.0462 178.938 30.2129C179.333 30.3797 179.69 30.6262 179.985 30.9371C180.281 31.2479 180.509 31.6165 180.656 32.0196C180.803 32.4228 180.865 32.8519 180.838 33.2801V33.2801ZM194.23 25.1081H192.772V30.4361C192.424 29.871 191.933 29.4083 191.348 29.0953C190.763 28.7822 190.105 28.63 189.442 28.6541C188.834 28.6212 188.226 28.7189 187.659 28.9406C187.091 29.1623 186.578 29.5029 186.154 29.9395C185.729 30.376 185.403 30.8984 185.197 31.4715C184.991 32.0446 184.91 32.6552 184.96 33.2621C184.916 33.8694 185.001 34.4791 185.21 35.051C185.419 35.623 185.747 36.144 186.172 36.5796C186.598 37.0152 187.111 37.3555 187.677 37.578C188.244 37.8005 188.852 37.9 189.46 37.8701C190.124 37.8905 190.783 37.7347 191.367 37.4186C191.952 37.1025 192.443 36.6372 192.79 36.0701L192.862 37.6901H194.248V25.0901L194.23 25.1081ZM189.55 30.0221C189.972 30.0116 190.391 30.0875 190.782 30.245C191.173 30.4025 191.528 30.6384 191.825 30.9381C192.122 31.2378 192.354 31.595 192.507 31.9878C192.661 32.3806 192.733 32.8006 192.718 33.2221C192.739 33.6455 192.672 34.0687 192.523 34.4653C192.373 34.8619 192.143 35.2234 191.848 35.5274C191.552 35.8313 191.197 36.0712 190.805 36.232C190.413 36.3928 189.992 36.4711 189.568 36.4621C189.144 36.4791 188.722 36.4067 188.328 36.2495C187.935 36.0924 187.578 35.8541 187.283 35.5501C186.987 35.2462 186.759 34.8833 186.613 34.4853C186.467 34.0873 186.407 33.663 186.436 33.2401C186.404 32.8165 186.462 32.391 186.607 31.9917C186.752 31.5923 186.98 31.2283 187.276 30.9237C187.572 30.6191 187.93 30.3809 188.325 30.2248C188.72 30.0687 189.144 29.9982 189.568 30.0181L189.55 30.0221ZM204.364 37.7081H205.84V30.2201H208.63V28.9201H205.84V28.2201C205.84 26.8881 206.452 26.2941 207.406 26.2941C207.896 26.3081 208.371 26.4645 208.774 26.7441L209.386 25.6441C208.795 25.2297 208.092 25.0038 207.37 24.9961C205.498 24.9961 204.382 26.1841 204.382 28.2181V28.9181H202.636V30.2181H204.382V37.7261L204.364 37.7081ZM210.574 33.2801C210.551 33.8905 210.655 34.499 210.879 35.0674C211.103 35.6357 211.441 36.1517 211.874 36.5827C212.307 37.0138 212.824 37.3507 213.394 37.5723C213.963 37.7938 214.572 37.8952 215.182 37.8701C215.794 37.8972 216.404 37.7972 216.975 37.5766C217.546 37.356 218.066 37.0195 218.5 36.5883C218.935 36.157 219.275 35.6405 219.5 35.0711C219.726 34.5017 219.83 33.8919 219.808 33.2801C219.839 32.6627 219.741 32.0455 219.52 31.4681C219.3 30.8907 218.961 30.3658 218.525 29.9269C218.09 29.4881 217.567 29.145 216.992 28.9196C216.416 28.6942 215.8 28.5915 215.182 28.6181C214.567 28.5981 213.954 28.7054 213.382 28.9333C212.811 29.1612 212.292 29.5048 211.86 29.9425C211.427 30.3803 211.089 30.9027 210.868 31.477C210.647 32.0514 210.547 32.6652 210.574 33.2801V33.2801ZM218.35 33.2801C218.366 33.702 218.296 34.1226 218.142 34.5161C217.989 34.9095 217.757 35.2673 217.46 35.5674C217.163 35.8674 216.808 36.1032 216.416 36.2602C216.024 36.4172 215.604 36.492 215.182 36.4801C214.762 36.4913 214.344 36.4157 213.954 36.2579C213.565 36.1002 213.212 35.8638 212.918 35.5634C212.624 35.263 212.395 34.9052 212.246 34.5123C212.096 34.1194 212.03 33.6999 212.05 33.2801C212.02 32.8513 212.081 32.421 212.226 32.0166C212.372 31.6123 212.6 31.2426 212.896 30.9312C213.193 30.6197 213.55 30.3733 213.947 30.2075C214.343 30.0417 214.77 29.9601 215.2 29.9681C215.629 29.9629 216.054 30.0462 216.45 30.2129C216.845 30.3797 217.202 30.6262 217.497 30.9371C217.793 31.2479 218.021 31.6165 218.168 32.0196C218.315 32.4228 218.377 32.8519 218.35 33.2801V33.2801ZM224.38 28.8161H223.012V37.7081H224.488V32.7581C224.473 32.4089 224.531 32.0605 224.656 31.7343C224.781 31.4081 224.972 31.111 225.217 30.8614C225.461 30.6117 225.754 30.4149 226.078 30.2829C226.401 30.1509 226.749 30.0867 227.098 30.0941C227.653 30.0837 228.196 30.2543 228.646 30.5801L229.312 29.3201C228.715 28.8742 227.987 28.6398 227.242 28.6541C226.693 28.6131 226.143 28.7303 225.658 28.9919C225.173 29.2535 224.773 29.6484 224.506 30.1301L224.4 28.7981L224.38 28.8161ZM111.76 69.7081V63.3721C111.728 63.0095 111.77 62.6441 111.883 62.2981C111.996 61.9521 112.178 61.6326 112.418 61.359C112.658 61.0853 112.951 60.8631 113.279 60.7059C113.607 60.5486 113.964 60.4596 114.328 60.4441C115.912 60.4441 116.56 61.7641 116.56 63.3241V69.7081H119.488V63.3241C119.488 59.7721 117.832 57.7081 114.472 57.7081C113.676 57.6643 112.884 57.8433 112.185 58.2248C111.485 58.6064 110.906 59.1755 110.512 59.8681C110.233 59.1799 109.746 58.5965 109.118 58.2004C108.49 57.8042 107.753 57.6152 107.012 57.6601C106.393 57.6245 105.776 57.7575 105.226 58.0449C104.677 58.3323 104.216 58.7633 103.892 59.2921L103.676 57.8521H100.96V69.7081H103.888V63.3721C103.85 63.0097 103.886 62.6434 103.993 62.2953C104.101 61.9471 104.277 61.6243 104.513 61.3462C104.748 61.0682 105.038 60.8407 105.363 60.6774C105.689 60.5141 106.044 60.4184 106.408 60.3961C108.016 60.3961 108.832 61.8121 108.832 63.3721V69.7081H111.76ZM131.752 59.5081C131.34 58.8935 130.777 58.3945 130.117 58.0585C129.458 57.7225 128.724 57.5605 127.984 57.5881C124.528 57.5641 121.816 59.7001 121.816 63.7801C121.816 67.9321 124.408 70.0921 127.916 70.0681C128.681 70.075 129.435 69.887 130.107 69.5216C130.778 69.1563 131.346 68.6258 131.756 67.9801L131.9 69.7081H134.66V57.8761H131.848L131.752 59.5081ZM128.252 60.2081C132.86 60.2081 132.86 67.3841 128.252 67.3841C127.779 67.4005 127.309 67.3178 126.87 67.1414C126.431 66.9649 126.034 66.6986 125.704 66.3595C125.375 66.0205 125.12 65.6161 124.956 65.1726C124.792 64.729 124.722 64.2561 124.752 63.7841C124.723 63.3137 124.792 62.8423 124.957 62.4005C125.121 61.9587 125.376 61.5563 125.705 61.2193C126.035 60.8823 126.431 60.6181 126.869 60.4439C127.307 60.2698 127.777 60.1894 128.248 60.2081H128.252ZM145.58 66.2801C145.236 66.6093 144.829 66.866 144.384 67.035C143.939 67.2041 143.464 67.282 142.988 67.2641C142.533 67.2845 142.079 67.2083 141.656 67.0406C141.232 66.8728 140.849 66.6172 140.532 66.2907C140.214 65.9642 139.97 65.5742 139.814 65.1462C139.658 64.7183 139.595 64.2623 139.628 63.8081C139.604 63.35 139.675 62.8919 139.837 62.4626C139.998 62.0333 140.247 61.642 140.567 61.3133C140.887 60.9847 141.272 60.7257 141.696 60.5527C142.121 60.3797 142.577 60.2964 143.036 60.3081C143.916 60.3187 144.761 60.6517 145.412 61.2441L147.26 59.3001C146.713 58.7221 146.049 58.2671 145.312 57.965C144.576 57.663 143.784 57.5209 142.988 57.5481C139.556 57.5481 136.7 59.6121 136.7 63.8121C136.7 68.0121 139.556 70.0761 142.988 70.0761C143.837 70.0992 144.681 69.9446 145.466 69.6222C146.251 69.2999 146.96 68.8168 147.548 68.2041L145.58 66.2801ZM156.956 52.5801C151.148 52.5801 148.316 57.0201 148.316 61.4361C148.316 65.8521 151.052 70.1001 156.956 70.1001C162.86 70.1001 165.52 65.7481 165.568 61.4081C165.616 57.0081 162.736 52.5721 156.952 52.5721L156.956 52.5801ZM156.956 55.4601C160.916 55.4601 162.5 58.6281 162.456 61.4601C162.408 64.2201 160.92 67.1961 156.956 67.1961C152.992 67.1961 151.508 64.2441 151.436 61.4841C151.36 58.6441 152.992 55.4521 156.952 55.4521L156.956 55.4601ZM181.268 55.6761C179.996 53.0841 177.284 52.3401 174.668 52.3401C171.568 52.3641 168.168 53.7801 168.168 57.2401C168.168 61.0081 171.336 61.9201 174.768 62.3281C177 62.5681 178.656 63.2161 178.656 64.8001C178.656 66.6241 176.784 67.3201 174.792 67.3201C172.752 67.3201 170.808 66.5041 170.064 64.6561L167.416 66.0081C168.664 69.0801 171.304 70.1361 174.736 70.1361C178.48 70.1361 181.792 68.5281 181.792 64.7841C181.792 60.7761 178.528 59.8641 175.024 59.4321C173.008 59.1921 171.28 58.7841 171.28 57.3201C171.28 56.0721 172.408 55.0881 174.76 55.0881C175.525 55.0609 176.286 55.2166 176.978 55.5422C177.671 55.8677 178.277 56.3538 178.744 56.9601L181.268 55.6761Z" fill="#FEFFFF"/>
<path d="M57.4889 22C54.6666 22.2868 52.0409 23.5766 50.0889 25.635C49.0401 26.735 48.2357 28.0442 47.7284 29.4768C47.221 30.9095 47.0222 32.4331 47.1449 33.948C47.1449 33.948 50.6509 34.589 54.3929 30.848C55.5021 29.6738 56.3512 28.2789 56.8847 26.7542C57.4182 25.2296 57.6241 23.6096 57.4889 22V22Z" fill="white"/>
<path d="M47.5499 36.969C44.9389 36.951 43.3349 34.697 38.8889 34.697C36.9942 34.771 35.1395 35.265 33.4591 36.1434C31.7786 37.0218 30.3142 38.2625 29.1719 39.776C27.4719 42.262 26.0039 44.989 26.0039 50.522C26.3391 58.5732 29.6186 66.221 35.2199 72.014C36.3517 73.194 37.8876 73.9027 39.5199 73.998C42.5669 74.09 44.4379 71.809 48.2879 71.809C52.1379 71.809 53.2959 73.998 56.7709 73.998C57.7586 73.9475 58.725 73.6919 59.6085 73.2475C60.492 72.8032 61.2734 72.1798 61.9029 71.417C64.7734 68.1098 66.9653 64.2702 68.3539 60.117C68.3539 60.117 61.2469 57.372 61.3329 49.46C61.4039 42.902 66.9729 39.677 66.9729 39.677C65.8197 38.0592 64.2935 36.7432 62.5237 35.8405C60.7539 34.9377 58.7926 34.4748 56.8059 34.491C52.0269 34.528 49.8879 36.985 47.5499 36.969Z" fill="white"/>
<path d="M247 24H99V50H247V24Z" fill="#7F98B1"/>
<path d="M100.652 43.5179V30.9179H104.132C108.573 30.9179 110.794 32.9659 110.794 37.0619C110.832 37.9295 110.686 38.7954 110.368 39.6032C110.049 40.411 109.564 41.1428 108.944 41.7509C108.275 42.3565 107.493 42.8242 106.644 43.1274C105.794 43.4306 104.893 43.5633 103.992 43.5179H100.652ZM102.129 32.2499V42.1819H104.01C105.421 42.2678 106.808 41.7906 107.868 40.8549C108.346 40.3578 108.716 39.7666 108.953 39.119C109.191 38.4713 109.291 37.7814 109.248 37.0929C109.248 33.8642 107.531 32.2499 104.098 32.2499H102.129ZM117.274 43.7289C116.684 43.756 116.095 43.6577 115.546 43.4403C114.996 43.2229 114.499 42.8915 114.088 42.4679C113.267 41.5526 112.84 40.3508 112.9 39.1229C112.862 38.4799 112.952 37.8357 113.164 37.2277C113.377 36.6197 113.708 36.0599 114.139 35.5809C114.578 35.1483 115.103 34.8117 115.68 34.5924C116.256 34.3731 116.872 34.2758 117.488 34.3069C118.07 34.2743 118.652 34.3681 119.195 34.582C119.737 34.7959 120.227 35.1247 120.63 35.5459C121.43 36.5063 121.833 37.7353 121.759 38.9829C121.821 40.2479 121.384 41.4867 120.542 42.4329C120.121 42.8688 119.611 43.2098 119.048 43.4333C118.484 43.6568 117.879 43.7575 117.274 43.7289V43.7289ZM117.379 35.5179C116.965 35.4988 116.551 35.5739 116.17 35.7376C115.789 35.9013 115.45 36.1493 115.179 36.4629C114.603 37.205 114.315 38.1309 114.37 39.0689C114.318 39.982 114.61 40.8814 115.187 41.5909C115.461 41.8981 115.799 42.1407 116.179 42.301C116.558 42.4613 116.968 42.5354 117.379 42.5179C117.782 42.542 118.186 42.473 118.559 42.316C118.932 42.1591 119.263 41.9185 119.528 41.6129C120.073 40.8693 120.338 39.9578 120.279 39.0379C120.338 38.1103 120.073 37.191 119.528 36.4379C119.265 36.1288 118.934 35.8849 118.562 35.7253C118.189 35.5656 117.784 35.4946 117.379 35.5179V35.5179ZM135.829 34.5179L133.129 43.5179H131.636L129.782 37.0759C129.707 36.803 129.66 36.5233 129.641 36.2409H129.606C129.573 36.519 129.511 36.7929 129.421 37.0579L127.409 43.5179H125.968L123.243 34.5179H124.755L126.618 41.2859C126.686 41.5508 126.727 41.8218 126.741 42.0949H126.811C126.833 41.8145 126.886 41.5375 126.969 41.2689L129.044 34.5179H130.362L132.225 41.3029C132.292 41.5683 132.336 41.839 132.357 42.1119H132.427C132.447 41.8376 132.497 41.5663 132.576 41.3029L134.405 34.5179H135.829ZM145.4 43.5179H143.96V38.3849C143.96 36.4736 143.263 35.5179 141.868 35.5179C141.528 35.5106 141.19 35.58 140.881 35.7207C140.571 35.8614 140.297 36.07 140.079 36.3309C139.596 36.9032 139.344 37.6347 139.371 38.3829V43.5179H137.931V34.5179H139.372V36.0119H139.407C139.693 35.4819 140.12 35.0418 140.642 34.7407C141.163 34.4396 141.758 34.2894 142.36 34.3069C142.785 34.2805 143.209 34.353 143.601 34.5185C143.993 34.684 144.342 34.9381 144.619 35.2609C145.191 36.0617 145.467 37.0362 145.4 38.0179V43.5179ZM149.989 43.5179H148.549V30.1939H149.99L149.989 43.5179ZM157.1 43.7289C156.51 43.7558 155.921 43.6572 155.373 43.4399C154.824 43.2225 154.327 42.8912 153.916 42.4679C153.094 41.5533 152.666 40.3518 152.725 39.1239C152.687 38.4809 152.777 37.8367 152.989 37.2287C153.202 36.6207 153.533 36.0609 153.964 35.5819C154.403 35.1493 154.928 34.8127 155.505 34.5934C156.081 34.3741 156.697 34.2768 157.313 34.3079C157.895 34.2753 158.477 34.3691 159.02 34.583C159.562 34.7969 160.052 35.1257 160.455 35.5469C161.255 36.5073 161.658 37.7363 161.584 38.9839C161.646 40.2489 161.209 41.4877 160.367 42.4339C159.946 42.8694 159.436 43.2102 158.873 43.4335C158.31 43.6568 157.705 43.7575 157.1 43.7289V43.7289ZM157.208 35.5179C156.794 35.4988 156.38 35.5739 155.999 35.7376C155.618 35.9013 155.279 36.1493 155.008 36.4629C154.431 37.2056 154.144 38.1324 154.2 39.0709C154.148 39.984 154.44 40.8834 155.017 41.5929C155.291 41.8997 155.629 42.1418 156.008 42.3017C156.387 42.4617 156.797 42.5355 157.208 42.5179C157.611 42.542 158.015 42.473 158.388 42.316C158.761 42.1591 159.092 41.9185 159.357 41.6129C159.902 40.8693 160.167 39.9578 160.108 39.0379C160.167 38.1103 159.902 37.191 159.357 36.4379C159.094 36.1288 158.763 35.8849 158.391 35.7253C158.018 35.5656 157.613 35.4946 157.208 35.5179V35.5179ZM170.762 43.5179H169.321V42.1119H169.286C169.023 42.6144 168.624 43.0326 168.134 43.3186C167.644 43.6046 167.084 43.7468 166.517 43.7289C165.751 43.7727 164.998 43.5175 164.417 43.0169C164.163 42.7742 163.964 42.48 163.833 42.154C163.702 41.8281 163.642 41.4779 163.657 41.1269C163.657 39.4456 164.647 38.4669 166.628 38.1909L169.328 37.8129C169.323 36.2829 168.703 35.5179 167.466 35.5179C166.385 35.517 165.34 35.9114 164.53 36.6269V35.1509C165.446 34.5793 166.509 34.2861 167.589 34.3069C169.704 34.3069 170.762 35.4259 170.762 37.6639V43.5179ZM169.321 38.9649L167.15 39.2649C166.614 39.314 166.097 39.4851 165.638 39.7649C165.455 39.9163 165.313 40.1109 165.224 40.331C165.135 40.5511 165.102 40.7899 165.128 41.0259C165.122 41.229 165.161 41.4309 165.242 41.6172C165.323 41.8034 165.445 41.9693 165.598 42.1029C165.949 42.3934 166.396 42.5415 166.851 42.5179C167.183 42.5271 167.513 42.4647 167.818 42.3351C168.124 42.2056 168.398 42.0118 168.622 41.7669C169.094 41.2492 169.345 40.5673 169.322 39.8669L169.321 38.9649ZM181.591 43.5179H180.15V41.9889H180.115C179.816 42.5414 179.367 42.9981 178.819 43.306C178.272 43.6139 177.648 43.7605 177.021 43.7289C176.506 43.7481 175.994 43.6488 175.524 43.4389C175.054 43.2289 174.639 42.9138 174.31 42.5179C173.589 41.5772 173.229 40.4093 173.295 39.2259C173.231 37.9384 173.63 36.6705 174.42 35.6519C174.783 35.2122 175.242 34.8622 175.763 34.6289C176.283 34.3957 176.85 34.2855 177.42 34.3069C177.962 34.2714 178.502 34.3895 178.98 34.6476C179.458 34.9057 179.853 35.2933 180.12 35.7659H180.155V30.1939H181.596L181.591 43.5179ZM180.15 39.4489V38.1179C180.158 37.7778 180.098 37.4396 179.974 37.1228C179.85 36.8059 179.665 36.5167 179.429 36.2719C179.194 36.0243 178.91 35.8291 178.595 35.6992C178.28 35.5692 177.941 35.5075 177.6 35.5179C177.202 35.5014 176.806 35.5807 176.445 35.7489C176.084 35.9172 175.769 36.1696 175.526 36.4849C174.981 37.2653 174.715 38.2066 174.77 39.1569C174.721 40.037 174.979 40.9067 175.5 41.6179C175.731 41.9104 176.027 42.1444 176.366 42.3008C176.704 42.4571 177.074 42.5315 177.447 42.5179C177.817 42.5295 178.186 42.4573 178.524 42.3066C178.863 42.156 179.163 41.9308 179.403 41.6479C179.915 41.0323 180.181 40.249 180.15 39.4489V39.4489ZM194.75 31.4599C194.457 31.2988 194.126 31.2171 193.792 31.2229C192.784 31.2229 192.28 31.8586 192.28 33.1299V34.5179H194.389V35.7479H192.282V43.5179H190.849V35.7479H189.311V34.5179H190.849V33.0589C190.827 32.6502 190.888 32.2413 191.029 31.8568C191.169 31.4724 191.386 31.1203 191.666 30.8219C191.931 30.5524 192.249 30.3404 192.6 30.199C192.951 30.0576 193.327 29.9898 193.705 29.9999C194.06 29.9862 194.415 30.0398 194.751 30.1579L194.75 31.4599ZM200.13 43.7299C199.54 43.7568 198.951 43.6582 198.402 43.4406C197.853 43.2231 197.356 42.8915 196.945 42.4679C196.123 41.5533 195.695 40.3518 195.754 39.1239C195.716 38.4809 195.806 37.8367 196.018 37.2287C196.231 36.6207 196.562 36.0609 196.993 35.5819C197.432 35.1493 197.957 34.8127 198.534 34.5934C199.11 34.3741 199.726 34.2768 200.342 34.3079C200.924 34.2753 201.506 34.3691 202.049 34.583C202.591 34.7969 203.081 35.1257 203.484 35.5469C204.284 36.5073 204.687 37.7363 204.613 38.9839C204.675 40.2489 204.238 41.4877 203.396 42.4339C202.975 42.8691 202.466 43.2096 201.903 43.4329C201.341 43.6562 200.737 43.7571 200.132 43.7289L200.13 43.7299ZM200.237 35.5179C199.823 35.4988 199.409 35.5739 199.028 35.7376C198.647 35.9013 198.308 36.1493 198.037 36.4629C197.461 37.205 197.173 38.1309 197.228 39.0689C197.176 39.982 197.468 40.8814 198.045 41.5909C198.319 41.8981 198.657 42.1407 199.037 42.301C199.416 42.4613 199.826 42.5354 200.237 42.5179C200.64 42.542 201.044 42.473 201.417 42.316C201.79 42.1591 202.121 41.9185 202.386 41.6129C202.931 40.8693 203.196 39.9578 203.137 39.0379C203.196 38.1103 202.931 37.191 202.386 36.4379C202.123 36.1288 201.792 35.8849 201.42 35.7253C201.047 35.5656 200.642 35.4946 200.237 35.5179V35.5179ZM212.042 35.9749C211.72 35.7615 211.337 35.6596 210.952 35.6849C210.642 35.6884 210.339 35.77 210.069 35.9221C209.8 36.0742 209.573 36.2918 209.41 36.5549C208.961 37.2621 208.744 38.0916 208.79 38.9279V43.5179H207.349V34.5179H208.79V36.3719H208.825C208.991 35.799 209.317 35.2853 209.765 34.8909C210.156 34.5476 210.659 34.3585 211.18 34.3589C211.472 34.346 211.764 34.3877 212.041 34.4819L212.042 35.9749Z" fill="white"/>
<path d="M104.363 89H102.523L102.535 87.7344H104.363C104.859 87.7344 105.275 87.625 105.611 87.4062C105.947 87.1836 106.201 86.8652 106.373 86.4512C106.545 86.0332 106.631 85.5332 106.631 84.9512V84.5117C106.631 84.0625 106.582 83.666 106.484 83.3223C106.387 82.9785 106.242 82.6895 106.051 82.4551C105.863 82.2207 105.631 82.043 105.354 81.9219C105.076 81.8008 104.758 81.7402 104.398 81.7402H102.488V80.4688H104.398C104.969 80.4688 105.488 80.5645 105.957 80.7559C106.43 80.9473 106.838 81.2227 107.182 81.582C107.529 81.9375 107.795 82.3633 107.979 82.8594C108.166 83.3555 108.26 83.9102 108.26 84.5234V84.9512C108.26 85.5605 108.166 86.1152 107.979 86.6152C107.795 87.1113 107.529 87.5371 107.182 87.8926C106.838 88.248 106.428 88.5215 105.951 88.7129C105.475 88.9043 104.945 89 104.363 89ZM103.426 80.4688V89H101.814V80.4688H103.426ZM110.334 80.4688H111.729L114.061 86.8906L116.387 80.4688H117.787L114.617 89H113.498L110.334 80.4688ZM109.631 80.4688H110.996L111.242 86.3691V89H109.631V80.4688ZM117.119 80.4688H118.49V89H116.879V86.3691L117.119 80.4688ZM126.787 84.5879V87.9102C126.662 88.0703 126.465 88.2441 126.195 88.4316C125.93 88.6191 125.582 88.7812 125.152 88.918C124.723 89.0508 124.195 89.1172 123.57 89.1172C123.027 89.1172 122.531 89.0273 122.082 88.8477C121.633 88.6641 121.246 88.3965 120.922 88.0449C120.598 87.6934 120.348 87.2637 120.172 86.7559C119.996 86.248 119.908 85.668 119.908 85.0156V84.4531C119.908 83.8008 119.99 83.2207 120.154 82.7129C120.322 82.2051 120.561 81.7754 120.869 81.4238C121.182 81.0723 121.555 80.8047 121.988 80.6211C122.426 80.4375 122.914 80.3457 123.453 80.3457C124.176 80.3457 124.77 80.4648 125.234 80.7031C125.703 80.9414 126.062 81.2695 126.312 81.6875C126.562 82.1016 126.719 82.5781 126.781 83.1172H125.211C125.168 82.8203 125.082 82.5605 124.953 82.3379C124.824 82.1113 124.641 81.9355 124.402 81.8105C124.168 81.6816 123.863 81.6172 123.488 81.6172C123.172 81.6172 122.893 81.6797 122.65 81.8047C122.408 81.9297 122.205 82.1113 122.041 82.3496C121.877 82.5879 121.752 82.8828 121.666 83.2344C121.584 83.5859 121.543 83.9883 121.543 84.4414V85.0156C121.543 85.4727 121.59 85.8789 121.684 86.2344C121.777 86.5859 121.912 86.8828 122.088 87.125C122.268 87.3633 122.488 87.5449 122.75 87.6699C123.016 87.791 123.316 87.8516 123.652 87.8516C123.957 87.8516 124.209 87.8262 124.408 87.7754C124.611 87.7207 124.773 87.6562 124.895 87.582C125.016 87.5078 125.109 87.4355 125.176 87.3652V85.7656H123.482V84.5879H126.787Z" fill="white"/>
</svg>
