<svg xmlns="http://www.w3.org/2000/svg" width="25.816" height="19.36" viewBox="0 0 25.816 19.36">
  <g id="mobile-shop-screen-Digital_Marketing" data-name="mobile-shop-screen-Digital Marketing" transform="translate(10 -56.002)">
    <path id="Path_855" data-name="Path 855" d="M39.4,27.648h-.807V22.807a.818.818,0,0,0-.339-.662.835.835,0,0,0-.742-.1L26.351,26.034H20.034a.807.807,0,0,0-.807.807v.177l-2.614.653a.807.807,0,0,0-.613.783v3.227a.807.807,0,0,0,.613.783l2.614.653V33.3a.807.807,0,0,0,.807.807h.807v6.454a.807.807,0,0,0,.807.807h3.227a.8.8,0,0,0,.8-.718l.726-6.527,11.109,3.969a.8.8,0,0,0,1.081-.758V32.488H39.4a2.42,2.42,0,1,0,0-4.841ZM19.227,31.456l-1.614-.4V29.084l1.614-.4Zm4.921,8.293H22.454V34.1h2.323Zm1.533-7.261H20.841V27.648h4.841Zm11.295,3.695L27.295,32.73V27.406l9.681-3.453Zm2.42-5.308h-.807V29.261H39.4a.807.807,0,1,1,0,1.614Z" transform="translate(-26 34)" fill="#fff"/>
  </g>
</svg>
