<svg xmlns="http://www.w3.org/2000/svg" xmlns:xlink="http://www.w3.org/1999/xlink" width="509.216" height="295.704" viewBox="0 0 509.216 295.704">
  <defs>
    <clipPath id="clip-path">
      <rect id="Rectangle_1511" data-name="Rectangle 1511" width="509.216" height="295.704" fill="none"/>
    </clipPath>
  </defs>
  <g id="node_status_illustration" data-name="node status illustration" clip-path="url(#clip-path)">
    <path id="Path_842" data-name="Path 842" d="M0,0H197.2V274.987H0Z" transform="translate(175.12)" fill="#005a68"/>
    <path id="Path_829" data-name="Path 829" d="M1147.578,164.853h-69.746V98.547h69.746Zm-63.222-6.524h56.7V105.071h-56.7Z" transform="translate(-886.836 -81.085)" fill="#fff"/>
    <path id="Path_830" data-name="Path 830" d="M1179.47,96.83,1218,58.3l10.615,10.615-38.531,38.531-10.615,10.615-10.615-10.615-14.7-14.7,10.615-10.615Z" transform="translate(-949.63 -47.969)" fill="#01eeff"/>
    <path id="Path_831" data-name="Path 831" d="M1649.485,190.636h-74.934a.173.173,0,0,1-.173-.173V180.239a.173.173,0,0,1,.173-.173h74.934a.172.172,0,0,1,.172.173v10.225a.172.172,0,0,1-.172.173" transform="translate(-1295.391 -148.158)" fill="#fff"/>
    <path id="Path_832" data-name="Path 832" d="M1649.485,296.205h-74.934a.173.173,0,0,1-.173-.173V285.808a.173.173,0,0,1,.173-.173h74.934a.172.172,0,0,1,.172.173v10.225a.172.172,0,0,1-.172.173" transform="translate(-1295.391 -235.02)" fill="#dd6bff"/>
    <path id="Path_833" data-name="Path 833" d="M1616.634,401.774h-42.127a.129.129,0,0,1-.13-.13V391.334a.13.13,0,0,1,.13-.13h42.127a.13.13,0,0,1,.129.13v10.311a.13.13,0,0,1-.129.13" transform="translate(-1295.391 -321.881)" fill="#fff"/>
    <path id="Path_834" data-name="Path 834" d="M1147.578,652.345h-69.746V586.039h69.746Zm-63.222-6.524h56.7V592.563h-56.7Z" transform="translate(-886.836 -482.191)" fill="#fff"/>
    <path id="Path_835" data-name="Path 835" d="M1649.485,678.128h-74.934a.173.173,0,0,1-.173-.173V667.731a.173.173,0,0,1,.173-.173h74.934a.172.172,0,0,1,.172.173v10.225a.172.172,0,0,1-.172.173" transform="translate(-1295.391 -549.264)" fill="#fff"/>
    <path id="Path_836" data-name="Path 836" d="M1649.485,783.7h-74.934a.173.173,0,0,1-.173-.173V773.3a.172.172,0,0,1,.173-.172h74.934a.172.172,0,0,1,.172.172v10.225a.172.172,0,0,1-.172.173" transform="translate(-1295.391 -636.128)" fill="#dd6bff"/>
    <path id="Path_837" data-name="Path 837" d="M1616.634,889.267h-42.127a.129.129,0,0,1-.13-.13V878.827a.13.13,0,0,1,.13-.13h42.127a.13.13,0,0,1,.129.13v10.311a.13.13,0,0,1-.129.13" transform="translate(-1295.391 -722.989)" fill="#fff"/>
    <path id="Path_838" data-name="Path 838" d="M1147.578,1139.838h-69.746v-66.306h69.746Zm-63.222-6.524h56.7v-53.258h-56.7Z" transform="translate(-886.836 -883.298)" fill="#fff"/>
    <path id="Path_839" data-name="Path 839" d="M1649.485,1165.621h-74.934a.173.173,0,0,1-.173-.173v-10.225a.173.173,0,0,1,.173-.173h74.934a.172.172,0,0,1,.172.173v10.225a.172.172,0,0,1-.172.173" transform="translate(-1295.391 -950.372)" fill="#fff"/>
    <path id="Path_840" data-name="Path 840" d="M1649.485,1271.19h-74.934a.173.173,0,0,1-.173-.173v-10.225a.173.173,0,0,1,.173-.173h74.934a.172.172,0,0,1,.172.173v10.225a.172.172,0,0,1-.172.173" transform="translate(-1295.391 -1037.233)" fill="#dd6bff"/>
    <path id="Path_841" data-name="Path 841" d="M1616.634,1376.76h-42.127a.13.13,0,0,1-.13-.13v-10.311a.129.129,0,0,1,.13-.13h42.127a.129.129,0,0,1,.129.13v10.311a.13.13,0,0,1-.129.13" transform="translate(-1295.391 -1124.096)" fill="#fff"/>
    <rect id="Rectangle_1510" data-name="Rectangle 1510" width="476.023" height="0.963" transform="translate(22.564 292.748)" fill="#373660"/>
  </g>
</svg>
