<?xml version="1.0" encoding="utf-8"?>
<!-- Generator: Adobe Illustrator 25.0.0, SVG Export Plug-In . SVG Version: 6.00 Build 0)  -->
<svg version="1.1" id="Layer_1" xmlns="http://www.w3.org/2000/svg" xmlns:xlink="http://www.w3.org/1999/xlink" x="0px" y="0px"
	 viewBox="0 0 512 512" style="enable-background:new 0 0 512 512;" xml:space="preserve">
<style type="text/css">
	.st0{fill:#4F6270;}
	.st1{fill:#8FADC6;}
	.st2{fill:#647B8E;}
</style>
<path class="st0" d="M41.3,412.4c-0.4,0-0.9,0-1.4-0.1c-8.3-0.7-14.3-8-13.6-16.3c4.5-50.1,64.7-130.7,153.4-205.4
	c44.1-37.2,90.6-69,134.5-92c44.1-23.2,82.3-35.7,110.6-36.4c8.3-0.2,15.1,6.4,15.3,14.7c0.2,8.3-6.4,15.1-14.7,15.3
	c-49.8,1.1-142.9,51.1-226.4,121.4c-41.4,34.9-77,71.5-103,106c-32.4,43.1-38.9,68.1-39.9,79.1C55.6,406.6,49,412.4,41.3,412.4z"/>
<path class="st0" d="M82.1,449.7c-8.1,0-14.8-6.4-15-14.6c-0.2-8.3,6.3-15.2,14.6-15.4c49.9-1.4,142.9-51.3,226.1-121.4
	c40.9-34.5,76.3-70.8,102.2-105c24-31.7,38.4-59.8,40.6-79.1c0.9-8.2,8.4-14.2,16.6-13.2c8.2,0.9,14.1,8.4,13.2,16.6
	c-3.6,31.5-27.3,68.4-46.5,93.8c-27.2,35.9-64.1,73.9-106.8,109.8c-44,37.1-90.4,68.8-134.1,91.8c-44,23.1-82.1,35.8-110.4,36.6
	C82.4,449.7,82.2,449.7,82.1,449.7z"/>
<path class="st0" d="M467.1,101.1c-8.2-0.9-15.7,5-16.6,13.2c-2.2,19.3-16.6,47.4-40.6,79.1c-25.9,34.2-61.2,70.5-102.2,105
	c-17.8,15-36.1,29.1-54.3,42v36.5c24.7-16.6,49.5-35.2,73.6-55.5c42.6-35.9,79.5-73.9,106.8-109.8c19.2-25.4,42.9-62.3,46.5-93.8
	C481.3,109.5,475.4,102.1,467.1,101.1z"/>
<path class="st0" d="M440.2,76.9c-0.2-8.3-7.1-14.8-15.3-14.7c-28.3,0.7-66.5,13.2-110.6,36.4c-19.9,10.5-40.3,22.7-60.9,36.5v36.5
	c67-47.4,133-78.5,172.1-79.4C433.9,92.1,440.4,85.2,440.2,76.9z"/>
<path class="st1" d="M253.5,512c-30.9,0-58.6-28.5-78-80.3C157.7,384.5,148,322.1,148,256s9.8-128.5,27.5-175.7
	C194.9,28.5,222.6,0,253.5,0s58.6,28.5,78,80.3c17.7,47.2,27.5,109.6,27.5,175.7s-9.8,128.5-27.5,175.7
	C312,483.5,284.3,512,253.5,512z M253.5,30c-17,0-35.6,22.8-49.9,60.9C187.1,134.7,178,193.4,178,256s9.1,121.3,25.5,165.1
	c14.3,38.1,33,60.9,49.9,60.9c17,0,35.6-22.8,49.9-60.9c16.5-43.9,25.5-102.5,25.5-165.1s-9.1-121.3-25.5-165.1
	C289.1,52.8,270.4,30,253.5,30z"/>
<g>
	<path class="st1" d="M253.4,299.7c-4.7,0-9.5-0.8-14.1-2.3c-11.2-3.8-20.2-11.7-25.4-22.2c-5.1-10.5-5.9-22.3-2.1-33.3
		c7.9-22.7,32.9-34.9,55.8-27.2c11.2,3.8,20.2,11.7,25.4,22.2c5.1,10.5,5.9,22.3,2.1,33.3C288.8,288.3,271.7,299.7,253.4,299.7z"/>
	<path class="st1" d="M461.5,131.4c-4.7,0-9.5-0.8-14.1-2.3c-11.2-3.8-20.2-11.7-25.4-22.2c-5.1-10.5-5.9-22.3-2.1-33.3
		c7.9-22.7,32.9-34.9,55.8-27.2c11.2,3.8,20.2,11.7,25.4,22.2c5.1,10.5,5.9,22.3,2.1,33.3C496.9,120,479.8,131.4,461.5,131.4z
		 M489,97L489,97L489,97z"/>
	<path class="st1" d="M51,470.1c-4.7,0-9.5-0.8-14.2-2.3c-11.2-3.8-20.2-11.7-25.4-22.2c-5.1-10.5-5.9-22.3-2.1-33.3
		c7.9-22.7,32.9-34.9,55.8-27.2c11.2,3.8,20.2,11.7,25.4,22.2c5.1,10.5,5.9,22.3,2.1,33.3C86.4,458.7,69.3,470.1,51,470.1z"/>
</g>
<path class="st1" d="M331.5,80.3C312,28.5,284.3,0,253.5,0v30c17,0,35.6,22.8,49.9,60.9c16.5,43.9,25.5,102.5,25.5,165.1
	s-9.1,121.3-25.5,165.1c-14.3,38.1-33,60.9-49.9,60.9v30c30.9,0,58.6-28.5,78-80.3c17.7-47.2,27.5-109.6,27.5-175.7
	S349.2,127.5,331.5,80.3z"/>
<path class="st0" d="M295.1,270.2c3.8-11,3.1-22.9-2.1-33.3c-5.2-10.6-14.2-18.4-25.4-22.2c-4.7-1.6-9.5-2.3-14.2-2.3v87.4
	C271.7,299.7,288.8,288.3,295.1,270.2z"/>
<path class="st2" d="M427,449.7c-19.2,0-45.6-5.6-81.7-21.4c-51.6-22.6-110.4-60.6-165.5-107C86.4,242.7,26.1,159.7,26.1,109.7
	c0-18.8,8.3-29.8,15.3-35.6C56.7,61.2,90,52.4,161.6,83.7c51.6,22.6,110.4,60.6,165.5,107c93.4,78.6,153.7,161.7,153.7,211.6
	c0,18.8-8.3,29.8-15.3,35.6C457.9,444.3,445.9,449.7,427,449.7z M79.7,92.2c-8.6,0-15.2,1.6-19,4.8c-2,1.7-4.6,4.8-4.6,12.7
	c0,17.9,13.6,46.7,37.3,79c26.2,35.6,62.7,73.5,105.7,109.7c53,44.6,109.2,81,158.2,102.5c22.8,10,43.4,16.3,59.5,18.3
	c13.7,1.7,24.2,0.2,29.3-4.2c2-1.7,4.6-4.8,4.6-12.7c0-17.9-13.6-46.7-37.3-79c-26.2-35.6-62.7-73.5-105.7-109.7
	c-53-44.6-109.2-81-158.2-102.5c-22.8-10-43.4-16.3-59.5-18.3C86.3,92.5,82.9,92.2,79.7,92.2z"/>
<path class="st2" d="M327.1,190.7c-24.1-20.3-49-39-73.6-55.6v36.4c18.2,12.9,36.4,27,54.3,42.1c43,36.2,79.6,74.1,105.7,109.7
	c23.7,32.3,37.3,61,37.3,79c0,7.9-2.6,11-4.6,12.7c-5.2,4.4-15.6,5.8-29.3,4.2c-16.1-2-36.7-8.3-59.5-18.3
	c-32.5-14.2-68.1-35-103.9-60.4v36.4c31.6,21.2,62.9,38.8,91.9,51.4c36.1,15.8,62.4,21.4,81.7,21.4c18.9,0,30.9-5.4,38.5-11.8
	c7-5.9,15.3-16.8,15.3-35.6C480.8,352.3,420.5,269.3,327.1,190.7z"/>
<path class="st1" d="M175.4,80.3c0,0-13.4,43.7-15.6,54.8c-2.2,11.1,28.8,9,28.8,9l14.9-53.2L175.4,80.3z"/>
<path class="st1" d="M316.4,376.9c0,0-10.3,37.3-13,44.3s28.1,10.5,28.1,10.5l13-43.2L316.4,376.9z"/>
<polygon class="st0" points="321.6,286.4 321.6,325.9 366.1,286.4 361.9,263.5 354.4,256 "/>
</svg>
