<svg xmlns="http://www.w3.org/2000/svg" xmlns:xlink="http://www.w3.org/1999/xlink" width="243.592" height="46.888" viewBox="0 0 243.592 46.888">
  <defs>
    <linearGradient id="linear-gradient" x1="0.502" y1="1.002" x2="0.502" y2="-0.002" gradientUnits="objectBoundingBox">
      <stop offset="0" stop-color="#fcee21"/>
      <stop offset="1" stop-color="#f15a24"/>
    </linearGradient>
    <linearGradient id="linear-gradient-2" x1="0.501" y1="1.003" x2="0.501" y2="-0.002" gradientUnits="objectBoundingBox">
      <stop offset="0" stop-color="#f15a24"/>
      <stop offset="1" stop-color="#ed1e79"/>
    </linearGradient>
    <linearGradient id="linear-gradient-5" x1="0.5" y1="5.765" x2="0.5" y2="0.002" gradientUnits="objectBoundingBox">
      <stop offset="0" stop-color="#2fc5b3"/>
      <stop offset="1" stop-color="#fff"/>
    </linearGradient>
    <filter id="Path_158" x="12.842" y="8.67" width="14.91" height="33.579" filterUnits="userSpaceOnUse">
      <feOffset dx="1" dy="1" input="SourceAlpha"/>
      <feGaussianBlur stdDeviation="1" result="blur"/>
      <feFlood flood-color="#fff" flood-opacity="0.278"/>
      <feComposite operator="in" in2="blur"/>
      <feComposite in="SourceGraphic"/>
    </filter>
    <filter id="Path_169" x="21.811" y="8.656" width="12.959" height="33.579" filterUnits="userSpaceOnUse">
      <feOffset dx="1" dy="1" input="SourceAlpha"/>
      <feGaussianBlur stdDeviation="1" result="blur-2"/>
      <feFlood flood-color="#fff" flood-opacity="0.6"/>
      <feComposite operator="in" in2="blur-2"/>
      <feComposite in="SourceGraphic"/>
    </filter>
    <filter id="Path_195" x="28.829" y="8.599" width="14.835" height="33.579" filterUnits="userSpaceOnUse">
      <feOffset dx="1" dy="1" input="SourceAlpha"/>
      <feGaussianBlur stdDeviation="1" result="blur-3"/>
      <feFlood flood-color="#fff" flood-opacity="0.478"/>
      <feComposite operator="in" in2="blur-3"/>
      <feComposite in="SourceGraphic"/>
    </filter>
  </defs>
  <g id="Pando_Explorer" data-name="Pando Explorer" transform="translate(-389.866 -232.799)">
    <g id="Pando_Wallet" data-name="Pando Wallet" transform="translate(454.368 245.804)">
      <g id="Explorer" transform="translate(80.764)">
        <g id="Group_29466" data-name="Group 29466">
          <path id="Path_78274" data-name="Path 78274" d="M690.282,282.3h-9.9V265.108h9.9v2.986h-6.255v3.774h5.82v2.987h-5.82v4.432h6.255Z" transform="translate(-680.383 -264.003)" fill="#0ad2f5"/>
          <path id="Path_78275" data-name="Path 78275" d="M707.643,279.6l-4.232-6.431h4.068l2.551,4.186,2.575-4.186h4.068l-4.28,6.431,4.48,6.713h-4.08l-2.763-4.5-2.774,4.5h-4.068Z" transform="translate(-691.748 -268.021)" fill="#0ad2f5"/>
          <path id="Path_78276" data-name="Path 78276" d="M741.672,286.3a4.36,4.36,0,0,1-3.633-1.681h-.188q.188,1.646.188,1.9v5.326h-3.586v-18.92h2.916l.505,1.7h.165a4.148,4.148,0,0,1,3.727-1.952,4.266,4.266,0,0,1,3.645,1.8,8.321,8.321,0,0,1,1.317,5,9.858,9.858,0,0,1-.618,3.656,5.126,5.126,0,0,1-1.758,2.363A4.5,4.5,0,0,1,741.672,286.3Zm-1.058-10.758a2.265,2.265,0,0,0-1.94.817,4.693,4.693,0,0,0-.635,2.7v.388a5.544,5.544,0,0,0,.629,3.033,2.245,2.245,0,0,0,1.993.917q2.41,0,2.41-3.974a5.674,5.674,0,0,0-.594-2.91,2.026,2.026,0,0,0-1.863-.966Z" transform="translate(-707.329 -267.776)" fill="#0ad2f5"/>
          <path id="Path_78277" data-name="Path 78277" d="M768.414,281.2h-3.586V262.9h3.586Z" transform="translate(-722.467 -262.905)" fill="#0ad2f5"/>
          <path id="Path_78278" data-name="Path 78278" d="M790.628,279.474a7.063,7.063,0,0,1-1.693,5.02,6.139,6.139,0,0,1-4.714,1.81,6.594,6.594,0,0,1-3.339-.829,5.516,5.516,0,0,1-2.222-2.381,8,8,0,0,1-.776-3.621,7.025,7.025,0,0,1,1.681-5.008,6.175,6.175,0,0,1,4.726-1.787,6.629,6.629,0,0,1,3.339.823,5.494,5.494,0,0,1,2.222,2.363A7.927,7.927,0,0,1,790.628,279.474Zm-9.088,0a5.52,5.52,0,0,0,.641,2.951,2.292,2.292,0,0,0,2.087,1,2.255,2.255,0,0,0,2.064-.993,5.6,5.6,0,0,0,.629-2.957,5.426,5.426,0,0,0-.635-2.928,2.7,2.7,0,0,0-4.151-.006A5.43,5.43,0,0,0,781.54,279.474Z" transform="translate(-728.973 -267.776)" fill="#0ad2f5"/>
          <path id="Path_78279" data-name="Path 78279" d="M816.532,272.678a5.8,5.8,0,0,1,1.211.106l-.27,3.362a4.114,4.114,0,0,0-1.058-.117,3.8,3.8,0,0,0-2.675.882,3.186,3.186,0,0,0-.958,2.469v6.69H809.2V272.925h2.716l.529,2.211h.177a4.937,4.937,0,0,1,1.652-1.781,4.07,4.07,0,0,1,2.258-.677Z" transform="translate(-744.578 -267.776)" fill="#0ad2f5"/>
          <path id="Path_78280" data-name="Path 78280" d="M836.147,286.3a6.785,6.785,0,0,1-4.962-1.752,6.633,6.633,0,0,1-1.787-4.962,7.3,7.3,0,0,1,1.652-5.108,5.882,5.882,0,0,1,4.568-1.8,5.789,5.789,0,0,1,4.338,1.587,6,6,0,0,1,1.552,4.385v1.74h-8.477a3.452,3.452,0,0,0,.9,2.387,3.185,3.185,0,0,0,2.375.858,9.858,9.858,0,0,0,2.245-.247,11.223,11.223,0,0,0,2.21-.788v2.775a8.4,8.4,0,0,1-2.01.7,12.669,12.669,0,0,1-2.6.225Zm-.506-11.075a2.275,2.275,0,0,0-1.787.723,3.349,3.349,0,0,0-.74,2.051h5.032a2.988,2.988,0,0,0-.694-2.051,2.349,2.349,0,0,0-1.811-.719Z" transform="translate(-754.646 -267.776)" fill="#0ad2f5"/>
          <path id="Path_78281" data-name="Path 78281" d="M866.689,272.678a5.806,5.806,0,0,1,1.211.106l-.27,3.362a4.12,4.12,0,0,0-1.058-.117,3.8,3.8,0,0,0-2.675.882,3.188,3.188,0,0,0-.958,2.469v6.69h-3.586V272.925h2.716l.529,2.211h.177a4.937,4.937,0,0,1,1.652-1.781,4.073,4.073,0,0,1,2.262-.677Z" transform="translate(-769.574 -267.776)" fill="#0ad2f5"/>
        </g>
      </g>
      <g id="Pando">
        <g id="Group_29467" data-name="Group 29467">
          <path id="Path_78282" data-name="Path 78282" d="M531.258,270.469a5.254,5.254,0,0,1-1.734,4.244,7.417,7.417,0,0,1-4.932,1.47h-1.564V282.3h-3.644V265.108h5.49a7.3,7.3,0,0,1,4.756,1.346A4.908,4.908,0,0,1,531.258,270.469Zm-8.23,2.728h1.2a4,4,0,0,0,2.516-.664,2.326,2.326,0,0,0,.835-1.934,2.382,2.382,0,0,0-.7-1.893,3.275,3.275,0,0,0-2.193-.611h-1.658Z" transform="translate(-519.383 -264.003)" fill="#fff"/>
          <path id="Path_78283" data-name="Path 78283" d="M556.445,286.046l-.694-1.787h-.094a5.292,5.292,0,0,1-1.864,1.581,6.02,6.02,0,0,1-2.5.441,4.038,4.038,0,0,1-2.98-1.082,4.152,4.152,0,0,1-1.088-3.081,3.467,3.467,0,0,1,1.464-3.086,8.478,8.478,0,0,1,4.414-1.1l2.281-.071v-.576a1.788,1.788,0,0,0-2.046-2,9.319,9.319,0,0,0-3.7.953l-1.187-2.422a10.681,10.681,0,0,1,5.032-1.188,6.269,6.269,0,0,1,4.056,1.152,4.259,4.259,0,0,1,1.411,3.5v8.759Zm-1.058-6.09L554,280a4.439,4.439,0,0,0-2.328.564,1.772,1.772,0,0,0-.765,1.575q0,1.517,1.74,1.517a2.757,2.757,0,0,0,1.993-.717,2.52,2.52,0,0,0,.746-1.9Z" transform="translate(-533.259 -267.752)" fill="#fff"/>
          <path id="Path_78284" data-name="Path 78284" d="M590.087,286.07H586.5v-7.678a3.687,3.687,0,0,0-.506-2.134,1.84,1.84,0,0,0-1.611-.711,2.422,2.422,0,0,0-2.175,1.005,6.237,6.237,0,0,0-.67,3.333v6.185h-3.586V272.925h2.739l.482,1.681h.2a3.788,3.788,0,0,1,1.652-1.44,5.623,5.623,0,0,1,2.393-.488,4.6,4.6,0,0,1,3.48,1.241,4.975,4.975,0,0,1,1.188,3.58Z" transform="translate(-548.572 -267.776)" fill="#fff"/>
          <path id="Path_78285" data-name="Path 78285" d="M612.868,281.434a4.269,4.269,0,0,1-3.639-1.8,10.076,10.076,0,0,1,.024-10.023,4.371,4.371,0,0,1,3.709-1.8,4.287,4.287,0,0,1,3.786,1.928h.118a14.625,14.625,0,0,1-.27-2.622V262.9h3.6v18.3h-2.751l-.694-1.7H616.6A4.1,4.1,0,0,1,612.868,281.434Zm1.258-2.857a2.429,2.429,0,0,0,2.016-.8,4.648,4.648,0,0,0,.7-2.716v-.388a5.376,5.376,0,0,0-.653-3.033,2.423,2.423,0,0,0-2.122-.917,2.1,2.1,0,0,0-1.863,1.017,5.425,5.425,0,0,0-.665,2.957,5.143,5.143,0,0,0,.67,2.91,2.19,2.19,0,0,0,1.917.97Z" transform="translate(-563.499 -262.905)" fill="#fff"/>
          <path id="Path_78286" data-name="Path 78286" d="M651.026,279.474a7.063,7.063,0,0,1-1.693,5.02,6.138,6.138,0,0,1-4.714,1.81,6.592,6.592,0,0,1-3.339-.829,5.517,5.517,0,0,1-2.222-2.381,8,8,0,0,1-.776-3.621,7.023,7.023,0,0,1,1.682-5.008,6.174,6.174,0,0,1,4.726-1.787,6.632,6.632,0,0,1,3.339.823,5.5,5.5,0,0,1,2.222,2.363,7.928,7.928,0,0,1,.775,3.61Zm-9.088,0a5.515,5.515,0,0,0,.641,2.951,2.291,2.291,0,0,0,2.087,1,2.255,2.255,0,0,0,2.063-.993,5.6,5.6,0,0,0,.629-2.957,5.428,5.428,0,0,0-.635-2.928,2.7,2.7,0,0,0-4.15-.006A5.425,5.425,0,0,0,641.938,279.474Z" transform="translate(-578.637 -267.776)" fill="#fff"/>
        </g>
      </g>
    </g>
    <g id="Group_33301" data-name="Group 33301" transform="translate(389.866 232.799)">
      <g id="Group_29212" data-name="Group 29212" transform="translate(0 0)">
        <path id="Polygon_9" data-name="Polygon 9" d="M37.353,0a6,6,0,0,1,5.186,2.983L52.65,20.362a6,6,0,0,1,0,6.034L42.539,43.775a6,6,0,0,1-5.186,2.983h-20.3a6,6,0,0,1-5.186-2.983L1.755,26.4a6,6,0,0,1,0-6.034L11.866,2.983A6,6,0,0,1,17.052,0Z" transform="translate(0 0.03)" fill="url(#linear-gradient)"/>
        <g id="Group_29210" data-name="Group 29210" transform="translate(0.423 0)" opacity="0.35">
          <g id="Group_29198" data-name="Group 29198" transform="translate(0)">
            <path id="Path_78189" data-name="Path 78189" d="M291.9,259.8l-8.082,13.624c-2.326,5.137-3.263,3.957-6.811,4.049h-1.887A12.379,12.379,0,0,1,291.9,259.8Z" transform="translate(-241.075 -230.642)" opacity="0.6" fill="url(#linear-gradient-2)"/>
            <path id="Path_78190" data-name="Path 78190" d="M139.511,222.207h-9.93c-6.113.165-5.522-1.021-6.97-3.535l-9.275-15.856c-2.707-4.721-2.455-3.657-.73-6.737l4.027-6.9c2.684,2.462,7.879,4.432,9.437,12.164C128.631,214.049,133.229,217.636,139.511,222.207Z" transform="translate(-111.304 -175.375)" opacity="0.72" fill="url(#linear-gradient-2)"/>
            <path id="Path_78191" data-name="Path 78191" d="M230.92,133.413c-.315-.2-7.019-9.319-21.033-7.5-6.693.869-10.279-5.541-12.008-9.2a7.936,7.936,0,0,1,1.016-.065l18.437.069c3.125,0,3.845-.8,5.821,3.658Z" transform="translate(-180.618 -116.648)" opacity="0.65" fill="url(#linear-gradient-2)"/>
          </g>
        </g>
        <g id="Group_29211" data-name="Group 29211" transform="translate(14.768 10.599)">
          <g id="Group_18234" data-name="Group 18234" transform="translate(0 0)">
            <g id="Logo" transform="translate(0 0)">
              <g id="Group_116" data-name="Group 116">
                <path id="Path_145" data-name="Path 145" d="M236,179.009a22.234,22.234,0,0,0-3.146-4.709.471.471,0,0,0-.059.056,21.843,21.843,0,0,1,3.165,4.751A.283.283,0,0,1,236,179.009Z" transform="translate(-227.02 -174.3)" opacity="0.5" fill="url(#linear-gradient-5)"/>
                <path id="Path_146" data-name="Path 146" d="M236,179.009a22.234,22.234,0,0,0-3.146-4.709.471.471,0,0,0-.059.056,21.843,21.843,0,0,1,3.165,4.751A.283.283,0,0,1,236,179.009Z" transform="translate(-227.02 -174.3)" opacity="0.5" fill="url(#linear-gradient-5)"/>
                <path id="Path_147" data-name="Path 147" d="M232.8,335.591c.02.028.039.042.059.07a26.453,26.453,0,0,0,3.224-5.735l-.059-.127A26.6,26.6,0,0,1,232.8,335.591Z" transform="translate(-227.02 -307.942)" opacity="0.5" fill="url(#linear-gradient-5)"/>
                <path id="Path_148" data-name="Path 148" d="M232.8,335.591c.02.028.039.042.059.07a26.453,26.453,0,0,0,3.224-5.735l-.059-.127A26.6,26.6,0,0,1,232.8,335.591Z" transform="translate(-227.02 -307.942)" opacity="0.5" fill="url(#linear-gradient-5)"/>
                <path id="Path_149" data-name="Path 149" d="M267.9,333.615c.02.028.039.042.059.07a26.063,26.063,0,0,0,3.362-6.058l-.059-.126A28.085,28.085,0,0,1,267.9,333.615Z" transform="translate(-255.22 -305.966)" opacity="0.5" fill="url(#linear-gradient-5)"/>
                <path id="Path_150" data-name="Path 150" d="M267.9,333.615c.02.028.039.042.059.07a26.063,26.063,0,0,0,3.362-6.058l-.059-.126A28.085,28.085,0,0,1,267.9,333.615Z" transform="translate(-255.22 -305.966)" opacity="0.5" fill="url(#linear-gradient-5)"/>
                <path id="Path_151" data-name="Path 151" d="M271.242,179.29a22.688,22.688,0,0,0-3.283-4.99.473.473,0,0,0-.059.056,22.081,22.081,0,0,1,3.3,5.046A.337.337,0,0,1,271.242,179.29Z" transform="translate(-255.22 -174.3)" opacity="0.5" fill="url(#linear-gradient-5)"/>
                <path id="Path_152" data-name="Path 152" d="M271.242,179.29a22.688,22.688,0,0,0-3.283-4.99.473.473,0,0,0-.059.056,22.081,22.081,0,0,1,3.3,5.046A.337.337,0,0,1,271.242,179.29Z" transform="translate(-255.22 -174.3)" opacity="0.5" fill="url(#linear-gradient-5)"/>
                <path id="Path_153" data-name="Path 153" d="M304.359,174.4a.472.472,0,0,0-.059.056c10.95,12.693.845,26.5,0,27.579.02.028.039.042.059.07C304.359,202.105,315.84,187.627,304.359,174.4Z" transform="translate(-284.464 -174.386)" opacity="0.5" fill="url(#linear-gradient-5)"/>
                <path id="Path_154" data-name="Path 154" d="M304.359,174.4a.472.472,0,0,0-.059.056c10.95,12.693.845,26.5,0,27.579.02.028.039.042.059.07C304.359,202.105,315.84,187.627,304.359,174.4Z" transform="translate(-284.464 -174.386)" opacity="0.5" fill="url(#linear-gradient-5)"/>
                <path id="Path_155" data-name="Path 155" d="M209.18,174.456c-.02-.014-.02-.042-.039-.056,0,0-12.916,10.767,0,27.705a.725.725,0,0,1,.059-.07C196.873,185.814,208.236,175.272,209.18,174.456Z" transform="translate(-203.4 -174.386)" opacity="0.5" fill="url(#linear-gradient-5)"/>
                <path id="Path_156" data-name="Path 156" d="M212.631,179.551a21.841,21.841,0,0,0-3.165-4.751c-.944.829-12.307,11.372,0,27.579a26.6,26.6,0,0,0,3.224-5.791C209.21,189.166,210.645,183.318,212.631,179.551Z" transform="translate(-203.705 -174.73)" opacity="0.5" fill="url(#linear-gradient-5)"/>
                <path id="Path_157" data-name="Path 157" d="M212.631,179.551a21.841,21.841,0,0,0-3.165-4.751c-.944.829-12.307,11.372,0,27.579a26.6,26.6,0,0,0,3.224-5.791C209.21,189.166,210.645,183.318,212.631,179.551Z" transform="translate(-203.705 -174.73)" opacity="0.5" fill="url(#linear-gradient-5)"/>
                <g transform="matrix(1, 0, 0, 1, -14.77, -10.6)" filter="url(#Path_158)">
                  <path id="Path_158-2" data-name="Path 158" d="M212.631,179.551a21.841,21.841,0,0,0-3.165-4.751c-.944.829-12.307,11.372,0,27.579a26.6,26.6,0,0,0,3.224-5.791C209.21,189.166,210.645,183.318,212.631,179.551Z" transform="translate(-188.94 -164.13)" opacity="0.5" fill="url(#linear-gradient-5)"/>
                </g>
                <path id="Path_159" data-name="Path 159" d="M252.857,174.456c-.02-.014-.02-.042-.039-.056a17.114,17.114,0,0,0-3.617,4.709c.02.042.039.07.059.112A16.693,16.693,0,0,1,252.857,174.456Z" transform="translate(-240.196 -174.386)" opacity="0.5" fill="url(#linear-gradient-5)"/>
                <path id="Path_160" data-name="Path 160" d="M249.5,329.827a31.688,31.688,0,0,0,3.558,5.735.714.714,0,0,1,.059-.07,32.491,32.491,0,0,1-3.558-5.791A1.046,1.046,0,0,0,249.5,329.827Z" transform="translate(-240.437 -307.856)" opacity="0.5" fill="url(#linear-gradient-5)"/>
                <path id="Path_161" data-name="Path 161" d="M248.859,208.011a.6.6,0,0,1,.059-.1c-.02-.042-.039-.07-.059-.112a.819.819,0,0,0-.059.112C248.82,207.941,248.839,207.983,248.859,208.011Z" transform="translate(-239.875 -203.091)" opacity="0.5" fill="url(#linear-gradient-5)"/>
                <path id="Path_162" data-name="Path 162" d="M248.859,208.011a.6.6,0,0,1,.059-.1c-.02-.042-.039-.07-.059-.112a.819.819,0,0,0-.059.112C248.82,207.941,248.839,207.983,248.859,208.011Z" transform="translate(-239.875 -203.091)" opacity="0.5" fill="url(#linear-gradient-5)"/>
                <path id="Path_163" data-name="Path 163" d="M248.859,208.011a.6.6,0,0,1,.059-.1c-.02-.042-.039-.07-.059-.112a.819.819,0,0,0-.059.112C248.82,207.941,248.839,207.983,248.859,208.011Z" transform="translate(-239.875 -203.091)" opacity="0.5" fill="url(#linear-gradient-5)"/>
                <path id="Path_164" data-name="Path 164" d="M249.159,328.9l-.059.127.059.126.059-.126Z" transform="translate(-240.116 -307.169)" opacity="0.5" fill="url(#linear-gradient-5)"/>
                <path id="Path_165" data-name="Path 165" d="M249.159,328.9l-.059.127.059.126.059-.126Z" transform="translate(-240.116 -307.169)" opacity="0.5" fill="url(#linear-gradient-5)"/>
                <path id="Path_166" data-name="Path 166" d="M249.159,328.9l-.059.127.059.126.059-.126Z" transform="translate(-240.116 -307.169)" opacity="0.5" fill="url(#linear-gradient-5)"/>
                <path id="Path_167" data-name="Path 167" d="M256.32,179.746a21.741,21.741,0,0,0-3.3-5.046,17.557,17.557,0,0,0-3.617,4.751c3.106,6.424,1.848,12.693.059,17.036a32.493,32.493,0,0,0,3.558,5.791,27.138,27.138,0,0,0,3.342-6.115C253.175,189.094,254.433,183.471,256.32,179.746Z" transform="translate(-240.357 -174.644)" opacity="0.5" fill="url(#linear-gradient-5)"/>
                <path id="Path_168" data-name="Path 168" d="M256.32,179.746a21.741,21.741,0,0,0-3.3-5.046,17.557,17.557,0,0,0-3.617,4.751c3.106,6.424,1.848,12.693.059,17.036a32.493,32.493,0,0,0,3.558,5.791,27.138,27.138,0,0,0,3.342-6.115C253.175,189.094,254.433,183.471,256.32,179.746Z" transform="translate(-240.357 -174.644)" opacity="0.5" fill="url(#linear-gradient-5)"/>
                <g transform="matrix(1, 0, 0, 1, -14.77, -10.6)" filter="url(#Path_169)">
                  <path id="Path_169-2" data-name="Path 169" d="M256.32,179.746a21.741,21.741,0,0,0-3.3-5.046,17.557,17.557,0,0,0-3.617,4.751c3.106,6.424,1.848,12.693.059,17.036a32.493,32.493,0,0,0,3.558,5.791,27.138,27.138,0,0,0,3.342-6.115C253.175,189.094,254.433,183.471,256.32,179.746Z" transform="translate(-225.59 -164.04)" opacity="0.5" fill="url(#linear-gradient-5)"/>
                </g>
                <path id="Path_170" data-name="Path 170" d="M249.159,225.51l.059.126c1.789-4.343,3.047-10.613-.059-17.036-.02.028-.039.07-.059.1C252.128,215.024,250.909,221.195,249.159,225.51Z" transform="translate(-240.116 -203.779)" opacity="0.5" fill="url(#linear-gradient-5)"/>
                <path id="Path_171" data-name="Path 171" d="M249.159,225.51l.059.126c1.789-4.343,3.047-10.613-.059-17.036-.02.028-.039.07-.059.1C252.128,215.024,250.909,221.195,249.159,225.51Z" transform="translate(-240.116 -203.779)" opacity="0.5" fill="url(#linear-gradient-5)"/>
                <path id="Path_172" data-name="Path 172" d="M249.159,225.51l.059.126c1.789-4.343,3.047-10.613-.059-17.036-.02.028-.039.07-.059.1C252.128,215.024,250.909,221.195,249.159,225.51Z" transform="translate(-240.116 -203.779)" opacity="0.5" fill="url(#linear-gradient-5)"/>
                <path id="Path_173" data-name="Path 173" d="M249.159,225.51l.059.126c1.789-4.343,3.047-10.613-.059-17.036-.02.028-.039.07-.059.1C252.128,215.024,250.909,221.195,249.159,225.51Z" transform="translate(-240.116 -203.779)" opacity="0.5" fill="url(#linear-gradient-5)"/>
                <path id="Path_174" data-name="Path 174" d="M249.159,225.51l.059.126c1.789-4.343,3.047-10.613-.059-17.036-.02.028-.039.07-.059.1C252.128,215.024,250.909,221.195,249.159,225.51Z" transform="translate(-240.116 -203.779)" opacity="0.5" fill="url(#linear-gradient-5)"/>
                <path id="Path_175" data-name="Path 175" d="M240.449,208.7a.605.605,0,0,0-.059-.1c-2.005,3.767-3.421,9.629.059,17.036l.059-.126C237.127,218.229,238.483,212.452,240.449,208.7Z" transform="translate(-231.465 -203.779)" opacity="0.5" fill="url(#linear-gradient-5)"/>
                <path id="Path_176" data-name="Path 176" d="M240.449,208.7a.605.605,0,0,0-.059-.1c-2.005,3.767-3.421,9.629.059,17.036l.059-.126C237.127,218.229,238.483,212.452,240.449,208.7Z" transform="translate(-231.465 -203.779)" opacity="0.5" fill="url(#linear-gradient-5)"/>
                <path id="Path_177" data-name="Path 177" d="M240.449,208.7a.605.605,0,0,0-.059-.1c-2.005,3.767-3.421,9.629.059,17.036l.059-.126C237.127,218.229,238.483,212.452,240.449,208.7Z" transform="translate(-231.465 -203.779)" opacity="0.5" fill="url(#linear-gradient-5)"/>
                <path id="Path_178" data-name="Path 178" d="M240.449,208.7a.605.605,0,0,0-.059-.1c-2.005,3.767-3.421,9.629.059,17.036l.059-.126C237.127,218.229,238.483,212.452,240.449,208.7Z" transform="translate(-231.465 -203.779)" opacity="0.5" fill="url(#linear-gradient-5)"/>
                <path id="Path_179" data-name="Path 179" d="M240.909,209.3c-1.966,3.753-3.322,9.53.059,16.812C242.717,221.8,243.936,215.625,240.909,209.3Z" transform="translate(-231.924 -204.38)" opacity="0.5" fill="url(#linear-gradient-5)"/>
                <path id="Path_180" data-name="Path 180" d="M240.909,209.3c-1.966,3.753-3.322,9.53.059,16.812C242.717,221.8,243.936,215.625,240.909,209.3Z" transform="translate(-231.924 -204.38)" opacity="0.5" fill="url(#linear-gradient-5)"/>
                <path id="Path_181" data-name="Path 181" d="M240.909,209.3c-1.966,3.753-3.322,9.53.059,16.812C242.717,221.8,243.936,215.625,240.909,209.3Z" transform="translate(-231.924 -204.38)" opacity="0.5" fill="url(#linear-gradient-5)"/>
                <path id="Path_182" data-name="Path 182" d="M240.909,209.3c-1.966,3.753-3.322,9.53.059,16.812C242.717,221.8,243.936,215.625,240.909,209.3Z" transform="translate(-231.924 -204.38)" opacity="0.5" fill="url(#linear-gradient-5)"/>
                <path id="Path_183" data-name="Path 183" d="M240.909,209.3c-1.966,3.753-3.322,9.53.059,16.812C242.717,221.8,243.936,215.625,240.909,209.3Z" transform="translate(-231.924 -204.38)" opacity="0.5" fill="url(#linear-gradient-5)"/>
                <path id="Path_184" data-name="Path 184" d="M240.909,209.3c-1.966,3.753-3.322,9.53.059,16.812C242.717,221.8,243.936,215.625,240.909,209.3Z" transform="translate(-231.924 -204.38)" opacity="0.5" fill="url(#linear-gradient-5)"/>
                <path id="Path_185" data-name="Path 185" d="M285.2,327.527a33,33,0,0,0,3.716,6.058.729.729,0,0,1,.059-.07,32.245,32.245,0,0,1-3.716-6.115Z" transform="translate(-269.119 -305.88)" opacity="0.5" fill="url(#linear-gradient-5)"/>
                <path id="Path_186" data-name="Path 186" d="M288.714,174.456a.1.1,0,0,1-.039-.056,17.39,17.39,0,0,0-3.775,4.99c.02.042.039.07.059.112A17.368,17.368,0,0,1,288.714,174.456Z" transform="translate(-268.878 -174.386)" opacity="0.5" fill="url(#linear-gradient-5)"/>
                <path id="Path_187" data-name="Path 187" d="M284.559,210.025c.02-.042.039-.07.059-.112-.02-.042-.039-.07-.059-.112-.02.042-.039.07-.059.112A.189.189,0,0,1,284.559,210.025Z" transform="translate(-268.557 -204.81)" opacity="0.5" fill="url(#linear-gradient-5)"/>
                <path id="Path_188" data-name="Path 188" d="M284.559,210.025c.02-.042.039-.07.059-.112-.02-.042-.039-.07-.059-.112-.02.042-.039.07-.059.112A.189.189,0,0,1,284.559,210.025Z" transform="translate(-268.557 -204.81)" opacity="0.5" fill="url(#linear-gradient-5)"/>
                <path id="Path_189" data-name="Path 189" d="M284.559,210.025c.02-.042.039-.07.059-.112-.02-.042-.039-.07-.059-.112-.02.042-.039.07-.059.112A.189.189,0,0,1,284.559,210.025Z" transform="translate(-268.557 -204.81)" opacity="0.5" fill="url(#linear-gradient-5)"/>
                <path id="Path_190" data-name="Path 190" d="M284.959,326.5l-.059.126.059.126.059-.126A.187.187,0,0,1,284.959,326.5Z" transform="translate(-268.878 -305.106)" opacity="0.5" fill="url(#linear-gradient-5)"/>
                <path id="Path_191" data-name="Path 191" d="M284.959,326.5l-.059.126.059.126.059-.126A.187.187,0,0,1,284.959,326.5Z" transform="translate(-268.878 -305.106)" opacity="0.5" fill="url(#linear-gradient-5)"/>
                <path id="Path_192" data-name="Path 192" d="M284.959,326.5l-.059.126.059.126.059-.126A.187.187,0,0,1,284.959,326.5Z" transform="translate(-268.878 -305.106)" opacity="0.5" fill="url(#linear-gradient-5)"/>
                <path id="Path_193" data-name="Path 193" d="M288.875,174.8a18.127,18.127,0,0,0-3.775,5.046,20.447,20.447,0,0,1,.059,16.418,31.808,31.808,0,0,0,3.716,6.115C289.72,201.282,299.825,187.479,288.875,174.8Z" transform="translate(-269.039 -174.73)" opacity="0.5" fill="url(#linear-gradient-5)"/>
                <path id="Path_194" data-name="Path 194" d="M288.875,174.8a18.127,18.127,0,0,0-3.775,5.046,20.447,20.447,0,0,1,.059,16.418,31.808,31.808,0,0,0,3.716,6.115C289.72,201.282,299.825,187.479,288.875,174.8Z" transform="translate(-269.039 -174.73)" opacity="0.5" fill="url(#linear-gradient-5)"/>
                <g transform="matrix(1, 0, 0, 1, -14.77, -10.6)" filter="url(#Path_195)">
                  <path id="Path_195-2" data-name="Path 195" d="M288.875,174.8a18.127,18.127,0,0,0-3.775,5.046,20.447,20.447,0,0,1,.059,16.418,31.808,31.808,0,0,0,3.716,6.115C289.72,201.282,299.825,187.479,288.875,174.8Z" transform="translate(-254.27 -164.2)" opacity="0.5" fill="url(#linear-gradient-5)"/>
                </g>
                <path id="Path_196" data-name="Path 196" d="M284.959,226.891l.059.127a20.61,20.61,0,0,0-.059-16.418c-.02.042-.039.07-.059.112A20.62,20.62,0,0,1,284.959,226.891Z" transform="translate(-268.878 -205.497)" opacity="0.5" fill="url(#linear-gradient-5)"/>
                <path id="Path_197" data-name="Path 197" d="M284.959,226.891l.059.127a20.61,20.61,0,0,0-.059-16.418c-.02.042-.039.07-.059.112A20.62,20.62,0,0,1,284.959,226.891Z" transform="translate(-268.878 -205.497)" opacity="0.5" fill="url(#linear-gradient-5)"/>
                <path id="Path_198" data-name="Path 198" d="M284.959,226.891l.059.127a20.61,20.61,0,0,0-.059-16.418c-.02.042-.039.07-.059.112A20.62,20.62,0,0,1,284.959,226.891Z" transform="translate(-268.878 -205.497)" opacity="0.5" fill="url(#linear-gradient-5)"/>
                <path id="Path_199" data-name="Path 199" d="M284.959,226.891l.059.127a20.61,20.61,0,0,0-.059-16.418c-.02.042-.039.07-.059.112A20.62,20.62,0,0,1,284.959,226.891Z" transform="translate(-268.878 -205.497)" opacity="0.5" fill="url(#linear-gradient-5)"/>
                <path id="Path_200" data-name="Path 200" d="M284.959,226.891l.059.127a20.61,20.61,0,0,0-.059-16.418c-.02.042-.039.07-.059.112A20.62,20.62,0,0,1,284.959,226.891Z" transform="translate(-268.878 -205.497)" opacity="0.5" fill="url(#linear-gradient-5)"/>
                <path id="Path_201" data-name="Path 201" d="M276.771,210.712c-.02-.042-.039-.07-.059-.112-1.887,3.725-3.145,9.348.059,16.418l.059-.127C273.744,219.947,274.923,214.409,276.771,210.712Z" transform="translate(-260.769 -205.497)" opacity="0.5" fill="url(#linear-gradient-5)"/>
                <path id="Path_202" data-name="Path 202" d="M276.771,210.712c-.02-.042-.039-.07-.059-.112-1.887,3.725-3.145,9.348.059,16.418l.059-.127C273.744,219.947,274.923,214.409,276.771,210.712Z" transform="translate(-260.769 -205.497)" opacity="0.5" fill="url(#linear-gradient-5)"/>
                <path id="Path_203" data-name="Path 203" d="M276.771,210.712c-.02-.042-.039-.07-.059-.112-1.887,3.725-3.145,9.348.059,16.418l.059-.127C273.744,219.947,274.923,214.409,276.771,210.712Z" transform="translate(-260.769 -205.497)" opacity="0.5" fill="url(#linear-gradient-5)"/>
                <path id="Path_204" data-name="Path 204" d="M276.771,210.712c-.02-.042-.039-.07-.059-.112-1.887,3.725-3.145,9.348.059,16.418l.059-.127C273.744,219.947,274.923,214.409,276.771,210.712Z" transform="translate(-260.769 -205.497)" opacity="0.5" fill="url(#linear-gradient-5)"/>
                <path id="Path_205" data-name="Path 205" d="M277.231,211.4c-1.848,3.7-3.047,9.235.059,16.179A20.451,20.451,0,0,0,277.231,211.4Z" transform="translate(-261.228 -206.185)" opacity="0.5" fill="url(#linear-gradient-5)"/>
                <path id="Path_206" data-name="Path 206" d="M277.231,211.4c-1.848,3.7-3.047,9.235.059,16.179A20.451,20.451,0,0,0,277.231,211.4Z" transform="translate(-261.228 -206.185)" opacity="0.5" fill="url(#linear-gradient-5)"/>
                <path id="Path_207" data-name="Path 207" d="M277.231,211.4c-1.848,3.7-3.047,9.235.059,16.179A20.451,20.451,0,0,0,277.231,211.4Z" transform="translate(-261.228 -206.185)" opacity="0.5" fill="url(#linear-gradient-5)"/>
                <path id="Path_208" data-name="Path 208" d="M277.231,211.4c-1.848,3.7-3.047,9.235.059,16.179A20.451,20.451,0,0,0,277.231,211.4Z" transform="translate(-261.228 -206.185)" opacity="0.5" fill="url(#linear-gradient-5)"/>
                <path id="Path_209" data-name="Path 209" d="M277.231,211.4c-1.848,3.7-3.047,9.235.059,16.179A20.451,20.451,0,0,0,277.231,211.4Z" transform="translate(-261.228 -206.185)" opacity="0.5" fill="url(#linear-gradient-5)"/>
                <path id="Path_210" data-name="Path 210" d="M277.231,211.4c-1.848,3.7-3.047,9.235.059,16.179A20.451,20.451,0,0,0,277.231,211.4Z" transform="translate(-261.228 -206.185)" opacity="0.5" fill="url(#linear-gradient-5)"/>
              </g>
            </g>
          </g>
        </g>
      </g>
      <g id="Group_18221" data-name="Group 18221" transform="translate(20.538 15.255)">
        <path id="Path_70634" data-name="Path 70634" d="M9.866-116.294a8.319,8.319,0,0,1,1.256.234q.591.16,1.109.357v.714H5.481v-.714a4.673,4.673,0,0,1,1.01-.37q.517-.123,1.01-.222V-130.9a7.689,7.689,0,0,1-1.059-.259q-.493-.16-.961-.357v-.714H7.7q.985,0,2.143-.1t2.217-.1a10.815,10.815,0,0,1,2.365.259,5.862,5.862,0,0,1,2.057.875,4.609,4.609,0,0,1,1.453,1.638,5.3,5.3,0,0,1,.554,2.55,5.11,5.11,0,0,1-.567,2.488,4.949,4.949,0,0,1-1.515,1.7,6.527,6.527,0,0,1-2.156.973,10.027,10.027,0,0,1-2.488.308h-.382q-.259,0-.554-.012t-.567-.037q-.271-.025-.394-.049Zm1.675-14.854q-.591,0-.961.025a4.989,4.989,0,0,0-.714.1v7.982a1.172,1.172,0,0,0,.357.062q.234.012.493.037t.505.025h.394a5.52,5.52,0,0,0,1.626-.234,3.549,3.549,0,0,0,1.343-.751,3.721,3.721,0,0,0,.924-1.306,4.716,4.716,0,0,0,.345-1.9,3.828,3.828,0,0,0-1.145-3.03A4.622,4.622,0,0,0,11.541-131.148Z" transform="translate(-5.481 132.429)" fill="url(#linear-gradient)"/>
      </g>
    </g>
  </g>
</svg>
