<svg xmlns="http://www.w3.org/2000/svg" xmlns:xlink="http://www.w3.org/1999/xlink" width="54.405" height="48.377" viewBox="0 0 54.405 48.377">
  <defs>
    <linearGradient id="linear-gradient" x1="0.502" y1="1.002" x2="0.502" y2="-0.002" gradientUnits="objectBoundingBox">
      <stop offset="0" stop-color="#ffe93d"/>
      <stop offset="1" stop-color="#f15a24"/>
    </linearGradient>
  </defs>
  <g id="Pando_Explorer_copy" data-name="Pando Explorer copy" transform="translate(-389.866 -232.761)">
    <g id="Group_33298" data-name="Group 33298" transform="translate(388.925 232.761)">
      <g id="Group_33290" data-name="Group 33290">
        <g id="Group_29212" data-name="Group 29212">
          <path id="Polygon_9" data-name="Polygon 9" d="M38.766,0a6,6,0,0,1,5.186,2.983L54.533,21.171a6,6,0,0,1,0,6.034L43.952,45.394a6,6,0,0,1-5.186,2.983H17.523a6,6,0,0,1-5.186-2.983L1.755,27.2a6,6,0,0,1,0-6.034L12.337,2.983A6,6,0,0,1,17.523,0Z" fill="url(#linear-gradient)"/>
        </g>
        <path id="Path_86115" data-name="Path 86115" d="M1.579-8.539l1.343-.427a.544.544,0,0,0,.236-.144.407.407,0,0,0,.1-.292v-9.491a.378.378,0,0,0-.1-.279.565.565,0,0,0-.236-.14l-1.343-.445v-.637H6.621a8.133,8.133,0,0,1,1.81.192,4.541,4.541,0,0,1,1.474.6,2.942,2.942,0,0,1,.99,1.056A3.14,3.14,0,0,1,11.253-17a4.468,4.468,0,0,1-.314,1.714,3.688,3.688,0,0,1-.877,1.3,3.847,3.847,0,0,1-1.335.816,4.888,4.888,0,0,1-1.7.284,2.567,2.567,0,0,1-.467-.048,4.375,4.375,0,0,1-.519-.131,5.475,5.475,0,0,1-.515-.192,3.158,3.158,0,0,1-.445-.231V-9.4a.4.4,0,0,0,.1.292.577.577,0,0,0,.24.144l1.422.427v.654H1.579Zm3.507-5.636q.148.035.358.065t.436.048q.227.017.462.026t.445.009a2.861,2.861,0,0,0,.947-.14,2.239,2.239,0,0,0,.676-.366,1.923,1.923,0,0,0,.449-.515,2.845,2.845,0,0,0,.262-.571,2.871,2.871,0,0,0,.122-.537,3.665,3.665,0,0,0,.031-.427,3.988,3.988,0,0,0-.135-1.042,2.167,2.167,0,0,0-.475-.885,2.335,2.335,0,0,0-.929-.611,4.178,4.178,0,0,0-1.487-.227H5.086ZM16.427-8.539l1.439-.427a.513.513,0,0,0,.249-.144.419.419,0,0,0,.092-.292v-9.945h-2.88a.377.377,0,0,0-.249.083.386.386,0,0,0-.126.249L14.6-17.141H13.583V-20.4H24.662v3.254H23.641l-.349-1.876a.377.377,0,0,0-.131-.249.37.37,0,0,0-.236-.083H20.038V-9.4a.386.386,0,0,0,.1.292.622.622,0,0,0,.236.144l1.439.427v.654H16.427Zm10.093,0,1.047-.349a.925.925,0,0,0,.305-.2,2.664,2.664,0,0,0,.262-.292L31.6-13.991l-3.359-4.938q-.052-.07-.113-.14A1.389,1.389,0,0,0,28-19.2q-.07-.061-.14-.113a.521.521,0,0,0-.148-.079l-1.029-.366V-20.4h4.685v.637l-1.169.515,2.1,3.062.541,1.029h.052L35.75-19.2l-1.125-.558V-20.4H38.49v.637l-.968.366a.828.828,0,0,0-.284.183,2.39,2.39,0,0,0-.275.3l-3.341,4.484,3.455,5.06a2.2,2.2,0,0,0,.253.292.718.718,0,0,0,.279.179l1.012.358v.654H33.944v-.654l1.178-.506-2.181-3.21-.55-1h-.052L29.346-9.08l1.125.541v.654H26.52Z" transform="translate(7.894 38.216)" fill="#fff" stroke="#fff" stroke-width="0.8"/>
      </g>
    </g>
  </g>
</svg>
