<svg xmlns="http://www.w3.org/2000/svg" width="19.655" height="20.384" viewBox="0 0 19.655 20.384">
  <path id="Path_177" data-name="Path 177" d="M22.838,15.655a1.82,1.82,0,0,0-1.369.623L18.4,14.617a3.579,3.579,0,0,0,.251-1.329,3.64,3.64,0,0,0-1.216-2.73L20.4,7.041a1.362,1.362,0,0,0,.619.149,1.38,1.38,0,1,0-1.38-1.365,1.365,1.365,0,0,0,.218.728l-3.011,3.579a3.64,3.64,0,0,0-3.946.178L10.6,7.66a2.159,2.159,0,0,0,.586-1.471,2.184,2.184,0,1,0-1.161,1.933l2.326,2.683a3.6,3.6,0,0,0-.983,2.483,3.662,3.662,0,0,0,.029.451L7.668,14.832a1.456,1.456,0,1,0,.244.823.626.626,0,0,0,0-.116l3.64-1.085a3.64,3.64,0,0,0,2.184,2.253l-.619,3.316h-.109a2.184,2.184,0,1,0,.823.16l.633-3.3a3.305,3.305,0,0,0,.542.044,3.64,3.64,0,0,0,3.054-1.664L21.1,16.907a1.82,1.82,0,1,0,1.733-1.252Zm-6.706-.932a1.82,1.82,0,0,0,.7-1.434.364.364,0,0,1,.728,0,2.526,2.526,0,0,1-.979,2,.363.363,0,1,1-.448-.572Z" transform="translate(-5 -4.008)" fill="#fff"/>
</svg>
