<svg xmlns="http://www.w3.org/2000/svg" width="25.034" height="25.034" viewBox="0 0 25.034 25.034">
  <path id="Path_176" data-name="Path 176" d="M12.126,9.779a1.565,1.565,0,0,0,0,3.129h.782a.782.782,0,1,1,0,1.565h-.782a.782.782,0,0,1-.782-.782.391.391,0,1,0-.782,0,1.569,1.569,0,0,0,1.565,1.565v.391a.1.1,0,0,0,.008.047.386.386,0,0,0,.767,0,.1.1,0,0,0,.008-.047v-.391a1.565,1.565,0,0,0,0-3.129h-.782a.782.782,0,1,1,0-1.565h.782a.782.782,0,0,1,.782.782.391.391,0,1,0,.782,0,1.565,1.565,0,0,0-1.565-1.565V9.388a.1.1,0,0,0-.008-.047.386.386,0,0,0-.767,0,.1.1,0,0,0-.008.047ZM23.078,0H1.956A1.956,1.956,0,0,0,0,1.956V23.078a1.956,1.956,0,0,0,1.956,1.956H23.078a1.956,1.956,0,0,0,1.956-1.956V1.956A1.956,1.956,0,0,0,23.078,0ZM.782,1.956A1.173,1.173,0,0,1,1.956.782h10.17V2.237a2.256,2.256,0,1,0-1.08,4.381A2.129,2.129,0,0,0,12.11,6.61h.016v.837a5.108,5.108,0,0,0-4.678,4.678H6.024a.4.4,0,0,0-.344.2.419.419,0,0,0,.023.407.9.9,0,0,1,.133.305.184.184,0,0,0,.016.063,1.335,1.335,0,0,1,.008.681,1.474,1.474,0,0,1-2.91-.336A1.232,1.232,0,0,1,3,13.08a1.173,1.173,0,0,1,.156-.368.391.391,0,0,0-.008-.391.37.37,0,0,0-.336-.2H.782ZM12.517,8.214a3.19,3.19,0,0,1,.391.023A4.293,4.293,0,0,1,16.8,12.126a3.268,3.268,0,0,1,0,.782A4.293,4.293,0,0,1,12.908,16.8a3.268,3.268,0,0,1-.782,0,4.293,4.293,0,0,1-3.888-3.888,3.268,3.268,0,0,1,0-.782,4.293,4.293,0,0,1,3.888-3.888,3.19,3.19,0,0,1,.391-.023Zm-.2,13.659a.391.391,0,0,0-.2.344v2.034H1.956A1.173,1.173,0,0,1,.782,23.078V12.908H2.237a2,2,0,0,0-.07.54,2.253,2.253,0,0,0,.892,1.8,2.218,2.218,0,0,0,1.361.462,2.273,2.273,0,0,0,.641-.094,2.251,2.251,0,0,0,1.557-1.651,2.008,2.008,0,0,0-.008-1.033v-.023h.837a5.108,5.108,0,0,0,4.678,4.678V19a.4.4,0,0,0,.2.352.419.419,0,0,0,.407-.023,1.643,1.643,0,0,1,.258-.133.266.266,0,0,0,.11-.016,1.336,1.336,0,0,1,.681-.008,1.466,1.466,0,0,1,.837,2.323,1.372,1.372,0,0,1-1.541.532,1.173,1.173,0,0,1-.368-.156A.391.391,0,0,0,12.321,21.873Zm11.93,1.2a1.173,1.173,0,0,1-1.173,1.173H12.908V22.8a2,2,0,0,0,.54.07,2.253,2.253,0,0,0,1.8-.892,2.28,2.28,0,0,0,.368-2,2.251,2.251,0,0,0-1.651-1.557,2.034,2.034,0,0,0-1.04.008h-.016v-.837a5.108,5.108,0,0,0,4.678-4.678H19.01a.377.377,0,0,0,.336-.2.4.4,0,0,0-.008-.4,1.425,1.425,0,0,1-.141-.289.277.277,0,0,0-.016-.078,1.426,1.426,0,0,1-.008-.7,1.48,1.48,0,0,1,1.033-1.064,1.444,1.444,0,0,1,1.3.243,1.471,1.471,0,0,1,.579,1.173,1.486,1.486,0,0,1-.211.735.408.408,0,0,0,0,.391.391.391,0,0,0,.344.2h2.034Zm0-10.952H22.8a2.131,2.131,0,0,0,.07-.54,2.259,2.259,0,0,0-4.451-.54,2.129,2.129,0,0,0,.008,1.064v.016h-.837a5.108,5.108,0,0,0-4.678-4.678V6.032a.38.38,0,0,0-.2-.344.4.4,0,0,0-.4.008,1.421,1.421,0,0,1-.289.141.235.235,0,0,0-.078.016,1.426,1.426,0,0,1-.7.008,1.474,1.474,0,0,1-.821-2.331,1.442,1.442,0,0,1,1.909-.368.391.391,0,0,0,.587-.344V.782h10.17a1.173,1.173,0,0,1,1.173,1.173Z" fill="#fff"/>
</svg>
