<svg xmlns="http://www.w3.org/2000/svg" width="48" height="37.828" viewBox="0 0 48 37.828">
  <path id="Path_962" data-name="Path 962" d="M7.47,44.6a1,1,0,0,0,1,.84h3.36a1.016,1.016,0,0,0,.99-1.16L10.73,31.56h1.22c15.2,1.39,21.82,10.3,21.88,10.38a1,1,0,0,0,.82.42.79.79,0,0,0,.3-.05,1,1,0,0,0,.7-.95V30.21h2.09a1,1,0,0,0,1-1V22a1,1,0,0,0-1-1H35.65V9.91a.977.977,0,0,0-1.77-.56c-.07.1-7.33,9.6-22.06,10.43H5.62A3.12,3.12,0,0,0,2.5,22.86v5.58a3.11,3.11,0,0,0,2.84,3.09Zm3.18-1.16H9.31L7.37,31.56H8.71ZM36.74,23v5.17H35.65V23ZM33.65,12.51V38.72c-2.94-2.88-9.56-7.91-20.83-9.11V21.67a33.34,33.34,0,0,0,20.83-9.16ZM4.5,28.44V22.86a1.12,1.12,0,0,1,1.12-1.12h5.2v7.82H5.62A1.12,1.12,0,0,1,4.5,28.44Zm37.1-8.86a1,1,0,0,0,.91.58,1.06,1.06,0,0,0,.42-.09L49,17.33a1,1,0,1,0-.82-1.82L42.1,18.25a1,1,0,0,0-.5,1.33ZM44,7.89,39.5,12.8a1,1,0,0,0,1.47,1.36l4.5-4.92A1,1,0,0,0,44,7.89ZM49,32.4l-6.07-2.75a1,1,0,1,0-.83,1.82l6.08,2.75A1,1,0,0,0,49,32.4Zm-9.47,4.52L44,41.84a1,1,0,0,0,1.47-1.35L41,35.57a1,1,0,1,0-1.47,1.35ZM49.5,23.86H43.18a1,1,0,0,0,0,2H49.5a1,1,0,0,0,0-2Z" transform="translate(-2.5 -7.612)" fill="#fff"/>
</svg>
