<svg xmlns="http://www.w3.org/2000/svg" width="16.502" height="16.501" viewBox="0 0 16.502 16.501">
  <path id="Path_182" data-name="Path 182" d="M4.812,6.284a1.727,1.727,0,0,1,.517.077A14.146,14.146,0,0,1,7.376,4.478a1.752,1.752,0,0,1,.043-.965,12.92,12.92,0,0,0-2.7-1.483A8.3,8.3,0,0,0,2.4,4.165,12.91,12.91,0,0,0,4.052,6.458,1.738,1.738,0,0,1,4.812,6.284ZM3.056,8.039A1.761,1.761,0,0,1,3.2,7.346a14.268,14.268,0,0,1-1.52-2,8.246,8.246,0,0,0,.282,7.924A14,14,0,0,1,3.414,9.1a1.746,1.746,0,0,1-.358-1.06ZM9.083,2.315a1.747,1.747,0,0,1,1.2.474,13.97,13.97,0,0,1,2.883-.89,8.247,8.247,0,0,0-7.016-.572A14.133,14.133,0,0,1,8.19,2.56a1.735,1.735,0,0,1,.892-.246Zm2.624,8.267a1.74,1.74,0,0,1,.456-.588,12.856,12.856,0,0,0-2.4-4.307,1.754,1.754,0,0,1-1.7-.189A12.863,12.863,0,0,0,6.3,7.114a1.731,1.731,0,0,1,.186,1.45,12.781,12.781,0,0,0,5.22,2.018Zm2.277,2.37a14.234,14.234,0,0,1-.073,2.764,8.265,8.265,0,0,0,3-4.16,13.8,13.8,0,0,1-1.956.327,1.756,1.756,0,0,1-.973,1.069ZM11.3,11.762A14.028,14.028,0,0,1,5.727,9.535a1.751,1.751,0,0,1-1.276.222,12.751,12.751,0,0,0-1.434,4.918,8.253,8.253,0,0,0,2.82,1.977,14.045,14.045,0,0,1,5.459-4.89Zm3.293-8.827a12.821,12.821,0,0,0-3.76.958,1.745,1.745,0,0,1-.171.947A14.062,14.062,0,0,1,13.32,9.585a1.759,1.759,0,0,1,1.587,1.072,12.768,12.768,0,0,0,2.312-.452,8.231,8.231,0,0,0-2.63-7.269ZM12.179,12.7a12.816,12.816,0,0,0-5.132,4.355,8.255,8.255,0,0,0,5.485-.524,12.814,12.814,0,0,0,.26-2.573c0-.318-.014-.634-.039-.946a1.725,1.725,0,0,1-.574-.312Z" transform="translate(-0.8 -0.8)" fill="#fff"/>
</svg>
