<svg xmlns="http://www.w3.org/2000/svg" width="25.665" height="23.086" viewBox="0 0 25.665 23.086">
  <path id="Path_847" data-name="Path 847" d="M19.248,8.7H15.4V1H10.266V8.7H6.416l6.416,6.416Zm5.567,8.382c-.269-.287-2.067-2.211-2.581-2.713a1.929,1.929,0,0,0-1.337-.536H18.642l3.932,3.842H18.026a.352.352,0,0,0-.308.171l-1.047,2.4H8.993l-1.047-2.4a.354.354,0,0,0-.308-.171H3.09l3.93-3.842H4.767a1.934,1.934,0,0,0-1.337.536c-.513.5-2.311,2.427-2.581,2.713-.627.669-.973,1.2-.808,1.859l.72,3.945a1.719,1.719,0,0,0,1.607,1.2H23.3a1.719,1.719,0,0,0,1.607-1.2l.72-3.945c.162-.658-.182-1.191-.811-1.859Z" transform="translate(0 -1)" fill="#f0f4f5"/>
</svg>
