<svg id="PTX_LOGO" data-name="PTX LOGO" xmlns="http://www.w3.org/2000/svg" xmlns:xlink="http://www.w3.org/1999/xlink" width="33.997" height="33.997" viewBox="0 0 33.997 33.997">
  <defs>
    <linearGradient id="linear-gradient" x1="-0.146" y1="0.298" x2="0.878" y2="0.618" gradientUnits="objectBoundingBox">
      <stop offset="0.001" stop-color="#ffee82"/>
      <stop offset="0.421" stop-color="#dea301"/>
      <stop offset="0.802" stop-color="#fbe779"/>
      <stop offset="1" stop-color="#e7b836"/>
    </linearGradient>
    <linearGradient id="linear-gradient-2" x1="0.632" y1="-0.147" x2="0.474" y2="0.627" xlink:href="#linear-gradient"/>
    <linearGradient id="linear-gradient-3" x1="1.355" y1="-0.113" x2="-0.072" y2="0.91" xlink:href="#linear-gradient"/>
    <linearGradient id="linear-gradient-4" x1="1.134" y1="0.218" x2="-0.541" y2="2.039" xlink:href="#linear-gradient"/>
  </defs>
  <circle id="Ellipse_1" data-name="Ellipse 1" cx="16.999" cy="16.999" r="16.999" transform="translate(0 0)" fill="url(#linear-gradient)"/>
  <circle id="Ellipse_2" data-name="Ellipse 2" cx="13.68" cy="13.68" r="13.68" transform="translate(3.319 3.319)" fill="url(#linear-gradient-2)"/>
  <circle id="Ellipse_3" data-name="Ellipse 3" cx="12.895" cy="12.895" r="12.895" transform="translate(4.104 4.104)" fill="url(#linear-gradient-3)"/>
  <g id="Group_4445" data-name="Group 4445" transform="translate(6.638 6.053)">
    <path id="Path_8387" data-name="Path 8387" d="M211.4,276.6s5.313.244,5.769-2.45A10.568,10.568,0,0,0,217,269.5s-4.952.233-4.942,4.454S211.4,276.6,211.4,276.6Z" transform="translate(-204.115 -261.577)" fill="#9f8100"/>
    <path id="Path_8388" data-name="Path 8388" d="M209.848,275.5l-.021-10.424A3.2,3.2,0,0,1,213,261.88l8.674-.021a2.486,2.486,0,0,0-1.739-2.259l-6.776.021a5.9,5.9,0,0,0-5.557,5.938l.021,7.731A2.172,2.172,0,0,0,209.848,275.5Z" transform="translate(-200.718 -252.727)" fill="#9f8100"/>
    <path id="Path_8389" data-name="Path 8389" d="M144.333,210.7c.965,0,6.893-.021,6.893-.021a5.688,5.688,0,0,0,5.557-5.588l-.021-10.307c-2.174-.053-2.227,1.273-2.227,1.273l.021,9.523a2.9,2.9,0,0,1-3.181,2.831l-8.674.021C142.711,208.435,143.124,210.7,144.333,210.7Z" transform="translate(-142.7 -194.785)" fill="#9f8100"/>
    <path id="Path_8390" data-name="Path 8390" d="M214.789,259.7h-1.633a5.9,5.9,0,0,0-5.557,5.938l.021,7.73a2.177,2.177,0,0,0,2.238,2.216l-.021-10.424a3.2,3.2,0,0,1,3.171-3.192" transform="translate(-200.718 -252.816)" fill="#9f8100"/>
    <path id="Path_8391" data-name="Path 8391" d="M214.611,259.69c-2.174-.053-2.227,1.707-2.227,1.707v2.216a2.9,2.9,0,0,1-3.181,2.831h-1.8s.414,2.269,1.622,2.269h.021" transform="translate(-200.539 -252.806)" fill="#9f8100"/>
  </g>
  <g id="Group_4446" data-name="Group 4446" transform="translate(6.416 5.82)">
    <path id="Path_8392" data-name="Path 8392" d="M209.4,274.4s5.313.244,5.769-2.45A10.568,10.568,0,0,0,215,267.3s-4.952.233-4.942,4.454S209.4,274.4,209.4,274.4Z" transform="translate(-202.104 -259.377)" fill="url(#linear-gradient-4)"/>
    <path id="Path_8393" data-name="Path 8393" d="M207.848,273.3l-.021-10.424A3.2,3.2,0,0,1,211,259.68l8.674-.021a2.487,2.487,0,0,0-1.739-2.259l-6.776.021a5.9,5.9,0,0,0-5.557,5.938l.021,7.731A2.153,2.153,0,0,0,207.848,273.3Z" transform="translate(-198.707 -250.527)" fill="#fff"/>
    <path id="Path_8394" data-name="Path 8394" d="M142.233,208.5c.965,0,6.893-.021,6.893-.021a5.589,5.589,0,0,0,5.557-5.588l-.021-10.307c-2.174-.053-2.227,1.273-2.227,1.273l.021,9.523a2.9,2.9,0,0,1-3.181,2.831l-8.674.021C140.621,206.245,141.035,208.515,142.233,208.5Z" transform="translate(-140.6 -192.585)" fill="#fff"/>
    <path id="Path_8395" data-name="Path 8395" d="M212.789,257.5h-1.633a5.9,5.9,0,0,0-5.557,5.938l.021,7.731a2.177,2.177,0,0,0,2.238,2.216l-.021-10.424a3.2,3.2,0,0,1,3.171-3.192" transform="translate(-198.707 -250.616)" fill="#fff"/>
    <path id="Path_8396" data-name="Path 8396" d="M206.944,266.514h.021a5.589,5.589,0,0,0,5.557-5.588l-.011-3.436c-2.174-.053-2.227,1.707-2.227,1.707v2.216a2.9,2.9,0,0,1-3.181,2.831h-1.8C205.332,264.245,205.745,266.514,206.944,266.514Z" transform="translate(-198.439 -250.606)" fill="#fff"/>
  </g>
</svg>
