<?xml version="1.0" encoding="utf-8"?>
<!-- Generator: Adobe Illustrator 25.0.0, SVG Export Plug-In . SVG Version: 6.00 Build 0)  -->
<svg version="1.1" id="Capa_1" xmlns="http://www.w3.org/2000/svg" xmlns:xlink="http://www.w3.org/1999/xlink" x="0px" y="0px"
	 viewBox="0 0 512 512" style="enable-background:new 0 0 512 512;" xml:space="preserve">
<style type="text/css">
	.st0{fill:#344149;}
	.st1{fill:#7E97B0;}
	.st2{fill:#93B3CE;}
</style>
<path class="st0" d="M142.8,332.9l88.9,53.6l88.3-13.6l43.6-50.1l4.3,31.9l-11.7,24.2c0,0-53.7,60.6-119,44.6s-103.1-39.5-102.5-70
	S142.8,332.9,142.8,332.9z"/>
<g>
	<g>
		<path class="st1" d="M165.8,259.3c-21.3,14.5-34.4,34.3-34.4,56.1c0,44.2,54,80.2,120.4,80.2s120.4-36,120.4-80.2
			c0-36.3-36.4-67.1-86.1-76.9l1.2,8.4c44.7,9.6,77,36.7,77,68.5c0,39.8-50.4,72.2-112.3,72.2s-112.3-32.4-112.3-72.2
			c0-19.1,11.6-36.5,30.6-49.5"/>
	</g>
</g>
<g>
	<g>
		<path class="st1" d="M270.1,264.3c41.6,5,74,26.3,74,51.1c0,28.3-42.3,52.2-92.3,52.2s-92.3-23.9-92.3-52.2
			c0-12.5,8.2-24.1,21.7-33.2l-10-19.2c-23.3,16-39.8,36-39.8,52.4c0,32.6,66,80.2,120.4,80.2s120.4-47.6,120.4-80.2
			c0-21.1-27.7-48.6-62-65.3"/>
	</g>
</g>
<g>
	<g>
		<path class="st1" d="M372.2,347.5v-32.1h-8c0,39.8-50.4,72.2-112.3,72.2s-112.3-32.4-112.3-72.2h-8v32.1
			c0,44.2,54,80.2,120.4,80.2S372.2,391.8,372.2,347.5z M139.5,347.5v-3.3c17.4,30.1,61.2,51.4,112.3,51.4s94.9-21.4,112.3-51.4v3.3
			c0,39.8-50.4,72.2-112.3,72.2S139.5,387.3,139.5,347.5z"/>
	</g>
</g>
<g>
	<g>
		<path class="st1" d="M163.5,360l-1.4-1.2c-14.8-12.6-22.7-27.6-22.7-43.4h-8v32.1c0,18.2,8.8,35.3,25.5,49.5l6.6,5.6V360z
			 M139.5,347.5v-3.1c3.9,6.8,9.3,13.3,16,19.2v20.9C145,373.4,139.5,360.7,139.5,347.5z"/>
	</g>
</g>
<g>
	<g>
		<path class="st1" d="M231.7,386.5l-3.5-0.5c-14-1.9-27.1-5.5-39.1-10.7l-5.6-2.4v40.8l2.4,1.1c12.6,5.5,26.5,9.3,41.2,11.3
			l4.6,0.6L231.7,386.5L231.7,386.5z M191.6,408.4V385c10.1,3.9,20.8,6.7,32.1,8.5v24C212.4,415.5,201.6,412.5,191.6,408.4z"/>
	</g>
</g>
<g>
	<g>
		<path class="st1" d="M276.4,426.1c14.7-2,28.6-5.8,41.2-11.3l2.4-1v-40.8l-5.6,2.4c-11.9,5.2-25.1,8.8-39.1,10.7l-3.5,0.5v40.2
			L276.4,426.1z M279.9,393.5c11.3-1.8,22.1-4.6,32.1-8.5v23.5c-10,4.1-20.7,7.1-32.1,9V393.5z"/>
	</g>
</g>
<g>
	<g>
		<path class="st1" d="M346.7,397c16.7-14.2,25.5-31.3,25.5-49.5v-32.1h-8c0,15.7-7.8,30.7-22.7,43.4l-1.4,1.2v42.6L346.7,397z
			 M348.1,363.6c6.7-6,12.1-12.4,16-19.2v3.1c0,13.2-5.5,25.9-16,37.1V363.6z"/>
	</g>
</g>
<path class="st0" d="M283.5,95.6c0,0,69.3,58.7,8.2,152.9s-90.5,48.2-90.5,48.2l12.4,18.7l18,6.4l5.4,1.4c0,0,35.3-6.8,44.8-14.4
	c9.4-7.6,53.8-43,64.8-99.4c11-56.4,0.8-76.7-24-101.8L283.5,95.6z"/>
<g>
	<g>
		<path class="st1" d="M241.2,296.7l-1.7,0.8c-17.6,8.3-34.5,9.2-48.8,2.7l-3.3,7.3l29.2,13.3c16.5,7.5,35.7,6.5,55.6-2.8l7.9-3.7
			L241.2,296.7z M220,313.4l-2.8-1.3c7.8-0.8,15.9-3,24.1-6.7l19.1,8.6C245.8,319.1,232,318.9,220,313.4z"/>
	</g>
</g>
<g>
	<g>
		<path class="st1" d="M293.6,245.5l-1.9,3c-7.5,11.9-16.2,22.4-25.9,31.2l-4.5,4.1l37.2,16.9l2-1.8c10.2-9.2,19.4-20.3,27.3-32.8
			l2.5-3.9L293.6,245.5L293.6,245.5z M297,291.1l-21.4-9.7c7.7-7.6,14.7-16.2,21-25.7l21.8,9.9C312,275.2,304.8,283.7,297,291.1z"/>
	</g>
</g>
<g>
	<g>
		<path class="st1" d="M348.1,221.2c4.2-14.2,6.5-28.4,6.7-42.2l0-2.6l-37.2-16.9l-0.1,6.1c-0.2,13-2.4,26.5-6.4,40l-1,3.4
			l36.6,16.6L348.1,221.2z M319.8,204.5c3-11,4.9-22,5.5-32.7l21.4,9.7c-0.4,10.8-2.1,21.8-5.1,33L319.8,204.5z"/>
	</g>
</g>
<g>
	<g>
		<path class="st1" d="M350.6,145.2c-6.1-21.1-18-36.1-34.5-43.6l-29.2-13.3l-3.3,7.3c14.3,6.5,24.7,19.8,30.1,38.5l0.5,1.8
			l38.8,17.6L350.6,145.2z M320.8,130.1c-2.6-8.6-6.3-16.2-10.9-22.6l2.8,1.3c12,5.5,21.3,15.7,27.1,29.9L320.8,130.1z"/>
	</g>
</g>
<g>
	<g>
		<path class="st1" d="M316.1,101.5l-29.2-13.3l-3.3,7.3c36.3,16.5,44.9,75.7,19.4,132.1c-25.6,56.4-75.9,88.9-112.2,72.5l-3.3,7.3
			l29.2,13.3c40.3,18.3,95.4-16,122.8-76.5S356.4,119.8,316.1,101.5z M219.9,313.4l-3-1.4c34.6-3.4,72.1-34.5,93.2-81.1
			s19.8-95.3-0.4-123.5l3,1.4c36.3,16.5,44.9,75.7,19.4,132.1C306.5,297.4,256.2,329.9,219.9,313.4z"/>
	</g>
</g>
<g>
	<g>
		<path class="st2" d="M286.9,88.3c-40.3-18.3-95.4,16-122.8,76.5s-16.9,124.5,23.3,142.8c40.3,18.3,95.4-16,122.8-76.5
			S327.2,106.5,286.9,88.3z M190.7,300.2c-36.3-16.5-44.9-75.7-19.4-132.1s75.9-88.9,112.2-72.5s44.9,75.7,19.4,132.1
			S227,316.6,190.7,300.2z"/>
	</g>
</g>
<g>
	<g>
		<path class="st2" d="M286.9,88.3c-29.7-13.5-100.3,26.9-122.8,76.5s-6.4,129.3,23.3,142.8s90.5-17.5,117.8-77.1
			C332.4,170.8,316.6,101.7,286.9,88.3z M199,281.9c-25.7-11.7-30-60-9.4-105.6s59.9-74.2,85.6-62.5c25.7,11.7,30,60,9.4,105.6
			C264,265,224.8,293.6,199,281.9z"/>
	</g>
</g>
</svg>
