<?xml version="1.0" encoding="utf-8"?>
<!-- Generator: Adobe Illustrator 25.0.0, SVG Export Plug-In . SVG Version: 6.00 Build 0)  -->
<svg version="1.1" id="Layer_1" xmlns="http://www.w3.org/2000/svg" xmlns:xlink="http://www.w3.org/1999/xlink" x="0px" y="0px"
	 viewBox="0 0 512 512" style="enable-background:new 0 0 512 512;" xml:space="preserve">
<style type="text/css">
	.st0{fill:#8FADC6;}
	.st1{fill:#647B8E;}
	.st2{fill:#6B7F8E;}
</style>
<g>
	<g>
		<g>
			<path class="st0" d="M256,477.8H100.2c-41.1,0-74.5-33.4-74.5-74.5V108.7c0-41.1,33.4-74.5,74.5-74.5H256v37H100.2
				c-20.7,0-37.5,16.8-37.5,37.5v294.6c0,20.7,16.8,37.5,37.5,37.5H256V477.8z"/>
			<path class="st0" d="M264,485.8H100.2c-45.5,0-82.5-37-82.5-82.5V108.7c0-45.5,37-82.5,82.5-82.5H264v53H100.2
				c-16.3,0-29.5,13.2-29.5,29.5v294.6c0,16.3,13.2,29.5,29.5,29.5H264V485.8z M100.2,42.2c-36.7,0-66.5,29.8-66.5,66.5v294.6
				c0,36.7,29.8,66.5,66.5,66.5H248v-21H100.2c-25.1,0-45.5-20.4-45.5-45.5V108.7c0-25.1,20.4-45.5,45.5-45.5H248v-21H100.2z"/>
		</g>
	</g>
	<g>
		<g>
			<path class="st1" d="M411.8,477.8H256v-37h155.8c20.7,0,37.5-16.8,37.5-37.5V108.7c0-20.7-16.8-37.5-37.5-37.5H256v-37h155.8
				c41.1,0,74.5,33.4,74.5,74.5v294.6C486.3,444.4,452.8,477.8,411.8,477.8z"/>
			<path class="st1" d="M411.8,485.8H248v-53h163.8c16.3,0,29.5-13.2,29.5-29.5V108.7c0-16.3-13.2-29.5-29.5-29.5H248v-53h163.8
				c45.5,0,82.5,37,82.5,82.5v294.6C494.3,448.8,457.3,485.8,411.8,485.8z M264,469.8h147.8c36.7,0,66.5-29.8,66.5-66.5V108.7
				c0-36.7-29.8-66.5-66.5-66.5H264v21h147.8c25.1,0,45.5,20.4,45.5,45.5v294.6c0,25.1-20.4,45.5-45.5,45.5H264V469.8z"/>
		</g>
	</g>
</g>
<g>
	<path class="st2" d="M368.7,243.1H143.3c-5.9,0-11.2-3.5-13.4-9c-2.2-5.4-1-11.7,3.1-15.8l50.3-50.3c5.7-5.7,14.8-5.7,20.5,0
		c5.7,5.7,5.7,14.8,0,20.5l-25.5,25.5h190.3c8,0,14.5,6.5,14.5,14.5S376.7,243.1,368.7,243.1z"/>
</g>
<g>
	<path class="st0" d="M143.3,276.8h225.3c5.9,0,11.2,3.5,13.4,9c2.2,5.4,1,11.7-3.1,15.8l-50.3,50.3c-5.7,5.7-14.8,5.7-20.5,0
		c-5.7-5.7-5.7-14.8,0-20.5l25.5-25.5H143.3c-8,0-14.5-6.5-14.5-14.5S135.3,276.8,143.3,276.8z"/>
</g>
</svg>
