<svg xmlns="http://www.w3.org/2000/svg" width="49.562" height="71.589" viewBox="0 0 49.562 71.589">
  <path id="Icon_map-book-store" data-name="Icon map-book-store" d="M56.042,60.579V7.665a6.228,6.228,0,0,0-6.2-6.225H12.675a6.228,6.228,0,0,0-6.2,6.225V66.8a6.228,6.228,0,0,0,6.2,6.225H49.846c2.878,0,6.2,0,6.2-3.113V68.36H14.224a3.114,3.114,0,0,1-3.1-3.113V60.579H56.042ZM14.224,13.89a1.557,1.557,0,0,1,1.549-1.556H46.749A1.557,1.557,0,0,1,48.3,13.89V17a1.557,1.557,0,0,1-1.549,1.556H15.773A1.557,1.557,0,0,1,14.224,17V13.89Zm0,12.45a1.557,1.557,0,0,1,1.549-1.556H46.749A1.557,1.557,0,0,1,48.3,26.34v3.113a1.557,1.557,0,0,1-1.549,1.556H15.773a1.557,1.557,0,0,1-1.549-1.556V26.34Z" transform="translate(-6.48 -1.44)" fill="#01f2e9"/>
</svg>
