<svg xmlns="http://www.w3.org/2000/svg" width="43.534" height="43.534" viewBox="0 0 43.534 43.534">
  <path id="Icon_awesome-coins" data-name="Icon awesome-coins" d="M0,34.461v3.631c0,3,7.312,5.442,16.325,5.442s16.325-2.44,16.325-5.442V34.461c-3.512,2.474-9.931,3.631-16.325,3.631S3.512,36.936,0,34.461ZM27.209,10.883c9.013,0,16.325-2.44,16.325-5.442S36.221,0,27.209,0,10.883,2.44,10.883,5.442,18.2,10.883,27.209,10.883ZM0,25.542v4.387c0,3,7.312,5.442,16.325,5.442s16.325-2.44,16.325-5.442V25.542c-3.512,2.891-9.94,4.387-16.325,4.387S3.512,28.433,0,25.542Zm35.371.935c4.872-.944,8.163-2.7,8.163-4.71V18.136a20.88,20.88,0,0,1-8.163,2.933ZM16.325,13.6C7.312,13.6,0,16.648,0,20.406s7.312,6.8,16.325,6.8,16.325-3.044,16.325-6.8S25.338,13.6,16.325,13.6Zm18.646,4.787c5.1-.918,8.562-2.721,8.562-4.787V9.974c-3.018,2.134-8.205,3.282-13.664,3.554C32.378,14.744,34.223,16.376,34.972,18.391Z" fill="#fff"/>
</svg>
