<svg xmlns="http://www.w3.org/2000/svg" width="43.068" height="61.91" viewBox="0 0 43.068 61.91">
  <path id="Icon_awesome-sim-card" data-name="Icon awesome-sim-card" d="M0,7.739V54.171A7.481,7.481,0,0,0,7.178,61.91H35.89a7.481,7.481,0,0,0,7.178-7.739V15.477L28.712,0H7.178A7.481,7.481,0,0,0,0,7.739ZM25.123,30.955H17.945V23.216h7.178Zm10.767,0H28.712V23.216H32.3a3.733,3.733,0,0,1,3.589,3.869ZM28.712,46.432H35.89V50.3A3.733,3.733,0,0,1,32.3,54.171H28.712Zm-10.767,0h7.178v7.739H17.945Zm-10.767,0h7.178v7.739H10.767A3.733,3.733,0,0,1,7.178,50.3Zm0-11.608H35.89v7.739H7.178Zm0-7.739a3.733,3.733,0,0,1,3.589-3.869h3.589v7.739H7.178Z" fill="#01f2e9"/>
</svg>
