<svg xmlns="http://www.w3.org/2000/svg" width="62.231" height="81.07" viewBox="0 0 62.231 81.07">
  <g id="KEYSTORE" transform="translate(-284.5 -121.1)">
    <path id="Path_568" data-name="Path 568" d="M339.471,146.437v52.405a4.79,4.79,0,0,1-4.777,4.777H289.277a4.79,4.79,0,0,1-4.777-4.777V136.277a4.79,4.79,0,0,1,4.777-4.777h35.257" transform="translate(0 -8.23)" fill="#4d21d6"/>
    <path id="Path_569" data-name="Path 569" d="M349.871,136.037v52.405a4.79,4.79,0,0,1-4.777,4.777H299.677a4.79,4.79,0,0,1-4.777-4.777V125.877a4.79,4.79,0,0,1,4.777-4.777h35.257" transform="translate(-8.23)" fill="#b88bfe"/>
    <g id="Group_667" data-name="Group 667" transform="translate(294.097 131.218)">
      <g id="Group_663" data-name="Group 663">
        <path id="Path_570" data-name="Path 570" d="M333.108,182.041v-8.95H330.5V171.86c1.523-.1,2.8-.584,3.192-1.46h1.314v11.641Z" transform="translate(-330.5 -170.233)" fill="#7634f4"/>
        <path id="Path_571" data-name="Path 571" d="M367.433,172.542v6.092a3.069,3.069,0,0,1-6.133,0v-6.092a3.069,3.069,0,0,1,6.133,0Zm-4.214.021v6.05c0,.855.417,1.335,1.168,1.335s1.168-.459,1.168-1.335v-6.05c0-.855-.417-1.335-1.168-1.335S363.219,171.686,363.219,172.562Z" transform="translate(-354.874 -169.6)" fill="#7634f4"/>
        <path id="Path_572" data-name="Path 572" d="M399.108,182.041v-8.95H396.5V171.86c1.523-.1,2.8-.584,3.192-1.46h1.314v11.641Z" transform="translate(-382.731 -170.233)" fill="#7634f4"/>
        <path id="Path_573" data-name="Path 573" d="M433.533,172.542v6.092a3.069,3.069,0,0,1-6.133,0v-6.092a3.069,3.069,0,0,1,6.133,0Zm-4.214.021v6.05c0,.855.417,1.335,1.168,1.335s1.168-.459,1.168-1.335v-6.05c0-.855-.417-1.335-1.168-1.335C429.716,171.227,429.319,171.686,429.319,172.562Z" transform="translate(-407.185 -169.6)" fill="#7634f4"/>
        <path id="Path_574" data-name="Path 574" d="M465.208,182.041v-8.95H462.6V171.86c1.523-.1,2.8-.584,3.192-1.46h1.314v11.641Z" transform="translate(-435.041 -170.233)" fill="#7634f4"/>
        <path id="Path_575" data-name="Path 575" d="M499.633,172.542v6.092a3.069,3.069,0,0,1-6.133,0v-6.092a3.069,3.069,0,0,1,6.133,0Zm-4.235.021v6.05c0,.855.417,1.335,1.168,1.335s1.168-.459,1.168-1.335v-6.05c0-.855-.417-1.335-1.168-1.335S495.4,171.686,495.4,172.562Z" transform="translate(-459.495 -169.6)" fill="#7634f4"/>
      </g>
      <g id="Group_664" data-name="Group 664" transform="translate(0 14.124)">
        <path id="Path_576" data-name="Path 576" d="M333.108,249.741v-8.95H330.5V239.56c1.523-.1,2.8-.584,3.192-1.46h1.314v11.641Z" transform="translate(-330.5 -237.933)" fill="#7634f4"/>
        <path id="Path_577" data-name="Path 577" d="M361.908,249.741v-8.95H359.3V239.56c1.523-.1,2.8-.584,3.192-1.46h1.314v11.641Z" transform="translate(-353.292 -237.933)" fill="#7634f4"/>
        <path id="Path_578" data-name="Path 578" d="M396.333,240.242v6.092a3.069,3.069,0,0,1-6.133,0v-6.092a3.069,3.069,0,0,1,6.133,0Zm-4.214.021v6.05c0,.855.417,1.335,1.168,1.335s1.168-.459,1.168-1.335v-6.05c0-.855-.417-1.335-1.168-1.335C392.516,238.927,392.119,239.407,392.119,240.262Z" transform="translate(-377.745 -237.3)" fill="#7634f4"/>
        <path id="Path_579" data-name="Path 579" d="M433.533,240.242v6.092a3.069,3.069,0,0,1-6.133,0v-6.092a3.069,3.069,0,0,1,6.133,0Zm-4.214.021v6.05c0,.855.417,1.335,1.168,1.335s1.168-.459,1.168-1.335v-6.05c0-.855-.417-1.335-1.168-1.335C429.716,238.927,429.319,239.407,429.319,240.262Z" transform="translate(-407.185 -237.3)" fill="#7634f4"/>
        <path id="Path_580" data-name="Path 580" d="M465.208,249.741v-8.95H462.6V239.56c1.523-.1,2.8-.584,3.192-1.46h1.314v11.641Z" transform="translate(-435.041 -237.933)" fill="#7634f4"/>
        <path id="Path_581" data-name="Path 581" d="M499.633,240.242v6.092a3.069,3.069,0,0,1-6.133,0v-6.092a3.069,3.069,0,0,1,6.133,0Zm-4.235.021v6.05c0,.855.417,1.335,1.168,1.335s1.168-.459,1.168-1.335v-6.05c0-.855-.417-1.335-1.168-1.335S495.4,239.407,495.4,240.262Z" transform="translate(-459.495 -237.3)" fill="#7634f4"/>
      </g>
      <g id="Group_665" data-name="Group 665" transform="translate(0.396 28.414)">
        <path id="Path_582" data-name="Path 582" d="M338.533,308.742v6.092a3.069,3.069,0,0,1-6.133,0v-6.092a3.069,3.069,0,0,1,6.133,0Zm-4.214.021v6.05c0,.855.417,1.335,1.168,1.335s1.168-.459,1.168-1.335v-6.05c0-.855-.417-1.335-1.168-1.335S334.319,307.907,334.319,308.762Z" transform="translate(-332.4 -305.8)" fill="#7634f4"/>
        <path id="Path_583" data-name="Path 583" d="M370.308,318.341v-8.95H367.7V308.16c1.523-.1,2.8-.584,3.192-1.46h1.314v11.641Z" transform="translate(-360.336 -306.512)" fill="#7634f4"/>
        <path id="Path_584" data-name="Path 584" d="M399.108,318.341v-8.95H396.5V308.16c1.523-.1,2.8-.584,3.192-1.46h1.314v11.641Z" transform="translate(-383.127 -306.512)" fill="#7634f4"/>
        <path id="Path_585" data-name="Path 585" d="M433.533,308.742v6.092a3.069,3.069,0,0,1-6.133,0v-6.092a3.069,3.069,0,0,1,6.133,0Zm-4.214.021v6.05c0,.855.417,1.335,1.168,1.335s1.168-.459,1.168-1.335v-6.05c0-.855-.417-1.335-1.168-1.335C429.716,307.427,429.319,307.907,429.319,308.762Z" transform="translate(-407.581 -305.8)" fill="#7634f4"/>
        <path id="Path_586" data-name="Path 586" d="M470.733,308.742v6.092a3.069,3.069,0,0,1-6.133,0v-6.092a3.069,3.069,0,0,1,6.133,0Zm-4.214.021v6.05c0,.855.417,1.335,1.168,1.335s1.168-.459,1.168-1.335v-6.05c0-.855-.417-1.335-1.168-1.335C466.916,307.427,466.519,307.907,466.519,308.762Z" transform="translate(-437.02 -305.8)" fill="#7634f4"/>
        <path id="Path_587" data-name="Path 587" d="M502.408,318.341v-8.95H499.8V308.16c1.523-.1,2.8-.584,3.192-1.46h1.314v11.641Z" transform="translate(-464.877 -306.512)" fill="#7634f4"/>
      </g>
      <g id="Group_666" data-name="Group 666" transform="translate(0.396 42.892)">
        <path id="Path_588" data-name="Path 588" d="M338.533,378.142v6.092a3.069,3.069,0,0,1-6.133,0v-6.092a3.069,3.069,0,0,1,6.133,0Zm-4.214.021v6.05c0,.855.417,1.335,1.168,1.335s1.168-.459,1.168-1.335v-6.05c0-.855-.417-1.335-1.168-1.335S334.319,377.307,334.319,378.162Z" transform="translate(-332.4 -375.2)" fill="#7634f4"/>
        <path id="Path_589" data-name="Path 589" d="M370.308,387.662v-8.95H367.7V377.46c1.523-.1,2.8-.584,3.192-1.46h1.314v11.641h-1.9Z" transform="translate(-360.336 -375.833)" fill="#7634f4"/>
        <path id="Path_590" data-name="Path 590" d="M399.108,387.662v-8.95H396.5V377.46c1.523-.1,2.8-.584,3.192-1.46h1.314v11.641h-1.9Z" transform="translate(-383.127 -375.833)" fill="#7634f4"/>
        <path id="Path_591" data-name="Path 591" d="M433.533,378.142v6.092a3.069,3.069,0,0,1-6.133,0v-6.092a3.069,3.069,0,0,1,6.133,0Zm-4.214.021v6.05c0,.855.417,1.335,1.168,1.335s1.168-.459,1.168-1.335v-6.05c0-.855-.417-1.335-1.168-1.335C429.716,376.827,429.319,377.307,429.319,378.162Z" transform="translate(-407.581 -375.2)" fill="#7634f4"/>
        <path id="Path_592" data-name="Path 592" d="M470.733,378.142v6.092a3.069,3.069,0,0,1-6.133,0v-6.092a3.069,3.069,0,0,1,6.133,0Zm-4.214.021v6.05c0,.855.417,1.335,1.168,1.335s1.168-.459,1.168-1.335v-6.05c0-.855-.417-1.335-1.168-1.335C466.916,376.827,466.519,377.307,466.519,378.162Z" transform="translate(-437.02 -375.2)" fill="#7634f4"/>
        <path id="Path_593" data-name="Path 593" d="M502.408,387.662v-8.95H499.8V377.46c1.523-.1,2.8-.584,3.192-1.46h1.314v11.641h-1.9Z" transform="translate(-464.877 -375.833)" fill="#7634f4"/>
      </g>
    </g>
    <path id="Path_594" data-name="Path 594" d="M501.737,136.058H490.7a3.909,3.909,0,0,1-3.9-3.9V121.1" transform="translate(-160.096 0)" fill="#4d21d6"/>
    <g id="Group_668" data-name="Group 668" transform="translate(316.607 165.307)">
      <path id="Path_595" data-name="Path 595" d="M481.268,333h-3.359a6.531,6.531,0,0,0-6.509,6.509v6.509a6.531,6.531,0,0,0,6.509,6.509h3.359a6.531,6.531,0,0,0,6.509-6.509v-6.509A6.517,6.517,0,0,0,481.268,333Zm2.712,10.848a3.49,3.49,0,0,1-3.484,3.484H478.7a3.49,3.49,0,0,1-3.484-3.484v-3.484a3.49,3.49,0,0,1,3.484-3.484H480.5a3.49,3.49,0,0,1,3.484,3.484Z" transform="translate(-464.516 -333)" fill="#7634f4"/>
      <path id="Path_596" data-name="Path 596" d="M468.525,411.055a3.063,3.063,0,0,1-3.046,3.046H441.446a3.063,3.063,0,0,1-3.046-3.046v-19.11a3.063,3.063,0,0,1,3.046-3.046h24.012a3.063,3.063,0,0,1,3.046,3.046v19.11Z" transform="translate(-438.4 -377.238)" fill="#7634f4"/>
      <rect id="Rectangle_271" data-name="Rectangle 271" width="29.854" height="4.694" transform="translate(0.125 17.628)" fill="#4d21d6"/>
    </g>
  </g>
</svg>
