<?xml version="1.0" encoding="utf-8"?>
<!-- Generator: Adobe Illustrator 25.0.0, SVG Export Plug-In . SVG Version: 6.00 Build 0)  -->
<svg version="1.1" id="Layer_1" xmlns="http://www.w3.org/2000/svg" xmlns:xlink="http://www.w3.org/1999/xlink" x="0px" y="0px"
	 viewBox="0 0 841.9 595.3" style="enable-background:new 0 0 841.9 595.3;" xml:space="preserve">
<style type="text/css">
	.st0{fill:#4D21D6;}
	.st1{fill:#B88BFE;}
	.st2{fill:#7634F4;}
</style>
<path class="st0" d="M548,203.1v251.2c0,12.6-10.3,22.9-22.9,22.9H307.4c-12.6,0-22.9-10.3-22.9-22.9V154.4
	c0-12.6,10.3-22.9,22.9-22.9h169"/>
<path class="st1" d="M558.4,192.7v251.2c0,12.6-10.3,22.9-22.9,22.9H317.8c-12.6,0-22.9-10.3-22.9-22.9V144
	c0-12.6,10.3-22.9,22.9-22.9h169"/>
<g>
	<g>
		<path class="st2" d="M343,226.2v-42.9h-12.5v-5.9c7.3-0.5,13.4-2.8,15.3-7h6.3v55.8H343z"/>
		<path class="st2" d="M390.7,183.7v29.2c0,8.8-5.6,14.1-14.7,14.1s-14.7-5.3-14.7-14.1v-29.2c0-8.8,5.6-14.1,14.7-14.1
			S390.7,174.9,390.7,183.7z M370.5,183.8v29c0,4.1,2,6.4,5.6,6.4s5.6-2.2,5.6-6.4v-29c0-4.1-2-6.4-5.6-6.4S370.5,179.6,370.5,183.8
			z"/>
		<path class="st2" d="M409,226.2v-42.9h-12.5v-5.9c7.3-0.5,13.4-2.8,15.3-7h6.3v55.8H409z"/>
		<path class="st2" d="M456.8,183.7v29.2c0,8.8-5.6,14.1-14.7,14.1c-9.1,0-14.7-5.3-14.7-14.1v-29.2c0-8.8,5.6-14.1,14.7-14.1
			C451.2,169.6,456.8,174.9,456.8,183.7z M436.6,183.8v29c0,4.1,2,6.4,5.6,6.4c3.6,0,5.6-2.2,5.6-6.4v-29c0-4.1-2-6.4-5.6-6.4
			C438.5,177.4,436.6,179.6,436.6,183.8z"/>
		<path class="st2" d="M475.1,226.2v-42.9h-12.5v-5.9c7.3-0.5,13.4-2.8,15.3-7h6.3v55.8H475.1z"/>
		<path class="st2" d="M522.9,183.7v29.2c0,8.8-5.6,14.1-14.7,14.1c-9.1,0-14.7-5.3-14.7-14.1v-29.2c0-8.8,5.6-14.1,14.7-14.1
			C517.3,169.6,522.9,174.9,522.9,183.7z M502.6,183.8v29c0,4.1,2,6.4,5.6,6.4c3.6,0,5.6-2.2,5.6-6.4v-29c0-4.1-2-6.4-5.6-6.4
			C504.6,177.4,502.6,179.6,502.6,183.8z"/>
	</g>
	<g>
		<path class="st2" d="M343,293.9V251h-12.5v-5.9c7.3-0.5,13.4-2.8,15.3-7h6.3v55.8H343z"/>
		<path class="st2" d="M371.8,293.9V251h-12.5v-5.9c7.3-0.5,13.4-2.8,15.3-7h6.3v55.8H371.8z"/>
		<path class="st2" d="M419.6,251.4v29.2c0,8.8-5.6,14.1-14.7,14.1c-9.1,0-14.7-5.3-14.7-14.1v-29.2c0-8.8,5.6-14.1,14.7-14.1
			C414,237.3,419.6,242.6,419.6,251.4z M399.4,251.5v29c0,4.1,2,6.4,5.6,6.4c3.6,0,5.6-2.2,5.6-6.4v-29c0-4.1-2-6.4-5.6-6.4
			C401.3,245.1,399.4,247.4,399.4,251.5z"/>
		<path class="st2" d="M456.8,251.4v29.2c0,8.8-5.6,14.1-14.7,14.1c-9.1,0-14.7-5.3-14.7-14.1v-29.2c0-8.8,5.6-14.1,14.7-14.1
			C451.2,237.3,456.8,242.6,456.8,251.4z M436.6,251.5v29c0,4.1,2,6.4,5.6,6.4c3.6,0,5.6-2.2,5.6-6.4v-29c0-4.1-2-6.4-5.6-6.4
			C438.5,245.1,436.6,247.4,436.6,251.5z"/>
		<path class="st2" d="M475.1,293.9V251h-12.5v-5.9c7.3-0.5,13.4-2.8,15.3-7h6.3v55.8H475.1z"/>
		<path class="st2" d="M522.9,251.4v29.2c0,8.8-5.6,14.1-14.7,14.1c-9.1,0-14.7-5.3-14.7-14.1v-29.2c0-8.8,5.6-14.1,14.7-14.1
			C517.3,237.3,522.9,242.6,522.9,251.4z M502.6,251.5v29c0,4.1,2,6.4,5.6,6.4c3.6,0,5.6-2.2,5.6-6.4v-29c0-4.1-2-6.4-5.6-6.4
			C504.6,245.1,502.6,247.4,502.6,251.5z"/>
	</g>
	<g>
		<path class="st2" d="M361.8,319.9v29.2c0,8.8-5.6,14.1-14.7,14.1s-14.7-5.3-14.7-14.1v-29.2c0-8.8,5.6-14.1,14.7-14.1
			S361.8,311.2,361.8,319.9z M341.6,320v29c0,4.1,2,6.4,5.6,6.4s5.6-2.2,5.6-6.4v-29c0-4.1-2-6.4-5.6-6.4S341.6,315.9,341.6,320z"/>
		<path class="st2" d="M380.2,362.5v-42.9h-12.5v-5.9c7.3-0.5,13.4-2.8,15.3-7h6.3v55.8H380.2z"/>
		<path class="st2" d="M409,362.5v-42.9h-12.5v-5.9c7.3-0.5,13.4-2.8,15.3-7h6.3v55.8H409z"/>
		<path class="st2" d="M456.8,319.9v29.2c0,8.8-5.6,14.1-14.7,14.1c-9.1,0-14.7-5.3-14.7-14.1v-29.2c0-8.8,5.6-14.1,14.7-14.1
			C451.2,305.8,456.8,311.2,456.8,319.9z M436.6,320v29c0,4.1,2,6.4,5.6,6.4c3.6,0,5.6-2.2,5.6-6.4v-29c0-4.1-2-6.4-5.6-6.4
			C438.5,313.6,436.6,315.9,436.6,320z"/>
		<path class="st2" d="M494,319.9v29.2c0,8.8-5.6,14.1-14.7,14.1c-9.1,0-14.7-5.3-14.7-14.1v-29.2c0-8.8,5.6-14.1,14.7-14.1
			C488.4,305.8,494,311.2,494,319.9z M473.8,320v29c0,4.1,2,6.4,5.6,6.4c3.6,0,5.6-2.2,5.6-6.4v-29c0-4.1-2-6.4-5.6-6.4
			C475.7,313.6,473.8,315.9,473.8,320z"/>
		<path class="st2" d="M512.3,362.5v-42.9h-12.5v-5.9c7.3-0.5,13.4-2.8,15.3-7h6.3v55.8H512.3z"/>
	</g>
	<g>
		<path class="st2" d="M361.8,389.3v29.2c0,8.8-5.6,14.1-14.7,14.1s-14.7-5.3-14.7-14.1v-29.2c0-8.8,5.6-14.1,14.7-14.1
			S361.8,380.6,361.8,389.3z M341.6,389.4v29c0,4.1,2,6.4,5.6,6.4s5.6-2.2,5.6-6.4v-29c0-4.1-2-6.4-5.6-6.4S341.6,385.3,341.6,389.4
			z"/>
		<path class="st2" d="M380.2,431.9v-42.9h-12.5V383c7.3-0.5,13.4-2.8,15.3-7h6.3v55.8H380.2z"/>
		<path class="st2" d="M409,431.9v-42.9h-12.5V383c7.3-0.5,13.4-2.8,15.3-7h6.3v55.8H409z"/>
		<path class="st2" d="M456.8,389.3v29.2c0,8.8-5.6,14.1-14.7,14.1c-9.1,0-14.7-5.3-14.7-14.1v-29.2c0-8.8,5.6-14.1,14.7-14.1
			C451.2,375.2,456.8,380.6,456.8,389.3z M436.6,389.4v29c0,4.1,2,6.4,5.6,6.4c3.6,0,5.6-2.2,5.6-6.4v-29c0-4.1-2-6.4-5.6-6.4
			C438.5,383,436.6,385.3,436.6,389.4z"/>
		<path class="st2" d="M494,389.3v29.2c0,8.8-5.6,14.1-14.7,14.1c-9.1,0-14.7-5.3-14.7-14.1v-29.2c0-8.8,5.6-14.1,14.7-14.1
			C488.4,375.2,494,380.6,494,389.3z M473.8,389.4v29c0,4.1,2,6.4,5.6,6.4c3.6,0,5.6-2.2,5.6-6.4v-29c0-4.1-2-6.4-5.6-6.4
			C475.7,383,473.8,385.3,473.8,389.4z"/>
		<path class="st2" d="M512.3,431.9v-42.9h-12.5V383c7.3-0.5,13.4-2.8,15.3-7h6.3v55.8H512.3z"/>
	</g>
</g>
<path class="st0" d="M558.4,192.8h-52.9c-10.3,0-18.7-8.4-18.7-18.7v-53"/>
<g>
	<path class="st2" d="M518.7,333h-16.1c-17.2,0-31.2,14.1-31.2,31.2v31.2c0,17.2,14.1,31.2,31.2,31.2h16.1
		c17.2,0,31.2-14.1,31.2-31.2v-31.2C549.9,347,535.9,333,518.7,333z M531.7,385c0,9.2-7.5,16.7-16.7,16.7h-8.6
		c-9.2,0-16.7-7.5-16.7-16.7v-16.7c0-9.2,7.5-16.7,16.7-16.7h8.6c9.2,0,16.7,7.5,16.7,16.7V385z"/>
	<path class="st2" d="M582.8,495.1c0,8-6.6,14.6-14.6,14.6H453c-8,0-14.6-6.6-14.6-14.6v-91.6c0-8,6.6-14.6,14.6-14.6h115.1
		c8,0,14.6,6.6,14.6,14.6V495.1z"/>
	<rect x="439" y="417.5" class="st0" width="143.1" height="22.5"/>
</g>
</svg>
