<svg xmlns="http://www.w3.org/2000/svg" width="29.067" height="33.995" viewBox="0 0 29.067 33.995">
  <g id="MNEMONIC" transform="translate(-215.9 -44.9)">
    <path id="Path_227" data-name="Path 227" d="M237.623,44.9H221.118L215.9,49.966V60.824l2.391.9v3.2l-2.391,1.2v7.813a2.426,2.426,0,0,0,1.995,1.057h19.729a2.43,2.43,0,0,0,2.424-2.424V47.317A2.428,2.428,0,0,0,237.623,44.9Z" fill="#7e97b0"/>
    <path id="Path_228" data-name="Path 228" d="M374.528,89.094a.764.764,0,0,1-.76.76H371.86a.764.764,0,0,1-.76-.76V82.06a.764.764,0,0,1,.76-.76h1.909a.764.764,0,0,1,.76.76Z" transform="translate(-144.949 -33.996)" fill="#647b8e"/>
    <path id="Path_229" data-name="Path 229" d="M505.228,84.82a.764.764,0,0,1-.76.76H502.56a.764.764,0,0,1-.76-.76V82.06a.764.764,0,0,1,.76-.76h1.909a.764.764,0,0,1,.76.76Z" transform="translate(-267.017 -33.996)" fill="#647b8e"/>
    <path id="Path_230" data-name="Path 230" d="M438.107,86.7a.764.764,0,0,1-.76.76H435.36a.764.764,0,0,1-.76-.76V82.06a.764.764,0,0,1,.76-.76h1.988a.764.764,0,0,1,.76.76Z" transform="translate(-204.255 -33.996)" fill="#647b8e"/>
    <path id="Path_231" data-name="Path 231" d="M308.865,85.93a.764.764,0,0,1-.76.76H305.86a.764.764,0,0,1-.76-.76V82.06a.764.764,0,0,1,.76-.76h2.246a.764.764,0,0,1,.76.76Z" transform="translate(-83.309 -33.996)" fill="#647b8e"/>
    <path id="Path_232" data-name="Path 232" d="M243.993,138.245a.764.764,0,0,1-.76.76H241.16a.764.764,0,0,1-.76-.76V133.86a.764.764,0,0,1,.76-.76h2.074a.764.764,0,0,1,.76.76Z" transform="translate(-22.882 -82.375)" fill="#647b8e"/>
    <path id="Path_233" data-name="Path 233" d="M311.993,290.471a1.517,1.517,0,0,1-1.513,1.512H296.413a1.517,1.517,0,0,1-1.513-1.512v-9.458a1.517,1.517,0,0,1,1.513-1.513h14.068a1.517,1.517,0,0,1,1.513,1.513Z" transform="translate(-73.782 -219.105)" fill="#4f6270"/>
    <path id="Path_234" data-name="Path 234" d="M327.742,305.265a1.263,1.263,0,0,1-1.308,1.209H314.308A1.263,1.263,0,0,1,313,305.265v-7.556a1.263,1.263,0,0,1,1.308-1.209h12.133a1.263,1.263,0,0,1,1.308,1.209v7.556Z" transform="translate(-90.687 -234.982)" fill="#7e97b0"/>
    <g id="Group_105" data-name="Group 105" transform="translate(231.461 62.357)">
      <path id="Path_235" data-name="Path 235" d="M502.432,309.2h-1.506A2.936,2.936,0,0,0,498,312.126v2.913a2.936,2.936,0,0,0,2.926,2.926h1.506a2.936,2.936,0,0,0,2.926-2.926v-2.913A2.94,2.94,0,0,0,502.432,309.2Zm1.215,4.868a1.573,1.573,0,0,1-1.565,1.565h-.806a1.573,1.573,0,0,1-1.565-1.565v-1.559a1.573,1.573,0,0,1,1.565-1.565h.806a1.573,1.573,0,0,1,1.565,1.565Z" transform="translate(-494.929 -309.2)" fill="#647b8e"/>
      <path id="Path_236" data-name="Path 236" d="M465,398.34a1.37,1.37,0,0,1-1.367,1.367H452.867a1.37,1.37,0,0,1-1.367-1.367v-8.573a1.37,1.37,0,0,1,1.367-1.367H463.64a1.37,1.37,0,0,1,1.367,1.367v8.573Z" transform="translate(-451.5 -383.169)" fill="#647b8e"/>
      <rect id="Rectangle_48" data-name="Rectangle 48" width="13.388" height="2.107" transform="translate(0.053 7.906)" fill="#4f6270"/>
    </g>
  </g>
</svg>
