<svg xmlns="http://www.w3.org/2000/svg" width="69.331" height="81.076" viewBox="0 0 69.331 81.076">
  <g id="MNEMONIC2" transform="translate(-241.8 -57.1)">
    <path id="Path_521" data-name="Path 521" d="M293.624,57.1H254.244L241.8,69.186V95.081l5.711,2.165v7.637L241.8,107.73v18.65a5.77,5.77,0,0,0,4.756,2.506h47.067a5.806,5.806,0,0,0,5.779-5.779V62.879A5.784,5.784,0,0,0,293.624,57.1Z" fill="#b88bfe"/>
    <path id="Path_522" data-name="Path 522" d="M393.549,109.381a1.819,1.819,0,0,1-1.807,1.807h-4.535a1.819,1.819,0,0,1-1.807-1.807V92.607a1.819,1.819,0,0,1,1.807-1.807h4.552a1.819,1.819,0,0,1,1.807,1.807v16.774Z" transform="translate(-119.12 -27.955)" fill="#914bfc"/>
    <path id="Path_523" data-name="Path 523" d="M514.366,99.187a1.819,1.819,0,0,1-1.807,1.807h-4.552a1.819,1.819,0,0,1-1.807-1.807v-6.58a1.819,1.819,0,0,1,1.807-1.807h4.552a1.819,1.819,0,0,1,1.807,1.807Z" transform="translate(-219.327 -27.955)" fill="#914bfc"/>
    <path id="Path_524" data-name="Path 524" d="M452.27,103.671a1.819,1.819,0,0,1-1.807,1.807h-4.756a1.819,1.819,0,0,1-1.807-1.807V92.607a1.819,1.819,0,0,1,1.807-1.807h4.756a1.819,1.819,0,0,1,1.807,1.807Z" transform="translate(-167.648 -27.955)" fill="#914bfc"/>
    <path id="Path_525" data-name="Path 525" d="M333.367,101.847a1.819,1.819,0,0,1-1.807,1.807h-5.353a1.819,1.819,0,0,1-1.807-1.807v-9.24a1.819,1.819,0,0,1,1.807-1.807h5.37a1.819,1.819,0,0,1,1.807,1.807v9.24Z" transform="translate(-68.519 -27.955)" fill="#914bfc"/>
    <path id="Path_526" data-name="Path 526" d="M273.075,150.874a1.819,1.819,0,0,1-1.807,1.807h-4.961a1.819,1.819,0,0,1-1.807-1.807V140.407a1.819,1.819,0,0,1,1.807-1.807h4.961a1.819,1.819,0,0,1,1.807,1.807Z" transform="translate(-18.83 -67.607)" fill="#914bfc"/>
    <path id="Path_527" data-name="Path 527" d="M355.594,300.068a3.616,3.616,0,0,1-3.614,3.614H318.414a3.616,3.616,0,0,1-3.614-3.614V277.514a3.616,3.616,0,0,1,3.614-3.614H351.98a3.616,3.616,0,0,1,3.614,3.614Z" transform="translate(-60.556 -179.842)" fill="#7634f4"/>
    <path id="Path_528" data-name="Path 528" d="M366.768,310.6a3.012,3.012,0,0,1-3.12,2.881H334.72a3.023,3.023,0,0,1-3.12-2.881V292.581a3.012,3.012,0,0,1,3.12-2.881h28.946a3.023,3.023,0,0,1,3.12,2.881V310.6Z" transform="translate(-74.492 -192.948)" fill="#4d21d6"/>
    <g id="Group_640" data-name="Group 640" transform="translate(278.929 98.746)">
      <path id="Path_529" data-name="Path 529" d="M513.169,301.4h-3.6a6.992,6.992,0,0,0-6.972,6.972v6.955a6.992,6.992,0,0,0,6.972,6.972h3.6a6.992,6.992,0,0,0,6.972-6.972v-6.955A6.992,6.992,0,0,0,513.169,301.4Zm2.9,11.592a3.743,3.743,0,0,1-3.733,3.733h-1.926a3.743,3.743,0,0,1-3.733-3.733v-3.733a3.743,3.743,0,0,1,3.733-3.733h1.926a3.743,3.743,0,0,1,3.733,3.733Z" transform="translate(-495.27 -301.4)" fill="#914bfc"/>
      <path id="Path_530" data-name="Path 530" d="M491.8,398.3a3.267,3.267,0,0,1-3.256,3.256h-25.69A3.267,3.267,0,0,1,459.6,398.3v-20.44a3.267,3.267,0,0,1,3.256-3.256h25.69a3.267,3.267,0,0,1,3.256,3.256Z" transform="translate(-459.6 -362.121)" fill="#914bfc"/>
      <rect id="Rectangle_263" data-name="Rectangle 263" width="31.929" height="5.029" transform="translate(0.136 18.854)" fill="#7634f4"/>
    </g>
  </g>
</svg>
