<svg xmlns="http://www.w3.org/2000/svg" width="46.641" height="59.433" viewBox="0 0 46.641 59.433">
  <g id="NO_OF_STAKE" data-name="NO OF STAKE" transform="translate(-37.6 -58.8)">
    <path id="Path_396" data-name="Path 396" d="M381.187,58.8H377.6V94.913l7.174-12.56V62.387A3.589,3.589,0,0,0,381.187,58.8Z" transform="translate(-300.533 0)" fill="#43555b"/>
    <path id="Path_397" data-name="Path 397" d="M77.067,58.8H41.187A3.582,3.582,0,0,0,37.6,62.387V82.353L80.654,96.7V78.766l-8.973-8.2,8.973-8.2A3.587,3.587,0,0,0,77.067,58.8Z" transform="translate(0 0)" fill="#4b5f68"/>
    <path id="Path_398" data-name="Path 398" d="M340.173,261.7,331.2,279.634l8.973,17.934a3.582,3.582,0,0,0,3.587-3.587V261.7Z" transform="translate(-259.519 -179.347)" fill="#647b8e"/>
    <path id="Path_399" data-name="Path 399" d="M80.654,297.58v-3.587l-5.386-7.185,5.386-7.174v-3.587l-1.8-1.788,1.8-1.8v-3.587l-1.8-1.788,1.8-1.8V261.7H37.6v32.282a3.582,3.582,0,0,0,3.587,3.587H80.654Z" transform="translate(0 -179.347)" fill="#7e97b0"/>
    <path id="Path_400" data-name="Path 400" d="M353.874,172.587,346.7,169l3.587,7.174h3.587Z" transform="translate(-273.22 -97.408)" fill="#91aec6"/>
    <path id="Path_401" data-name="Path 401" d="M104.38,138.1l-35.869,7.174s0,3.587-.012,3.587h35.869C104.38,148.861,104.369,138.1,104.38,138.1Z" transform="translate(-27.313 -70.095)" fill="#7e97b0"/>
    <path id="Path_402" data-name="Path 402" d="M258.234,89.6h-3.587L238.5,96l16.147,6.4h3.587Z" transform="translate(-177.579 -27.225)" fill="#91aec6"/>
    <path id="Path_403" data-name="Path 403" d="M104.38,89.6H68.512s0,12.8-.012,12.8h35.869C104.38,102.4,104.369,89.6,104.38,89.6Z" transform="translate(-27.313 -27.225)" fill="#7e97b0"/>
    <path id="Path_404" data-name="Path 404" d="M363.9,357.9l-1.8-1.8,1.8-1.8h3.587v3.587H363.9Z" transform="translate(-286.832 -261.198)" fill="#91aec6"/>
    <path id="Path_405" data-name="Path 405" d="M346.7,354.4h3.587v3.587H346.7Z" transform="translate(-273.22 -261.287)" fill="#647b8e"/>
    <path id="Path_406" data-name="Path 406" d="M271.1,485.174l-1.8-3.587L271.1,478h3.587v7.174Z" transform="translate(-204.804 -370.539)" fill="#3a4951"/>
    <path id="Path_407" data-name="Path 407" d="M253.9,478h3.587v7.174H253.9Z" transform="translate(-191.192 -370.539)" fill="#647b8e"/>
    <path id="Path_408" data-name="Path 408" d="M271.1,392.474l-1.8-3.587,1.8-3.587h3.587v7.174Z" transform="translate(-204.804 -288.6)" fill="#3a4951"/>
    <path id="Path_409" data-name="Path 409" d="M253.9,385.3h3.587v7.174H253.9Z" transform="translate(-191.192 -288.6)" fill="#647b8e"/>
    <path id="Path_410" data-name="Path 410" d="M271.1,299.774l-1.8-3.587,1.8-3.587h3.587v7.174Z" transform="translate(-204.804 -206.66)" fill="#3a4951"/>
    <path id="Path_411" data-name="Path 411" d="M253.9,292.6h3.587v7.174H253.9Z" transform="translate(-191.192 -206.66)" fill="#647b8e"/>
    <path id="Path_412" data-name="Path 412" d="M363.9,296.1l-1.8-1.8,1.8-1.8h3.587v3.587H363.9Z" transform="translate(-286.832 -206.572)" fill="#91aec6"/>
    <path id="Path_413" data-name="Path 413" d="M346.7,292.6h3.587v3.587H346.7Z" transform="translate(-273.22 -206.66)" fill="#647b8e"/>
    <path id="Path_414" data-name="Path 414" d="M178.4,485.174l-1.8-3.587L178.4,478h3.587v7.174Z" transform="translate(-122.865 -370.539)" fill="#3a4951"/>
    <path id="Path_415" data-name="Path 415" d="M161.2,478h3.587v7.174H161.2Z" transform="translate(-109.252 -370.539)" fill="#647b8e"/>
    <path id="Path_416" data-name="Path 416" d="M178.4,392.474l-1.8-3.587,1.8-3.587h3.587v7.174Z" transform="translate(-122.865 -288.6)" fill="#3a4951"/>
    <path id="Path_417" data-name="Path 417" d="M161.2,385.3h3.587v7.174H161.2Z" transform="translate(-109.252 -288.6)" fill="#647b8e"/>
    <path id="Path_418" data-name="Path 418" d="M178.4,299.774l-1.8-3.587,1.8-3.587h3.587v7.174Z" transform="translate(-122.865 -206.66)" fill="#3a4951"/>
    <path id="Path_419" data-name="Path 419" d="M161.2,292.6h3.587v7.174H161.2Z" transform="translate(-109.252 -206.66)" fill="#647b8e"/>
    <path id="Path_420" data-name="Path 420" d="M363.9,430.548l-1.8-7.174,1.8-7.174h3.587v14.347Z" transform="translate(-286.832 -315.913)" fill="#91aec6"/>
    <path id="Path_421" data-name="Path 421" d="M346.7,416.2h3.587v14.347H346.7Z" transform="translate(-273.22 -315.913)" fill="#647b8e"/>
    <path id="Path_422" data-name="Path 422" d="M85.788,485.174,84,481.587,85.788,478h3.587v7.174Z" transform="translate(-41.014 -370.539)" fill="#3a4951"/>
    <path id="Path_423" data-name="Path 423" d="M68.5,478h3.587v7.174H68.5Z" transform="translate(-27.313 -370.539)" fill="#647b8e"/>
    <path id="Path_424" data-name="Path 424" d="M85.788,392.474,84,388.887l1.8-3.587h3.587v7.174Z" transform="translate(-41.014 -288.6)" fill="#3a4951"/>
    <path id="Path_425" data-name="Path 425" d="M68.5,385.3h3.587v7.174H68.5Z" transform="translate(-27.313 -288.6)" fill="#647b8e"/>
    <path id="Path_426" data-name="Path 426" d="M85.788,299.774,84,296.187l1.8-3.587h3.587v7.174Z" transform="translate(-41.014 -206.66)" fill="#3a4951"/>
    <path id="Path_427" data-name="Path 427" d="M68.5,292.6h3.587v7.174H68.5Z" transform="translate(-27.313 -206.66)" fill="#647b8e"/>
  </g>
</svg>
