<svg xmlns="http://www.w3.org/2000/svg" xmlns:xlink="http://www.w3.org/1999/xlink" width="79.26" height="82.603" viewBox="0 0 79.26 82.603">
  <defs>
    <linearGradient id="linear-gradient" x1="0.001" y1="0.501" x2="1" y2="0.501" gradientUnits="objectBoundingBox">
      <stop offset="0" stop-color="#de13dc"/>
      <stop offset="1" stop-color="#910c91"/>
    </linearGradient>
    <linearGradient id="linear-gradient-2" x1="0" y1="0.5" x2="1" y2="0.5" xlink:href="#linear-gradient"/>
    <linearGradient id="linear-gradient-3" x1="0.5" y1="-0.323" x2="0.5" y2="1.677" xlink:href="#linear-gradient"/>
    <linearGradient id="linear-gradient-4" x1="1.32" y1="1.32" x2="0.268" y2="0.268" gradientUnits="objectBoundingBox">
      <stop offset="0" stop-color="#de13dc"/>
      <stop offset="1" stop-color="#ee52ff"/>
    </linearGradient>
    <linearGradient id="linear-gradient-5" x1="1.664" y1="1.296" x2="0.174" y2="0.305" xlink:href="#linear-gradient"/>
    <linearGradient id="linear-gradient-6" x1="0.044" y1="0.119" x2="1.087" y2="0.984" xlink:href="#linear-gradient-4"/>
    <linearGradient id="linear-gradient-7" x1="-2.339" y1="0.068" x2="2.424" y2="0.795" xlink:href="#linear-gradient-4"/>
    <linearGradient id="linear-gradient-8" x1="-0.886" y1="0.219" x2="4.242" y2="1.265" xlink:href="#linear-gradient-4"/>
    <linearGradient id="linear-gradient-9" x1="0" y1="0.5" x2="1.001" y2="0.5" xlink:href="#linear-gradient-4"/>
  </defs>
  <g id="PRIVATE_KEY_2" data-name="PRIVATE KEY 2" transform="translate(-281.1 -189.6)">
    <g id="Group_676" data-name="Group 676" transform="translate(281.1 240.354)">
      <g id="Group_671" data-name="Group 671" transform="translate(1.999)">
        <path id="Path_617" data-name="Path 617" d="M290.8,368.911h-3.6V357.737l4.882-4.849V344.5h3.6v9.863l-4.882,4.882Z" transform="translate(-287.2 -344.5)" fill="#8a3ffc"/>
      </g>
      <g id="Group_672" data-name="Group 672" transform="translate(24.509 1.474)">
        <rect id="Rectangle_275" data-name="Rectangle 275" width="3.604" height="25.656" fill="#8a3ffc"/>
      </g>
      <g id="Group_673" data-name="Group 673" transform="translate(11.37 1.474)">
        <path id="Path_618" data-name="Path 618" d="M318.323,367.054,315.8,364.5l4.751-4.784V349h3.6v12.222Z" transform="translate(-315.8 -349)" fill="#8a3ffc"/>
      </g>
      <circle id="Ellipse_81" data-name="Ellipse 81" cx="3.965" cy="3.965" r="3.965" transform="translate(0 20.577)" fill="#8a3ffc"/>
      <circle id="Ellipse_82" data-name="Ellipse 82" cx="3.965" cy="3.965" r="3.965" transform="translate(22.346 23.919)" fill="#8a3ffc"/>
      <g id="Group_674" data-name="Group 674" transform="translate(42.563)">
        <path id="Path_619" data-name="Path 619" d="M415.849,368.911h3.6V357.737l-4.849-4.849V344.5H411v9.863l4.849,4.882Z" transform="translate(-411 -344.5)" fill="#8a3ffc"/>
      </g>
      <g id="Group_675" data-name="Group 675" transform="translate(33.29 1.474)">
        <path id="Path_620" data-name="Path 620" d="M388.532,367.054l2.556-2.556-4.784-4.784V349h-3.6v12.222Z" transform="translate(-382.7 -349)" fill="#8a3ffc"/>
      </g>
      <circle id="Ellipse_83" data-name="Ellipse 83" cx="3.965" cy="3.965" r="3.965" transform="translate(45.119 20.577)" fill="#8a3ffc"/>
    </g>
    <path id="Path_621" data-name="Path 621" d="M336.9,220.891v.492a5.258,5.258,0,0,1-5.243,5.243H319.763a5.258,5.258,0,0,1-5.243-5.243V201.33a5.258,5.258,0,0,1,5.243-5.243h11.894a5.24,5.24,0,0,1,5.144,4.26h6.553a11.206,11.206,0,0,0-11.14-10.747H319.14A11.173,11.173,0,0,0,308,200.74V218.6a11.173,11.173,0,0,0,11.14,11.14h13.106a11.2,11.2,0,0,0,10.911-8.88H336.9Z" transform="translate(-18.086)" fill="url(#linear-gradient)"/>
    <g id="Group_677" data-name="Group 677" transform="translate(284.016 205.983)">
      <path id="Path_622" data-name="Path 622" d="M337.183,275.577a4.951,4.951,0,0,1-4.915,4.915H294.915A4.951,4.951,0,0,1,290,275.577V244.515a4.951,4.951,0,0,1,4.915-4.915h37.353a4.951,4.951,0,0,1,4.915,4.915Z" transform="translate(-290 -239.6)" fill="url(#linear-gradient-2)"/>
    </g>
    <g id="Group_678" data-name="Group 678" transform="translate(291.126 210.57)">
      <circle id="Ellipse_84" data-name="Ellipse 84" cx="16.481" cy="16.481" r="16.481" transform="translate(0 0)" fill="url(#linear-gradient-3)"/>
      <circle id="Ellipse_85" data-name="Ellipse 85" cx="13.631" cy="13.631" r="13.631" transform="translate(2.851 2.851)" fill="url(#linear-gradient-4)"/>
      <path id="Path_623" data-name="Path 623" d="M357.585,290.692A4.292,4.292,0,1,0,351,294.329v4.98h4.817V294.2A4.4,4.4,0,0,0,357.585,290.692Z" transform="translate(-336.778 -275.653)" fill="url(#linear-gradient-5)"/>
    </g>
    <g id="Group_680" data-name="Group 680" transform="translate(309.115 217.222)">
      <rect id="Rectangle_276" data-name="Rectangle 276" width="31.586" height="6.422" transform="translate(0 7.602)" fill="url(#linear-gradient-6)"/>
      <rect id="Rectangle_277" data-name="Rectangle 277" width="6.914" height="7.634" transform="translate(16.776 12.517)" fill="url(#linear-gradient-7)"/>
      <rect id="Rectangle_278" data-name="Rectangle 278" width="6.422" height="5.308" transform="translate(6.291 11.894)" fill="url(#linear-gradient-8)"/>
      <g id="Group_679" data-name="Group 679" transform="translate(30.145 0)">
        <path id="Path_624" data-name="Path 624" d="M469.151,295A10.551,10.551,0,1,1,479.7,284.451,10.565,10.565,0,0,1,469.151,295Zm0-15.531a4.98,4.98,0,1,0,4.98,4.98A4.978,4.978,0,0,0,469.151,279.47Z" transform="translate(-458.6 -273.9)" fill="url(#linear-gradient-9)"/>
      </g>
    </g>
    <g id="Group_686" data-name="Group 686" transform="translate(281.1 240.354)">
      <g id="Group_681" data-name="Group 681" transform="translate(1.999)">
        <path id="Path_625" data-name="Path 625" d="M290.8,368.911h-3.6V357.737l4.882-4.849V344.5h3.6v9.863l-4.882,4.882Z" transform="translate(-287.2 -344.5)" fill="#8a3ffc"/>
      </g>
      <g id="Group_682" data-name="Group 682" transform="translate(24.509 1.474)">
        <rect id="Rectangle_279" data-name="Rectangle 279" width="3.604" height="25.656" fill="#8a3ffc"/>
      </g>
      <g id="Group_683" data-name="Group 683" transform="translate(11.37 1.474)">
        <path id="Path_626" data-name="Path 626" d="M318.323,367.054,315.8,364.5l4.751-4.784V349h3.6v12.222Z" transform="translate(-315.8 -349)" fill="#8a3ffc"/>
      </g>
      <circle id="Ellipse_86" data-name="Ellipse 86" cx="3.965" cy="3.965" r="3.965" transform="translate(0 20.577)" fill="#8a3ffc"/>
      <circle id="Ellipse_87" data-name="Ellipse 87" cx="3.965" cy="3.965" r="3.965" transform="translate(22.346 23.919)" fill="#8a3ffc"/>
      <g id="Group_684" data-name="Group 684" transform="translate(42.563)">
        <path id="Path_627" data-name="Path 627" d="M415.849,368.911h3.6V357.737l-4.849-4.849V344.5H411v9.863l4.849,4.882Z" transform="translate(-411 -344.5)" fill="#8a3ffc"/>
      </g>
      <g id="Group_685" data-name="Group 685" transform="translate(33.29 1.474)">
        <path id="Path_628" data-name="Path 628" d="M388.532,367.054l2.556-2.556-4.784-4.784V349h-3.6v12.222Z" transform="translate(-382.7 -349)" fill="#8a3ffc"/>
      </g>
      <circle id="Ellipse_88" data-name="Ellipse 88" cx="3.965" cy="3.965" r="3.965" transform="translate(45.119 20.577)" fill="#8a3ffc"/>
    </g>
    <path id="Path_629" data-name="Path 629" d="M336.9,220.891v.492a5.258,5.258,0,0,1-5.243,5.243H319.763a5.258,5.258,0,0,1-5.243-5.243V201.33a5.258,5.258,0,0,1,5.243-5.243h11.894a5.24,5.24,0,0,1,5.144,4.26h6.553a11.206,11.206,0,0,0-11.14-10.747H319.14A11.173,11.173,0,0,0,308,200.74V218.6a11.173,11.173,0,0,0,11.14,11.14h13.106a11.2,11.2,0,0,0,10.911-8.88H336.9Z" transform="translate(-18.086)" fill="#b88bfe"/>
    <g id="Group_687" data-name="Group 687" transform="translate(284.016 205.983)">
      <path id="Path_630" data-name="Path 630" d="M337.183,275.577a4.951,4.951,0,0,1-4.915,4.915H294.915A4.951,4.951,0,0,1,290,275.577V244.515a4.951,4.951,0,0,1,4.915-4.915h37.353a4.951,4.951,0,0,1,4.915,4.915Z" transform="translate(-290 -239.6)" fill="#b88bfe"/>
    </g>
    <circle id="Ellipse_89" data-name="Ellipse 89" cx="16.481" cy="16.481" r="16.481" transform="translate(291.126 210.57)" fill="#914bfc"/>
    <circle id="Ellipse_90" data-name="Ellipse 90" cx="13.631" cy="13.631" r="13.631" transform="translate(293.977 213.421)" fill="#7634f4"/>
    <path id="Path_631" data-name="Path 631" d="M357.585,290.692A4.292,4.292,0,1,0,351,294.329v4.98h4.817V294.2A4.4,4.4,0,0,0,357.585,290.692Z" transform="translate(-45.652 -65.083)" fill="#4d21d6"/>
    <g id="Group_689" data-name="Group 689" transform="translate(309.115 217.222)">
      <rect id="Rectangle_280" data-name="Rectangle 280" width="31.586" height="6.422" transform="translate(0 7.602)" fill="#8a3ffc"/>
      <rect id="Rectangle_281" data-name="Rectangle 281" width="6.914" height="7.634" transform="translate(16.776 12.517)" fill="#8a3ffc"/>
      <rect id="Rectangle_282" data-name="Rectangle 282" width="6.422" height="5.308" transform="translate(6.291 11.894)" fill="#8a3ffc"/>
      <g id="Group_688" data-name="Group 688" transform="translate(30.145 0)">
        <path id="Path_632" data-name="Path 632" d="M469.151,295A10.551,10.551,0,1,1,479.7,284.451,10.565,10.565,0,0,1,469.151,295Zm0-15.531a4.98,4.98,0,1,0,4.98,4.98A4.978,4.978,0,0,0,469.151,279.47Z" transform="translate(-458.6 -273.9)" fill="#8a3ffc"/>
      </g>
    </g>
  </g>
</svg>
