<svg xmlns="http://www.w3.org/2000/svg" width="51.896" height="58.73" viewBox="0 0 51.896 58.73">
  <g id="TOTAL_OF_STAKE" data-name="TOTAL OF STAKE" transform="translate(-128.386 -48.8)">
    <path id="Path_368" data-name="Path 368" d="M135.95,324.366l13.779,8.308,13.686-2.108,6.758-7.766.666,4.944-1.813,3.751s-8.324,9.393-18.445,6.913-15.98-6.123-15.887-10.85S135.95,324.366,135.95,324.366Z" transform="translate(-5.329 -231.53)" fill="#344149"/>
    <g id="Group_526" data-name="Group 526" transform="translate(128.853 78.204)">
      <g id="Group_525" data-name="Group 525" transform="translate(0)">
        <path id="Path_369" data-name="Path 369" d="M136.732,241.724c-3.3,2.248-5.332,5.317-5.332,8.7,0,6.851,8.37,12.431,18.662,12.431s18.662-5.58,18.662-12.431c0-5.626-5.642-10.4-13.346-11.919l.186,1.3c6.929,1.488,11.935,5.689,11.935,10.617,0,6.169-7.812,11.191-17.406,11.191s-17.406-5.022-17.406-11.191c0-2.961,1.8-5.658,4.743-7.673" transform="translate(-131.4 -238.5)" fill="#7e97b0"/>
      </g>
    </g>
    <g id="Group_528" data-name="Group 528" transform="translate(128.853 80.002)">
      <g id="Group_527" data-name="Group 527" transform="translate(0)">
        <path id="Path_370" data-name="Path 370" d="M152.9,252.3c6.448.775,11.47,4.077,11.47,7.92,0,4.387-6.556,8.091-14.306,8.091s-14.307-3.7-14.307-8.091c0-1.937,1.271-3.735,3.363-5.146l-1.55-2.976c-3.612,2.48-6.169,5.58-6.169,8.122,0,5.053,10.23,12.431,18.662,12.431s18.662-7.378,18.662-12.431c0-3.27-4.294-7.533-9.61-10.121" transform="translate(-131.4 -250.1)" fill="#7e97b0"/>
      </g>
    </g>
    <g id="Group_530" data-name="Group 530" transform="translate(128.884 90.123)">
      <g id="Group_529" data-name="Group 529" transform="translate(0)">
        <path id="Path_371" data-name="Path 371" d="M168.893,320.375V315.4h-1.24c0,6.169-7.812,11.191-17.407,11.191S132.84,321.569,132.84,315.4H131.6v4.976c0,6.851,8.37,12.431,18.662,12.431S168.893,327.242,168.893,320.375Zm-36.069,0v-.512c2.7,4.665,9.486,7.967,17.407,7.967s14.71-3.317,17.407-7.967v.512c0,6.169-7.812,11.191-17.407,11.191S132.825,326.544,132.825,320.375Z" transform="translate(-131.6 -315.4)" fill="#7e97b0"/>
      </g>
    </g>
    <g id="Group_532" data-name="Group 532" transform="translate(128.853 90.123)">
      <g id="Group_531" data-name="Group 531" transform="translate(0)">
        <path id="Path_372" data-name="Path 372" d="M136.376,322.313l-.217-.186a8.886,8.886,0,0,1-3.519-6.727H131.4v4.976a10.064,10.064,0,0,0,3.953,7.673l1.023.868Zm-3.72-1.937v-.48a11.9,11.9,0,0,0,2.48,2.976v3.24A8.31,8.31,0,0,1,132.656,320.376Z" transform="translate(-131.4 -315.4)" fill="#7e97b0"/>
      </g>
    </g>
    <g id="Group_534" data-name="Group 534" transform="translate(136.929 99.036)">
      <g id="Group_533" data-name="Group 533" transform="translate(0)">
        <path id="Path_373" data-name="Path 373" d="M190.971,375.008l-.542-.077a22.981,22.981,0,0,1-6.061-1.659l-.868-.372v6.324l.372.17a24.1,24.1,0,0,0,6.386,1.751l.713.093v-6.231Zm-6.216,3.395v-3.627a24.442,24.442,0,0,0,4.975,1.317v3.72A24.284,24.284,0,0,1,184.755,378.4Z" transform="translate(-183.5 -372.9)" fill="#7e97b0"/>
      </g>
    </g>
    <g id="Group_536" data-name="Group 536" transform="translate(150.615 99.051)">
      <g id="Group_535" data-name="Group 535">
        <path id="Path_374" data-name="Path 374" d="M272.513,381.231a24.1,24.1,0,0,0,6.386-1.751l.372-.155V373l-.868.372a22.815,22.815,0,0,1-6.06,1.659l-.542.078v6.231Zm.543-5.053a24.178,24.178,0,0,0,4.975-1.318V378.5a23.069,23.069,0,0,1-4.975,1.4Z" transform="translate(-271.8 -373)" fill="#7e97b0"/>
      </g>
    </g>
    <g id="Group_538" data-name="Group 538" transform="translate(161.202 90.123)">
      <g id="Group_537" data-name="Group 537">
        <path id="Path_375" data-name="Path 375" d="M341.123,328.048a10.064,10.064,0,0,0,3.952-7.673V315.4h-1.24a8.885,8.885,0,0,1-3.518,6.727l-.217.186v6.6Zm.217-5.177a12.182,12.182,0,0,0,2.48-2.976v.48a8.373,8.373,0,0,1-2.48,5.75Z" transform="translate(-340.1 -315.4)" fill="#7e97b0"/>
      </g>
    </g>
    <g id="Group_540" data-name="Group 540" transform="translate(137.533 87.225)">
      <g id="Group_539" data-name="Group 539" transform="translate(0)">
        <path id="Path_376" data-name="Path 376" d="M195.739,296.7l-.263.124a8.85,8.85,0,0,1-7.564.419l-.512,1.131,4.526,2.062a10.1,10.1,0,0,0,8.618-.434l1.225-.573Zm-3.286,2.589-.434-.2a12.1,12.1,0,0,0,3.736-1.039l2.96,1.333A8.223,8.223,0,0,1,192.453,299.289Z" transform="translate(-187.4 -296.7)" fill="#7e97b0"/>
      </g>
    </g>
    <ellipse id="Ellipse_31" data-name="Ellipse 31" cx="14.818" cy="8.959" rx="14.818" ry="8.959" transform="translate(132.589 80.916)" fill="#667e91"/>
    <path id="Path_377" data-name="Path 377" d="M213.957,95.6s10.741,9.1,1.271,23.7-14.028,7.471-14.028,7.471l1.922,2.9,2.79.992.837.217s5.472-1.054,6.944-2.232c1.457-1.178,8.339-6.665,10.044-15.407s.124-11.889-3.72-15.779Z" transform="translate(-61.528 -39.546)" fill="#344149"/>
    <g id="Group_542" data-name="Group 542" transform="translate(148.988 79.289)">
      <g id="Group_541" data-name="Group 541" transform="translate(0)">
        <path id="Path_378" data-name="Path 378" d="M266.306,245.5l-.294.465A23.229,23.229,0,0,1,262,250.8l-.7.635,5.766,2.62.31-.279a24.361,24.361,0,0,0,4.232-5.084l.388-.6-5.689-2.589Zm.527,7.068-3.317-1.5a24.952,24.952,0,0,0,3.255-3.983l3.379,1.534A23.089,23.089,0,0,1,266.833,252.568Z" transform="translate(-261.3 -245.5)" fill="#7e97b0"/>
      </g>
    </g>
    <g id="Group_544" data-name="Group 544" transform="translate(156.552 65.959)">
      <g id="Group_543" data-name="Group 543" transform="translate(0 0)">
        <path id="Path_379" data-name="Path 379" d="M315.99,169.063a24.368,24.368,0,0,0,1.039-6.541v-.4l-5.766-2.619-.015.946a23.179,23.179,0,0,1-.992,6.2l-.155.527,5.673,2.573Zm-4.386-2.588a24.581,24.581,0,0,0,.852-5.069l3.317,1.5a23.035,23.035,0,0,1-.791,5.115Z" transform="translate(-310.1 -159.5)" fill="#7e97b0"/>
      </g>
    </g>
    <g id="Group_546" data-name="Group 546" transform="translate(152.444 54.923)">
      <g id="Group_545" data-name="Group 545" transform="translate(0)">
        <path id="Path_380" data-name="Path 380" d="M293.985,97.12a10.078,10.078,0,0,0-5.348-6.758L284.111,88.3l-.511,1.132a8.886,8.886,0,0,1,4.665,5.967l.078.279,6.014,2.728Zm-4.619-2.34a11.864,11.864,0,0,0-1.689-3.5l.434.2a8.351,8.351,0,0,1,4.2,4.635Z" transform="translate(-283.6 -88.3)" fill="#7e97b0"/>
      </g>
    </g>
    <g id="Group_548" data-name="Group 548" transform="translate(137.549 54.907)">
      <g id="Group_547" data-name="Group 547" transform="translate(0)">
        <path id="Path_381" data-name="Path 381" d="M207.433,90.261,202.907,88.2l-.512,1.132c5.627,2.557,6.96,11.733,3.007,20.476-3.968,8.742-11.764,13.78-17.391,11.238l-.512,1.132,4.526,2.061c6.246,2.837,14.787-2.48,19.034-11.858S213.679,93.1,207.433,90.261Zm-14.911,32.845-.465-.217c5.363-.527,11.176-5.348,14.446-12.571s3.069-14.771-.062-19.143l.465.217c5.626,2.558,6.96,11.734,3.007,20.476C205.945,120.626,198.148,125.664,192.522,123.106Z" transform="translate(-187.5 -88.2)" fill="#7e97b0"/>
      </g>
    </g>
    <g id="Group_550" data-name="Group 550" transform="translate(131.555 54.159)">
      <g id="Group_549" data-name="Group 549" transform="translate(0 0)">
        <path id="Path_382" data-name="Path 382" d="M170.232,84.139C163.985,81.3,155.445,86.619,151.2,96s-2.619,19.3,3.611,22.134c6.247,2.836,14.787-2.48,19.034-11.858S176.478,86.96,170.232,84.139Zm-14.911,32.844c-5.626-2.557-6.96-11.733-3.007-20.476s11.765-13.78,17.391-11.238,6.96,11.734,3.007,20.475S160.947,119.526,155.321,116.984Z" transform="translate(-148.831 -83.376)" fill="#93b3ce"/>
      </g>
    </g>
    <ellipse id="Ellipse_32" data-name="Ellipse 32" cx="15.035" cy="11.966" rx="15.035" ry="11.966" transform="translate(128.386 79.94) rotate(-65.657)" fill="#7e97b0"/>
    <g id="Group_552" data-name="Group 552" transform="translate(132.284 54.515)">
      <g id="Group_551" data-name="Group 551" transform="translate(0)">
        <path id="Path_383" data-name="Path 383" d="M174.207,86.076c-4.6-2.093-15.547,4.17-19.034,11.857s-.992,20.042,3.611,22.134,14.028-2.712,18.259-11.951C181.26,98.864,178.811,88.153,174.207,86.076Zm-13.625,30.008c-3.983-1.813-4.65-9.3-1.457-16.368s9.285-11.5,13.268-9.688,4.65,9.3,1.457,16.368S164.582,117.9,160.583,116.084Z" transform="translate(-153.536 -85.669)" fill="#93b3ce"/>
      </g>
    </g>
    <circle id="Ellipse_33" data-name="Ellipse 33" cx="12.462" cy="12.462" r="12.462" transform="translate(155.358 48.8)" fill="#7e97b0"/>
    <g id="Group_559" data-name="Group 559" transform="translate(160.501 55.753)">
      <g id="Group_555" data-name="Group 555" transform="translate(1.099 0.735)">
        <g id="Group_553" data-name="Group 553" transform="translate(2.669)">
          <path id="Path_384" data-name="Path 384" d="M370.412,98.894c.806.883.263,2.681-1.178,4l-4.883,4.417c-1.457,1.318-3.3,1.674-4.092.791-.806-.883-.264-2.682,1.178-4l4.883-4.417C367.761,98.351,369.606,97.995,370.412,98.894Z" transform="translate(-359.885 -98.397)" fill="#3a4951"/>
        </g>
        <g id="Group_554" data-name="Group 554" transform="translate(0 3.508)">
          <path id="Path_385" data-name="Path 385" d="M348.671,127.473c-.884.806-2.681.264-4-1.178l-.728-.806c-1.318-1.457-1.674-3.3-.791-4.092s2.682-.264,4,1.178l.729.806C349.2,124.822,349.554,126.667,348.671,127.473Z" transform="translate(-342.667 -121.029)" fill="#3a4951"/>
        </g>
      </g>
      <g id="Group_558" data-name="Group 558">
        <g id="Group_556" data-name="Group 556" transform="translate(2.833)">
          <path id="Path_386" data-name="Path 386" d="M363.985,94.082c.837.837.4,2.666-.992,4.061l-4.65,4.65c-1.379,1.38-3.208,1.829-4.061.992-.837-.837-.4-2.666.992-4.061l4.65-4.65C361.319,93.679,363.133,93.245,363.985,94.082Z" transform="translate(-353.857 -93.657)" fill="#596e7c"/>
        </g>
        <g id="Group_557" data-name="Group 557" transform="translate(0 3.984)">
          <path id="Path_387" data-name="Path 387" d="M341.814,125.595c-.837.837-2.666.4-4.061-.992l-.759-.76c-1.38-1.38-1.829-3.208-.992-4.061.837-.837,2.666-.4,4.061.992l.76.759C342.217,122.929,342.651,124.758,341.814,125.595Z" transform="translate(-335.58 -119.357)" fill="#596e7c"/>
        </g>
      </g>
    </g>
  </g>
</svg>
