<svg xmlns="http://www.w3.org/2000/svg" width="17" height="17" viewBox="0 0 17 17">
  <g id="Group_865" data-name="Group 865" transform="translate(-1010 -2980)">
    <circle id="Ellipse_60" data-name="Ellipse 60" cx="8.5" cy="8.5" r="8.5" transform="translate(1010 2980)" fill="#7f98b1"/>
    <path id="Path_904" data-name="Path 904" d="M.69,6.028,2.542,7.237v2.02a.425.425,0,0,0,.721.3L4.379,8.44,5.94,9.46a.421.421,0,0,0,.628-.206L9.214,2.08a.361.361,0,0,0,.02-.172.425.425,0,0,0-.6-.355L.741,5.293A.426.426,0,0,0,.69,6.028Zm6.1-2.666L3.379,6.775,1.784,5.732Z" transform="translate(1013.498 2982.484)" fill="#fdfefe"/>
  </g>
</svg>
