<svg xmlns="http://www.w3.org/2000/svg" width="17" height="17" viewBox="0 0 17 17">
  <g id="Group_21858" data-name="Group 21858" transform="translate(-135 -670)">
    <circle id="Ellipse_107" data-name="Ellipse 107" cx="8.5" cy="8.5" r="8.5" transform="translate(135 670)" fill="#7f98b1"/>
    <g id="Group_21857" data-name="Group 21857" transform="translate(137.738 673)">
      <path id="Path_6949" data-name="Path 6949" d="M24.456,50.866h2.018v.313H24.456Z" transform="translate(-19.642 -43.246)" fill="#fff"/>
      <path id="Path_6950" data-name="Path 6950" d="M12.458,8.821V8.49a.059.059,0,0,1,.059-.059h3.975V8.051H12.979a.321.321,0,0,0,.245.113h.937a.059.059,0,0,1,0,.119h-.937a.439.439,0,0,1-.387-.232h-.3a.059.059,0,0,1-.059-.059V7.955h-.231a.178.178,0,0,1,0-.356h.231V7.56a.059.059,0,0,1,.06-.06h3.956V2.89A.891.891,0,0,0,15.6,2H11.054a.727.727,0,0,1,.329.61V8.821a.538.538,0,0,0,.536.539l.1-.009a.538.538,0,0,0,.439-.53Zm1.754-1.714H12.394a.059.059,0,1,1,0-.119h1.817a.059.059,0,0,1,0,.119Zm.928.332a.391.391,0,1,1,.389-.391.391.391,0,0,1-.389.391Zm.34-1.093H12.395a.059.059,0,0,1,0-.119H15.48a.059.059,0,1,1,0,.119Zm0-.762H12.395a.059.059,0,0,1,0-.119H15.48a.059.059,0,1,1,0,.119Zm-2.719-2.4h2.353a.059.059,0,0,1,0,.119H12.761a.059.059,0,0,1,0-.119Zm-.5.762h3.362a.059.059,0,0,1,0,.119H12.256a.059.059,0,0,1,0-.119Zm0,.762h3.362a.059.059,0,0,1,0,.119H12.256a.059.059,0,0,1,0-.119Z" transform="translate(-7.782)" fill="#fff"/>
      <path id="Path_6951" data-name="Path 6951" d="M2.871,2a.611.611,0,0,0-.61.61v.756H3.482V2.615A.609.609,0,0,0,2.871,2ZM6.95,7.937H9.028V7.624H6.95ZM4.4,7.781a.059.059,0,0,0,.059.059h.231V7.722H4.464A.059.059,0,0,0,4.4,7.781Zm2.953-1a.272.272,0,1,0,.27.272A.272.272,0,0,0,7.358,6.78ZM4.8,8.554v.272a.656.656,0,0,1-.28.539H9.051a.51.51,0,0,0,.51-.509v-.3Zm1.142.465H5.63a.059.059,0,0,1,0-.119h.307a.059.059,0,0,1,0,.119Zm2.666,0H6.273a.059.059,0,0,1,0-.119H8.6a.059.059,0,0,1,0,.119Zm.543-1.369v.263l.361-.131Z" transform="translate(0 -0.004)" fill="#fff"/>
    </g>
  </g>
</svg>
