<svg id="Vectorized_Apple_gray_logo" xmlns="http://www.w3.org/2000/svg" width="35.835" height="44" viewBox="0 0 35.835 44">
  <path id="Path_63" data-name="Path 63" d="M308.4,56.5a10.026,10.026,0,0,0-6.265,3.076,9.126,9.126,0,0,0-2.491,7.034s2.967.542,6.133-2.624A9.718,9.718,0,0,0,308.4,56.5Z" transform="translate(-281.751 -56.5)" fill="#fff"/>
  <path id="Path_64" data-name="Path 64" d="M120.48,175.429c-2.209-.015-3.566-1.923-7.328-1.923a10.833,10.833,0,0,0-8.222,4.3,14.254,14.254,0,0,0-2.68,9.093,27.827,27.827,0,0,0,7.8,18.185,5.485,5.485,0,0,0,3.64,1.679c2.578.078,4.162-1.852,7.419-1.852s4.237,1.852,7.178,1.852a6.03,6.03,0,0,0,4.343-2.184,28.256,28.256,0,0,0,5.459-9.56A9.765,9.765,0,0,1,132.144,186a10.251,10.251,0,0,1,4.772-8.278,10.46,10.46,0,0,0-8.6-4.388C124.273,173.363,122.463,175.443,120.48,175.429Z" transform="translate(-102.25 -162.763)" fill="#fff"/>
</svg>
