<svg xmlns="http://www.w3.org/2000/svg" width="17" height="17" viewBox="0 0 17 17">
  <g id="Group_21856" data-name="Group 21856" transform="translate(-161 -649)">
    <circle id="Ellipse_106" data-name="Ellipse 106" cx="8.5" cy="8.5" r="8.5" transform="translate(161 649)" fill="#7f98b1"/>
    <path id="Path_6948" data-name="Path 6948" d="M4.536,1.1a.344.344,0,0,1,.486,0L6.74,2.819a.344.344,0,1,1-.486.486L5.123,2.173v.888a.344.344,0,1,1-.687,0V2.173L3.3,3.3a.344.344,0,0,1-.486-.486Zm-.1,3.335a.344.344,0,0,0-.344-.344H2.031A1.031,1.031,0,0,0,1,5.123V7.528A1.031,1.031,0,0,0,2.031,8.559h5.5A1.031,1.031,0,0,0,8.559,7.528V5.123A1.031,1.031,0,0,0,7.528,4.092H5.466a.344.344,0,0,0-.344.344V6.841a.344.344,0,1,1-.687,0Z" transform="translate(165 653)" fill="#fff" fill-rule="evenodd"/>
  </g>
</svg>
