<svg xmlns="http://www.w3.org/2000/svg" width="26.153" height="22.17" viewBox="0 0 26.153 22.17">
  <path id="XMLID_1022_" d="M20.749,26.754v1.421a1.052,1.052,0,0,1-1.165.995H1.023A.92.92,0,0,1,0,28.176V14.134a1.1,1.1,0,0,1,1.023-1.194H4.349a1.137,1.137,0,0,1,0,2.274H2.274V26.9h16.2v-.142a1.137,1.137,0,0,1,2.274,0Zm5.059-10.6L18.76,23.344a1.145,1.145,0,0,1-1.251.256,1.166,1.166,0,0,1-.739-1.08v-3.1c-2.274-.057-7.731.171-9.721,3.667a1.149,1.149,0,0,1-.995.6.967.967,0,0,1-.284-.028,1.152,1.152,0,0,1-.853-1.109,11.829,11.829,0,0,1,3.3-7.845c2.075-2.132,4.86-3.269,8.555-3.468v-3.1a1.144,1.144,0,0,1,.711-1.052,1.181,1.181,0,0,1,1.279.256l7.077,7.191A1.159,1.159,0,0,1,25.809,16.152Zm-2.444-.824-4.32-4.377v1.393a1.122,1.122,0,0,1-1.137,1.137c-3.525,0-6.225.938-8.072,2.814a8.122,8.122,0,0,0-1.791,2.7,16.529,16.529,0,0,1,8.129-1.876c1.08,0,1.791.085,1.876.085a1.138,1.138,0,0,1,.995,1.137v1.393l4.32-4.406Z" transform="translate(0 -7)" fill="#e643f1"/>
</svg>
