<svg xmlns="http://www.w3.org/2000/svg" width="22.797" height="24" viewBox="0 0 22.797 24">
  <g id="COPY" transform="translate(-58.8 -48.4)">
    <g id="Group_63" data-name="Group 63" transform="translate(58.8 52.238)">
      <path id="Path_122" data-name="Path 122" d="M68.118,130.175a4.527,4.527,0,0,1-4.52-4.52V114.8h-1.37a3.439,3.439,0,0,0-3.428,3.428v13.306a3.439,3.439,0,0,0,3.428,3.428H74.146a3.439,3.439,0,0,0,3.428-3.428v-1.358Z" transform="translate(-58.8 -114.8)" fill="#fff"/>
    </g>
    <path id="Path_123" data-name="Path 123" d="M184.391,63.093a3.017,3.017,0,0,1-3.012,3.011H170.911a3.017,3.017,0,0,1-3.011-3.011V51.411a3.017,3.017,0,0,1,3.011-3.011h10.468a3.017,3.017,0,0,1,3.012,3.011Z" transform="translate(-102.794 0)" fill="#fff"/>
  </g>
</svg>
