<svg xmlns="http://www.w3.org/2000/svg" width="33" height="19.547" viewBox="0 0 33 19.547">
  <g id="Group_131" data-name="Group 131" transform="translate(-387 -461.727)">
    <path id="Icon_awesome-coins" data-name="Icon awesome-coins" d="M0,15.473V17.1c0,1.348,3.283,2.443,7.33,2.443s7.33-1.1,7.33-2.443v-1.63C13.083,16.584,10.2,17.1,7.33,17.1S1.577,16.584,0,15.473ZM12.217,4.887c4.047,0,7.33-1.1,7.33-2.443S16.264,0,12.217,0s-7.33,1.1-7.33,2.443S8.17,4.887,12.217,4.887ZM0,11.469v1.97c0,1.348,3.283,2.443,7.33,2.443s7.33-1.1,7.33-2.443v-1.97c-1.577,1.3-4.463,1.97-7.33,1.97S1.577,12.767,0,11.469Zm15.882.42c2.188-.424,3.665-1.21,3.665-2.115V8.143A9.375,9.375,0,0,1,15.882,9.46ZM7.33,6.108C3.283,6.108,0,7.475,0,9.163s3.283,3.054,7.33,3.054,7.33-1.367,7.33-3.054S11.377,6.108,7.33,6.108ZM15.7,8.258c2.291-.412,3.844-1.222,3.844-2.149V4.478a12.429,12.429,0,0,1-6.135,1.6A4.275,4.275,0,0,1,15.7,8.258Z" transform="translate(400.453 461.727)" fill="#fff"/>
    <path id="Icon_awesome-arrow-right" data-name="Icon awesome-arrow-right" d="M4.879,3.4l.569-.569a.612.612,0,0,1,.868,0L11.3,7.8a.612.612,0,0,1,0,.868L6.316,13.652a.612.612,0,0,1-.868,0l-.569-.569a.615.615,0,0,1,.01-.879l3.086-2.94H.615A.613.613,0,0,1,0,8.65V7.83a.613.613,0,0,1,.615-.615H7.976L4.889,4.275A.611.611,0,0,1,4.879,3.4Z" transform="translate(387 462.26)" fill="#fff"/>
  </g>
</svg>
