<svg xmlns="http://www.w3.org/2000/svg" xmlns:xlink="http://www.w3.org/1999/xlink" width="94" height="94" viewBox="0 0 94 94">
  <defs>
    <clipPath id="clip-path">
      <rect id="Rectangle_40" data-name="Rectangle 40" width="94" height="94" transform="translate(0.17 0.169)" fill="none"/>
    </clipPath>
    <clipPath id="clip-path-3">
      <rect id="Rectangle_39" data-name="Rectangle 39" width="87" height="87" transform="translate(-0.384 -0.384)" fill="none"/>
    </clipPath>
    <clipPath id="clip-path-4">
      <rect id="Rectangle_34" data-name="Rectangle 34" width="21.971" height="21.971" fill="none"/>
    </clipPath>
    <clipPath id="clip-path-5">
      <rect id="Rectangle_35" data-name="Rectangle 35" width="7.762" height="7.762" fill="none"/>
    </clipPath>
    <clipPath id="clip-path-6">
      <rect id="Rectangle_36" data-name="Rectangle 36" width="17.433" height="17.433" fill="none"/>
    </clipPath>
    <linearGradient id="linear-gradient" x1="0.5" x2="0.5" y2="1" gradientUnits="objectBoundingBox">
      <stop offset="0" stop-color="aqua"/>
      <stop offset="0.272" stop-color="#4ed0ff"/>
      <stop offset="0.839" stop-color="#e370ff"/>
      <stop offset="1" stop-color="#e26cff"/>
    </linearGradient>
    <clipPath id="clip-path-7">
      <rect id="Rectangle_37" data-name="Rectangle 37" width="14.516" height="3.814" fill="none"/>
    </clipPath>
    <clipPath id="clip-path-8">
      <rect id="Rectangle_38" data-name="Rectangle 38" width="12.122" height="12.121" fill="none"/>
    </clipPath>
  </defs>
  <g id="Group_81" data-name="Group 81" transform="translate(-0.17 -0.169)" clip-path="url(#clip-path)">
    <g id="Group_80" data-name="Group 80" transform="translate(3.554 3.554)">
      <g id="Group_79" data-name="Group 79" transform="translate(0 0)" clip-path="url(#clip-path-3)">
        <path id="Path_111" data-name="Path 111" d="M343.058,418a10.075,10.075,0,1,0,13.1,5.61,10.075,10.075,0,0,0-13.1-5.61" transform="translate(-310.393 -384.857)" fill="#f9a140"/>
        <g id="Group_66" data-name="Group 66" transform="translate(25.423 31.511)" opacity="0.1">
          <g id="Group_65" data-name="Group 65">
            <g id="Group_64" data-name="Group 64" clip-path="url(#clip-path-4)">
              <path id="Path_112" data-name="Path 112" d="M331.735,406.17a10.982,10.982,0,1,0,14.277,6.115,10.982,10.982,0,0,0-14.277-6.115m7.476,18.68A9.138,9.138,0,1,1,344.3,412.97a9.138,9.138,0,0,1-5.088,11.879" transform="translate(-324.83 -405.38)" fill="#272525"/>
            </g>
          </g>
        </g>
        <path id="Path_113" data-name="Path 113" d="M317.676,391.484a12.109,12.109,0,1,0,15.741,6.743,12.109,12.109,0,0,0-15.741-6.743m8.243,20.6a10.075,10.075,0,1,1,5.61-13.1,10.075,10.075,0,0,1-5.61,13.1" transform="translate(-285.766 -360.23)" fill="#f4d242"/>
        <path id="Path_114" data-name="Path 114" d="M402.626,477.774a2.848,2.848,0,0,0-1.6-.352,2.219,2.219,0,0,0,.488-1.079,2.3,2.3,0,0,0-.167-1.191,2.368,2.368,0,0,0-1.625-1.532,4.533,4.533,0,0,0-2.8.367l-.4.16-.447-1.117c-.137-.342-.756-.094-.619.248l.447,1.117-.4.161-.447-1.117c-.137-.342-.756-.094-.619.248l.447,1.117-1.626.651a.586.586,0,0,0-.35.309.623.623,0,0,0,.027.477.546.546,0,0,0,.35.375,1.69,1.69,0,0,0,.826-.19l.259-.1L397.2,483.4l-.259.1a1.963,1.963,0,0,0-.779.444.513.513,0,0,0,0,.5.632.632,0,0,0,.307.369.592.592,0,0,0,.469-.024l1.673-.67.447,1.117c.137.342.756.094.619-.248l-.447-1.117.4-.161.447,1.117c.137.342.756.094.619-.248l-.447-1.117.2-.082.675-.27a7.47,7.47,0,0,0,1.3-.632,3.13,3.13,0,0,0,.729-.661,2.976,2.976,0,0,0,.611-1.365,2.677,2.677,0,0,0-.168-1.445,2.44,2.44,0,0,0-.972-1.233m-5.077-2.725a2.438,2.438,0,0,1,1.547-.186,1.368,1.368,0,0,1,.916.877,1.308,1.308,0,0,1-.1,1.307,3.3,3.3,0,0,1-1.512,1.015l-.267.107-1.157-2.89Zm-1.193.477,1.157,2.89-.4.161-1.157-2.89Zm2.429,7.237-1.289-3.22.4-.161,1.289,3.22ZM402.109,481a4.532,4.532,0,0,1-1.932,1.206l-.369.148-1.289-3.22.447-.179a4.324,4.324,0,0,1,2.178-.443,1.463,1.463,0,0,1,1.074,1.01,1.443,1.443,0,0,1-.11,1.479" transform="translate(-362.255 -436.206)" fill="#f4d242"/>
        <path id="Path_115" data-name="Path 115" d="M679.292,505.2A3.56,3.56,0,1,0,682,509.439a3.56,3.56,0,0,0-2.711-4.242" transform="translate(-622.824 -465.992)" fill="#f9a140"/>
        <g id="Group_69" data-name="Group 69" transform="translate(51.821 38.801)" opacity="0.1">
          <g id="Group_68" data-name="Group 68">
            <g id="Group_67" data-name="Group 67" clip-path="url(#clip-path-5)">
              <path id="Path_116" data-name="Path 116" d="M675.479,501a3.88,3.88,0,1,0,2.955,4.624A3.88,3.88,0,0,0,675.479,501m-1.528,6.942a3.228,3.228,0,1,1,3.847-2.459,3.228,3.228,0,0,1-3.847,2.459" transform="translate(-670.764 -500.912)" fill="#272525"/>
            </g>
          </g>
        </g>
        <path id="Path_117" data-name="Path 117" d="M670.746,495.8a4.278,4.278,0,1,0,3.258,5.1,4.278,4.278,0,0,0-3.258-5.1m-1.685,7.654a3.56,3.56,0,1,1,4.242-2.711,3.56,3.56,0,0,1-4.242,2.711" transform="translate(-614.124 -457.292)" fill="#f4d242"/>
        <path id="Path_118" data-name="Path 118" d="M700.2,523.491a1,1,0,0,0-.4-.421.785.785,0,0,0,.357-.218.811.811,0,0,0,.188-.381.836.836,0,0,0-.17-.77,1.6,1.6,0,0,0-.89-.448l-.149-.033.091-.415c.028-.127-.2-.178-.23-.051l-.091.415-.15-.033.091-.415c.028-.127-.2-.178-.23-.051l-.091.415-.6-.133a.207.207,0,0,0-.164.021.22.22,0,0,0-.087.145.193.193,0,0,0,.028.179.6.6,0,0,0,.279.109l.1.021-.579,2.63-.1-.021a.693.693,0,0,0-.316-.025.181.181,0,0,0-.1.145.223.223,0,0,0,.016.169.21.21,0,0,0,.142.086l.622.137-.091.415c-.028.127.2.178.23.051L698,524.6l.15.033-.091.415c-.028.127.2.178.23.051l.091-.415.076.017.251.055a2.652,2.652,0,0,0,.5.073,1.107,1.107,0,0,0,.344-.048,1.049,1.049,0,0,0,.45-.277.943.943,0,0,0,.238-.456.862.862,0,0,0-.039-.553m-.942-1.8a.861.861,0,0,1,.489.253.483.483,0,0,1,.093.438.462.462,0,0,1-.289.362,1.165,1.165,0,0,1-.643,0l-.1-.022.237-1.074Zm-.443-.1-.237,1.074-.15-.033.237-1.074Zm-.729,2.6.263-1.2.15.033-.264,1.2Zm1.321.145a1.6,1.6,0,0,1-.8-.032l-.137-.03.263-1.2.166.037a1.528,1.528,0,0,1,.724.3.517.517,0,0,1,.113.509.51.51,0,0,1-.326.41" transform="translate(-643.158 -480.293)" fill="#f4d242"/>
        <path id="Path_119" data-name="Path 119" d="M558.143,104.3a8,8,0,1,0,8.6,7.346,8,8,0,0,0-8.6-7.346" transform="translate(-508.107 -95.745)" fill="#f9a140"/>
        <g id="Group_72" data-name="Group 72" transform="translate(41.944 7.814)" opacity="0.1">
          <g id="Group_71" data-name="Group 71">
            <g id="Group_70" data-name="Group 70" clip-path="url(#clip-path-6)">
              <path id="Path_120" data-name="Path 120" d="M549.369,94.868a8.716,8.716,0,1,0,9.371,8.008,8.716,8.716,0,0,0-9.371-8.008m1.248,15.919a7.252,7.252,0,1,1,6.663-7.8,7.252,7.252,0,0,1-6.663,7.8" transform="translate(-541.334 -94.841)" fill="#272525"/>
            </g>
          </g>
        </g>
        <path id="Path_121" data-name="Path 121" d="M538.477,83.155a9.61,9.61,0,1,0,10.332,8.829,9.61,9.61,0,0,0-10.332-8.829m1.376,17.552a8,8,0,1,1,7.346-8.6,8,8,0,0,1-7.346,8.6" transform="translate(-488.567 -76.205)" fill="#f4d242"/>
        <path id="Path_122" data-name="Path 122" d="M613.239,147.475a2.261,2.261,0,0,0-1.131-.645,1.762,1.762,0,0,0,.625-.7,1.823,1.823,0,0,0,.155-.941,1.88,1.88,0,0,0-.869-1.545,3.6,3.6,0,0,0-2.205-.383l-.341.027-.075-.952c-.023-.292-.551-.25-.528.041q.037.476.075.952l-.343.027q-.037-.476-.075-.952c-.023-.292-.551-.25-.528.041q.037.476.075.952l-1.386.109a.465.465,0,0,0-.338.151.5.5,0,0,0-.092.368.434.434,0,0,0,.177.367,1.343,1.343,0,0,0,.671.052l.221-.017.473,6.03-.221.017a1.559,1.559,0,0,0-.7.152.407.407,0,0,0-.118.376.5.5,0,0,0,.145.352.47.47,0,0,0,.361.093l1.426-.112.075.952c.023.292.551.25.528-.041l-.075-.952.343-.027.075.952c.023.292.551.25.528-.041q-.037-.476-.075-.952l.174-.014.576-.045a5.919,5.919,0,0,0,1.131-.173,2.478,2.478,0,0,0,.708-.328,2.359,2.359,0,0,0,.785-.89,2.124,2.124,0,0,0,.214-1.135,1.937,1.937,0,0,0-.445-1.164m-3.2-3.264a1.934,1.934,0,0,1,1.216.225,1.085,1.085,0,0,1,.487.881,1.038,1.038,0,0,1-.385.966,2.617,2.617,0,0,1-1.385.412l-.228.018-.193-2.463Zm-1.016.08q.1,1.231.193,2.463l-.343.027q-.1-1.231-.193-2.463Zm.13,6.057-.215-2.744.343-.027.215,2.744Zm2.934-.55a3.6,3.6,0,0,1-1.749.457l-.314.025-.215-2.744.381-.03a3.431,3.431,0,0,1,1.755.179,1.161,1.161,0,0,1,.575,1.019,1.145,1.145,0,0,1-.433,1.094" transform="translate(-559.356 -130.711)" fill="#f4d242"/>
        <path id="Path_123" data-name="Path 123" d="M273.086,688.182H243.4a1.244,1.244,0,0,1-1.285-1.2V659.721a1.244,1.244,0,0,1,1.285-1.2h34.807a1.244,1.244,0,0,1,1.285,1.2V682.21a6.2,6.2,0,0,1-6.406,5.971" transform="translate(-223.003 -607.695)" fill="#60747f"/>
        <path id="Path_124" data-name="Path 124" d="M255.069,690.068H224.983a1.051,1.051,0,0,1-1.086-1.012V661.421a1.051,1.051,0,0,1,1.086-1.012h35.206a1.051,1.051,0,0,1,1.086,1.012v22.861a6.007,6.007,0,0,1-6.207,5.785" transform="translate(-206.176 -609.437)" fill="url(#linear-gradient)"/>
        <path id="Path_125" data-name="Path 125" d="M584.565,808.6H574.059a3.882,3.882,0,0,1-4.01-3.738v-.076a3.882,3.882,0,0,1,4.01-3.738h10.506Z" transform="translate(-525.912 -739.348)" fill="#b415ff"/>
        <g id="Group_75" data-name="Group 75" transform="translate(44.136 65.48)" opacity="0.25">
          <g id="Group_74" data-name="Group 74">
            <g id="Group_73" data-name="Group 73" clip-path="url(#clip-path-7)">
              <path id="Path_126" data-name="Path 126" d="M584.565,850.576v3.776H574.059a3.882,3.882,0,0,1-4.01-3.738v-.076Z" transform="translate(-570.048 -850.538)" fill="#272525"/>
            </g>
          </g>
        </g>
        <path id="Path_127" data-name="Path 127" d="M711.754,363.91a5.558,5.558,0,1,0,7.07,3.437,5.559,5.559,0,0,0-7.07-3.437" transform="translate(-653.347 -335.28)" fill="#f9a140"/>
        <g id="Group_78" data-name="Group 78" transform="translate(54.163 27.822)" opacity="0.1">
          <g id="Group_77" data-name="Group 77">
            <g id="Group_76" data-name="Group 76" clip-path="url(#clip-path-8)">
              <path id="Path_128" data-name="Path 128" d="M705.529,357.375a6.059,6.059,0,1,0,7.707,3.746,6.059,6.059,0,0,0-7.707-3.746m3.628,10.491a5.041,5.041,0,1,1,3.117-6.412,5.041,5.041,0,0,1-3.117,6.412" transform="translate(-701.449 -357.041)" fill="#272525"/>
            </g>
          </g>
        </g>
        <path id="Path_129" data-name="Path 129" d="M697.8,349.263a6.681,6.681,0,1,0,8.5,4.131,6.681,6.681,0,0,0-8.5-4.131m4,11.567a5.558,5.558,0,1,1,3.437-7.07,5.558,5.558,0,0,1-3.437,7.07" transform="translate(-639.76 -321.694)" fill="#f4d242"/>
        <path id="Path_130" data-name="Path 130" d="M745.309,396.221a1.572,1.572,0,0,0-.874-.236,1.224,1.224,0,0,0,.3-.582,1.267,1.267,0,0,0-.06-.661,1.307,1.307,0,0,0-.855-.887,2.5,2.5,0,0,0-1.55.129l-.225.078-.217-.627c-.066-.192-.414-.072-.348.12l.217.627-.226.078-.217-.627c-.066-.192-.414-.072-.348.12l.217.627-.913.316a.323.323,0,0,0-.2.161.343.343,0,0,0,0,.263.3.3,0,0,0,.183.216.933.933,0,0,0,.46-.083l.146-.05,1.374,3.974-.146.05a1.083,1.083,0,0,0-.441.224.283.283,0,0,0-.014.274.349.349,0,0,0,.16.211.327.327,0,0,0,.259,0l.94-.325.217.627c.066.192.414.072.348-.12l-.217-.627.226-.078.217.627c.066.192.414.072.348-.12l-.217-.627.115-.04.379-.131a4.114,4.114,0,0,0,.731-.314,1.727,1.727,0,0,0,.419-.345,1.641,1.641,0,0,0,.372-.736,1.475,1.475,0,0,0-.055-.8,1.345,1.345,0,0,0-.5-.7m-2.726-1.635a1.344,1.344,0,0,1,.858-.062.754.754,0,0,1,.482.508.722.722,0,0,1-.09.718,1.818,1.818,0,0,1-.86.52l-.15.052-.561-1.623Zm-.67.232.561,1.623-.226.078-.561-1.623Zm1.148,4.052-.625-1.808.226-.078.625,1.808Zm1.878-.884a2.5,2.5,0,0,1-1.1.614l-.207.072-.625-1.808.251-.087a2.386,2.386,0,0,1,1.212-.187.807.807,0,0,1,.565.585.8.8,0,0,1-.1.812" transform="translate(-682.878 -362.745)" fill="#f4d242"/>
      </g>
    </g>
  </g>
</svg>
