<svg xmlns="http://www.w3.org/2000/svg" width="60.126" height="78.327" viewBox="0 0 60.126 78.327">
  <g id="KEYSTORE" transform="translate(-284.5 -121.1)">
    <path id="Path_531" data-name="Path 531" d="M337.612,145.932v50.632A4.628,4.628,0,0,1,333,201.18h-43.88a4.628,4.628,0,0,1-4.616-4.616V136.116a4.628,4.628,0,0,1,4.616-4.616H323.18" transform="translate(0 -8.304)" fill="#4f616f"/>
    <path id="Path_532" data-name="Path 532" d="M348.012,135.532v50.632a4.628,4.628,0,0,1-4.616,4.616h-43.88a4.628,4.628,0,0,1-4.616-4.616V125.716a4.628,4.628,0,0,1,4.616-4.616H333.58" transform="translate(-8.304 0)" fill="#8facc5"/>
    <g id="Group_645" data-name="Group 645" transform="translate(293.772 130.876)">
      <g id="Group_641" data-name="Group 641" transform="translate(0 0)">
        <path id="Path_533" data-name="Path 533" d="M333.02,181.647V173H330.5v-1.189c1.471-.1,2.7-.564,3.084-1.411h1.27v11.247Z" transform="translate(-330.5 -170.239)" fill="#546675"/>
        <path id="Path_534" data-name="Path 534" d="M367.226,172.442v5.886a2.966,2.966,0,0,1-5.926,0v-5.886a2.966,2.966,0,0,1,5.926,0Zm-4.072.02v5.845c0,.826.4,1.29,1.129,1.29s1.129-.443,1.129-1.29v-5.845c0-.826-.4-1.29-1.129-1.29S363.154,171.616,363.154,172.462Z" transform="translate(-355.092 -169.6)" fill="#546675"/>
        <path id="Path_535" data-name="Path 535" d="M399.019,181.647V173H396.5v-1.189c1.471-.1,2.7-.564,3.084-1.411h1.27v11.247Z" transform="translate(-383.197 -170.239)" fill="#546675"/>
        <path id="Path_536" data-name="Path 536" d="M433.326,172.442v5.886a2.966,2.966,0,0,1-5.926,0v-5.886a2.966,2.966,0,0,1,5.926,0Zm-4.072.02v5.845c0,.826.4,1.29,1.129,1.29s1.129-.443,1.129-1.29v-5.845c0-.826-.4-1.29-1.129-1.29C429.637,171.172,429.254,171.616,429.254,172.462Z" transform="translate(-407.869 -169.6)" fill="#546675"/>
        <path id="Path_537" data-name="Path 537" d="M465.12,181.647V173H462.6v-1.189c1.471-.1,2.7-.564,3.084-1.411h1.27v11.247Z" transform="translate(-435.974 -170.239)" fill="#546675"/>
        <path id="Path_538" data-name="Path 538" d="M499.426,172.442v5.886a2.966,2.966,0,0,1-5.926,0v-5.886a2.966,2.966,0,0,1,5.926,0Zm-4.092.02v5.845c0,.826.4,1.29,1.129,1.29s1.129-.443,1.129-1.29v-5.845c0-.826-.4-1.29-1.129-1.29S495.334,171.616,495.334,172.462Z" transform="translate(-460.645 -169.6)" fill="#546675"/>
      </g>
      <g id="Group_642" data-name="Group 642" transform="translate(0 13.646)">
        <path id="Path_539" data-name="Path 539" d="M333.02,249.347V240.7H330.5v-1.189c1.471-.1,2.7-.564,3.084-1.411h1.27v11.247Z" transform="translate(-330.5 -237.939)" fill="#546675"/>
        <path id="Path_540" data-name="Path 540" d="M361.819,249.347V240.7H359.3v-1.189c1.471-.1,2.7-.564,3.084-1.411h1.27v11.247Z" transform="translate(-353.495 -237.939)" fill="#546675"/>
        <path id="Path_541" data-name="Path 541" d="M396.126,240.142v5.886a2.966,2.966,0,0,1-5.926,0v-5.886a2.966,2.966,0,0,1,5.926,0Zm-4.072.02v5.845c0,.826.4,1.29,1.129,1.29s1.129-.443,1.129-1.29v-5.845c0-.826-.4-1.29-1.129-1.29C392.437,238.872,392.054,239.336,392.054,240.162Z" transform="translate(-378.167 -237.3)" fill="#546675"/>
        <path id="Path_542" data-name="Path 542" d="M433.326,240.142v5.886a2.966,2.966,0,0,1-5.926,0v-5.886a2.966,2.966,0,0,1,5.926,0Zm-4.072.02v5.845c0,.826.4,1.29,1.129,1.29s1.129-.443,1.129-1.29v-5.845c0-.826-.4-1.29-1.129-1.29C429.637,238.872,429.254,239.336,429.254,240.162Z" transform="translate(-407.869 -237.3)" fill="#546675"/>
        <path id="Path_543" data-name="Path 543" d="M465.12,249.347V240.7H462.6v-1.189c1.471-.1,2.7-.564,3.084-1.411h1.27v11.247Z" transform="translate(-435.974 -237.939)" fill="#546675"/>
        <path id="Path_544" data-name="Path 544" d="M499.426,240.142v5.886a2.966,2.966,0,0,1-5.926,0v-5.886a2.966,2.966,0,0,1,5.926,0Zm-4.092.02v5.845c0,.826.4,1.29,1.129,1.29s1.129-.443,1.129-1.29v-5.845c0-.826-.4-1.29-1.129-1.29S495.334,239.336,495.334,240.162Z" transform="translate(-460.645 -237.3)" fill="#546675"/>
      </g>
      <g id="Group_643" data-name="Group 643" transform="translate(0.383 27.453)">
        <path id="Path_545" data-name="Path 545" d="M338.326,308.642v5.886a2.966,2.966,0,0,1-5.926,0v-5.886a2.966,2.966,0,0,1,5.926,0Zm-4.072.02v5.845c0,.826.4,1.29,1.129,1.29s1.129-.443,1.129-1.29v-5.845c0-.826-.4-1.29-1.129-1.29S334.254,307.836,334.254,308.662Z" transform="translate(-332.4 -305.8)" fill="#546675"/>
        <path id="Path_546" data-name="Path 546" d="M370.22,317.947V309.3H367.7v-1.189c1.471-.1,2.7-.564,3.084-1.411h1.27v11.247Z" transform="translate(-360.585 -306.519)" fill="#546675"/>
        <path id="Path_547" data-name="Path 547" d="M399.019,317.947V309.3H396.5v-1.189c1.471-.1,2.7-.564,3.084-1.411h1.27v11.247Z" transform="translate(-383.58 -306.519)" fill="#546675"/>
        <path id="Path_548" data-name="Path 548" d="M433.326,308.642v5.886a2.966,2.966,0,0,1-5.926,0v-5.886a2.966,2.966,0,0,1,5.926,0Zm-4.072.02v5.845c0,.826.4,1.29,1.129,1.29s1.129-.443,1.129-1.29v-5.845c0-.826-.4-1.29-1.129-1.29C429.637,307.372,429.254,307.836,429.254,308.662Z" transform="translate(-408.252 -305.8)" fill="#546675"/>
        <path id="Path_549" data-name="Path 549" d="M470.526,308.642v5.886a2.966,2.966,0,0,1-5.926,0v-5.886a2.966,2.966,0,0,1,5.926,0Zm-4.072.02v5.845c0,.826.4,1.29,1.129,1.29s1.129-.443,1.129-1.29v-5.845c0-.826-.4-1.29-1.129-1.29C466.837,307.372,466.454,307.836,466.454,308.662Z" transform="translate(-437.953 -305.8)" fill="#546675"/>
        <path id="Path_550" data-name="Path 550" d="M502.319,317.947V309.3H499.8v-1.189c1.471-.1,2.7-.564,3.084-1.411h1.27v11.247Z" transform="translate(-466.058 -306.519)" fill="#546675"/>
      </g>
      <g id="Group_644" data-name="Group 644" transform="translate(0.383 41.441)">
        <path id="Path_551" data-name="Path 551" d="M338.326,378.042v5.886a2.966,2.966,0,0,1-5.926,0v-5.886a2.966,2.966,0,0,1,5.926,0Zm-4.072.02v5.845c0,.826.4,1.29,1.129,1.29s1.129-.443,1.129-1.29v-5.845c0-.826-.4-1.29-1.129-1.29S334.254,377.236,334.254,378.062Z" transform="translate(-332.4 -375.2)" fill="#546675"/>
        <path id="Path_552" data-name="Path 552" d="M370.22,387.267V378.62H367.7v-1.209c1.471-.1,2.7-.564,3.084-1.411h1.27v11.247H370.22Z" transform="translate(-360.585 -375.839)" fill="#546675"/>
        <path id="Path_553" data-name="Path 553" d="M399.019,387.267V378.62H396.5v-1.209c1.471-.1,2.7-.564,3.084-1.411h1.27v11.247h-1.834Z" transform="translate(-383.58 -375.839)" fill="#546675"/>
        <path id="Path_554" data-name="Path 554" d="M433.326,378.042v5.886a2.966,2.966,0,0,1-5.926,0v-5.886a2.966,2.966,0,0,1,5.926,0Zm-4.072.02v5.845c0,.826.4,1.29,1.129,1.29s1.129-.443,1.129-1.29v-5.845c0-.826-.4-1.29-1.129-1.29C429.637,376.772,429.254,377.236,429.254,378.062Z" transform="translate(-408.252 -375.2)" fill="#546675"/>
        <path id="Path_555" data-name="Path 555" d="M470.526,378.042v5.886a2.966,2.966,0,0,1-5.926,0v-5.886a2.966,2.966,0,0,1,5.926,0Zm-4.072.02v5.845c0,.826.4,1.29,1.129,1.29s1.129-.443,1.129-1.29v-5.845c0-.826-.4-1.29-1.129-1.29C466.837,376.772,466.454,377.236,466.454,378.062Z" transform="translate(-437.953 -375.2)" fill="#546675"/>
        <path id="Path_556" data-name="Path 556" d="M502.319,387.267V378.62H499.8v-1.209c1.471-.1,2.7-.564,3.084-1.411h1.27v11.247h-1.834Z" transform="translate(-466.058 -375.839)" fill="#546675"/>
      </g>
    </g>
    <path id="Path_557" data-name="Path 557" d="M501.232,135.552H490.569a3.776,3.776,0,0,1-3.769-3.769V121.1" transform="translate(-161.524 0)" fill="#4f616f"/>
    <g id="Group_646" data-name="Group 646" transform="translate(315.52 163.811)">
      <path id="Path_558" data-name="Path 558" d="M480.934,333h-3.245a6.31,6.31,0,0,0-6.289,6.289v6.289a6.31,6.31,0,0,0,6.289,6.289h3.245a6.31,6.31,0,0,0,6.289-6.289v-6.289A6.3,6.3,0,0,0,480.934,333Zm2.62,10.481a3.372,3.372,0,0,1-3.366,3.366h-1.733a3.372,3.372,0,0,1-3.366-3.366v-3.366a3.372,3.372,0,0,1,3.366-3.366h1.733a3.372,3.372,0,0,1,3.366,3.366Z" transform="translate(-464.748 -333)" fill="#7d96af"/>
      <path id="Path_559" data-name="Path 559" d="M467.506,410.306a2.959,2.959,0,0,1-2.943,2.943h-23.22a2.959,2.959,0,0,1-2.943-2.943V391.843a2.959,2.959,0,0,1,2.943-2.943h23.2a2.959,2.959,0,0,1,2.943,2.943v18.463Z" transform="translate(-438.4 -377.633)" fill="#7d96af"/>
      <rect id="Rectangle_264" data-name="Rectangle 264" width="28.844" height="4.535" transform="translate(0.121 17.032)" fill="#4f616f"/>
    </g>
  </g>
</svg>
