<svg xmlns="http://www.w3.org/2000/svg" width="30.957" height="31.678" viewBox="0 0 30.957 31.678">
  <path id="Path_716" data-name="Path 716" d="M31.326,9.556A15.492,15.492,0,0,0,11.837,7.741L11.82,5.433a.7.7,0,0,0-.709-.7l-1.406.011a.7.7,0,0,0-.7.708l.039,5.262a1.406,1.406,0,0,0,1.406,1.4h.011l5.263-.039a.7.7,0,0,0,.7-.709l-.011-1.406a.7.7,0,0,0-.708-.7l-.895.006A12.647,12.647,0,0,1,32.025,25.736a.7.7,0,0,0,.307.914l1.255.641a.714.714,0,0,0,.97-.328A15.414,15.414,0,0,0,31.326,9.556Zm-.839,19.481h-.011l-5.263.039a.7.7,0,0,0-.7.709l.011,1.406a.7.7,0,0,0,.708.7l.894-.006A12.647,12.647,0,0,1,8.915,15.413a.7.7,0,0,0-.307-.914l-1.255-.641a.714.714,0,0,0-.97.328A15.47,15.47,0,0,0,29.1,33.406l.017,2.309a.7.7,0,0,0,.709.7l1.406-.011a.7.7,0,0,0,.7-.708l-.039-5.262A1.4,1.4,0,0,0,30.487,29.037Z" transform="translate(-4.992 -4.735)" fill="#fff"/>
</svg>
