<svg xmlns="http://www.w3.org/2000/svg" xmlns:xlink="http://www.w3.org/1999/xlink" width="34" height="34" viewBox="0 0 34 34">
  <defs>
    <linearGradient id="linear-gradient" x1="0.5" x2="0.5" y2="1" gradientUnits="objectBoundingBox">
      <stop offset="0" stop-color="#f26a23"/>
      <stop offset="1" stop-color="#fada21"/>
    </linearGradient>
  </defs>
  <g id="p" transform="translate(211 -6367)">
    <rect id="Rectangle_2769" data-name="Rectangle 2769" width="34" height="34" rx="6" transform="translate(-211 6367)" fill="url(#linear-gradient)"/>
    <g id="Group_33307" data-name="Group 33307" transform="translate(-199 6377)">
      <path id="Path_70634" data-name="Path 70634" d="M9.173-118.843a7.006,7.006,0,0,1,1.058.2q.5.135.933.3v.6H5.481v-.6a3.936,3.936,0,0,1,.85-.311q.436-.1.85-.187v-12.3a6.472,6.472,0,0,1-.892-.218q-.415-.135-.809-.3v-.6H7.348q.83,0,1.8-.083t1.867-.083a9.106,9.106,0,0,1,1.991.218,4.936,4.936,0,0,1,1.732.736,3.881,3.881,0,0,1,1.224,1.379,4.463,4.463,0,0,1,.467,2.147,4.3,4.3,0,0,1-.477,2.1,4.167,4.167,0,0,1-1.276,1.431,5.5,5.5,0,0,1-1.815.819,8.443,8.443,0,0,1-2.1.259h-.322q-.218,0-.467-.01t-.477-.031q-.228-.021-.332-.041Zm1.411-12.508q-.5,0-.809.021a4.2,4.2,0,0,0-.6.083v6.721a.987.987,0,0,0,.3.052q.2.01.415.031t.425.021h.332a4.648,4.648,0,0,0,1.369-.2,2.988,2.988,0,0,0,1.13-.633,3.133,3.133,0,0,0,.778-1.1,3.971,3.971,0,0,0,.29-1.6,3.223,3.223,0,0,0-.965-2.551A3.892,3.892,0,0,0,10.584-131.351Z" transform="translate(-5.481 132.429)" fill="#fff"/>
    </g>
  </g>
</svg>
