<svg xmlns="http://www.w3.org/2000/svg" xmlns:xlink="http://www.w3.org/1999/xlink" width="34" height="34" viewBox="0 0 34 34">
  <defs>
    <linearGradient id="linear-gradient" x1="0.5" x2="0.5" y2="1" gradientUnits="objectBoundingBox">
      <stop offset="0" stop-color="#f26a23"/>
      <stop offset="1" stop-color="#fada21"/>
    </linearGradient>
  </defs>
  <g id="stake." transform="translate(211 -6367)">
    <rect id="Rectangle_2769" data-name="Rectangle 2769" width="34" height="34" rx="6" transform="translate(-211 6367)" fill="url(#linear-gradient)"/>
    <path id="Icon_awesome-database" data-name="Icon awesome-database" d="M12.683,2.043V3.32c0,1.125-2.84,2.043-6.341,2.043S0,4.445,0,3.32V2.043C0,.918,2.84,0,6.341,0S12.683.918,12.683,2.043Zm0,2.873V7.788c0,1.125-2.84,2.043-6.341,2.043S0,8.914,0,7.788V4.916c1.362.926,3.856,1.357,6.341,1.357S11.32,5.841,12.683,4.916Zm0,4.469v2.873c0,1.125-2.84,2.043-6.341,2.043S0,13.382,0,12.257V9.384c1.362.926,3.856,1.357,6.341,1.357S11.32,10.31,12.683,9.384Z" transform="translate(-200 6377)" fill="#fff"/>
  </g>
</svg>
