<svg xmlns="http://www.w3.org/2000/svg" xmlns:xlink="http://www.w3.org/1999/xlink" width="34" height="34" viewBox="0 0 34 34">
  <defs>
    <linearGradient id="linear-gradient" x1="0.5" x2="0.5" y2="1" gradientUnits="objectBoundingBox">
      <stop offset="0" stop-color="#f26a23"/>
      <stop offset="1" stop-color="#fada21"/>
    </linearGradient>
  </defs>
  <g id="t1" transform="translate(211 -6367)">
    <rect id="Rectangle_2769" data-name="Rectangle 2769" width="34" height="34" rx="6" transform="translate(-211 6367)" fill="url(#linear-gradient)"/>
    <g id="noun_transaction_3139183" transform="translate(-209.45 6353.5)">
      <g id="Group_33098" data-name="Group 33098" transform="translate(2.45 23.5)">
        <path id="Path_80932" data-name="Path 80932" d="M43.939,37.627H43.33a.666.666,0,0,1-.529-.238.73.73,0,0,1,.582-1.218H44.1a.482.482,0,0,1,.477.4.2.2,0,0,0,.212.159h.794a.189.189,0,0,0,.159-.079.2.2,0,0,0,.053-.159,1.722,1.722,0,0,0-1.562-1.535v-.741A.209.209,0,0,0,44.019,34h-.794a.209.209,0,0,0-.212.212v.741A1.947,1.947,0,0,0,41.371,37.1a2.036,2.036,0,0,0,2.038,1.774h.529a.666.666,0,0,1,.529.238.73.73,0,0,1-.582,1.218h-.715a.482.482,0,0,1-.477-.4.2.2,0,0,0-.212-.159h-.794a.189.189,0,0,0-.159.079.194.194,0,0,0-.053.159,1.722,1.722,0,0,0,1.562,1.535v.741a.209.209,0,0,0,.212.212h.794a.209.209,0,0,0,.212-.212v-.768A1.991,1.991,0,0,0,45.9,39.771a1.95,1.95,0,0,0-.5-1.509A1.906,1.906,0,0,0,43.939,37.627Z" transform="translate(-31.06 -31.22)" fill="#fff"/>
        <path id="Path_80933" data-name="Path 80933" d="M27.428,34.328l-2.012-2.012a.655.655,0,0,0-.927.927l.874.874H20.995a6.989,6.989,0,0,0-10.934-8.551H4.713l.874-.874a.655.655,0,0,0-.927-.927L2.649,25.777a.64.64,0,0,0,0,.927l2.012,2.012a.638.638,0,0,0,.477.185.649.649,0,0,0,.477-1.112l-.9-.9H9.082A6.989,6.989,0,0,0,20.015,35.44h5.348l-.874.874a.665.665,0,0,0,.953.927l2.012-2.012A.685.685,0,0,0,27.428,34.328Zm-12.39,1.853A5.665,5.665,0,1,1,20.7,30.516,5.672,5.672,0,0,1,15.038,36.181Z" transform="translate(-2.45 -23.5)" fill="#fff"/>
      </g>
    </g>
  </g>
</svg>
